ISO-10303-21;
HEADER;
FILE_DESCRIPTION (( 'STEP AP203' ),
    '1' );
FILE_NAME ('OutRunnerEccentricCam.STEP',
    '2026-02-26T13:25:56',
    ( '' ),
    ( '' ),
    'SwSTEP 2.0',
    'SolidWorks 2024',
    '' );
FILE_SCHEMA (( 'CONFIG_CONTROL_DESIGN' ));
ENDSEC;

DATA;
#1 = ORIENTED_EDGE ( 'NONE', *, *, #1077, .T. ) ;
#2 = ORIENTED_EDGE ( 'NONE', *, *, #221, .T. ) ;
#3 = DATE_AND_TIME ( #367, #644 ) ;
#4 = DIRECTION ( 'NONE',  ( 0.000000000000000000, 0.000000000000000000, -1.000000000000000000 ) ) ;
#5 = CARTESIAN_POINT ( 'NONE',  ( 0.7500000000000000000, 15.40000000000000036, 7.758315481586230702E-17 ) ) ;
#6 = ORIENTED_EDGE ( 'NONE', *, *, #498, .F. ) ;
#7 = ADVANCED_FACE ( 'NONE', ( #991 ), #715, .T. ) ;
#8 = CARTESIAN_POINT ( 'NONE',  ( -2.525000000000002132, 6.300000000000001599, -3.230228320103702977 ) ) ;
#9 = VERTEX_POINT ( 'NONE', #281 ) ;
#10 = CARTESIAN_POINT ( 'NONE',  ( 1.536233865666790654, 5.581880088839482390, 3.804836708623651198 ) ) ;
#11 = CARTESIAN_POINT ( 'NONE',  ( -1.755590640760089194, 6.172916779853213853, -3.712037355546077499 ) ) ;
#12 = ORIENTED_EDGE ( 'NONE', *, *, #455, .F. ) ;
#13 = AXIS2_PLACEMENT_3D ( 'NONE', #88, #318, #1109 ) ;
#14 = AXIS2_PLACEMENT_3D ( 'NONE', #161, #410, #1121 ) ;
#15 = EDGE_CURVE ( 'NONE', #859, #249, #1051, .T. ) ;
#16 = CARTESIAN_POINT ( 'NONE',  ( -0.7500000000000000000, 15.40000000000000036, -4.600000000000000533 ) ) ;
#17 = CARTESIAN_POINT ( 'NONE',  ( -2.153860455202606605, 6.239205794096166713, -3.496027025983687864 ) ) ;
#18 = ORIENTED_EDGE ( 'NONE', *, *, #124, .F. ) ;
#19 = B_SPLINE_CURVE_WITH_KNOTS ( 'NONE', 3,
 ( #720, #431, #642, #706, #369, #733 ),
 .UNSPECIFIED., .F., .F.,
 ( 4, 2, 4 ),
 ( 2.524706457993111580E-07, 0.001371677649781284734, 0.002743102828916770160 ),
 .UNSPECIFIED. ) ;
#20 = CC_DESIGN_PERSON_AND_ORGANIZATION_ASSIGNMENT ( #436, #99, ( #770 ) ) ;
#21 = DIRECTION ( 'NONE',  ( 0.000000000000000000, 0.000000000000000000, -1.000000000000000000 ) ) ;
#22 = CARTESIAN_POINT ( 'NONE',  ( 0.9099667019973807225, 9.998945655412235567, -4.001054344587767986 ) ) ;
#23 = ORIENTED_EDGE ( 'NONE', *, *, #1039, .F. ) ;
#24 = VECTOR ( 'NONE', #213, 1000.000000000000000 ) ;
#25 = ORIENTED_EDGE ( 'NONE', *, *, #60, .F. ) ;
#26 = CIRCLE ( 'NONE', #47, 4.600000000000000533 ) ;
#27 = CARTESIAN_POINT ( 'NONE',  ( -1.999999999999999556, 11.80000000000000071, -2.000000000000000888 ) ) ;
#28 = CARTESIAN_POINT ( 'NONE',  ( 2.525000000000004352, 5.385783498796421043, 3.230228320103701645 ) ) ;
#29 = VECTOR ( 'NONE', #930, 999.9999999999998863 ) ;
#30 = DIRECTION ( 'NONE',  ( 0.000000000000000000, -0.000000000000000000, 1.000000000000000000 ) ) ;
#31 = CARTESIAN_POINT ( 'NONE',  ( -3.375809180332440818, 5.178320274334940798, 2.039552923708480403 ) ) ;
#32 = ORIENTED_EDGE ( 'NONE', *, *, #1140, .T. ) ;
#33 = CIRCLE ( 'NONE', #1029, 4.100000000000000533 ) ;
#34 = AXIS2_PLACEMENT_3D ( 'NONE', #793, #273, #623 ) ;
#35 = DIRECTION ( 'NONE',  ( -0.000000000000000000, -1.000000000000000000, -0.000000000000000000 ) ) ;
#36 = LINE ( 'NONE', #486, #880 ) ;
#37 = CARTESIAN_POINT ( 'NONE',  ( 0.3750000000000000000, 0.000000000000000000, 3.879157740793115351E-17 ) ) ;
#38 = EDGE_CURVE ( 'NONE', #282, #343, #218, .T. ) ;
#39 = ORIENTED_EDGE ( 'NONE', *, *, #111, .T. ) ;
#40 = CARTESIAN_POINT ( 'NONE',  ( -1.239749136707743282E-16, 4.331966890726513419, -4.100000000000000533 ) ) ;
#41 = CARTESIAN_POINT ( 'NONE',  ( 0.7500000000000000000, 9.399999999999998579, 0.000000000000000000 ) ) ;
#42 = EDGE_CURVE ( 'NONE', #326, #266, #645, .T. ) ;
#43 = CARTESIAN_POINT ( 'NONE',  ( -1.999999999999999556, 0.000000000000000000, -2.000000000000000444 ) ) ;
#44 = AXIS2_PLACEMENT_3D ( 'NONE', #225, #374, #919 ) ;
#45 = ORIENTED_EDGE ( 'NONE', *, *, #221, .F. ) ;
#46 = CYLINDRICAL_SURFACE ( 'NONE', #508, 4.600000000000000533 ) ;
#47 = AXIS2_PLACEMENT_3D ( 'NONE', #41, #924, #1010 ) ;
#48 = DIRECTION ( 'NONE',  ( -0.000000000000000000, -1.000000000000000000, -0.000000000000000000 ) ) ;
#49 = DIRECTION ( 'NONE',  ( -0.000000000000000000, -1.000000000000000000, -0.000000000000000000 ) ) ;
#50 = ORIENTED_EDGE ( 'NONE', *, *, #865, .T. ) ;
#51 = CARTESIAN_POINT ( 'NONE',  ( 1.999999999999999556, 11.80000000000000071, -1.500000000000000222 ) ) ;
#52 = CARTESIAN_POINT ( 'NONE',  ( -2.205343931487647838E-16, 9.831966890726514308, -4.100000000000000533 ) ) ;
#53 = AXIS2_PLACEMENT_3D ( 'NONE', #1099, #118, #211 ) ;
#54 = CARTESIAN_POINT ( 'NONE',  ( 0.2536532895493863737, 9.877609514519201994, -4.100000000000000533 ) ) ;
#55 = CARTESIAN_POINT ( 'NONE',  ( 3.702408960599123500, 10.82926462418729763, 1.194485701339683459 ) ) ;
#56 = B_SPLINE_CURVE_WITH_KNOTS ( 'NONE', 3,
 ( #97, #783, #534, #171, #604, #514, #346, #634, #697, #1128 ),
 .UNSPECIFIED., .F., .F.,
 ( 4, 2, 2, 2, 4 ),
 ( 0.001986272463294102165, 0.002861963524034567396, 0.003737654584775032193, 0.004613345645515496557, 0.005489036706255960921 ),
 .UNSPECIFIED. ) ;
#57 = ORIENTED_EDGE ( 'NONE', *, *, #308, .F. ) ;
#58 = CARTESIAN_POINT ( 'NONE',  ( 1.545956863820310057, 4.062345298402941118, -3.804174581720165094 ) ) ;
#59 = ORIENTED_EDGE ( 'NONE', *, *, #1077, .F. ) ;
#60 = EDGE_CURVE ( 'NONE', #900, #942, #545, .T. ) ;
#61 = DIRECTION ( 'NONE',  ( 0.000000000000000000, 0.000000000000000000, -1.000000000000000000 ) ) ;
#62 =( LENGTH_UNIT ( ) NAMED_UNIT ( * ) SI_UNIT ( .MILLI., .METRE. ) );
#63 = CIRCLE ( 'NONE', #521, 4.600000000000001421 ) ;
#64 = CARTESIAN_POINT ( 'NONE',  ( 2.258333333333347515, 15.40000000000000036, -2.930858330857295524 ) ) ;
#65 = LINE ( 'NONE', #702, #200 ) ;
#66 = CARTESIAN_POINT ( 'NONE',  ( 2.153860455202606605, 3.960794205903829912, -3.496027025983688308 ) ) ;
#67 = CARTESIAN_POINT ( 'NONE',  ( -0.6877582502633559081, 5.990278644915090211, 4.052209987751768772 ) ) ;
#68 = ORIENTED_EDGE ( 'NONE', *, *, #390, .F. ) ;
#69 = CARTESIAN_POINT ( 'NONE',  ( -0.9040814268829829858, 4.497105536575277895, 4.024928921057814968 ) ) ;
#70 = AXIS2_PLACEMENT_3D ( 'NONE', #886, #962, #336 ) ;
#71 = AXIS2_PLACEMENT_3D ( 'NONE', #691, #1036, #782 ) ;
#72 = EDGE_CURVE ( 'NONE', #663, #249, #658, .T. ) ;
#73 = VERTEX_POINT ( 'NONE', #467 ) ;
#74 = DIRECTION ( 'NONE',  ( 0.000000000000000000, 1.000000000000000000, 0.000000000000000000 ) ) ;
#75 = DIRECTION ( 'NONE',  ( 0.000000000000000000, 0.000000000000000000, -1.000000000000000000 ) ) ;
#76 = EDGE_LOOP ( 'NONE', ( #879, #177, #454, #270 ) ) ;
#77 = DIRECTION ( 'NONE',  ( -0.000000000000000000, -1.000000000000000000, -0.000000000000000000 ) ) ;
#78 = EDGE_CURVE ( 'NONE', #326, #419, #330, .T. ) ;
#79 = CARTESIAN_POINT ( 'NONE',  ( 0.7500000000000000000, 6.299999999999998046, -4.600000000000000533 ) ) ;
#80 = VERTEX_POINT ( 'NONE', #824 ) ;
#81 = DIRECTION ( 'NONE',  ( 0.000000000000000000, 0.000000000000000000, -1.000000000000000000 ) ) ;
#82 = CARTESIAN_POINT ( 'NONE',  ( -2.293525897132143498, 6.262259657141109770, 3.411166647621858949 ) ) ;
#83 = CARTESIAN_POINT ( 'NONE',  ( -2.258333333333344850, 15.40000000000000036, -2.930858330857298633 ) ) ;
#84 = LOCAL_TIME ( 21, 25, 56.00000000000000000, #1066 ) ;
#85 = VERTEX_POINT ( 'NONE', #760 ) ;
#86 = APPROVAL_DATE_TIME ( #277, #725 ) ;
#87 = CARTESIAN_POINT ( 'NONE',  ( 0.7500000000000000000, 10.90000000000000036, 0.000000000000000000 ) ) ;
#88 = CARTESIAN_POINT ( 'NONE',  ( 0.000000000000000000, 15.40000000000000036, 0.000000000000000000 ) ) ;
#89 = ORIENTED_EDGE ( 'NONE', *, *, #816, .T. ) ;
#90 = AXIS2_PLACEMENT_3D ( 'NONE', #381, #739, #487 ) ;
#91 = VECTOR ( 'NONE', #619, 1000.000000000000000 ) ;
#92 = CARTESIAN_POINT ( 'NONE',  ( 3.382123027880951760, 10.68090167315313188, -2.043272838049489337 ) ) ;
#93 = CARTESIAN_POINT ( 'NONE',  ( 1.999999999999999556, 22.34262198308391234, -1.500000000000000222 ) ) ;
#94 = LINE ( 'NONE', #889, #830 ) ;
#95 = ORIENTED_EDGE ( 'NONE', *, *, #205, .F. ) ;
#96 = ADVANCED_FACE ( 'NONE', ( #570 ), #389, .T. ) ;
#97 = CARTESIAN_POINT ( 'NONE',  ( 0.7500000000000009992, 9.969181224614532155, 4.030818775385467845 ) ) ;
#98 = EDGE_LOOP ( 'NONE', ( #784, #734, #435, #559, #411 ) ) ;
#99 = PERSON_AND_ORGANIZATION_ROLE ( 'creator' ) ;
#100 = CARTESIAN_POINT ( 'NONE',  ( -1.766249885335669623, 4.662037893629689123, -3.728142450189545709 ) ) ;
#101 = CARTESIAN_POINT ( 'NONE',  ( -2.525000000000002132, 15.00000000000001243, -3.230228320103702977 ) ) ;
#102 = VERTEX_POINT ( 'NONE', #1102 ) ;
#103 = CC_DESIGN_APPROVAL ( #271, ( #1073 ) ) ;
#104 = DIRECTION ( 'NONE',  ( 0.000000000000000000, 0.000000000000000000, -1.000000000000000000 ) ) ;
#105 = EDGE_CURVE ( 'NONE', #1013, #134, #971, .T. ) ;
#106 = ORIENTED_EDGE ( 'NONE', *, *, #961, .F. ) ;
#107 = APPROVAL_ROLE ( '' ) ;
#108 = CARTESIAN_POINT ( 'NONE',  ( -0.7500000000000000000, 0.000000000000000000, 9.184850993605149670E-17 ) ) ;
#109 = LINE ( 'NONE', #543, #130 ) ;
#110 = CARTESIAN_POINT ( 'NONE',  ( 2.436101691436200589, 15.13334746284571608, -3.130465598522016890 ) ) ;
#111 = EDGE_CURVE ( 'NONE', #781, #1019, #479, .T. ) ;
#112 = AXIS2_PLACEMENT_3D ( 'NONE', #497, #695, #517 ) ;
#113 = B_SPLINE_CURVE_WITH_KNOTS ( 'NONE', 3,
 ( #362, #969, #253, #1138, #10, #196, #705, #1049 ),
 .UNSPECIFIED., .F., .F.,
 ( 4, 2, 2, 4 ),
 ( 0.003506612203656222625, 0.004003171242987759934, 0.004499730282319297676, 0.005492848360982374896 ),
 .UNSPECIFIED. ) ;
#114 = DIRECTION ( 'NONE',  ( -0.000000000000000000, -1.000000000000000000, -0.000000000000000000 ) ) ;
#115 = CARTESIAN_POINT ( 'NONE',  ( 0.000000000000000000, 15.40000000000000036, 0.000000000000000000 ) ) ;
#116 = DIRECTION ( 'NONE',  ( 0.000000000000000000, 0.000000000000000000, -1.000000000000000000 ) ) ;
#117 = ORIENTED_EDGE ( 'NONE', *, *, #111, .F. ) ;
#118 = DIRECTION ( 'NONE',  ( -0.000000000000000000, -1.000000000000000000, -0.000000000000000000 ) ) ;
#119 = DIRECTION ( 'NONE',  ( -8.031127203596330602E-17, 1.000000000000000000, -0.000000000000000000 ) ) ;
#120 = CARTESIAN_POINT ( 'NONE',  ( -2.347211839713588155, 15.26668224042964006, 3.030678378027359177 ) ) ;
#121 = CC_DESIGN_APPROVAL ( #567, ( #770 ) ) ;
#122 = EDGE_LOOP ( 'NONE', ( #25, #59, #694, #305 ) ) ;
#123 = CYLINDRICAL_SURFACE ( 'NONE', #1114, 4.100000000000000533 ) ;
#124 = EDGE_CURVE ( 'NONE', #938, #1013, #756, .T. ) ;
#125 = DIRECTION ( 'NONE',  ( 0.000000000000000000, 0.000000000000000000, 1.000000000000000000 ) ) ;
#126 = DIRECTION ( 'NONE',  ( -0.000000000000000000, -1.000000000000000000, -0.000000000000000000 ) ) ;
#127 = CIRCLE ( 'NONE', #1028, 4.600000000000000533 ) ;
#128 = ORIENTED_EDGE ( 'NONE', *, *, #413, .F. ) ;
#129 = CONICAL_SURFACE ( 'NONE', #789, 4.600000000000000533, 0.7853981633974485010 ) ;
#130 = VECTOR ( 'NONE', #970, 1000.000000000000000 ) ;
#131 = DIRECTION ( 'NONE',  ( 0.000000000000000000, -0.000000000000000000, 1.000000000000000000 ) ) ;
#132 = CARTESIAN_POINT ( 'NONE',  ( 2.729252310296299111, 5.302659119530927612, -3.023145027552141428 ) ) ;
#133 = CYLINDRICAL_SURFACE ( 'NONE', #507, 4.600000000000000533 ) ;
#134 = VERTEX_POINT ( 'NONE', #291 ) ;
#135 = CARTESIAN_POINT ( 'NONE',  ( -1.999999999999999556, 0.000000000000000000, -2.000000000000000444 ) ) ;
#136 = DIRECTION ( 'NONE',  ( 0.000000000000000000, 0.000000000000000000, -1.000000000000000000 ) ) ;
#137 = DIRECTION ( 'NONE',  ( -0.000000000000000000, -1.000000000000000000, -0.000000000000000000 ) ) ;
#138 = VECTOR ( 'NONE', #925, 1000.000000000000000 ) ;
#139 = EDGE_LOOP ( 'NONE', ( #335, #371, #6, #891 ) ) ;
#140 = ADVANCED_FACE ( 'NONE', ( #655, #666 ), #144, .F. ) ;
#141 = CARTESIAN_POINT ( 'NONE',  ( 0.000000000000000000, 22.34262198308391234, 0.000000000000000000 ) ) ;
#142 = AXIS2_PLACEMENT_3D ( 'NONE', #1044, #1106, #81 ) ;
#143 = CARTESIAN_POINT ( 'NONE',  ( -0.7500000000000005551, 3.899999999999999911, 0.000000000000000000 ) ) ;
#144 = PLANE ( 'NONE',  #278 ) ;
#145 = EDGE_LOOP ( 'NONE', ( #863, #236, #952, #45 ) ) ;
#146 = AXIS2_PLACEMENT_3D ( 'NONE', #87, #456, #726 ) ;
#147 = ADVANCED_FACE ( 'NONE', ( #1005 ), #1012, .T. ) ;
#148 = DIRECTION ( 'NONE',  ( -0.000000000000000000, -1.000000000000000000, -0.000000000000000000 ) ) ;
#149 = CONICAL_SURFACE ( 'NONE', #1080, 3.100000000000000533, 0.7853981633974480570 ) ;
#150 = EDGE_LOOP ( 'NONE', ( #206, #803, #975, #836 ) ) ;
#151 = CYLINDRICAL_SURFACE ( 'NONE', #967, 4.100000000000000533 ) ;
#152 = LINE ( 'NONE', #786, #391 ) ;
#153 = ORIENTED_EDGE ( 'NONE', *, *, #981, .T. ) ;
#154 = CARTESIAN_POINT ( 'NONE',  ( -2.164074221498651251, 4.740773681253788396, 3.512356238134791031 ) ) ;
#155 = ORIENTED_EDGE ( 'NONE', *, *, #677, .T. ) ;
#156 = CARTESIAN_POINT ( 'NONE',  ( -0.7500000000000005551, 3.899999999999999911, 0.000000000000000000 ) ) ;
#157 = APPLICATION_PROTOCOL_DEFINITION ( 'international standard', 'config_control_design', 1994, #430 ) ;
#158 = EDGE_CURVE ( 'NONE', #419, #182, #563, .T. ) ;
#159 = AXIS2_PLACEMENT_3D ( 'NONE', #421, #591, #785 ) ;
#160 = CARTESIAN_POINT ( 'NONE',  ( -1.658499321328354747E-16, 5.868033109273483205, -4.100000000000000533 ) ) ;
#161 = CARTESIAN_POINT ( 'NONE',  ( 0.7500000000000000000, 6.299999999999998046, 0.000000000000000000 ) ) ;
#162 = ADVANCED_FACE ( 'NONE', ( #675 ), #746, .F. ) ;
#163 = CARTESIAN_POINT ( 'NONE',  ( 2.729252310296300887, 10.39734088046906990, 3.023145027552140096 ) ) ;
#164 = CIRCLE ( 'NONE', #112, 4.600000000000000533 ) ;
#165 = VERTEX_POINT ( 'NONE', #578 ) ;
#166 = CARTESIAN_POINT ( 'NONE',  ( -3.612753190601386333, 5.286820540410940517, 1.488609935482129387 ) ) ;
#167 = ORIENTED_EDGE ( 'NONE', *, *, #15, .F. ) ;
#168 = APPROVAL_ROLE ( '' ) ;
#169 = EDGE_LOOP ( 'NONE', ( #624, #292, #587, #387 ) ) ;
#170 = CARTESIAN_POINT ( 'NONE',  ( 2.915760937699309885, 10.47610746749430888, 2.794693211596178894 ) ) ;
#171 = CARTESIAN_POINT ( 'NONE',  ( -0.4020866863066651642, 9.759912182514833390, 4.090603164456663166 ) ) ;
#172 = VERTEX_POINT ( 'NONE', #914 ) ;
#173 = PERSON_AND_ORGANIZATION_ROLE ( 'classification_officer' ) ;
#174 = VERTEX_POINT ( 'NONE', #932 ) ;
#175 = DIRECTION ( 'NONE',  ( 0.000000000000000000, -1.000000000000000000, 0.000000000000000000 ) ) ;
#176 = CARTESIAN_POINT ( 'NONE',  ( 2.525000000000003020, 10.31421650120357825, -3.230228320103702533 ) ) ;
#177 = ORIENTED_EDGE ( 'NONE', *, *, #1031, .F. ) ;
#178 = DATE_TIME_ROLE ( 'classification_date' ) ;
#179 = EDGE_CURVE ( 'NONE', #538, #165, #583, .T. ) ;
#180 = DIRECTION ( 'NONE',  ( -0.000000000000000000, -1.000000000000000000, -0.000000000000000000 ) ) ;
#181 = DIRECTION ( 'NONE',  ( 0.000000000000000000, 0.000000000000000000, -1.000000000000000000 ) ) ;
#182 = VERTEX_POINT ( 'NONE', #310 ) ;
#183 = CIRCLE ( 'NONE', #71, 4.100000000000000533 ) ;
#184 = CARTESIAN_POINT ( 'NONE',  ( -2.915930163111066342, 4.976195740025334935, 2.794093940343637339 ) ) ;
#185 = CARTESIAN_POINT ( 'NONE',  ( -2.163283458595014697, 4.740612773219466725, -3.512974360488326120 ) ) ;
#186 = CARTESIAN_POINT ( 'NONE',  ( -1.545956863820309612, 6.137654701597056395, -3.804174581720164205 ) ) ;
#187 = EDGE_LOOP ( 'NONE', ( #57, #1096 ) ) ;
#188 = CARTESIAN_POINT ( 'NONE',  ( -3.820957469306102361, 5.385850599844663300, -0.5988374069622515172 ) ) ;
#189 = ORIENTED_EDGE ( 'NONE', *, *, #444, .F. ) ;
#190 = DIRECTION ( 'NONE',  ( 0.000000000000000000, 1.000000000000000000, -0.000000000000000000 ) ) ;
#191 = LINE ( 'NONE', #351, #684 ) ;
#192 = CC_DESIGN_PERSON_AND_ORGANIZATION_ASSIGNMENT ( #1072, #901, ( #1073 ) ) ;
#193 = ORIENTED_EDGE ( 'NONE', *, *, #662, .F. ) ;
#194 = ORIENTED_EDGE ( 'NONE', *, *, #275, .T. ) ;
#195 = CALENDAR_DATE ( 2026, 26, 2 ) ;
#196 = CARTESIAN_POINT ( 'NONE',  ( 1.983911694938608417, 5.494734213104597309, 3.602954601980455251 ) ) ;
#197 = DIRECTION ( 'NONE',  ( -0.000000000000000000, -1.000000000000000000, -0.000000000000000000 ) ) ;
#198 = ADVANCED_FACE ( 'NONE', ( #302 ), #133, .T. ) ;
#199 = CARTESIAN_POINT ( 'NONE',  ( 0.7500000000000004441, 10.90000000000000036, 3.100000000000000533 ) ) ;
#200 = VECTOR ( 'NONE', #611, 1000.000000000000000 ) ;
#201 = ORIENTED_EDGE ( 'NONE', *, *, #574, .T. ) ;
#202 = FACE_BOUND ( 'NONE', #640, .T. ) ;
#203 = CARTESIAN_POINT ( 'NONE',  ( 0.7499999999999993339, 5.730818775385465358, -4.030818775385467845 ) ) ;
#204 = EDGE_LOOP ( 'NONE', ( #106, #214, #317, #288 ) ) ;
#205 = EDGE_CURVE ( 'NONE', #565, #446, #272, .T. ) ;
#206 = ORIENTED_EDGE ( 'NONE', *, *, #341, .F. ) ;
#207 = DIRECTION ( 'NONE',  ( 0.000000000000000000, 1.000000000000000000, 0.000000000000000000 ) ) ;
#208 = CARTESIAN_POINT ( 'NONE',  ( 3.850251060467121178, 4.799878519158514933, -0.3027994977169763402 ) ) ;
#209 = CARTESIAN_POINT ( 'NONE',  ( 0.7500000000000000000, 15.40000000000000036, 7.758315481586230702E-17 ) ) ;
#210 = ORIENTED_EDGE ( 'NONE', *, *, #179, .T. ) ;
#211 = DIRECTION ( 'NONE',  ( 0.000000000000000000, 0.000000000000000000, -1.000000000000000000 ) ) ;
#212 = CARTESIAN_POINT ( 'NONE',  ( 3.384162696625891087, 5.018173948181861910, -2.039103471398290957 ) ) ;
#213 = DIRECTION ( 'NONE',  ( -0.000000000000000000, -1.000000000000000000, -0.000000000000000000 ) ) ;
#214 = ORIENTED_EDGE ( 'NONE', *, *, #237, .T. ) ;
#215 = VECTOR ( 'NONE', #1125, 1000.000000000000000 ) ;
#216 = AXIS2_PLACEMENT_3D ( 'NONE', #603, #175, #524 ) ;
#217 = DIRECTION ( 'NONE',  ( -0.000000000000000000, -1.000000000000000000, -0.000000000000000000 ) ) ;
#218 = B_SPLINE_CURVE_WITH_KNOTS ( 'NONE', 3,
 ( #722, #1064, #110, #274 ),
 .UNSPECIFIED., .F., .F.,
 ( 4, 4 ),
 ( 0.000000000000000000, 0.0005663333837700984096 ),
 .UNSPECIFIED. ) ;
#219 = CARTESIAN_POINT ( 'NONE',  ( -0.7500000000000005551, 3.899999999999999911, 0.000000000000000000 ) ) ;
#220 = DIRECTION ( 'NONE',  ( 0.000000000000000000, 0.000000000000000000, -1.000000000000000000 ) ) ;
#221 = EDGE_CURVE ( 'NONE', #579, #510, #481, .T. ) ;
#222 = ORIENTED_EDGE ( 'NONE', *, *, #38, .T. ) ;
#223 = DIRECTION ( 'NONE',  ( -0.000000000000000000, -1.000000000000000000, -0.000000000000000000 ) ) ;
#224 = CARTESIAN_POINT ( 'NONE',  ( -0.7500000000000000000, 15.00000000000001243, 9.184850993605149670E-17 ) ) ;
#225 = CARTESIAN_POINT ( 'NONE',  ( 0.000000000000000000, 11.80000000000000071, 0.000000000000000000 ) ) ;
#226 = ADVANCED_FACE ( 'NONE', ( #690 ), #858, .F. ) ;
#227 = B_SPLINE_CURVE_WITH_KNOTS ( 'NONE', 3,
 ( #280, #22, #531, #814, #806, #884, #727, #714 ),
 .UNSPECIFIED., .F., .F.,
 ( 4, 2, 2, 4 ),
 ( 0.003506612203656222192, 0.004003171242987759934, 0.004499730282319296809, 0.005492848360982372294 ),
 .UNSPECIFIED. ) ;
#228 = ORIENTED_EDGE ( 'NONE', *, *, #1014, .T. ) ;
#229 = CIRCLE ( 'NONE', #544, 4.200000000000017053 ) ;
#230 = CARTESIAN_POINT ( 'NONE',  ( 1.836970198721030181E-16, 11.80000000000000071, -1.500000000000000222 ) ) ;
#231 = CARTESIAN_POINT ( 'NONE',  ( 2.525000000000003464, 5.385783498796421043, -3.230228320103702977 ) ) ;
#232 = CARTESIAN_POINT ( 'NONE',  ( 3.820160068985405388, 10.88546801296386235, 0.6036377945255215760 ) ) ;
#233 = AXIS2_PLACEMENT_3D ( 'NONE', #813, #190, #21 ) ;
#234 = ORIENTED_EDGE ( 'NONE', *, *, #105, .T. ) ;
#235 = CARTESIAN_POINT ( 'NONE',  ( 0.8976149048678746523, 4.172833446730288998, 4.026657236681039365 ) ) ;
#236 = ORIENTED_EDGE ( 'NONE', *, *, #855, .F. ) ;
#237 = EDGE_CURVE ( 'NONE', #332, #85, #152, .T. ) ;
#238 = DIRECTION ( 'NONE',  ( 0.000000000000000000, -1.000000000000000000, 0.000000000000000000 ) ) ;
#239 = CYLINDRICAL_SURFACE ( 'NONE', #902, 4.100000000000000533 ) ;
#240 = EDGE_CURVE ( 'NONE', #730, #80, #947, .T. ) ;
#241 = ORIENTED_EDGE ( 'NONE', *, *, #939, .F. ) ;
#242 = EDGE_CURVE ( 'NONE', #565, #458, #610, .T. ) ;
#243 = APPROVAL_PERSON_ORGANIZATION ( #731, #271, #107 ) ;
#244 = DIRECTION ( 'NONE',  ( 0.000000000000000000, 1.000000000000000000, 0.000000000000000000 ) ) ;
#245 = CARTESIAN_POINT ( 'NONE',  ( 3.819142741191022594, 10.88497734744215784, -0.6107663392647094680 ) ) ;
#246 = VERTEX_POINT ( 'NONE', #231 ) ;
#247 = FACE_OUTER_BOUND ( 'NONE', #605, .T. ) ;
#248 = DIRECTION ( 'NONE',  ( -0.000000000000000000, -1.000000000000000000, -0.000000000000000000 ) ) ;
#249 = VERTEX_POINT ( 'NONE', #492 ) ;
#250 = EDGE_CURVE ( 'NONE', #960, #332, #1097, .T. ) ;
#251 = CARTESIAN_POINT ( 'NONE',  ( -2.525000000000002132, 4.814216501203579135, -3.230228320103702977 ) ) ;
#252 = CARTESIAN_POINT ( 'NONE',  ( -0.7500000000000000000, 15.40000000000000036, 9.184850993605149670E-17 ) ) ;
#253 = CARTESIAN_POINT ( 'NONE',  ( 1.068241330209100060, 5.671275021306978026, 3.961788365404605106 ) ) ;
#254 = CARTESIAN_POINT ( 'NONE',  ( 0.000000000000000000, 11.80000000000000071, 1.500000000000000222 ) ) ;
#255 = ORIENTED_EDGE ( 'NONE', *, *, #953, .T. ) ;
#256 = CARTESIAN_POINT ( 'NONE',  ( -1.999999999999999556, 11.80000000000000071, -1.500000000000000222 ) ) ;
#257 = EDGE_CURVE ( 'NONE', #730, #1006, #1095, .T. ) ;
#258 = DIRECTION ( 'NONE',  ( 0.000000000000000000, 1.000000000000000000, -0.000000000000000000 ) ) ;
#259 = CARTESIAN_POINT ( 'NONE',  ( -2.347211839713583270, 15.26668224042964006, -3.030678378027363618 ) ) ;
#260 = DIRECTION ( 'NONE',  ( 8.659560562354931626E-17, -0.7071067811865477948, 0.7071067811865473507 ) ) ;
#261 = CARTESIAN_POINT ( 'NONE',  ( -3.702531528292051011, 5.329321159510162609, -1.194663724965218998 ) ) ;
#262 = ORIENTED_EDGE ( 'NONE', *, *, #554, .F. ) ;
#263 = CARTESIAN_POINT ( 'NONE',  ( 2.525000000000004352, 15.00000000000001243, 3.230228320103701645 ) ) ;
#264 = CARTESIAN_POINT ( 'NONE',  ( -0.2271478949511287759, 5.908906326147485899, -4.100000000000005862 ) ) ;
#265 = AXIS2_PLACEMENT_3D ( 'NONE', #635, #817, #549 ) ;
#266 = VERTEX_POINT ( 'NONE', #1108 ) ;
#267 = AXIS2_PLACEMENT_3D ( 'NONE', #477, #207, #131 ) ;
#268 = CONICAL_SURFACE ( 'NONE', #1115, 4.600000000000000533, 0.7853981633974485010 ) ;
#269 = CARTESIAN_POINT ( 'NONE',  ( 3.849745816441775492, 10.89987700798558556, -0.3103800561777450007 ) ) ;
#270 = ORIENTED_EDGE ( 'NONE', *, *, #1094, .F. ) ;
#271 = APPROVAL ( #541, 'UNSPECIFIED' ) ;
#272 = B_SPLINE_CURVE_WITH_KNOTS ( 'NONE', 3,
 ( #1083, #671, #120, #834 ),
 .UNSPECIFIED., .F., .F.,
 ( 4, 4 ),
 ( 0.000000000000000000, 0.0005663333837700984096 ),
 .UNSPECIFIED. ) ;
#273 = DIRECTION ( 'NONE',  ( -0.000000000000000000, 1.000000000000000000, -0.000000000000000000 ) ) ;
#274 = CARTESIAN_POINT ( 'NONE',  ( 2.525000000000003020, 15.00000000000001243, -3.230228320103702533 ) ) ;
#275 = EDGE_CURVE ( 'NONE', #276, #790, #286, .T. ) ;
#276 = VERTEX_POINT ( 'NONE', #856 ) ;
#277 = DATE_AND_TIME ( #791, #84 ) ;
#278 = AXIS2_PLACEMENT_3D ( 'NONE', #37, #750, #30 ) ;
#279 = CARTESIAN_POINT ( 'NONE',  ( 0.000000000000000000, 15.40000000000000036, 0.000000000000000000 ) ) ;
#280 = CARTESIAN_POINT ( 'NONE',  ( 0.7500000000000004441, 9.969181224614532155, -4.030818775385467845 ) ) ;
#281 = CARTESIAN_POINT ( 'NONE',  ( 2.000000000000000444, 11.80000000000000071, -2.000000000000000444 ) ) ;
#282 = VERTEX_POINT ( 'NONE', #64 ) ;
#283 = DIRECTION ( 'NONE',  ( 0.000000000000000000, 0.7071067811865473507, 0.7071067811865477948 ) ) ;
#284 = DIRECTION ( 'NONE',  ( -0.000000000000000000, 1.000000000000000000, -0.000000000000000000 ) ) ;
#285 = ORIENTED_EDGE ( 'NONE', *, *, #899, .T. ) ;
#286 = CIRCLE ( 'NONE', #936, 3.700000000000016609 ) ;
#287 = AXIS2_PLACEMENT_3D ( 'NONE', #844, #35, #653 ) ;
#288 = ORIENTED_EDGE ( 'NONE', *, *, #953, .F. ) ;
#289 = CARTESIAN_POINT ( 'NONE',  ( -0.9023449132014547125, 4.496774976580037553, -4.025476176053341071 ) ) ;
#290 = CARTESIAN_POINT ( 'NONE',  ( 3.693853233498748168, 4.874723010691276670, 1.197863120514543134 ) ) ;
#291 = CARTESIAN_POINT ( 'NONE',  ( 0.7500000000000004441, 9.969181224614532155, -4.030818775385467845 ) ) ;
#292 = ORIENTED_EDGE ( 'NONE', *, *, #124, .T. ) ;
#293 = EDGE_CURVE ( 'NONE', #650, #172, #738, .T. ) ;
#294 = FACE_OUTER_BOUND ( 'NONE', #352, .T. ) ;
#295 = CARTESIAN_POINT ( 'NONE',  ( 3.242820602019657272, 5.081793557296903963, 2.302948325245992578 ) ) ;
#296 = CARTESIAN_POINT ( 'NONE',  ( 0.5040351359113918184, 9.923415424079673031, -4.076584575920326969 ) ) ;
#297 = AXIS2_PLACEMENT_3D ( 'NONE', #601, #1130, #945 ) ;
#298 = EDGE_LOOP ( 'NONE', ( #915, #201, #1132 ) ) ;
#299 = CARTESIAN_POINT ( 'NONE',  ( 1.388399005766473682, 5.610659983871828516, -3.871570899377079655 ) ) ;
#300 = DIRECTION ( 'NONE',  ( 0.000000000000000000, -1.000000000000000000, 0.000000000000000000 ) ) ;
#301 = ADVANCED_FACE ( 'NONE', ( #805 ), #376, .T. ) ;
#302 = FACE_OUTER_BOUND ( 'NONE', #150, .T. ) ;
#303 = AXIS2_PLACEMENT_3D ( 'NONE', #693, #764, #400 ) ;
#304 = CIRCLE ( 'NONE', #1098, 4.100000000000000533 ) ;
#305 = ORIENTED_EDGE ( 'NONE', *, *, #308, .T. ) ;
#306 = VECTOR ( 'NONE', #248, 1000.000000000000000 ) ;
#307 = DIRECTION ( 'NONE',  ( 1.776356839400250070E-15, 0.000000000000000000, 1.000000000000000000 ) ) ;
#308 = EDGE_CURVE ( 'NONE', #910, #942, #1079, .T. ) ;
#309 = DIRECTION ( 'NONE',  ( 0.000000000000000000, -1.000000000000000000, 0.000000000000000000 ) ) ;
#310 = CARTESIAN_POINT ( 'NONE',  ( -2.339973189144065380, 0.000000000000000000, -1.133369081141247126 ) ) ;
#311 = DIRECTION ( 'NONE',  ( 0.000000000000000000, 0.000000000000000000, 1.000000000000000000 ) ) ;
#312 = CARTESIAN_POINT ( 'NONE',  ( 0.7499999999999987788, 5.730818775385465358, 4.030818775385467845 ) ) ;
#313 = DIRECTION ( 'NONE',  ( -0.000000000000000000, -1.000000000000000000, -0.000000000000000000 ) ) ;
#314 = AXIS2_PLACEMENT_3D ( 'NONE', #774, #148, #75 ) ;
#315 =( GEOMETRIC_REPRESENTATION_CONTEXT ( 3 ) GLOBAL_UNCERTAINTY_ASSIGNED_CONTEXT ( ( #1018 ) ) GLOBAL_UNIT_ASSIGNED_CONTEXT ( ( #62, #679, #509 ) ) REPRESENTATION_CONTEXT ( 'NONE', 'WORKASPACE' ) );
#316 = B_SPLINE_CURVE_WITH_KNOTS ( 'NONE', 3,
 ( #176, #973, #809, #525, #92, #434, #354, #717, #1059, #245, #269, #847, #232, #55, #333, #869, #765, #170, #163, #1033 ),
 .UNSPECIFIED., .F., .F.,
 ( 4, 2, 2, 2, 2, 2, 2, 2, 2, 4 ),
 ( 0.003020645607048328893, 0.003925458339511597380, 0.004830271071974865868, 0.005282677438206501846, 0.005735083804438136090, 0.006639896536901405445, 0.007544709269364674800, 0.008449522001827945022, 0.009354334734291215245, 0.01025914746675448547 ),
 .UNSPECIFIED. ) ;
#317 = ORIENTED_EDGE ( 'NONE', *, *, #420, .F. ) ;
#318 = DIRECTION ( 'NONE',  ( -0.000000000000000000, -1.000000000000000000, -0.000000000000000000 ) ) ;
#319 = ADVANCED_FACE ( 'NONE', ( #355 ), #627, .T. ) ;
#320 = VECTOR ( 'NONE', #622, 1000.000000000000000 ) ;
#321 = CYLINDRICAL_SURFACE ( 'NONE', #314, 4.100000000000000533 ) ;
#322 = AXIS2_PLACEMENT_3D ( 'NONE', #115, #457, #648 ) ;
#323 = CARTESIAN_POINT ( 'NONE',  ( -2.525000000000004796, 15.40000000000000036, 3.230228320103700312 ) ) ;
#324 = ORIENTED_EDGE ( 'NONE', *, *, #205, .T. ) ;
#325 = CARTESIAN_POINT ( 'NONE',  ( -0.4596833049524077786, 4.414694987072733667, 4.099616169522423803 ) ) ;
#326 = VERTEX_POINT ( 'NONE', #536 ) ;
#327 = CARTESIAN_POINT ( 'NONE',  ( -2.525000000000004796, 15.40000000000000036, 3.230228320103700312 ) ) ;
#328 = ORIENTED_EDGE ( 'NONE', *, *, #961, .T. ) ;
#329 = CARTESIAN_POINT ( 'NONE',  ( 0.7500000000000009992, 9.969181224614532155, 4.030818775385467845 ) ) ;
#330 = CIRCLE ( 'NONE', #44, 2.600000000000000089 ) ;
#331 = CARTESIAN_POINT ( 'NONE',  ( 2.525000000000003020, 3.900000000000004352, -3.230228320103702533 ) ) ;
#332 = VERTEX_POINT ( 'NONE', #984 ) ;
#333 = CARTESIAN_POINT ( 'NONE',  ( 3.613175262444520808, 10.78701997315001293, 1.487261173578404927 ) ) ;
#334 = ADVANCED_FACE ( 'NONE', ( #429 ), #522, .F. ) ;
#335 = ORIENTED_EDGE ( 'NONE', *, *, #72, .T. ) ;
#336 = DIRECTION ( 'NONE',  ( 0.000000000000000000, -0.000000000000000000, 1.000000000000000000 ) ) ;
#337 = ORIENTED_EDGE ( 'NONE', *, *, #574, .F. ) ;
#338 = MECHANICAL_CONTEXT ( 'NONE', #430, 'mechanical' ) ;
#339 = DIRECTION ( 'NONE',  ( -0.000000000000000000, -1.000000000000000000, -0.000000000000000000 ) ) ;
#340 = DIRECTION ( 'NONE',  ( 0.000000000000000000, 0.000000000000000000, -1.000000000000000000 ) ) ;
#341 = EDGE_CURVE ( 'NONE', #343, #885, #895, .T. ) ;
#342 = CARTESIAN_POINT ( 'NONE',  ( -3.440499042489678416, 5.207706221285338444, 1.903184570771515149 ) ) ;
#343 = VERTEX_POINT ( 'NONE', #792 ) ;
#344 = CARTESIAN_POINT ( 'NONE',  ( 0.000000000000000000, 15.00000000000001243, -4.100000000000000533 ) ) ;
#345 = ORIENTED_EDGE ( 'NONE', *, *, #480, .F. ) ;
#346 = CARTESIAN_POINT ( 'NONE',  ( -1.524798365560531499, 9.565858561186217912, 3.816954296651816403 ) ) ;
#347 = VECTOR ( 'NONE', #986, 1000.000000000000000 ) ;
#348 = EDGE_LOOP ( 'NONE', ( #801, #1002, #222, #718 ) ) ;
#349 = PERSON_AND_ORGANIZATION_ROLE ( 'creator' ) ;
#350 = CARTESIAN_POINT ( 'NONE',  ( 2.347211839713587711, 15.26668224042964006, 3.030678378027360065 ) ) ;
#351 = CARTESIAN_POINT ( 'NONE',  ( 1.836970198721030181E-16, -0.0009999999999992653654, -1.500000000000000222 ) ) ;
#352 = EDGE_LOOP ( 'NONE', ( #871, #825, #1076, #807 ) ) ;
#353 = CC_DESIGN_DATE_AND_TIME_ASSIGNMENT ( #976, #798, ( #770 ) ) ;
#354 = CARTESIAN_POINT ( 'NONE',  ( 3.605928737114393545, 10.78400253672895914, -1.486133390226840989 ) ) ;
#355 = FACE_OUTER_BOUND ( 'NONE', #573, .T. ) ;
#356 = CARTESIAN_POINT ( 'NONE',  ( -2.344080529184156880, 6.270502260193064892, -3.371649179108288763 ) ) ;
#357 = ORIENTED_EDGE ( 'NONE', *, *, #399, .F. ) ;
#358 = CIRCLE ( 'NONE', #667, 3.700000000000016609 ) ;
#359 = EDGE_CURVE ( 'NONE', #942, #910, #127, .T. ) ;
#360 = AXIS2_PLACEMENT_3D ( 'NONE', #5, #450, #181 ) ;
#361 = ORIENTED_EDGE ( 'NONE', *, *, #692, .T. ) ;
#362 = CARTESIAN_POINT ( 'NONE',  ( 0.7499999999999987788, 5.730818775385465358, 4.030818775385467845 ) ) ;
#363 = CARTESIAN_POINT ( 'NONE',  ( 0.7500000000000000000, 15.40000000000000036, -4.600000000000000533 ) ) ;
#364 = B_SPLINE_CURVE_WITH_KNOTS ( 'NONE', 3,
 ( #630, #185, #100, #289, #821, #40 ),
 .UNSPECIFIED., .F., .F.,
 ( 4, 2, 4 ),
 ( 2.534468550092111753E-07, 0.001375366803634219762, 0.002750480160413430394 ),
 .UNSPECIFIED. ) ;
#365 = ORIENTED_EDGE ( 'NONE', *, *, #546, .F. ) ;
#366 = ORIENTED_EDGE ( 'NONE', *, *, #359, .T. ) ;
#367 = CALENDAR_DATE ( 2026, 26, 2 ) ;
#368 = LINE ( 'NONE', #965, #320 ) ;
#369 = CARTESIAN_POINT ( 'NONE',  ( -0.4556152413679057100, 9.749983033576807401, -4.100000000000001421 ) ) ;
#370 = EDGE_LOOP ( 'NONE', ( #1117, #958, #426, #810, #768 ) ) ;
#371 = ORIENTED_EDGE ( 'NONE', *, *, #897, .T. ) ;
#372 = DIRECTION ( 'NONE',  ( -0.000000000000000000, -1.000000000000000000, -0.000000000000000000 ) ) ;
#373 = CARTESIAN_POINT ( 'NONE',  ( 3.554429737974595493, 4.939970136097914022, 1.629182550515340111 ) ) ;
#374 = DIRECTION ( 'NONE',  ( -0.000000000000000000, -1.000000000000000000, -0.000000000000000000 ) ) ;
#375 = CARTESIAN_POINT ( 'NONE',  ( -3.700005009116824173, 5.328125563619571459, 1.203240920126287694 ) ) ;
#376 = CONICAL_SURFACE ( 'NONE', #146, 3.100000000000000533, 0.7853981633974480570 ) ;
#377 = EDGE_CURVE ( 'NONE', #165, #910, #903, .T. ) ;
#378 = CIRCLE ( 'NONE', #974, 4.600000000000000533 ) ;
#379 = EDGE_LOOP ( 'NONE', ( #526, #89, #533, #1054, #506, #1078, #922, #620, #255, #440, #743, #357 ) ) ;
#380 = CARTESIAN_POINT ( 'NONE',  ( 2.917665327269350239, 5.223065921669046929, 2.791848562478301154 ) ) ;
#381 = CARTESIAN_POINT ( 'NONE',  ( -0.7500000000000005551, 3.899999999999999911, 0.000000000000000000 ) ) ;
#382 = ORIENTED_EDGE ( 'NONE', *, *, #761, .T. ) ;
#383 = CARTESIAN_POINT ( 'NONE',  ( 0.000000000000000000, 15.00000000000001243, 0.000000000000000000 ) ) ;
#384 = CARTESIAN_POINT ( 'NONE',  ( 0.7500000000000000000, 6.299999999999998046, 0.000000000000000000 ) ) ;
#385 = DIRECTION ( 'NONE',  ( 1.000000000000000000, 0.000000000000000000, 0.000000000000000000 ) ) ;
#386 = EDGE_CURVE ( 'NONE', #1006, #174, #113, .T. ) ;
#387 = ORIENTED_EDGE ( 'NONE', *, *, #755, .F. ) ;
#388 = CARTESIAN_POINT ( 'NONE',  ( -1.999999999999999556, 0.000000000000000000, -1.500000000000000222 ) ) ;
#389 = CYLINDRICAL_SURFACE ( 'NONE', #1123, 4.600000000000000533 ) ;
#390 = EDGE_CURVE ( 'NONE', #471, #9, #368, .T. ) ;
#391 = VECTOR ( 'NONE', #598, 1000.000000000000000 ) ;
#392 = ORIENTED_EDGE ( 'NONE', *, *, #1067, .T. ) ;
#393 = CIRCLE ( 'NONE', #216, 2.600000000000000089 ) ;
#394 = DIRECTION ( 'NONE',  ( 0.000000000000000000, 0.000000000000000000, 1.000000000000000000 ) ) ;
#395 = DIRECTION ( 'NONE',  ( 0.000000000000000000, -1.000000000000000000, 0.000000000000000000 ) ) ;
#396 = CARTESIAN_POINT ( 'NONE',  ( 0.000000000000000000, 11.80000000000000071, 0.000000000000000000 ) ) ;
#397 = EDGE_LOOP ( 'NONE', ( #228, #1065, #412, #678, #710, #1026 ) ) ;
#398 = DIRECTION ( 'NONE',  ( 0.000000000000000000, 1.000000000000000000, 0.000000000000000000 ) ) ;
#399 = EDGE_CURVE ( 'NONE', #820, #730, #378, .T. ) ;
#400 = DIRECTION ( 'NONE',  ( 0.000000000000000000, 0.000000000000000000, 1.000000000000000000 ) ) ;
#401 = ORIENTED_EDGE ( 'NONE', *, *, #341, .T. ) ;
#402 = ORIENTED_EDGE ( 'NONE', *, *, #1118, .T. ) ;
#403 = CARTESIAN_POINT ( 'NONE',  ( -1.999999999999999556, 22.34262198308391234, -2.000000000000000444 ) ) ;
#404 = CARTESIAN_POINT ( 'NONE',  ( -2.525000000000002132, 15.40000000000000036, -3.230228320103702977 ) ) ;
#405 = B_SPLINE_CURVE_WITH_KNOTS ( 'NONE', 3,
 ( #28, #660, #380, #295, #1092, #373, #737, #290, #654, #665, #1000, #208, #745, #1086, #1004, #212, #568, #917, #132, #473 ),
 .UNSPECIFIED., .F., .F.,
 ( 4, 2, 2, 2, 2, 2, 2, 2, 2, 4 ),
 ( 0.003020645607048327158, 0.003925458339511597380, 0.004830271071974866735, 0.005282677438206501846, 0.005735083804438136090, 0.006639896536901405445, 0.007544709269364674800, 0.008449522001827945022, 0.009354334734291215245, 0.01025914746675448373 ),
 .UNSPECIFIED. ) ;
#406 = VECTOR ( 'NONE', #217, 1000.000000000000000 ) ;
#407 = DIRECTION ( 'NONE',  ( -0.000000000000000000, -1.000000000000000000, -0.000000000000000000 ) ) ;
#408 = AXIS2_PLACEMENT_3D ( 'NONE', #912, #48, #136 ) ;
#409 = CARTESIAN_POINT ( 'NONE',  ( 0.7499999999999987788, 5.730818775385465358, 4.030818775385467845 ) ) ;
#410 = DIRECTION ( 'NONE',  ( 0.000000000000000000, 1.000000000000000000, 0.000000000000000000 ) ) ;
#411 = ORIENTED_EDGE ( 'NONE', *, *, #1140, .F. ) ;
#412 = ORIENTED_EDGE ( 'NONE', *, *, #72, .F. ) ;
#413 = EDGE_CURVE ( 'NONE', #448, #928, #585, .T. ) ;
#414 = CARTESIAN_POINT ( 'NONE',  ( 0.7500000000000000000, 15.00000000000001243, 7.758315481586230702E-17 ) ) ;
#415 = CARTESIAN_POINT ( 'NONE',  ( 1.115715736729837371, 4.135665278651193155, -3.951823030932980263 ) ) ;
#416 = CYLINDRICAL_SURFACE ( 'NONE', #13, 4.100000000000000533 ) ;
#417 = AXIS2_PLACEMENT_3D ( 'NONE', #1001, #126, #661 ) ;
#418 = PLANE ( 'NONE',  #70 ) ;
#419 = VERTEX_POINT ( 'NONE', #883 ) ;
#420 = EDGE_CURVE ( 'NONE', #704, #85, #364, .T. ) ;
#421 = CARTESIAN_POINT ( 'NONE',  ( 0.000000000000000000, 15.40000000000000036, 0.000000000000000000 ) ) ;
#422 = CARTESIAN_POINT ( 'NONE',  ( 0.1775264718215047444, 5.836291453762529891, 4.106414793301827793 ) ) ;
#423 = B_SPLINE_CURVE_WITH_KNOTS ( 'NONE', 3,
 ( #1056, #264, #537, #631, #978, #186, #11, #17, #356, #990 ),
 .UNSPECIFIED., .F., .F.,
 ( 4, 2, 2, 2, 4 ),
 ( 0.002750480160413431262, 0.003435119296874062159, 0.004119758433334693055, 0.004804397569795324820, 0.005489036706255956584 ),
 .UNSPECIFIED. ) ;
#424 = ORIENTED_EDGE ( 'NONE', *, *, #688, .T. ) ;
#425 = FACE_OUTER_BOUND ( 'NONE', #626, .T. ) ;
#426 = ORIENTED_EDGE ( 'NONE', *, *, #795, .F. ) ;
#427 = ORIENTED_EDGE ( 'NONE', *, *, #462, .T. ) ;
#428 = DATE_AND_TIME ( #614, #445 ) ;
#429 = FACE_OUTER_BOUND ( 'NONE', #819, .T. ) ;
#430 = APPLICATION_CONTEXT ( 'configuration controlled 3d designs of mechanical parts and assemblies' ) ;
#431 = CARTESIAN_POINT ( 'NONE',  ( -2.162858705708746498, 9.459044776243139552, -3.513306380683663299 ) ) ;
#432 = CONICAL_SURFACE ( 'NONE', #1134, 3.700000000000016609, 0.7853981633974418397 ) ;
#433 = ORIENTED_EDGE ( 'NONE', *, *, #688, .F. ) ;
#434 = CARTESIAN_POINT ( 'NONE',  ( 3.554429737974595938, 10.76002986390208349, -1.629182550515341443 ) ) ;
#435 = ORIENTED_EDGE ( 'NONE', *, *, #528, .F. ) ;
#436 = PERSON_AND_ORGANIZATION ( #468, #1107 ) ;
#437 = CARTESIAN_POINT ( 'NONE',  ( 0.7500000000000000000, 6.299999999999998046, 0.000000000000000000 ) ) ;
#438 = LINE ( 'NONE', #800, #470 ) ;
#439 = ADVANCED_FACE ( 'NONE', ( #294 ), #1008, .F. ) ;
#440 = ORIENTED_EDGE ( 'NONE', *, *, #692, .F. ) ;
#441 = CARTESIAN_POINT ( 'NONE',  ( -2.525000000000005684, 4.814216501203578247, 3.230228320103700757 ) ) ;
#442 = ORIENTED_EDGE ( 'NONE', *, *, #1014, .F. ) ;
#443 = CARTESIAN_POINT ( 'NONE',  ( -2.436101691436201033, 15.13334746284571608, -3.130465598522015558 ) ) ;
#444 = EDGE_CURVE ( 'NONE', #1019, #781, #828, .T. ) ;
#445 = LOCAL_TIME ( 21, 25, 56.00000000000000000, #527 ) ;
#446 = VERTEX_POINT ( 'NONE', #999 ) ;
#447 = FACE_OUTER_BOUND ( 'NONE', #595, .T. ) ;
#448 = VERTEX_POINT ( 'NONE', #1085 ) ;
#449 = PERSON_AND_ORGANIZATION ( #468, #1107 ) ;
#450 = DIRECTION ( 'NONE',  ( 0.000000000000000000, -1.000000000000000000, 0.000000000000000000 ) ) ;
#451 = VECTOR ( 'NONE', #989, 1000.000000000000000 ) ;
#452 = CARTESIAN_POINT ( 'NONE',  ( -0.7499999999999994449, 15.40000000000000036, 4.600000000000000533 ) ) ;
#453 = AXIS2_PLACEMENT_3D ( 'NONE', #1113, #864, #340 ) ;
#454 = ORIENTED_EDGE ( 'NONE', *, *, #38, .F. ) ;
#455 = EDGE_CURVE ( 'NONE', #790, #446, #469, .T. ) ;
#456 = DIRECTION ( 'NONE',  ( -0.000000000000000000, -1.000000000000000000, -0.000000000000000000 ) ) ;
#457 = DIRECTION ( 'NONE',  ( 0.000000000000000000, 1.000000000000000000, 0.000000000000000000 ) ) ;
#458 = VERTEX_POINT ( 'NONE', #826 ) ;
#459 = ORIENTED_EDGE ( 'NONE', *, *, #386, .T. ) ;
#460 = CARTESIAN_POINT ( 'NONE',  ( 2.525000000000003020, 3.900000000000004352, -3.230228320103702533 ) ) ;
#461 = DIRECTION ( 'NONE',  ( 0.000000000000000000, 0.000000000000000000, 1.000000000000000000 ) ) ;
#462 = EDGE_CURVE ( 'NONE', #510, #266, #529, .T. ) ;
#463 = CARTESIAN_POINT ( 'NONE',  ( -0.7500000000000000000, 15.40000000000000036, 9.184850993605149670E-17 ) ) ;
#464 = ORIENTED_EDGE ( 'NONE', *, *, #275, .F. ) ;
#465 = CARTESIAN_POINT ( 'NONE',  ( 0.000000000000000000, 11.80000000000000071, 0.000000000000000000 ) ) ;
#466 = CARTESIAN_POINT ( 'NONE',  ( 1.388399005766475236, 10.08934001612816900, 3.871570899377079655 ) ) ;
#467 = CARTESIAN_POINT ( 'NONE',  ( 2.525000000000004352, 10.31421650120357825, 3.230228320103701645 ) ) ;
#468 = PERSON ( 'UNSPECIFIED', 'UNSPECIFIED', 'UNSPECIFIED', ('UNSPECIFIED'), ('UNSPECIFIED'), ('UNSPECIFIED') ) ;
#469 = CIRCLE ( 'NONE', #993, 4.200000000000017053 ) ;
#470 = VECTOR ( 'NONE', #197, 1000.000000000000000 ) ;
#471 = VERTEX_POINT ( 'NONE', #27 ) ;
#472 = CARTESIAN_POINT ( 'NONE',  ( 2.525000000000003464, 5.385783498796421043, -3.230228320103702977 ) ) ;
#473 = CARTESIAN_POINT ( 'NONE',  ( 2.525000000000003464, 5.385783498796421043, -3.230228320103702977 ) ) ;
#474 = DIRECTION ( 'NONE',  ( 0.000000000000000000, 0.000000000000000000, -1.000000000000000000 ) ) ;
#475 = EDGE_CURVE ( 'NONE', #698, #682, #532, .T. ) ;
#476 = ORIENTED_EDGE ( 'NONE', *, *, #890, .F. ) ;
#477 = CARTESIAN_POINT ( 'NONE',  ( 0.3750000000000000000, 15.40000000000000036, 3.879157740793115351E-17 ) ) ;
#478 = DIRECTION ( 'NONE',  ( -1.000000000000000000, -9.427844978134817735E-17, 0.000000000000000000 ) ) ;
#479 = CIRCLE ( 'NONE', #639, 1.500000000000000222 ) ;
#480 = EDGE_CURVE ( 'NONE', #102, #938, #33, .T. ) ;
#481 = LINE ( 'NONE', #43, #1133 ) ;
#482 = CONICAL_SURFACE ( 'NONE', #142, 3.700000000000016609, 0.7853981633974418397 ) ;
#483 = EDGE_LOOP ( 'NONE', ( #155, #2, #476, #68 ) ) ;
#484 = CC_DESIGN_APPROVAL ( #725, ( #586 ) ) ;
#485 = PLANE ( 'NONE',  #267 ) ;
#486 = CARTESIAN_POINT ( 'NONE',  ( 0.7500000000000000000, 10.90000000000000036, -3.100000000000000533 ) ) ;
#487 = DIRECTION ( 'NONE',  ( -1.000000000000000000, -9.427844978134817735E-17, 0.000000000000000000 ) ) ;
#488 = VECTOR ( 'NONE', #701, 1000.000000000000000 ) ;
#489 = ORIENTED_EDGE ( 'NONE', *, *, #158, .T. ) ;
#490 = CIRCLE ( 'NONE', #1060, 0.5000000000000002220 ) ;
#491 = DIRECTION ( 'NONE',  ( 0.000000000000000000, 0.000000000000000000, -1.000000000000000000 ) ) ;
#492 = CARTESIAN_POINT ( 'NONE',  ( 0.7500000000000005551, 9.399999999999998579, 4.600000000000000533 ) ) ;
#493 = ORIENTED_EDGE ( 'NONE', *, *, #1067, .F. ) ;
#494 = CARTESIAN_POINT ( 'NONE',  ( 2.525000000000004352, 3.900000000000004352, 3.230228320103701645 ) ) ;
#495 = PRODUCT ( 'OutRunnerEccentricCam', 'OutRunnerEccentricCam', '', ( #338 ) ) ;
#496 = CARTESIAN_POINT ( 'NONE',  ( -2.047269913181339884, 6.221648584112516644, 3.564035637697012149 ) ) ;
#497 = CARTESIAN_POINT ( 'NONE',  ( 0.7500000000000000000, 9.399999999999998579, 0.000000000000000000 ) ) ;
#498 = EDGE_CURVE ( 'NONE', #682, #820, #683, .T. ) ;
#499 = VECTOR ( 'NONE', #551, 1000.000000000000000 ) ;
#500 = CIRCLE ( 'NONE', #988, 4.600000000000001421 ) ;
#501 = DIRECTION ( 'NONE',  ( 8.031127203596330602E-17, -1.000000000000000000, 0.000000000000000000 ) ) ;
#502 = CARTESIAN_POINT ( 'NONE',  ( -1.249054761168951311, 6.087303912127907779, 3.915773154722024252 ) ) ;
#503 = ORIENTED_EDGE ( 'NONE', *, *, #420, .T. ) ;
#504 = CARTESIAN_POINT ( 'NONE',  ( -2.525000000000005684, 4.814216501203578247, 3.230228320103700757 ) ) ;
#505 = ADVANCED_FACE ( 'NONE', ( #832, #202 ), #485, .T. ) ;
#506 = ORIENTED_EDGE ( 'NONE', *, *, #755, .T. ) ;
#507 = AXIS2_PLACEMENT_3D ( 'NONE', #846, #1087, #474 ) ;
#508 = AXIS2_PLACEMENT_3D ( 'NONE', #1015, #581, #561 ) ;
#509 =( NAMED_UNIT ( * ) SI_UNIT ( $, .STERADIAN. ) SOLID_ANGLE_UNIT ( ) );
#510 = VERTEX_POINT ( 'NONE', #916 ) ;
#511 = DIRECTION ( 'NONE',  ( 0.000000000000000000, 0.000000000000000000, 1.000000000000000000 ) ) ;
#512 = ORIENTED_EDGE ( 'NONE', *, *, #546, .T. ) ;
#513 = PRODUCT_RELATED_PRODUCT_CATEGORY ( 'detail', '', ( #495 ) ) ;
#514 = CARTESIAN_POINT ( 'NONE',  ( -1.247459272898772564, 9.612970080902528025, 3.916230518172092445 ) ) ;
#515 = DIRECTION ( 'NONE',  ( -0.000000000000000000, -1.000000000000000000, -0.000000000000000000 ) ) ;
#516 = APPLICATION_CONTEXT ( 'configuration controlled 3d designs of mechanical parts and assemblies' ) ;
#517 = DIRECTION ( 'NONE',  ( 0.000000000000000000, 0.000000000000000000, -1.000000000000000000 ) ) ;
#518 = CARTESIAN_POINT ( 'NONE',  ( -1.999999999999999556, 22.34262198308391234, -2.000000000000000444 ) ) ;
#519 = ORIENTED_EDGE ( 'NONE', *, *, #242, .T. ) ;
#520 = CALENDAR_DATE ( 2026, 26, 2 ) ;
#521 = AXIS2_PLACEMENT_3D ( 'NONE', #143, #119, #845 ) ;
#522 = CYLINDRICAL_SURFACE ( 'NONE', #769, 0.5000000000000002220 ) ;
#523 = ORIENTED_EDGE ( 'NONE', *, *, #1052, .F. ) ;
#524 = DIRECTION ( 'NONE',  ( 0.000000000000000000, 0.000000000000000000, -1.000000000000000000 ) ) ;
#525 = CARTESIAN_POINT ( 'NONE',  ( 3.242820602019657272, 10.61820644270309266, -2.302948325245993910 ) ) ;
#526 = ORIENTED_EDGE ( 'NONE', *, *, #897, .F. ) ;
#527 = COORDINATED_UNIVERSAL_TIME_OFFSET ( 8, 0, .AHEAD. ) ;
#528 = EDGE_CURVE ( 'NONE', #246, #960, #1040, .T. ) ;
#529 = CIRCLE ( 'NONE', #552, 0.5000000000000002220 ) ;
#530 = DIRECTION ( 'NONE',  ( 0.000000000000000000, 0.000000000000000000, -1.000000000000000000 ) ) ;
#531 = CARTESIAN_POINT ( 'NONE',  ( 1.068241330209101392, 10.02872497869302393, -3.961788365404604217 ) ) ;
#532 = CIRCLE ( 'NONE', #287, 4.600000000000000533 ) ;
#533 = ORIENTED_EDGE ( 'NONE', *, *, #242, .F. ) ;
#534 = CARTESIAN_POINT ( 'NONE',  ( 0.1797919958066485357, 9.864117182895997260, 4.106383176301474869 ) ) ;
#535 = ORIENTED_EDGE ( 'NONE', *, *, #1052, .T. ) ;
#536 = CARTESIAN_POINT ( 'NONE',  ( 2.339973189144064492, 11.80000000000000071, -1.133369081141247126 ) ) ;
#537 = CARTESIAN_POINT ( 'NONE',  ( -0.4534832995040424808, 5.949027024211490655, -4.081046401809896196 ) ) ;
#538 = VERTEX_POINT ( 'NONE', #460 ) ;
#539 = CARTESIAN_POINT ( 'NONE',  ( -2.731666247954428250, 4.898323278509641554, -3.020697632183471093 ) ) ;
#540 = EDGE_LOOP ( 'NONE', ( #241, #831, #1089, #402 ) ) ;
#541 = APPROVAL_STATUS ( 'not_yet_approved' ) ;
#542 = DIRECTION ( 'NONE',  ( 0.000000000000000000, 0.000000000000000000, -1.000000000000000000 ) ) ;
#543 = CARTESIAN_POINT ( 'NONE',  ( 1.999999999999999556, 22.34262198308391234, -2.000000000000000444 ) ) ;
#544 = AXIS2_PLACEMENT_3D ( 'NONE', #1025, #398, #685 ) ;
#545 = LINE ( 'NONE', #452, #499 ) ;
#546 = EDGE_CURVE ( 'NONE', #9, #326, #490, .T. ) ;
#547 = ORIENTED_EDGE ( 'NONE', *, *, #865, .F. ) ;
#548 = COORDINATED_UNIVERSAL_TIME_OFFSET ( 8, 0, .AHEAD. ) ;
#549 = DIRECTION ( 'NONE',  ( 0.000000000000000000, 0.000000000000000000, 1.000000000000000000 ) ) ;
#550 = CARTESIAN_POINT ( 'NONE',  ( -0.7499999999999994449, 0.000000000000000000, 4.600000000000000533 ) ) ;
#551 = DIRECTION ( 'NONE',  ( -0.000000000000000000, -1.000000000000000000, -0.000000000000000000 ) ) ;
#552 = AXIS2_PLACEMENT_3D ( 'NONE', #753, #907, #659 ) ;
#553 = ORIENTED_EDGE ( 'NONE', *, *, #1034, .T. ) ;
#554 = EDGE_CURVE ( 'NONE', #246, #538, #1074, .T. ) ;
#555 = CARTESIAN_POINT ( 'NONE',  ( 0.7500000000000000000, 15.40000000000000036, 7.758315481586230702E-17 ) ) ;
#556 = CARTESIAN_POINT ( 'NONE',  ( -0.7499999999999994449, 3.899999999999999911, 4.600000000000001421 ) ) ;
#557 = MANIFOLD_SOLID_BREP ( 'Chamfer1', #560 ) ;
#558 = DIRECTION ( 'NONE',  ( -0.000000000000000000, -1.000000000000000000, -0.000000000000000000 ) ) ;
#559 = ORIENTED_EDGE ( 'NONE', *, *, #554, .T. ) ;
#560 = CLOSED_SHELL ( 'NONE', ( #319, #226, #983, #656, #301, #998, #96, #835, #778, #1110, #7, #837, #1088, #609, #198, #147, #590, #505, #140, #643, #716, #842, #672, #439, #162, #618, #334, #876, #638, #1127, #921, #1116 ) ) ;
#561 = DIRECTION ( 'NONE',  ( 0.000000000000000000, 0.000000000000000000, -1.000000000000000000 ) ) ;
#562 = LINE ( 'NONE', #588, #29 ) ;
#563 = LINE ( 'NONE', #1093, #24 ) ;
#564 = CIRCLE ( 'NONE', #159, 1.500000000000000222 ) ;
#565 = VERTEX_POINT ( 'NONE', #744 ) ;
#566 = DIRECTION ( 'NONE',  ( 0.000000000000000000, 0.000000000000000000, 1.000000000000000000 ) ) ;
#567 = APPROVAL ( #956, 'UNSPECIFIED' ) ;
#568 = CARTESIAN_POINT ( 'NONE',  ( 3.244546609430019934, 5.081044448902914290, -2.300371879587087776 ) ) ;
#569 = CIRCLE ( 'NONE', #1007, 4.600000000000000533 ) ;
#570 = FACE_OUTER_BOUND ( 'NONE', #139, .T. ) ;
#571 = AXIS2_PLACEMENT_3D ( 'NONE', #414, #866, #394 ) ;
#572 = AXIS2_PLACEMENT_3D ( 'NONE', #388, #395, #125 ) ;
#573 = EDGE_LOOP ( 'NONE', ( #464, #382, #345, #285 ) ) ;
#574 = EDGE_CURVE ( 'NONE', #1006, #820, #576, .T. ) ;
#575 = ADVANCED_BREP_SHAPE_REPRESENTATION ( 'OutRunnerEccentricCam', ( #557, #297 ), #315 ) ;
#576 = LINE ( 'NONE', #923, #937 ) ;
#577 = DIRECTION ( 'NONE',  ( -8.031127203596330602E-17, 1.000000000000000000, -0.000000000000000000 ) ) ;
#578 = CARTESIAN_POINT ( 'NONE',  ( -0.7500000000000000000, 3.899999999999999911, -4.600000000000001421 ) ) ;
#579 = VERTEX_POINT ( 'NONE', #135 ) ;
#580 = PRODUCT_DEFINITION_SHAPE ( 'NONE', 'NONE',  #770 ) ;
#581 = DIRECTION ( 'NONE',  ( -0.000000000000000000, -1.000000000000000000, -0.000000000000000000 ) ) ;
#582 = DIRECTION ( 'NONE',  ( 0.000000000000000000, -0.7071067811865477948, -0.7071067811865473507 ) ) ;
#583 = CIRCLE ( 'NONE', #90, 4.600000000000001421 ) ;
#584 = CARTESIAN_POINT ( 'NONE',  ( 0.7500000000000004441, 9.969181224614532155, -4.030818775385467845 ) ) ;
#585 = B_SPLINE_CURVE_WITH_KNOTS ( 'NONE', 3,
 ( #799, #350, #713, #263 ),
 .UNSPECIFIED., .F., .F.,
 ( 4, 4 ),
 ( 0.000000000000000000, 0.0005663333837700989517 ),
 .UNSPECIFIED. ) ;
#586 = SECURITY_CLASSIFICATION ( '', '', #1137 ) ;
#587 = ORIENTED_EDGE ( 'NONE', *, *, #931, .F. ) ;
#588 = CARTESIAN_POINT ( 'NONE',  ( 0.7500000000000005551, 6.299999999999998046, -4.600000000000000533 ) ) ;
#589 = B_SPLINE_CURVE_WITH_KNOTS ( 'NONE', 3,
 ( #1082, #674, #833, #466, #754, #1021 ),
 .UNSPECIFIED., .F., .F.,
 ( 4, 2, 4 ),
 ( 2.534468550097898047E-07, 0.0009932629550745558644, 0.001986272463294102165 ),
 .UNSPECIFIED. ) ;
#590 = ADVANCED_FACE ( 'NONE', ( #838 ), #46, .T. ) ;
#591 = DIRECTION ( 'NONE',  ( 0.000000000000000000, 1.000000000000000000, 0.000000000000000000 ) ) ;
#592 = CARTESIAN_POINT ( 'NONE',  ( -0.4024555284354761064, 5.940150939631088534, 4.090499682248760926 ) ) ;
#593 = EDGE_LOOP ( 'NONE', ( #979, #633, #898, #337, #459, #392 ) ) ;
#594 = CARTESIAN_POINT ( 'NONE',  ( -1.765325212155071322, 4.661862638282968874, 3.728410243164242299 ) ) ;
#595 = EDGE_LOOP ( 'NONE', ( #512, #657, #1071, #613 ) ) ;
#596 = ORIENTED_EDGE ( 'NONE', *, *, #42, .F. ) ;
#597 = CARTESIAN_POINT ( 'NONE',  ( 0.2271478949511279988, 4.291093673852512502, -4.100000000000005862 ) ) ;
#598 = DIRECTION ( 'NONE',  ( -0.000000000000000000, -1.000000000000000000, -0.000000000000000000 ) ) ;
#599 = ORIENTED_EDGE ( 'NONE', *, *, #250, .T. ) ;
#600 = LINE ( 'NONE', #941, #215 ) ;
#601 = CARTESIAN_POINT ( 'NONE',  ( 0.000000000000000000, 0.000000000000000000, 0.000000000000000000 ) ) ;
#602 = CC_DESIGN_PERSON_AND_ORGANIZATION_ASSIGNMENT ( #804, #349, ( #1073 ) ) ;
#603 = CARTESIAN_POINT ( 'NONE',  ( 0.000000000000000000, 0.000000000000000000, 0.000000000000000000 ) ) ;
#604 = CARTESIAN_POINT ( 'NONE',  ( -0.6874818419484466370, 9.709770942638275670, 4.052207401650952612 ) ) ;
#605 = EDGE_LOOP ( 'NONE', ( #361, #503, #32, #210, #1, #535, #707 ) ) ;
#606 = CIRCLE ( 'NONE', #571, 4.600000000000000533 ) ;
#607 = DIRECTION ( 'NONE',  ( 0.000000000000000000, 0.000000000000000000, -1.000000000000000000 ) ) ;
#608 = PERSON_AND_ORGANIZATION ( #468, #1107 ) ;
#609 = ADVANCED_FACE ( 'NONE', ( #911 ), #123, .T. ) ;
#610 = LINE ( 'NONE', #323, #649 ) ;
#611 = DIRECTION ( 'NONE',  ( 0.000000000000000000, -0.7071067811865521247, -0.7071067811865430208 ) ) ;
#612 = CARTESIAN_POINT ( 'NONE',  ( -2.525000000000002132, 4.814216501203579135, -3.230228320103702977 ) ) ;
#613 = ORIENTED_EDGE ( 'NONE', *, *, #390, .T. ) ;
#614 = CALENDAR_DATE ( 2026, 26, 2 ) ;
#615 = B_SPLINE_CURVE_WITH_KNOTS ( 'NONE', 3,
 ( #853, #597, #1119, #850, #415, #58, #1124, #66, #763, #331 ),
 .UNSPECIFIED., .F., .F.,
 ( 4, 2, 2, 2, 4 ),
 ( 0.002750480160413430394, 0.003435119296874061291, 0.004119758433334692188, 0.004804397569795322218, 0.005489036706255953114 ),
 .UNSPECIFIED. ) ;
#616 = DIRECTION ( 'NONE',  ( 0.000000000000000000, 0.000000000000000000, -1.000000000000000000 ) ) ;
#617 = CARTESIAN_POINT ( 'NONE',  ( 2.525000000000004352, 3.900000000000004352, 3.230228320103701645 ) ) ;
#618 = ADVANCED_FACE ( 'NONE', ( #1038 ), #1020, .F. ) ;
#619 = DIRECTION ( 'NONE',  ( -0.000000000000000000, -1.000000000000000000, -0.000000000000000000 ) ) ;
#620 = ORIENTED_EDGE ( 'NONE', *, *, #475, .F. ) ;
#621 = APPROVAL_PERSON_ORGANIZATION ( #608, #567, #168 ) ;
#622 = DIRECTION ( 'NONE',  ( 1.000000000000000000, -0.000000000000000000, 0.000000000000000000 ) ) ;
#623 = DIRECTION ( 'NONE',  ( 0.000000000000000000, 0.000000000000000000, 1.000000000000000000 ) ) ;
#624 = ORIENTED_EDGE ( 'NONE', *, *, #480, .T. ) ;
#625 = CARTESIAN_POINT ( 'NONE',  ( -3.386204156597628412, 5.182752763972403365, -2.034843644862061041 ) ) ;
#626 = EDGE_LOOP ( 'NONE', ( #523, #762, #366, #849, #1129, #262, #493, #874 ) ) ;
#627 = CONICAL_SURFACE ( 'NONE', #1058, 3.700000000000016609, 0.7853981633974418397 ) ;
#628 = COORDINATED_UNIVERSAL_TIME_OFFSET ( 8, 0, .AHEAD. ) ;
#629 = VECTOR ( 'NONE', #1016, 1000.000000000000000 ) ;
#630 = CARTESIAN_POINT ( 'NONE',  ( -2.525000000000002132, 4.814216501203579135, -3.230228320103702977 ) ) ;
#631 = CARTESIAN_POINT ( 'NONE',  ( -0.8971696036845383526, 6.026633808025621875, -4.006953149074629295 ) ) ;
#632 = CONICAL_SURFACE ( 'NONE', #408, 3.100000000000000533, 0.7853981633974480570 ) ;
#633 = ORIENTED_EDGE ( 'NONE', *, *, #1039, .T. ) ;
#634 = CARTESIAN_POINT ( 'NONE',  ( -2.047038284123595453, 9.478388541985260929, 3.564236863856996784 ) ) ;
#635 = CARTESIAN_POINT ( 'NONE',  ( 0.000000000000000000, 15.40000000000000036, 0.000000000000000000 ) ) ;
#636 = CYLINDRICAL_SURFACE ( 'NONE', #34, 1.500000000000000222 ) ;
#637 = CARTESIAN_POINT ( 'NONE',  ( 2.339973189144064492, 22.34262198308391234, -1.133369081141247126 ) ) ;
#638 = ADVANCED_FACE ( 'NONE', ( #779 ), #432, .T. ) ;
#639 = AXIS2_PLACEMENT_3D ( 'NONE', #396, #558, #1017 ) ;
#640 = EDGE_LOOP ( 'NONE', ( #943, #794 ) ) ;
#641 = SHAPE_DEFINITION_REPRESENTATION ( #580, #575 ) ;
#642 = CARTESIAN_POINT ( 'NONE',  ( -1.764910294059779172, 9.525036497322830087, -3.728844034693160836 ) ) ;
#643 = ADVANCED_FACE ( 'NONE', ( #247 ), #129, .T. ) ;
#644 = LOCAL_TIME ( 21, 25, 56.00000000000000000, #548 ) ;
#645 = LINE ( 'NONE', #637, #347 ) ;
#646 = ORIENTED_EDGE ( 'NONE', *, *, #1009, .T. ) ;
#647 = CARTESIAN_POINT ( 'NONE',  ( 1.983929622489282840, 5.494728657542223615, -3.602878887934803043 ) ) ;
#648 = DIRECTION ( 'NONE',  ( 0.000000000000000000, 0.000000000000000000, 1.000000000000000000 ) ) ;
#649 = VECTOR ( 'NONE', #339, 1000.000000000000000 ) ;
#650 = VERTEX_POINT ( 'NONE', #861 ) ;
#651 = AXIS2_PLACEMENT_3D ( 'NONE', #403, #607, #689 ) ;
#652 = ORIENTED_EDGE ( 'NONE', *, *, #899, .F. ) ;
#653 = DIRECTION ( 'NONE',  ( 0.000000000000000000, 0.000000000000000000, -1.000000000000000000 ) ) ;
#654 = CARTESIAN_POINT ( 'NONE',  ( 3.730553948569144573, 4.857298962986077662, 1.052217440266473236 ) ) ;
#655 = FACE_BOUND ( 'NONE', #145, .T. ) ;
#656 = ADVANCED_FACE ( 'NONE', ( #955 ), #771, .T. ) ;
#657 = ORIENTED_EDGE ( 'NONE', *, *, #78, .T. ) ;
#658 = CIRCLE ( 'NONE', #417, 4.600000000000000533 ) ;
#659 = DIRECTION ( 'NONE',  ( 0.000000000000000000, 0.000000000000000000, -1.000000000000000000 ) ) ;
#660 = CARTESIAN_POINT ( 'NONE',  ( 2.729421166721429870, 5.302590400183257557, 3.022973830739563272 ) ) ;
#661 = DIRECTION ( 'NONE',  ( 0.000000000000000000, 0.000000000000000000, -1.000000000000000000 ) ) ;
#662 = EDGE_CURVE ( 'NONE', #565, #102, #606, .T. ) ;
#663 = VERTEX_POINT ( 'NONE', #673 ) ;
#664 = DIRECTION ( 'NONE',  ( -0.000000000000000000, -1.000000000000000000, -0.000000000000000000 ) ) ;
#665 = CARTESIAN_POINT ( 'NONE',  ( 3.819142741191023482, 4.815022652557835237, 0.6107663392647081357 ) ) ;
#666 = FACE_OUTER_BOUND ( 'NONE', #187, .T. ) ;
#667 = AXIS2_PLACEMENT_3D ( 'NONE', #687, #244, #511 ) ;
#668 = ORIENTED_EDGE ( 'NONE', *, *, #741, .F. ) ;
#669 = CARTESIAN_POINT ( 'NONE',  ( 1.070288945444118234, 5.671223759467113545, -3.971223759467115144 ) ) ;
#670 = LINE ( 'NONE', #1100, #629 ) ;
#671 = CARTESIAN_POINT ( 'NONE',  ( -2.436101691436201477, 15.13334746284571608, 3.130465598522014670 ) ) ;
#672 = ADVANCED_FACE ( 'NONE', ( #788, #447 ), #418, .F. ) ;
#673 = CARTESIAN_POINT ( 'NONE',  ( 0.7500000000000000000, 9.399999999999998579, -4.600000000000000533 ) ) ;
#674 = CARTESIAN_POINT ( 'NONE',  ( 2.263793923333909497, 10.26106509999850047, 3.434407492045553401 ) ) ;
#675 = FACE_OUTER_BOUND ( 'NONE', #1057, .T. ) ;
#676 = DESIGN_CONTEXT ( 'detailed design', #516, 'design' ) ;
#677 = EDGE_CURVE ( 'NONE', #471, #579, #796, .T. ) ;
#678 = ORIENTED_EDGE ( 'NONE', *, *, #1037, .F. ) ;
#679 =( NAMED_UNIT ( * ) PLANE_ANGLE_UNIT ( ) SI_UNIT ( $, .RADIAN. ) );
#680 = DIRECTION ( 'NONE',  ( 0.000000000000000000, 0.000000000000000000, 1.000000000000000000 ) ) ;
#681 = LINE ( 'NONE', #404, #1101 ) ;
#682 = VERTEX_POINT ( 'NONE', #79 ) ;
#683 = CIRCLE ( 'NONE', #53, 4.600000000000000533 ) ;
#684 = VECTOR ( 'NONE', #284, 1000.000000000000000 ) ;
#685 = DIRECTION ( 'NONE',  ( 0.000000000000000000, 0.000000000000000000, 1.000000000000000000 ) ) ;
#686 = CARTESIAN_POINT ( 'NONE',  ( -1.526610138646704140, 6.134446555817849145, 3.816166349724938733 ) ) ;
#687 = CARTESIAN_POINT ( 'NONE',  ( 0.000000000000000000, 15.40000000000000036, 0.000000000000000000 ) ) ;
#688 = EDGE_CURVE ( 'NONE', #859, #458, #56, .T. ) ;
#689 = DIRECTION ( 'NONE',  ( -1.000000000000000000, 0.000000000000000000, -0.000000000000000000 ) ) ;
#690 = FACE_OUTER_BOUND ( 'NONE', #882, .T. ) ;
#691 = CARTESIAN_POINT ( 'NONE',  ( 0.000000000000000000, 15.00000000000001243, 0.000000000000000000 ) ) ;
#692 = EDGE_CURVE ( 'NONE', #80, #704, #841, .T. ) ;
#693 = CARTESIAN_POINT ( 'NONE',  ( 0.000000000000000000, -0.0009999999999992653654, 0.000000000000000000 ) ) ;
#694 = ORIENTED_EDGE ( 'NONE', *, *, #377, .T. ) ;
#695 = DIRECTION ( 'NONE',  ( -0.000000000000000000, -1.000000000000000000, -0.000000000000000000 ) ) ;
#696 = B_SPLINE_CURVE_WITH_KNOTS ( 'NONE', 3,
 ( #101, #443, #259, #985 ),
 .UNSPECIFIED., .F., .F.,
 ( 4, 4 ),
 ( 0.000000000000000000, 0.0005663333837700984096 ),
 .UNSPECIFIED. ) ;
#697 = CARTESIAN_POINT ( 'NONE',  ( -2.293594059453920142, 9.437729229436861544, 3.411113366601003172 ) ) ;
#698 = VERTEX_POINT ( 'NONE', #8 ) ;
#699 = AXIS2_PLACEMENT_3D ( 'NONE', #256, #881, #872 ) ;
#700 = FACE_OUTER_BOUND ( 'NONE', #169, .T. ) ;
#701 = DIRECTION ( 'NONE',  ( -0.000000000000000000, -1.000000000000000000, -0.000000000000000000 ) ) ;
#702 = CARTESIAN_POINT ( 'NONE',  ( 0.000000000000000000, 15.40000000000000036, -3.700000000000016609 ) ) ;
#703 = CARTESIAN_POINT ( 'NONE',  ( -3.614141935463601296, 5.287475153662650307, -1.484263673078018098 ) ) ;
#704 = VERTEX_POINT ( 'NONE', #612 ) ;
#705 = CARTESIAN_POINT ( 'NONE',  ( 2.263963562700205934, 5.438900381011224638, 3.434274888601628106 ) ) ;
#706 = CARTESIAN_POINT ( 'NONE',  ( -0.8998198592801632811, 9.672453039177581147, -4.026103625341747261 ) ) ;
#707 = ORIENTED_EDGE ( 'NONE', *, *, #795, .T. ) ;
#708 = CARTESIAN_POINT ( 'NONE',  ( -3.849738162715192757, 5.399873304573121757, 0.3065091047350609887 ) ) ;
#709 = EDGE_CURVE ( 'NONE', #419, #471, #1011, .T. ) ;
#710 = ORIENTED_EDGE ( 'NONE', *, *, #946, .T. ) ;
#711 = APPROVAL_DATE_TIME ( #3, #271 ) ;
#712 = CC_DESIGN_SECURITY_CLASSIFICATION ( #586, ( #1073 ) ) ;
#713 = CARTESIAN_POINT ( 'NONE',  ( 2.436101691436201033, 15.13334746284571608, 3.130465598522016446 ) ) ;
#714 = CARTESIAN_POINT ( 'NONE',  ( 2.525000000000003020, 10.31421650120357825, -3.230228320103702533 ) ) ;
#715 = CYLINDRICAL_SURFACE ( 'NONE', #927, 4.100000000000000533 ) ;
#716 = ADVANCED_FACE ( 'NONE', ( #1047 ), #149, .T. ) ;
#717 = CARTESIAN_POINT ( 'NONE',  ( 3.693853233498748168, 10.82527698930871907, -1.197863120514544910 ) ) ;
#718 = ORIENTED_EDGE ( 'NONE', *, *, #1034, .F. ) ;
#719 = EDGE_CURVE ( 'NONE', #885, #73, #316, .T. ) ;
#720 = CARTESIAN_POINT ( 'NONE',  ( -2.525000000000002132, 9.400000000000000355, -3.230228320103702977 ) ) ;
#721 = VECTOR ( 'NONE', #1063, 1000.000000000000000 ) ;
#722 = CARTESIAN_POINT ( 'NONE',  ( 2.258333333333347515, 15.40000000000000036, -2.930858330857295524 ) ) ;
#723 = EDGE_LOOP ( 'NONE', ( #117, #189 ) ) ;
#724 = APPROVAL_STATUS ( 'not_yet_approved' ) ;
#725 = APPROVAL ( #724, 'UNSPECIFIED' ) ;
#726 = DIRECTION ( 'NONE',  ( 0.000000000000000000, 0.000000000000000000, -1.000000000000000000 ) ) ;
#727 = CARTESIAN_POINT ( 'NONE',  ( 2.263963562700209042, 10.26109961898878176, -3.434274888601632547 ) ) ;
#728 = CARTESIAN_POINT ( 'NONE',  ( 0.000000000000000000, 15.40000000000000036, 0.000000000000000000 ) ) ;
#729 = AXIS2_PLACEMENT_3D ( 'NONE', #1022, #137, #909 ) ;
#730 = VERTEX_POINT ( 'NONE', #878 ) ;
#731 = PERSON_AND_ORGANIZATION ( #468, #1107 ) ;
#732 = DIRECTION ( 'NONE',  ( 0.000000000000000000, 0.000000000000000000, -1.000000000000000000 ) ) ;
#733 = CARTESIAN_POINT ( 'NONE',  ( -2.205343931487647838E-16, 9.831966890726514308, -4.100000000000000533 ) ) ;
#734 = ORIENTED_EDGE ( 'NONE', *, *, #250, .F. ) ;
#735 = EDGE_LOOP ( 'NONE', ( #18, #553, #401, #933, #747 ) ) ;
#736 = DIRECTION ( 'NONE',  ( 0.000000000000000000, 0.000000000000000000, 1.000000000000000000 ) ) ;
#737 = CARTESIAN_POINT ( 'NONE',  ( 3.605928737114393989, 4.915997463271039258, 1.486133390226839657 ) ) ;
#738 = CIRCLE ( 'NONE', #265, 1.500000000000000222 ) ;
#739 = DIRECTION ( 'NONE',  ( -8.031127203596330602E-17, 1.000000000000000000, -0.000000000000000000 ) ) ;
#740 = CARTESIAN_POINT ( 'NONE',  ( -3.244491313989231074, 5.118936612493603988, -2.300335922138010858 ) ) ;
#741 = EDGE_CURVE ( 'NONE', #928, #73, #600, .T. ) ;
#742 = B_SPLINE_CURVE_WITH_KNOTS ( 'NONE', 3,
 ( #617, #959, #1027, #235, #860, #325, #69, #594, #154, #504 ),
 .UNSPECIFIED., .F., .F.,
 ( 4, 2, 2, 2, 4 ),
 ( 2.524706457998302833E-07, 0.001373401443229944289, 0.002746550415814088836, 0.004119699388398233818, 0.005492848360982378365 ),
 .UNSPECIFIED. ) ;
#743 = ORIENTED_EDGE ( 'NONE', *, *, #240, .F. ) ;
#744 = CARTESIAN_POINT ( 'NONE',  ( -2.525000000000004796, 15.00000000000001243, 3.230228320103700312 ) ) ;
#745 = CARTESIAN_POINT ( 'NONE',  ( 3.820160068985405832, 4.814531987036136940, -0.6036377945255235744 ) ) ;
#746 = CYLINDRICAL_SURFACE ( 'NONE', #729, 0.5000000000000006661 ) ;
#747 = ORIENTED_EDGE ( 'NONE', *, *, #105, .F. ) ;
#748 = DIRECTION ( 'NONE',  ( 0.000000000000000000, 0.000000000000000000, 1.000000000000000000 ) ) ;
#749 = FACE_OUTER_BOUND ( 'NONE', #1136, .T. ) ;
#750 = DIRECTION ( 'NONE',  ( 0.000000000000000000, 1.000000000000000000, 0.000000000000000000 ) ) ;
#751 = LOCAL_TIME ( 21, 25, 56.00000000000000000, #982 ) ;
#752 = ORIENTED_EDGE ( 'NONE', *, *, #709, .F. ) ;
#753 = CARTESIAN_POINT ( 'NONE',  ( 1.999999999999999556, 0.000000000000000000, -1.500000000000000222 ) ) ;
#754 = CARTESIAN_POINT ( 'NONE',  ( 1.070288945444119344, 10.02877624053288663, 3.971223759467115144 ) ) ;
#755 = EDGE_CURVE ( 'NONE', #102, #963, #681, .T. ) ;
#756 = LINE ( 'NONE', #829, #138 ) ;
#757 = AXIS2_PLACEMENT_3D ( 'NONE', #141, #223, #732 ) ;
#758 = CARTESIAN_POINT ( 'NONE',  ( 0.7500000000000000000, 6.299999999999998046, 0.000000000000000000 ) ) ;
#759 = DIRECTION ( 'NONE',  ( 0.000000000000000000, 1.000000000000000000, 0.000000000000000000 ) ) ;
#760 = CARTESIAN_POINT ( 'NONE',  ( -1.239749136707743282E-16, 4.331966890726513419, -4.100000000000000533 ) ) ;
#761 = EDGE_CURVE ( 'NONE', #276, #938, #65, .T. ) ;
#762 = ORIENTED_EDGE ( 'NONE', *, *, #60, .T. ) ;
#763 = CARTESIAN_POINT ( 'NONE',  ( 2.344080529184156436, 3.929497739806930845, -3.371649179108288763 ) ) ;
#764 = DIRECTION ( 'NONE',  ( -0.000000000000000000, 1.000000000000000000, -0.000000000000000000 ) ) ;
#765 = CARTESIAN_POINT ( 'NONE',  ( 3.244546609430021267, 10.61895555109708589, 2.300371879587086443 ) ) ;
#766 = ORIENTED_EDGE ( 'NONE', *, *, #677, .F. ) ;
#767 = CYLINDRICAL_SURFACE ( 'NONE', #453, 4.600000000000000533 ) ;
#768 = ORIENTED_EDGE ( 'NONE', *, *, #386, .F. ) ;
#769 = AXIS2_PLACEMENT_3D ( 'NONE', #93, #114, #542 ) ;
#770 = PRODUCT_DEFINITION ( 'UNKNOWN', '', #1073, #676 ) ;
#771 = CONICAL_SURFACE ( 'NONE', #918, 4.600000000000000533, 0.7853981633974485010 ) ;
#772 = CIRCLE ( 'NONE', #322, 3.700000000000016165 ) ;
#773 = DIRECTION ( 'NONE',  ( 1.000000000000000000, 9.427844978134820201E-17, 0.000000000000000000 ) ) ;
#774 = CARTESIAN_POINT ( 'NONE',  ( 0.000000000000000000, 15.40000000000000036, 0.000000000000000000 ) ) ;
#775 = DIRECTION ( 'NONE',  ( 0.000000000000000000, 1.000000000000000000, 0.000000000000000000 ) ) ;
#776 = ORIENTED_EDGE ( 'NONE', *, *, #293, .T. ) ;
#777 = CARTESIAN_POINT ( 'NONE',  ( 0.7500000000000005551, 6.299999999999998046, 4.600000000000000533 ) ) ;
#778 = ADVANCED_FACE ( 'NONE', ( #1045 ), #416, .T. ) ;
#779 = FACE_OUTER_BOUND ( 'NONE', #1069, .T. ) ;
#780 = PERSON_AND_ORGANIZATION ( #468, #1107 ) ;
#781 = VERTEX_POINT ( 'NONE', #254 ) ;
#782 = DIRECTION ( 'NONE',  ( 0.000000000000000000, 0.000000000000000000, 1.000000000000000000 ) ) ;
#783 = CARTESIAN_POINT ( 'NONE',  ( 0.4675513788560888839, 9.916627022190070306, 4.083372977809930582 ) ) ;
#784 = ORIENTED_EDGE ( 'NONE', *, *, #237, .F. ) ;
#785 = DIRECTION ( 'NONE',  ( 0.000000000000000000, 0.000000000000000000, 1.000000000000000000 ) ) ;
#786 = CARTESIAN_POINT ( 'NONE',  ( 0.000000000000000000, 15.40000000000000036, -4.100000000000000533 ) ) ;
#787 = DIRECTION ( 'NONE',  ( -0.000000000000000000, -1.000000000000000000, -0.000000000000000000 ) ) ;
#788 = FACE_BOUND ( 'NONE', #723, .T. ) ;
#789 = AXIS2_PLACEMENT_3D ( 'NONE', #156, #501, #773 ) ;
#790 = VERTEX_POINT ( 'NONE', #83 ) ;
#791 = CALENDAR_DATE ( 2026, 26, 2 ) ;
#792 = CARTESIAN_POINT ( 'NONE',  ( 2.525000000000003020, 15.00000000000001243, -3.230228320103702533 ) ) ;
#793 = CARTESIAN_POINT ( 'NONE',  ( 0.000000000000000000, -0.0009999999999992653654, 0.000000000000000000 ) ) ;
#794 = ORIENTED_EDGE ( 'NONE', *, *, #293, .F. ) ;
#795 = EDGE_CURVE ( 'NONE', #1120, #80, #742, .T. ) ;
#796 = LINE ( 'NONE', #518, #91 ) ;
#797 = ORIENTED_EDGE ( 'NONE', *, *, #475, .T. ) ;
#798 = DATE_TIME_ROLE ( 'creation_date' ) ;
#799 = CARTESIAN_POINT ( 'NONE',  ( 2.258333333333348847, 15.40000000000000036, 2.930858330857294192 ) ) ;
#800 = CARTESIAN_POINT ( 'NONE',  ( -2.525000000000002132, 15.40000000000000036, -3.230228320103702977 ) ) ;
#801 = ORIENTED_EDGE ( 'NONE', *, *, #761, .F. ) ;
#802 = CARTESIAN_POINT ( 'NONE',  ( -3.159788468496687930, 5.082123271313438551, 2.427973508644289513 ) ) ;
#803 = ORIENTED_EDGE ( 'NONE', *, *, #1031, .T. ) ;
#804 = PERSON_AND_ORGANIZATION ( #468, #1107 ) ;
#805 = FACE_OUTER_BOUND ( 'NONE', #397, .T. ) ;
#806 = CARTESIAN_POINT ( 'NONE',  ( 1.536233865666791099, 10.11811991116051601, -3.804836708623648978 ) ) ;
#807 = ORIENTED_EDGE ( 'NONE', *, *, #78, .F. ) ;
#808 = EDGE_CURVE ( 'NONE', #282, #276, #358, .T. ) ;
#809 = CARTESIAN_POINT ( 'NONE',  ( 2.917665327269349795, 10.47693407833094881, -2.791848562478301154 ) ) ;
#810 = ORIENTED_EDGE ( 'NONE', *, *, #822, .F. ) ;
#811 = PERSON_AND_ORGANIZATION ( #468, #1107 ) ;
#812 = VECTOR ( 'NONE', #877, 1000.000000000000000 ) ;
#813 = CARTESIAN_POINT ( 'NONE',  ( -0.7500000000000000000, 0.000000000000000000, 9.184850993605149670E-17 ) ) ;
#814 = CARTESIAN_POINT ( 'NONE',  ( 1.381325949337624648, 10.08829981131427189, -3.863786383006791780 ) ) ;
#815 = ORIENTED_EDGE ( 'NONE', *, *, #808, .T. ) ;
#816 = EDGE_CURVE ( 'NONE', #249, #458, #164, .T. ) ;
#817 = DIRECTION ( 'NONE',  ( 0.000000000000000000, 1.000000000000000000, 0.000000000000000000 ) ) ;
#818 = CARTESIAN_POINT ( 'NONE',  ( 2.525000000000003020, 10.31421650120357825, -3.230228320103702533 ) ) ;
#819 = EDGE_LOOP ( 'NONE', ( #1084, #427, #596, #365 ) ) ;
#820 = VERTEX_POINT ( 'NONE', #777 ) ;
#821 = CARTESIAN_POINT ( 'NONE',  ( -0.4562317397254757600, 4.414061681200417198, -4.100000000000007638 ) ) ;
#822 = EDGE_CURVE ( 'NONE', #174, #1120, #1131, .T. ) ;
#823 = DIRECTION ( 'NONE',  ( 0.000000000000000000, 0.000000000000000000, 1.000000000000000000 ) ) ;
#824 = CARTESIAN_POINT ( 'NONE',  ( -2.525000000000005684, 4.814216501203578247, 3.230228320103700757 ) ) ;
#825 = ORIENTED_EDGE ( 'NONE', *, *, #855, .T. ) ;
#826 = CARTESIAN_POINT ( 'NONE',  ( -2.525000000000004796, 9.400000000000000355, 3.230228320103700312 ) ) ;
#827 = CARTESIAN_POINT ( 'NONE',  ( 0.000000000000000000, 15.00000000000001243, 0.000000000000000000 ) ) ;
#828 = CIRCLE ( 'NONE', #848, 1.500000000000000222 ) ;
#829 = CARTESIAN_POINT ( 'NONE',  ( 0.000000000000000000, 15.40000000000000036, -4.100000000000000533 ) ) ;
#830 = VECTOR ( 'NONE', #896, 1000.000000000000000 ) ;
#831 = ORIENTED_EDGE ( 'NONE', *, *, #444, .T. ) ;
#832 = FACE_OUTER_BOUND ( 'NONE', #987, .T. ) ;
#833 = CARTESIAN_POINT ( 'NONE',  ( 1.983929622489283728, 10.20527134245777567, 3.602878887934802599 ) ) ;
#834 = CARTESIAN_POINT ( 'NONE',  ( -2.258333333333349291, 15.40000000000000036, 2.930858330857294192 ) ) ;
#835 = ADVANCED_FACE ( 'NONE', ( #425 ), #767, .T. ) ;
#836 = ORIENTED_EDGE ( 'NONE', *, *, #719, .F. ) ;
#837 = ADVANCED_FACE ( 'NONE', ( #951 ), #239, .T. ) ;
#838 = FACE_OUTER_BOUND ( 'NONE', #379, .T. ) ;
#839 = FACE_OUTER_BOUND ( 'NONE', #906, .T. ) ;
#840 = CARTESIAN_POINT ( 'NONE',  ( -2.205343931487647838E-16, 9.831966890726514308, -4.100000000000000533 ) ) ;
#841 = B_SPLINE_CURVE_WITH_KNOTS ( 'NONE', 3,
 ( #441, #954, #184, #802, #980, #31, #342, #166, #375, #1135, #708, #1053, #188, #261, #703, #625, #740, #1043, #539, #251 ),
 .UNSPECIFIED., .F., .F.,
 ( 4, 2, 2, 2, 2, 2, 2, 2, 2, 4 ),
 ( 2.919984468078234696E-07, 0.0009050439011373974645, 0.001357419852482692844, 0.001809795803827988440, 0.002714547706518579632, 0.003619299609209171258, 0.004524051511899762450, 0.005428803414590353642, 0.006333555317280945701, 0.007238307219971536893 ),
 .UNSPECIFIED. ) ;
#842 = ADVANCED_FACE ( 'NONE', ( #948 ), #1042, .T. ) ;
#843 = ORIENTED_EDGE ( 'NONE', *, *, #931, .T. ) ;
#844 = CARTESIAN_POINT ( 'NONE',  ( 0.7500000000000000000, 6.299999999999998046, 0.000000000000000000 ) ) ;
#845 = DIRECTION ( 'NONE',  ( -1.000000000000000000, -9.427844978134817735E-17, 0.000000000000000000 ) ) ;
#846 = CARTESIAN_POINT ( 'NONE',  ( -0.7500000000000000000, 15.40000000000000036, 9.184850993605149670E-17 ) ) ;
#847 = CARTESIAN_POINT ( 'NONE',  ( 3.850251060467121178, 10.90012148084148791, 0.3027994977169747859 ) ) ;
#848 = AXIS2_PLACEMENT_3D ( 'NONE', #465, #372, #566 ) ;
#849 = ORIENTED_EDGE ( 'NONE', *, *, #377, .F. ) ;
#850 = CARTESIAN_POINT ( 'NONE',  ( 0.8971696036845383526, 4.173366191974376527, -4.006953149074629295 ) ) ;
#851 = CARTESIAN_POINT ( 'NONE',  ( 0.4676061867380497672, 5.783362779903807649, 4.083362779903808359 ) ) ;
#852 = ORIENTED_EDGE ( 'NONE', *, *, #981, .F. ) ;
#853 = CARTESIAN_POINT ( 'NONE',  ( -1.239749136707743282E-16, 4.331966890726513419, -4.100000000000000533 ) ) ;
#854 = VECTOR ( 'NONE', #260, 999.9999999999998863 ) ;
#855 = EDGE_CURVE ( 'NONE', #266, #182, #393, .T. ) ;
#856 = CARTESIAN_POINT ( 'NONE',  ( 0.000000000000000000, 15.40000000000000036, -3.700000000000016609 ) ) ;
#857 = CARTESIAN_POINT ( 'NONE',  ( 2.525000000000004352, 15.40000000000000036, 3.230228320103701645 ) ) ;
#858 = CYLINDRICAL_SURFACE ( 'NONE', #303, 1.500000000000000222 ) ;
#859 = VERTEX_POINT ( 'NONE', #329 ) ;
#860 = CARTESIAN_POINT ( 'NONE',  ( 0.4528107104563915963, 4.250475547574544599, 4.100380950443223149 ) ) ;
#861 = CARTESIAN_POINT ( 'NONE',  ( 1.836970198721030181E-16, 15.40000000000000036, -1.500000000000000222 ) ) ;
#862 = APPLICATION_PROTOCOL_DEFINITION ( 'international standard', 'config_control_design', 1994, #516 ) ;
#863 = ORIENTED_EDGE ( 'NONE', *, *, #1009, .F. ) ;
#864 = DIRECTION ( 'NONE',  ( -0.000000000000000000, -1.000000000000000000, -0.000000000000000000 ) ) ;
#865 = EDGE_CURVE ( 'NONE', #928, #565, #183, .T. ) ;
#866 = DIRECTION ( 'NONE',  ( 0.000000000000000000, -1.000000000000000000, 0.000000000000000000 ) ) ;
#867 = FACE_OUTER_BOUND ( 'NONE', #348, .T. ) ;
#868 = CARTESIAN_POINT ( 'NONE',  ( -2.525000000000004796, 6.299999999999998046, 3.230228320103700312 ) ) ;
#869 = CARTESIAN_POINT ( 'NONE',  ( 3.384162696625890643, 10.68182605181814004, 2.039103471398289624 ) ) ;
#870 = AXIS2_PLACEMENT_3D ( 'NONE', #463, #313, #220 ) ;
#871 = ORIENTED_EDGE ( 'NONE', *, *, #42, .T. ) ;
#872 = DIRECTION ( 'NONE',  ( 0.000000000000000000, 0.000000000000000000, 1.000000000000000000 ) ) ;
#873 = CONICAL_SURFACE ( 'NONE', #1126, 4.200000000000017053, 0.7853981633974418397 ) ;
#874 = ORIENTED_EDGE ( 'NONE', *, *, #822, .T. ) ;
#875 = APPROVAL_ROLE ( '' ) ;
#876 = ADVANCED_FACE ( 'NONE', ( #1068 ), #636, .F. ) ;
#877 = DIRECTION ( 'NONE',  ( -0.000000000000000000, -1.000000000000000000, -0.000000000000000000 ) ) ;
#878 = CARTESIAN_POINT ( 'NONE',  ( -2.525000000000004796, 6.299999999999998046, 3.230228320103700312 ) ) ;
#879 = ORIENTED_EDGE ( 'NONE', *, *, #413, .T. ) ;
#880 = VECTOR ( 'NONE', #582, 999.9999999999998863 ) ;
#881 = DIRECTION ( 'NONE',  ( -0.000000000000000000, -1.000000000000000000, -0.000000000000000000 ) ) ;
#882 = EDGE_LOOP ( 'NONE', ( #39, #893, #776, #992 ) ) ;
#883 = CARTESIAN_POINT ( 'NONE',  ( -2.339973189144065380, 11.80000000000000071, -1.133369081141247126 ) ) ;
#884 = CARTESIAN_POINT ( 'NONE',  ( 1.983911694938609305, 10.20526578689540464, -3.602954601980457472 ) ) ;
#885 = VERTEX_POINT ( 'NONE', #818 ) ;
#886 = CARTESIAN_POINT ( 'NONE',  ( 0.3750000000000000000, 11.80000000000000071, 3.879157740793115351E-17 ) ) ;
#887 = ORIENTED_EDGE ( 'NONE', *, *, #816, .F. ) ;
#888 = DATE_AND_TIME ( #520, #751 ) ;
#889 = CARTESIAN_POINT ( 'NONE',  ( 0.7500000000000005551, 15.40000000000000036, 4.600000000000000533 ) ) ;
#890 = EDGE_CURVE ( 'NONE', #9, #510, #109, .T. ) ;
#891 = ORIENTED_EDGE ( 'NONE', *, *, #913, .F. ) ;
#892 = DIRECTION ( 'NONE',  ( -0.000000000000000000, -1.000000000000000000, -0.000000000000000000 ) ) ;
#893 = ORIENTED_EDGE ( 'NONE', *, *, #939, .T. ) ;
#894 = APPROVAL_PERSON_ORGANIZATION ( #811, #725, #875 ) ;
#895 = LINE ( 'NONE', #1055, #451 ) ;
#896 = DIRECTION ( 'NONE',  ( -0.000000000000000000, -1.000000000000000000, -0.000000000000000000 ) ) ;
#897 = EDGE_CURVE ( 'NONE', #249, #820, #94, .T. ) ;
#898 = ORIENTED_EDGE ( 'NONE', *, *, #498, .T. ) ;
#899 = EDGE_CURVE ( 'NONE', #102, #790, #696, .T. ) ;
#900 = VERTEX_POINT ( 'NONE', #556 ) ;
#901 = PERSON_AND_ORGANIZATION_ROLE ( 'design_supplier' ) ;
#902 = AXIS2_PLACEMENT_3D ( 'NONE', #1041, #787, #966 ) ;
#903 = LINE ( 'NONE', #16, #812 ) ;
#904 = CARTESIAN_POINT ( 'NONE',  ( -2.525000000000002132, 9.400000000000000355, -3.230228320103702977 ) ) ;
#905 = ORIENTED_EDGE ( 'NONE', *, *, #1037, .T. ) ;
#906 = EDGE_LOOP ( 'NONE', ( #668, #50, #519, #433, #442 ) ) ;
#907 = DIRECTION ( 'NONE',  ( 0.000000000000000000, -1.000000000000000000, 0.000000000000000000 ) ) ;
#908 = LINE ( 'NONE', #363, #721 ) ;
#909 = DIRECTION ( 'NONE',  ( 0.000000000000000000, 0.000000000000000000, -1.000000000000000000 ) ) ;
#910 = VERTEX_POINT ( 'NONE', #1139 ) ;
#911 = FACE_OUTER_BOUND ( 'NONE', #370, .T. ) ;
#912 = CARTESIAN_POINT ( 'NONE',  ( 0.7500000000000000000, 10.90000000000000036, 0.000000000000000000 ) ) ;
#913 = EDGE_CURVE ( 'NONE', #663, #682, #908, .T. ) ;
#914 = CARTESIAN_POINT ( 'NONE',  ( 0.000000000000000000, 15.40000000000000036, 1.500000000000000222 ) ) ;
#915 = ORIENTED_EDGE ( 'NONE', *, *, #257, .T. ) ;
#916 = CARTESIAN_POINT ( 'NONE',  ( 1.999999999999999556, 0.000000000000000000, -2.000000000000000444 ) ) ;
#917 = CARTESIAN_POINT ( 'NONE',  ( 2.915760937699311217, 5.223892532505687747, -2.794693211596182447 ) ) ;
#918 = AXIS2_PLACEMENT_3D ( 'NONE', #758, #74, #311 ) ;
#919 = DIRECTION ( 'NONE',  ( 0.000000000000000000, 0.000000000000000000, 1.000000000000000000 ) ) ;
#920 = CIRCLE ( 'NONE', #572, 0.5000000000000004441 ) ;
#921 = ADVANCED_FACE ( 'NONE', ( #1075 ), #1061, .T. ) ;
#922 = ORIENTED_EDGE ( 'NONE', *, *, #913, .T. ) ;
#923 = CARTESIAN_POINT ( 'NONE',  ( 0.7500000000000000000, 6.299999999999998046, 4.600000000000000533 ) ) ;
#924 = DIRECTION ( 'NONE',  ( -0.000000000000000000, -1.000000000000000000, -0.000000000000000000 ) ) ;
#925 = DIRECTION ( 'NONE',  ( -0.000000000000000000, -1.000000000000000000, -0.000000000000000000 ) ) ;
#926 = CC_DESIGN_DATE_AND_TIME_ASSIGNMENT ( #888, #178, ( #586 ) ) ;
#927 = AXIS2_PLACEMENT_3D ( 'NONE', #728, #996, #116 ) ;
#928 = VERTEX_POINT ( 'NONE', #1050 ) ;
#929 = CARTESIAN_POINT ( 'NONE',  ( 0.7499999999999993339, 5.730818775385465358, -4.030818775385467845 ) ) ;
#930 = DIRECTION ( 'NONE',  ( 8.659560562354936556E-17, 0.7071067811865473507, -0.7071067811865477948 ) ) ;
#931 = EDGE_CURVE ( 'NONE', #963, #1013, #19, .T. ) ;
#932 = CARTESIAN_POINT ( 'NONE',  ( 2.525000000000004352, 5.385783498796421043, 3.230228320103701645 ) ) ;
#933 = ORIENTED_EDGE ( 'NONE', *, *, #946, .F. ) ;
#934 = CARTESIAN_POINT ( 'NONE',  ( 0.000000000000000000, 15.40000000000000036, 0.000000000000000000 ) ) ;
#935 = DIRECTION ( 'NONE',  ( 0.000000000000000000, 0.000000000000000000, -1.000000000000000000 ) ) ;
#936 = AXIS2_PLACEMENT_3D ( 'NONE', #940, #775, #680 ) ;
#937 = VECTOR ( 'NONE', #283, 999.9999999999998863 ) ;
#938 = VERTEX_POINT ( 'NONE', #344 ) ;
#939 = EDGE_CURVE ( 'NONE', #1019, #650, #191, .T. ) ;
#940 = CARTESIAN_POINT ( 'NONE',  ( 0.000000000000000000, 15.40000000000000036, 0.000000000000000000 ) ) ;
#941 = CARTESIAN_POINT ( 'NONE',  ( 2.525000000000004352, 15.40000000000000036, 3.230228320103701645 ) ) ;
#942 = VERTEX_POINT ( 'NONE', #550 ) ;
#943 = ORIENTED_EDGE ( 'NONE', *, *, #1118, .F. ) ;
#944 = DIRECTION ( 'NONE',  ( 0.000000000000000000, 0.000000000000000000, -1.000000000000000000 ) ) ;
#945 = DIRECTION ( 'NONE',  ( 1.000000000000000000, 0.000000000000000000, 0.000000000000000000 ) ) ;
#946 = EDGE_CURVE ( 'NONE', #134, #885, #227, .T. ) ;
#947 = LINE ( 'NONE', #327, #488 ) ;
#948 = FACE_OUTER_BOUND ( 'NONE', #1046, .T. ) ;
#949 = PERSON_AND_ORGANIZATION_ROLE ( 'design_owner' ) ;
#950 = CARTESIAN_POINT ( 'NONE',  ( 0.2535469570195822420, 5.822409619061377661, -4.100000000000006750 ) ) ;
#951 = FACE_OUTER_BOUND ( 'NONE', #98, .T. ) ;
#952 = ORIENTED_EDGE ( 'NONE', *, *, #462, .F. ) ;
#953 = EDGE_CURVE ( 'NONE', #698, #704, #438, .T. ) ;
#954 = CARTESIAN_POINT ( 'NONE',  ( -2.731558230997977343, 4.898279318945895078, 3.020807146278860600 ) ) ;
#955 = FACE_OUTER_BOUND ( 'NONE', #298, .T. ) ;
#956 = APPROVAL_STATUS ( 'not_yet_approved' ) ;
#957 = CARTESIAN_POINT ( 'NONE',  ( 0.5035096337098587949, 5.776682354231162719, -4.076682354231164318 ) ) ;
#958 = ORIENTED_EDGE ( 'NONE', *, *, #240, .T. ) ;
#959 = CARTESIAN_POINT ( 'NONE',  ( 2.162403517339682502, 3.959118991738095339, 3.513662191641278021 ) ) ;
#960 = VERTEX_POINT ( 'NONE', #203 ) ;
#961 = EDGE_CURVE ( 'NONE', #332, #698, #423, .T. ) ;
#962 = DIRECTION ( 'NONE',  ( 0.000000000000000000, 1.000000000000000000, 0.000000000000000000 ) ) ;
#963 = VERTEX_POINT ( 'NONE', #904 ) ;
#964 = APPROVAL_DATE_TIME ( #428, #567 ) ;
#965 = CARTESIAN_POINT ( 'NONE',  ( -1.999999999999999556, 11.80000000000000071, -2.000000000000000444 ) ) ;
#966 = DIRECTION ( 'NONE',  ( 0.000000000000000000, 0.000000000000000000, -1.000000000000000000 ) ) ;
#967 = AXIS2_PLACEMENT_3D ( 'NONE', #1112, #407, #935 ) ;
#968 = CARTESIAN_POINT ( 'NONE',  ( 0.7500000000000000000, 10.90000000000000036, 0.000000000000000000 ) ) ;
#969 = CARTESIAN_POINT ( 'NONE',  ( 0.9099667019973790572, 5.701054344587766387, 4.001054344587767986 ) ) ;
#970 = DIRECTION ( 'NONE',  ( -0.000000000000000000, -1.000000000000000000, -0.000000000000000000 ) ) ;
#971 = B_SPLINE_CURVE_WITH_KNOTS ( 'NONE', 3,
 ( #840, #54, #296, #584 ),
 .UNSPECIFIED., .F., .F.,
 ( 4, 4 ),
 ( 0.002743102828916770160, 0.003506612203656222192 ),
 .UNSPECIFIED. ) ;
#972 = ORIENTED_EDGE ( 'NONE', *, *, #1070, .F. ) ;
#973 = CARTESIAN_POINT ( 'NONE',  ( 2.729421166721430314, 10.39740959981674351, -3.022973830739564605 ) ) ;
#974 = AXIS2_PLACEMENT_3D ( 'NONE', #437, #180, #530 ) ;
#975 = ORIENTED_EDGE ( 'NONE', *, *, #741, .T. ) ;
#976 = DATE_AND_TIME ( #195, #1091 ) ;
#977 = CC_DESIGN_PERSON_AND_ORGANIZATION_ASSIGNMENT ( #780, #949, ( #495 ) ) ;
#978 = CARTESIAN_POINT ( 'NONE',  ( -1.115715736729837371, 6.064334721348806134, -3.951823030932978487 ) ) ;
#979 = ORIENTED_EDGE ( 'NONE', *, *, #528, .T. ) ;
#980 = CARTESIAN_POINT ( 'NONE',  ( -3.235586456488424023, 5.115590986386788330, 2.301559931650551505 ) ) ;
#981 = EDGE_CURVE ( 'NONE', #446, #448, #772, .T. ) ;
#982 = COORDINATED_UNIVERSAL_TIME_OFFSET ( 8, 0, .AHEAD. ) ;
#983 = ADVANCED_FACE ( 'NONE', ( #995 ), #268, .T. ) ;
#984 = CARTESIAN_POINT ( 'NONE',  ( -1.658499321328354747E-16, 5.868033109273483205, -4.100000000000000533 ) ) ;
#985 = CARTESIAN_POINT ( 'NONE',  ( -2.258333333333344850, 15.40000000000000036, -2.930858330857298633 ) ) ;
#986 = DIRECTION ( 'NONE',  ( -0.000000000000000000, -1.000000000000000000, -0.000000000000000000 ) ) ;
#987 = EDGE_LOOP ( 'NONE', ( #997, #815, #194, #1024, #153 ) ) ;
#988 = AXIS2_PLACEMENT_3D ( 'NONE', #219, #577, #478 ) ;
#989 = DIRECTION ( 'NONE',  ( -0.000000000000000000, -1.000000000000000000, -0.000000000000000000 ) ) ;
#990 = CARTESIAN_POINT ( 'NONE',  ( -2.525000000000002132, 6.300000000000001599, -3.230228320103702977 ) ) ;
#991 = FACE_OUTER_BOUND ( 'NONE', #735, .T. ) ;
#992 = ORIENTED_EDGE ( 'NONE', *, *, #1023, .F. ) ;
#993 = AXIS2_PLACEMENT_3D ( 'NONE', #555, #994, #748 ) ;
#994 = DIRECTION ( 'NONE',  ( 0.000000000000000000, 1.000000000000000000, 0.000000000000000000 ) ) ;
#995 = FACE_OUTER_BOUND ( 'NONE', #593, .T. ) ;
#996 = DIRECTION ( 'NONE',  ( -0.000000000000000000, -1.000000000000000000, -0.000000000000000000 ) ) ;
#997 = ORIENTED_EDGE ( 'NONE', *, *, #1094, .T. ) ;
#998 = ADVANCED_FACE ( 'NONE', ( #749 ), #632, .T. ) ;
#999 = CARTESIAN_POINT ( 'NONE',  ( -2.258333333333349291, 15.40000000000000036, 2.930858330857294192 ) ) ;
#1000 = CARTESIAN_POINT ( 'NONE',  ( 3.849745816441777713, 4.800122992014417278, 0.3103800561777436129 ) ) ;
#1001 = CARTESIAN_POINT ( 'NONE',  ( 0.7500000000000000000, 9.399999999999998579, 0.000000000000000000 ) ) ;
#1002 = ORIENTED_EDGE ( 'NONE', *, *, #808, .F. ) ;
#1003 = DIRECTION ( 'NONE',  ( 0.000000000000000000, -1.000000000000000000, 0.000000000000000000 ) ) ;
#1004 = CARTESIAN_POINT ( 'NONE',  ( 3.613175262444518587, 4.912980026849989024, -1.487261173578407147 ) ) ;
#1005 = FACE_OUTER_BOUND ( 'NONE', #122, .T. ) ;
#1006 = VERTEX_POINT ( 'NONE', #312 ) ;
#1007 = AXIS2_PLACEMENT_3D ( 'NONE', #224, #309, #461 ) ;
#1008 = CYLINDRICAL_SURFACE ( 'NONE', #757, 2.600000000000000089 ) ;
#1009 = EDGE_CURVE ( 'NONE', #182, #579, #920, .T. ) ;
#1010 = DIRECTION ( 'NONE',  ( 0.000000000000000000, 0.000000000000000000, -1.000000000000000000 ) ) ;
#1011 = CIRCLE ( 'NONE', #699, 0.5000000000000004441 ) ;
#1012 = CYLINDRICAL_SURFACE ( 'NONE', #870, 4.600000000000000533 ) ;
#1013 = VERTEX_POINT ( 'NONE', #52 ) ;
#1014 = EDGE_CURVE ( 'NONE', #73, #859, #589, .T. ) ;
#1015 = CARTESIAN_POINT ( 'NONE',  ( 0.7500000000000000000, 15.40000000000000036, 7.758315481586230702E-17 ) ) ;
#1016 = DIRECTION ( 'NONE',  ( -0.000000000000000000, 1.000000000000000000, -0.000000000000000000 ) ) ;
#1017 = DIRECTION ( 'NONE',  ( 0.000000000000000000, 0.000000000000000000, 1.000000000000000000 ) ) ;
#1018 = UNCERTAINTY_MEASURE_WITH_UNIT (LENGTH_MEASURE( 1.000000000000000082E-05 ), #62, 'distance_accuracy_value', 'NONE');
#1019 = VERTEX_POINT ( 'NONE', #230 ) ;
#1020 = PLANE ( 'NONE',  #651 ) ;
#1021 = CARTESIAN_POINT ( 'NONE',  ( 0.7500000000000009992, 9.969181224614532155, 4.030818775385467845 ) ) ;
#1022 = CARTESIAN_POINT ( 'NONE',  ( -1.999999999999999556, 22.34262198308391234, -1.500000000000000222 ) ) ;
#1023 = EDGE_CURVE ( 'NONE', #781, #172, #670, .T. ) ;
#1024 = ORIENTED_EDGE ( 'NONE', *, *, #455, .T. ) ;
#1025 = CARTESIAN_POINT ( 'NONE',  ( -0.7500000000000000000, 15.40000000000000036, 9.184850993605149670E-17 ) ) ;
#1026 = ORIENTED_EDGE ( 'NONE', *, *, #719, .T. ) ;
#1027 = CARTESIAN_POINT ( 'NONE',  ( 1.763853045343949377, 4.025212006088985106, 3.729410604048263078 ) ) ;
#1028 = AXIS2_PLACEMENT_3D ( 'NONE', #108, #258, #616 ) ;
#1029 = AXIS2_PLACEMENT_3D ( 'NONE', #383, #1003, #307 ) ;
#1030 = EDGE_LOOP ( 'NONE', ( #324, #12, #652, #193 ) ) ;
#1031 = EDGE_CURVE ( 'NONE', #343, #928, #569, .T. ) ;
#1032 = FACE_OUTER_BOUND ( 'NONE', #76, .T. ) ;
#1033 = CARTESIAN_POINT ( 'NONE',  ( 2.525000000000004352, 10.31421650120357825, 3.230228320103701645 ) ) ;
#1034 = EDGE_CURVE ( 'NONE', #938, #343, #304, .T. ) ;
#1035 = CARTESIAN_POINT ( 'NONE',  ( 0.7499999999999993339, 5.730818775385465358, -4.030818775385467845 ) ) ;
#1036 = DIRECTION ( 'NONE',  ( 0.000000000000000000, -1.000000000000000000, 0.000000000000000000 ) ) ;
#1037 = EDGE_CURVE ( 'NONE', #134, #663, #36, .T. ) ;
#1038 = FACE_OUTER_BOUND ( 'NONE', #483, .T. ) ;
#1039 = EDGE_CURVE ( 'NONE', #960, #682, #562, .T. ) ;
#1040 = B_SPLINE_CURVE_WITH_KNOTS ( 'NONE', 3,
 ( #472, #1090, #647, #299, #669, #929 ),
 .UNSPECIFIED., .F., .F.,
 ( 4, 2, 4 ),
 ( 2.534468550092111753E-07, 0.0009932629550745552139, 0.001986272463294101297 ),
 .UNSPECIFIED. ) ;
#1041 = CARTESIAN_POINT ( 'NONE',  ( 0.000000000000000000, 15.40000000000000036, 0.000000000000000000 ) ) ;
#1042 = CONICAL_SURFACE ( 'NONE', #14, 4.600000000000000533, 0.7853981633974485010 ) ;
#1043 = CARTESIAN_POINT ( 'NONE',  ( -2.916950079364263093, 4.976619047816270403, -2.793024047097405038 ) ) ;
#1044 = CARTESIAN_POINT ( 'NONE',  ( 0.000000000000000000, 15.40000000000000036, 0.000000000000000000 ) ) ;
#1045 = FACE_OUTER_BOUND ( 'NONE', #204, .T. ) ;
#1046 = EDGE_LOOP ( 'NONE', ( #23, #599, #328, #797 ) ) ;
#1047 = FACE_OUTER_BOUND ( 'NONE', #1048, .T. ) ;
#1048 = EDGE_LOOP ( 'NONE', ( #167, #424, #887 ) ) ;
#1049 = CARTESIAN_POINT ( 'NONE',  ( 2.525000000000004352, 5.385783498796421043, 3.230228320103701645 ) ) ;
#1050 = CARTESIAN_POINT ( 'NONE',  ( 2.525000000000004352, 15.00000000000001243, 3.230228320103701645 ) ) ;
#1051 = LINE ( 'NONE', #199, #854 ) ;
#1052 = EDGE_CURVE ( 'NONE', #900, #1120, #63, .T. ) ;
#1053 = CARTESIAN_POINT ( 'NONE',  ( -3.850258436681591068, 5.400125049973923730, -0.2985989158785854469 ) ) ;
#1054 = ORIENTED_EDGE ( 'NONE', *, *, #662, .T. ) ;
#1055 = CARTESIAN_POINT ( 'NONE',  ( 2.525000000000003020, 15.40000000000000036, -3.230228320103702533 ) ) ;
#1056 = CARTESIAN_POINT ( 'NONE',  ( -1.658499321328354747E-16, 5.868033109273483205, -4.100000000000000533 ) ) ;
#1057 = EDGE_LOOP ( 'NONE', ( #489, #646, #766, #752 ) ) ;
#1058 = AXIS2_PLACEMENT_3D ( 'NONE', #279, #1062, #4 ) ;
#1059 = CARTESIAN_POINT ( 'NONE',  ( 3.730553948569144129, 10.84270103701392252, -1.052217440266475013 ) ) ;
#1060 = AXIS2_PLACEMENT_3D ( 'NONE', #51, #664, #736 ) ;
#1061 = CONICAL_SURFACE ( 'NONE', #360, 4.200000000000017053, 0.7853981633974418397 ) ;
#1062 = DIRECTION ( 'NONE',  ( 0.000000000000000000, -1.000000000000000000, 0.000000000000000000 ) ) ;
#1063 = DIRECTION ( 'NONE',  ( -0.000000000000000000, -1.000000000000000000, -0.000000000000000000 ) ) ;
#1064 = CARTESIAN_POINT ( 'NONE',  ( 2.347211839713587711, 15.26668224042964006, -3.030678378027360509 ) ) ;
#1065 = ORIENTED_EDGE ( 'NONE', *, *, #15, .T. ) ;
#1066 = COORDINATED_UNIVERSAL_TIME_OFFSET ( 8, 0, .AHEAD. ) ;
#1067 = EDGE_CURVE ( 'NONE', #174, #246, #405, .T. ) ;
#1068 = FACE_OUTER_BOUND ( 'NONE', #540, .T. ) ;
#1069 = EDGE_LOOP ( 'NONE', ( #95, #547, #128, #852 ) ) ;
#1070 = EDGE_CURVE ( 'NONE', #963, #663, #26, .T. ) ;
#1071 = ORIENTED_EDGE ( 'NONE', *, *, #709, .T. ) ;
#1072 = PERSON_AND_ORGANIZATION ( #468, #1107 ) ;
#1073 = PRODUCT_DEFINITION_FORMATION_WITH_SPECIFIED_SOURCE ( 'ANY', '', #495, .NOT_KNOWN. ) ;
#1074 = LINE ( 'NONE', #1081, #406 ) ;
#1075 = FACE_OUTER_BOUND ( 'NONE', #1030, .T. ) ;
#1076 = ORIENTED_EDGE ( 'NONE', *, *, #158, .F. ) ;
#1077 = EDGE_CURVE ( 'NONE', #165, #900, #500, .T. ) ;
#1078 = ORIENTED_EDGE ( 'NONE', *, *, #1070, .T. ) ;
#1079 = CIRCLE ( 'NONE', #233, 4.600000000000000533 ) ;
#1080 = AXIS2_PLACEMENT_3D ( 'NONE', #968, #892, #104 ) ;
#1081 = CARTESIAN_POINT ( 'NONE',  ( 2.525000000000003020, 15.40000000000000036, -3.230228320103702533 ) ) ;
#1082 = CARTESIAN_POINT ( 'NONE',  ( 2.525000000000004352, 10.31421650120357825, 3.230228320103701645 ) ) ;
#1083 = CARTESIAN_POINT ( 'NONE',  ( -2.525000000000004796, 15.00000000000001243, 3.230228320103700312 ) ) ;
#1084 = ORIENTED_EDGE ( 'NONE', *, *, #890, .T. ) ;
#1085 = CARTESIAN_POINT ( 'NONE',  ( 2.258333333333348847, 15.40000000000000036, 2.930858330857294192 ) ) ;
#1086 = CARTESIAN_POINT ( 'NONE',  ( 3.702408960599122167, 4.870735375812702550, -1.194485701339685901 ) ) ;
#1087 = DIRECTION ( 'NONE',  ( -0.000000000000000000, -1.000000000000000000, -0.000000000000000000 ) ) ;
#1088 = ADVANCED_FACE ( 'NONE', ( #839 ), #151, .T. ) ;
#1089 = ORIENTED_EDGE ( 'NONE', *, *, #1023, .T. ) ;
#1090 = CARTESIAN_POINT ( 'NONE',  ( 2.263793923333907276, 5.438934900001495265, -3.434407492045553401 ) ) ;
#1091 = LOCAL_TIME ( 21, 25, 56.00000000000000000, #628 ) ;
#1092 = CARTESIAN_POINT ( 'NONE',  ( 3.382123027880951316, 5.019098326846867408, 2.043272838049488449 ) ) ;
#1093 = CARTESIAN_POINT ( 'NONE',  ( -2.339973189144065380, 22.34262198308391234, -1.133369081141247126 ) ) ;
#1094 = EDGE_CURVE ( 'NONE', #448, #282, #229, .T. ) ;
#1095 = B_SPLINE_CURVE_WITH_KNOTS ( 'NONE', 3,
 ( #868, #82, #496, #686, #502, #67, #592, #422, #851, #409 ),
 .UNSPECIFIED., .F., .F.,
 ( 4, 2, 2, 2, 4 ),
 ( 2.524706457984315143E-07, 0.0008768424038984047033, 0.001753432337151010316, 0.002630022270403616254, 0.003506612203656222625 ),
 .UNSPECIFIED. ) ;
#1096 = ORIENTED_EDGE ( 'NONE', *, *, #359, .F. ) ;
#1097 = B_SPLINE_CURVE_WITH_KNOTS ( 'NONE', 3,
 ( #1035, #957, #950, #160 ),
 .UNSPECIFIED., .F., .F.,
 ( 4, 4 ),
 ( 0.001986272463294101297, 0.002750480160413431262 ),
 .UNSPECIFIED. ) ;
#1098 = AXIS2_PLACEMENT_3D ( 'NONE', #827, #300, #823 ) ;
#1099 = CARTESIAN_POINT ( 'NONE',  ( 0.7500000000000000000, 6.299999999999998046, 0.000000000000000000 ) ) ;
#1100 = CARTESIAN_POINT ( 'NONE',  ( 0.000000000000000000, -0.0009999999999992653654, 1.500000000000000222 ) ) ;
#1101 = VECTOR ( 'NONE', #77, 1000.000000000000000 ) ;
#1102 = CARTESIAN_POINT ( 'NONE',  ( -2.525000000000002132, 15.00000000000001243, -3.230228320103702977 ) ) ;
#1103 = DIRECTION ( 'NONE',  ( 0.000000000000000000, 0.000000000000000000, 1.000000000000000000 ) ) ;
#1104 = DIRECTION ( 'NONE',  ( 0.000000000000000000, 0.000000000000000000, -1.000000000000000000 ) ) ;
#1105 = DIRECTION ( 'NONE',  ( 0.000000000000000000, -1.000000000000000000, 0.000000000000000000 ) ) ;
#1106 = DIRECTION ( 'NONE',  ( 0.000000000000000000, -1.000000000000000000, 0.000000000000000000 ) ) ;
#1107 = ORGANIZATION ( 'UNSPECIFIED', 'UNSPECIFIED', '' ) ;
#1108 = CARTESIAN_POINT ( 'NONE',  ( 2.339973189144064492, 0.000000000000000000, -1.133369081141247126 ) ) ;
#1109 = DIRECTION ( 'NONE',  ( 0.000000000000000000, 0.000000000000000000, -1.000000000000000000 ) ) ;
#1110 = ADVANCED_FACE ( 'NONE', ( #700 ), #321, .T. ) ;
#1111 = CARTESIAN_POINT ( 'NONE',  ( 0.000000000000000000, 15.40000000000000036, 0.000000000000000000 ) ) ;
#1112 = CARTESIAN_POINT ( 'NONE',  ( 0.000000000000000000, 15.40000000000000036, 0.000000000000000000 ) ) ;
#1113 = CARTESIAN_POINT ( 'NONE',  ( -0.7500000000000000000, 15.40000000000000036, 9.184850993605149670E-17 ) ) ;
#1114 = AXIS2_PLACEMENT_3D ( 'NONE', #934, #515, #61 ) ;
#1115 = AXIS2_PLACEMENT_3D ( 'NONE', #384, #759, #1103 ) ;
#1116 = ADVANCED_FACE ( 'NONE', ( #867 ), #482, .T. ) ;
#1117 = ORIENTED_EDGE ( 'NONE', *, *, #257, .F. ) ;
#1118 = EDGE_CURVE ( 'NONE', #172, #650, #564, .T. ) ;
#1119 = CARTESIAN_POINT ( 'NONE',  ( 0.4534832995040423143, 4.250972975788509522, -4.081046401809896196 ) ) ;
#1120 = VERTEX_POINT ( 'NONE', #494 ) ;
#1121 = DIRECTION ( 'NONE',  ( 0.000000000000000000, 0.000000000000000000, 1.000000000000000000 ) ) ;
#1122 = CC_DESIGN_PERSON_AND_ORGANIZATION_ASSIGNMENT ( #449, #173, ( #586 ) ) ;
#1123 = AXIS2_PLACEMENT_3D ( 'NONE', #209, #49, #1104 ) ;
#1124 = CARTESIAN_POINT ( 'NONE',  ( 1.755590640760089194, 4.027083220146781883, -3.712037355546076611 ) ) ;
#1125 = DIRECTION ( 'NONE',  ( -0.000000000000000000, -1.000000000000000000, -0.000000000000000000 ) ) ;
#1126 = AXIS2_PLACEMENT_3D ( 'NONE', #252, #238, #491 ) ;
#1127 = ADVANCED_FACE ( 'NONE', ( #1032 ), #873, .T. ) ;
#1128 = CARTESIAN_POINT ( 'NONE',  ( -2.525000000000004796, 9.400000000000000355, 3.230228320103700312 ) ) ;
#1129 = ORIENTED_EDGE ( 'NONE', *, *, #179, .F. ) ;
#1130 = DIRECTION ( 'NONE',  ( 0.000000000000000000, 0.000000000000000000, 1.000000000000000000 ) ) ;
#1131 = LINE ( 'NONE', #857, #306 ) ;
#1132 = ORIENTED_EDGE ( 'NONE', *, *, #399, .T. ) ;
#1133 = VECTOR ( 'NONE', #385, 1000.000000000000000 ) ;
#1134 = AXIS2_PLACEMENT_3D ( 'NONE', #1111, #1105, #944 ) ;
#1135 = CARTESIAN_POINT ( 'NONE',  ( -3.818738262088247293, 5.384781278746324062, 0.6139739290572830965 ) ) ;
#1136 = EDGE_LOOP ( 'NONE', ( #234, #905, #972, #843 ) ) ;
#1137 = SECURITY_CLASSIFICATION_LEVEL ( 'unclassified' ) ;
#1138 = CARTESIAN_POINT ( 'NONE',  ( 1.381325949337623094, 5.611700188685723845, 3.863786383006791780 ) ) ;
#1139 = CARTESIAN_POINT ( 'NONE',  ( -0.7500000000000000000, 0.000000000000000000, -4.600000000000000533 ) ) ;
#1140 = EDGE_CURVE ( 'NONE', #85, #538, #615, .T. ) ;
ENDSEC;
END-ISO-10303-21;
