ISO-10303-21;
HEADER;
FILE_DESCRIPTION (( 'STEP AP203' ),
    '1' );
FILE_NAME ('OutRunnerCap.STEP',
    '2026-02-26T13:24:42',
    ( '' ),
    ( '' ),
    'SwSTEP 2.0',
    'SolidWorks 2024',
    '' );
FILE_SCHEMA (( 'CONFIG_CONTROL_DESIGN' ));
ENDSEC;

DATA;
#1 = EDGE_LOOP ( 'NONE', ( #637, #257, #710, #507 ) ) ;
#2 = DATE_AND_TIME ( #753, #220 ) ;
#3 = CARTESIAN_POINT ( 'NONE',  ( 8.000000000000000000, 3.440000000000001279, 15.65640646055102536 ) ) ;
#4 = CARTESIAN_POINT ( 'NONE',  ( 16.00000000000000000, 3.440000000000001279, 1.799999999999999600 ) ) ;
#5 = EDGE_LOOP ( 'NONE', ( #187, #345 ) ) ;
#6 = EDGE_CURVE ( 'NONE', #60, #206, #849, .T. ) ;
#7 = EDGE_LOOP ( 'NONE', ( #264, #756 ) ) ;
#8 = AXIS2_PLACEMENT_3D ( 'NONE', #802, #421, #349 ) ;
#9 = AXIS2_PLACEMENT_3D ( 'NONE', #586, #947, #955 ) ;
#10 = CARTESIAN_POINT ( 'NONE',  ( 3.673940397442059178E-15, 0.000000000000000000, 30.00000000000000000 ) ) ;
#11 = VERTEX_POINT ( 'NONE', #190 ) ;
#12 = EDGE_LOOP ( 'NONE', ( #249, #85, #459, #785 ) ) ;
#13 = DIRECTION ( 'NONE',  ( -0.000000000000000000, 1.000000000000000000, -0.000000000000000000 ) ) ;
#14 = ORIENTED_EDGE ( 'NONE', *, *, #208, .F. ) ;
#15 = ORIENTED_EDGE ( 'NONE', *, *, #922, .T. ) ;
#16 = CARTESIAN_POINT ( 'NONE',  ( 7.999999999999998224, 5.000000000000000000, -15.65640646055102536 ) ) ;
#17 = VERTEX_POINT ( 'NONE', #127 ) ;
#18 = CARTESIAN_POINT ( 'NONE',  ( -16.00000000000000711, 5.000000000000000000, -1.788740740500655915E-15 ) ) ;
#19 = VECTOR ( 'NONE', #225, 1000.000000000000000 ) ;
#20 = CIRCLE ( 'NONE', #555, 1.799999999999999600 ) ;
#21 = DIRECTION ( 'NONE',  ( -0.000000000000000000, 1.000000000000000000, -0.000000000000000000 ) ) ;
#22 = LOCAL_TIME ( 21, 24, 42.00000000000000000, #150 ) ;
#23 = ORIENTED_EDGE ( 'NONE', *, *, #771, .F. ) ;
#24 = APPROVAL_PERSON_ORGANIZATION ( #580, #544, #212 ) ;
#25 = DIRECTION ( 'NONE',  ( 0.000000000000000000, 0.000000000000000000, 1.000000000000000000 ) ) ;
#26 = CARTESIAN_POINT ( 'NONE',  ( -16.00000000000000711, 0.000000000000000000, -1.788740740500655915E-15 ) ) ;
#27 = DIRECTION ( 'NONE',  ( -0.000000000000000000, 1.000000000000000000, -0.000000000000000000 ) ) ;
#28 = ADVANCED_FACE ( 'NONE', ( #933 ), #631, .T. ) ;
#29 = EDGE_LOOP ( 'NONE', ( #591, #335, #404, #856 ) ) ;
#30 = CARTESIAN_POINT ( 'NONE',  ( 0.000000000000000000, 0.000000000000000000, 0.000000000000000000 ) ) ;
#31 = CARTESIAN_POINT ( 'NONE',  ( -8.000000000000010658, 0.000000000000000000, 15.65640646055102181 ) ) ;
#32 = DIRECTION ( 'NONE',  ( 0.000000000000000000, 0.000000000000000000, -1.000000000000000000 ) ) ;
#33 = DESIGN_CONTEXT ( 'detailed design', #510, 'design' ) ;
#34 = ORIENTED_EDGE ( 'NONE', *, *, #176, .F. ) ;
#35 = EDGE_CURVE ( 'NONE', #461, #768, #928, .T. ) ;
#36 = LINE ( 'NONE', #570, #247 ) ;
#37 = CARTESIAN_POINT ( 'NONE',  ( 7.999999999999998224, 5.000000000000000000, -13.85640646055102820 ) ) ;
#38 = AXIS2_PLACEMENT_3D ( 'NONE', #463, #83, #236 ) ;
#39 = VECTOR ( 'NONE', #272, 1000.000000000000000 ) ;
#40 = CARTESIAN_POINT ( 'NONE',  ( 16.00000000000000000, 3.440000000000001279, 0.000000000000000000 ) ) ;
#41 = AXIS2_PLACEMENT_3D ( 'NONE', #443, #796, #192 ) ;
#42 = CC_DESIGN_SECURITY_CLASSIFICATION ( #881, ( #736 ) ) ;
#43 = ORIENTED_EDGE ( 'NONE', *, *, #292, .T. ) ;
#44 = FACE_OUTER_BOUND ( 'NONE', #270, .T. ) ;
#45 = DIRECTION ( 'NONE',  ( 0.000000000000000000, 0.000000000000000000, 1.000000000000000000 ) ) ;
#46 = ORIENTED_EDGE ( 'NONE', *, *, #94, .T. ) ;
#47 = DIRECTION ( 'NONE',  ( -0.000000000000000000, 1.000000000000000000, -0.000000000000000000 ) ) ;
#48 = FACE_OUTER_BOUND ( 'NONE', #253, .T. ) ;
#49 = DIRECTION ( 'NONE',  ( -0.000000000000000000, 1.000000000000000000, -0.000000000000000000 ) ) ;
#50 = ORIENTED_EDGE ( 'NONE', *, *, #136, .F. ) ;
#51 = CARTESIAN_POINT ( 'NONE',  ( 7.999999999999998224, 5.000000000000000000, -13.85640646055102820 ) ) ;
#52 = VECTOR ( 'NONE', #574, 1000.000000000000000 ) ;
#53 = CARTESIAN_POINT ( 'NONE',  ( -8.000000000000000000, 5.000000000000000000, -15.65640646055102891 ) ) ;
#54 = AXIS2_PLACEMENT_3D ( 'NONE', #406, #712, #177 ) ;
#55 = VERTEX_POINT ( 'NONE', #106 ) ;
#56 = CIRCLE ( 'NONE', #635, 3.360000000000000320 ) ;
#57 = CYLINDRICAL_SURFACE ( 'NONE', #396, 1.799999999999999600 ) ;
#58 = DIRECTION ( 'NONE',  ( -0.000000000000000000, 1.000000000000000000, -0.000000000000000000 ) ) ;
#59 = DIRECTION ( 'NONE',  ( -0.000000000000000000, 1.000000000000000000, -0.000000000000000000 ) ) ;
#60 = VERTEX_POINT ( 'NONE', #407 ) ;
#61 = ADVANCED_FACE ( 'NONE', ( #339 ), #682, .F. ) ;
#62 = PLANE ( 'NONE',  #825 ) ;
#63 = DIRECTION ( 'NONE',  ( 0.000000000000000000, 0.7071067811865471286, 0.7071067811865479058 ) ) ;
#64 = EDGE_LOOP ( 'NONE', ( #803, #389, #452, #408 ) ) ;
#65 = COORDINATED_UNIVERSAL_TIME_OFFSET ( 8, 0, .AHEAD. ) ;
#66 = EDGE_CURVE ( 'NONE', #696, #768, #923, .T. ) ;
#67 = DIRECTION ( 'NONE',  ( 0.000000000000000000, 0.7071067811865471286, 0.7071067811865479058 ) ) ;
#68 = DIRECTION ( 'NONE',  ( 0.000000000000000000, 0.000000000000000000, 1.000000000000000000 ) ) ;
#69 = ORIENTED_EDGE ( 'NONE', *, *, #640, .F. ) ;
#70 = DIRECTION ( 'NONE',  ( 1.000000000000000000, 0.000000000000000000, 0.000000000000000000 ) ) ;
#71 = CIRCLE ( 'NONE', #8, 1.799999999999999600 ) ;
#72 = AXIS2_PLACEMENT_3D ( 'NONE', #296, #672, #967 ) ;
#73 = CARTESIAN_POINT ( 'NONE',  ( -8.000000000000000000, 5.000000000000000000, -13.85640646055103176 ) ) ;
#74 = CARTESIAN_POINT ( 'NONE',  ( -8.000000000000000000, 5.000000000000000000, -12.05640646055103105 ) ) ;
#75 = ORIENTED_EDGE ( 'NONE', *, *, #409, .F. ) ;
#76 = CALENDAR_DATE ( 2026, 26, 2 ) ;
#77 = CARTESIAN_POINT ( 'NONE',  ( -8.000000000000010658, 5.000000000000000000, 13.85640646055102287 ) ) ;
#78 = CC_DESIGN_PERSON_AND_ORGANIZATION_ASSIGNMENT ( #966, #747, ( #602 ) ) ;
#79 = FACE_OUTER_BOUND ( 'NONE', #552, .T. ) ;
#80 = VERTEX_POINT ( 'NONE', #798 ) ;
#81 = SHAPE_DEFINITION_REPRESENTATION ( #782, #233 ) ;
#82 = FACE_OUTER_BOUND ( 'NONE', #123, .T. ) ;
#83 = DIRECTION ( 'NONE',  ( 0.000000000000000000, 1.000000000000000000, 0.000000000000000000 ) ) ;
#84 = ORIENTED_EDGE ( 'NONE', *, *, #172, .T. ) ;
#85 = ORIENTED_EDGE ( 'NONE', *, *, #250, .T. ) ;
#86 = AXIS2_PLACEMENT_3D ( 'NONE', #906, #691, #243 ) ;
#87 = CIRCLE ( 'NONE', #216, 1.799999999999999600 ) ;
#88 = CIRCLE ( 'NONE', #333, 1.799999999999999600 ) ;
#89 = CYLINDRICAL_SURFACE ( 'NONE', #822, 1.799999999999999600 ) ;
#90 = EDGE_LOOP ( 'NONE', ( #540, #542 ) ) ;
#91 = EDGE_CURVE ( 'NONE', #613, #905, #134, .T. ) ;
#92 = FACE_BOUND ( 'NONE', #93, .T. ) ;
#93 = EDGE_LOOP ( 'NONE', ( #320, #600 ) ) ;
#94 = EDGE_CURVE ( 'NONE', #740, #55, #959, .T. ) ;
#95 = LINE ( 'NONE', #968, #604 ) ;
#96 = PERSON ( 'UNSPECIFIED', 'UNSPECIFIED', 'UNSPECIFIED', ('UNSPECIFIED'), ('UNSPECIFIED'), ('UNSPECIFIED') ) ;
#97 = EDGE_LOOP ( 'NONE', ( #285, #355, #174, #290 ) ) ;
#98 = ORIENTED_EDGE ( 'NONE', *, *, #936, .F. ) ;
#99 = CARTESIAN_POINT ( 'NONE',  ( 8.000000000000000000, 5.000000000000000000, 10.49640646055102700 ) ) ;
#100 = CIRCLE ( 'NONE', #551, 30.00000000000000000 ) ;
#101 = CONICAL_SURFACE ( 'NONE', #649, 3.360000000000000320, 0.7853981633974488341 ) ;
#102 = VECTOR ( 'NONE', #271, 1000.000000000000000 ) ;
#103 = DIRECTION ( 'NONE',  ( 0.000000000000000000, 0.000000000000000000, 1.000000000000000000 ) ) ;
#104 = EDGE_CURVE ( 'NONE', #387, #688, #437, .T. ) ;
#105 = AXIS2_PLACEMENT_3D ( 'NONE', #592, #821, #70 ) ;
#106 = CARTESIAN_POINT ( 'NONE',  ( 8.000000000000000000, 3.440000000000001279, 12.05640646055102749 ) ) ;
#107 = ORIENTED_EDGE ( 'NONE', *, *, #104, .F. ) ;
#108 = DIRECTION ( 'NONE',  ( 0.000000000000000000, 0.000000000000000000, 1.000000000000000000 ) ) ;
#109 = DIRECTION ( 'NONE',  ( 8.659560562354937789E-17, 0.7071067811865471286, -0.7071067811865479058 ) ) ;
#110 = ADVANCED_FACE ( 'NONE', ( #784 ), #180, .F. ) ;
#111 = FACE_OUTER_BOUND ( 'NONE', #64, .T. ) ;
#112 = ORIENTED_EDGE ( 'NONE', *, *, #969, .T. ) ;
#113 = DIRECTION ( 'NONE',  ( 0.000000000000000000, 0.000000000000000000, 1.000000000000000000 ) ) ;
#114 = CARTESIAN_POINT ( 'NONE',  ( 7.999999999999998224, 3.440000000000001279, -12.05640646055102749 ) ) ;
#115 = DIRECTION ( 'NONE',  ( -0.000000000000000000, 1.000000000000000000, -0.000000000000000000 ) ) ;
#116 = VERTEX_POINT ( 'NONE', #859 ) ;
#117 =( NAMED_UNIT ( * ) PLANE_ANGLE_UNIT ( ) SI_UNIT ( $, .RADIAN. ) );
#118 = LINE ( 'NONE', #791, #503 ) ;
#119 = CIRCLE ( 'NONE', #167, 29.60000000000000497 ) ;
#120 = CIRCLE ( 'NONE', #667, 30.00000000000000000 ) ;
#121 = DIRECTION ( 'NONE',  ( 0.000000000000000000, 0.000000000000000000, 1.000000000000000000 ) ) ;
#122 = VECTOR ( 'NONE', #346, 1000.000000000000114 ) ;
#123 = EDGE_LOOP ( 'NONE', ( #328, #558, #294, #596 ) ) ;
#124 = DIRECTION ( 'NONE',  ( -0.000000000000000000, 1.000000000000000000, -0.000000000000000000 ) ) ;
#125 = ADVANCED_FACE ( 'NONE', ( #111 ), #481, .F. ) ;
#126 = DIRECTION ( 'NONE',  ( -0.000000000000000000, 1.000000000000000000, -0.000000000000000000 ) ) ;
#127 = CARTESIAN_POINT ( 'NONE',  ( -8.000000000000010658, 5.000000000000000000, 17.21640646055102408 ) ) ;
#128 = VERTEX_POINT ( 'NONE', #344 ) ;
#129 = CYLINDRICAL_SURFACE ( 'NONE', #316, 30.00000000000000000 ) ;
#130 = CARTESIAN_POINT ( 'NONE',  ( 3.649447461459111675E-15, 5.000000000000000000, 29.60000000000000497 ) ) ;
#131 = ORIENTED_EDGE ( 'NONE', *, *, #771, .T. ) ;
#132 = DIRECTION ( 'NONE',  ( 0.000000000000000000, 0.000000000000000000, 1.000000000000000000 ) ) ;
#133 = CARTESIAN_POINT ( 'NONE',  ( 0.000000000000000000, 0.000000000000000000, 0.000000000000000000 ) ) ;
#134 = CIRCLE ( 'NONE', #363, 3.360000000000000320 ) ;
#135 = AXIS2_PLACEMENT_3D ( 'NONE', #615, #609, #674 ) ;
#136 = EDGE_CURVE ( 'NONE', #780, #116, #424, .T. ) ;
#137 = DIRECTION ( 'NONE',  ( -0.000000000000000000, 1.000000000000000000, -0.000000000000000000 ) ) ;
#138 = AXIS2_PLACEMENT_3D ( 'NONE', #545, #189, #472 ) ;
#139 = ORIENTED_EDGE ( 'NONE', *, *, #35, .T. ) ;
#140 = CIRCLE ( 'NONE', #275, 1.799999999999997824 ) ;
#141 = LOCAL_TIME ( 21, 24, 42.00000000000000000, #527 ) ;
#142 = CARTESIAN_POINT ( 'NONE',  ( -8.000000000000000000, 5.000000000000000000, -10.49640646055103055 ) ) ;
#143 = DIRECTION ( 'NONE',  ( -0.000000000000000000, 1.000000000000000000, -0.000000000000000000 ) ) ;
#144 = EDGE_CURVE ( 'NONE', #773, #422, #705, .T. ) ;
#145 = EDGE_LOOP ( 'NONE', ( #164, #934 ) ) ;
#146 = APPROVAL_STATUS ( 'not_yet_approved' ) ;
#147 = DIRECTION ( 'NONE',  ( 0.000000000000000000, 0.000000000000000000, 1.000000000000000000 ) ) ;
#148 = DIRECTION ( 'NONE',  ( 0.000000000000000000, 0.000000000000000000, 1.000000000000000000 ) ) ;
#149 = VERTEX_POINT ( 'NONE', #402 ) ;
#150 = COORDINATED_UNIVERSAL_TIME_OFFSET ( 8, 0, .AHEAD. ) ;
#151 = FACE_OUTER_BOUND ( 'NONE', #929, .T. ) ;
#152 = CARTESIAN_POINT ( 'NONE',  ( -8.000000000000010658, 5.000000000000000000, 10.49640646055102167 ) ) ;
#153 = ORIENTED_EDGE ( 'NONE', *, *, #144, .F. ) ;
#154 = COORDINATED_UNIVERSAL_TIME_OFFSET ( 8, 0, .AHEAD. ) ;
#155 = AXIS2_PLACEMENT_3D ( 'NONE', #467, #27, #624 ) ;
#156 = EDGE_CURVE ( 'NONE', #116, #780, #878, .T. ) ;
#157 = CARTESIAN_POINT ( 'NONE',  ( -8.000000000000010658, 3.440000000000001279, 13.85640646055102287 ) ) ;
#158 = DIRECTION ( 'NONE',  ( 0.000000000000000000, 0.000000000000000000, 1.000000000000000000 ) ) ;
#159 = EDGE_LOOP ( 'NONE', ( #560, #722 ) ) ;
#160 = APPROVAL_ROLE ( '' ) ;
#161 = DIRECTION ( 'NONE',  ( -0.000000000000000000, 1.000000000000000000, -0.000000000000000000 ) ) ;
#162 = DIRECTION ( 'NONE',  ( 0.000000000000000000, 0.7071067811865471286, 0.7071067811865479058 ) ) ;
#163 = EDGE_LOOP ( 'NONE', ( #23, #266, #894, #531 ) ) ;
#164 = ORIENTED_EDGE ( 'NONE', *, *, #208, .T. ) ;
#165 = DIRECTION ( 'NONE',  ( -0.000000000000000000, 1.000000000000000000, -0.000000000000000000 ) ) ;
#166 = ORIENTED_EDGE ( 'NONE', *, *, #724, .F. ) ;
#167 = AXIS2_PLACEMENT_3D ( 'NONE', #806, #438, #357 ) ;
#168 = AXIS2_PLACEMENT_3D ( 'NONE', #353, #342, #940 ) ;
#169 = AXIS2_PLACEMENT_3D ( 'NONE', #921, #448, #374 ) ;
#170 = DIRECTION ( 'NONE',  ( 0.000000000000000000, 0.000000000000000000, 1.000000000000000000 ) ) ;
#171 = ORIENTED_EDGE ( 'NONE', *, *, #767, .T. ) ;
#172 = EDGE_CURVE ( 'NONE', #918, #852, #474, .T. ) ;
#173 = FACE_OUTER_BOUND ( 'NONE', #440, .T. ) ;
#174 = ORIENTED_EDGE ( 'NONE', *, *, #194, .T. ) ;
#175 = CARTESIAN_POINT ( 'NONE',  ( 0.000000000000000000, 5.000000000000000000, -29.60000000000000497 ) ) ;
#176 = EDGE_CURVE ( 'NONE', #695, #533, #71, .T. ) ;
#177 = DIRECTION ( 'NONE',  ( 0.000000000000000000, 0.000000000000000000, 1.000000000000000000 ) ) ;
#178 = CARTESIAN_POINT ( 'NONE',  ( -16.00000000000000711, 5.000000000000000000, 1.799999999999997824 ) ) ;
#179 = DIRECTION ( 'NONE',  ( -0.000000000000000000, 1.000000000000000000, -0.000000000000000000 ) ) ;
#180 = CONICAL_SURFACE ( 'NONE', #301, 3.360000000000000320, 0.7853981633974488341 ) ;
#181 = CIRCLE ( 'NONE', #735, 3.360000000000000320 ) ;
#182 = EDGE_CURVE ( 'NONE', #852, #128, #748, .T. ) ;
#183 = LOCAL_TIME ( 21, 24, 42.00000000000000000, #224 ) ;
#184 = DIRECTION ( 'NONE',  ( 0.000000000000000000, 0.000000000000000000, 1.000000000000000000 ) ) ;
#185 = DIRECTION ( 'NONE',  ( 0.000000000000000000, 0.7071067811865471286, 0.7071067811865479058 ) ) ;
#186 = PRODUCT_RELATED_PRODUCT_CATEGORY ( 'detail', '', ( #919 ) ) ;
#187 = ORIENTED_EDGE ( 'NONE', *, *, #176, .T. ) ;
#188 = CARTESIAN_POINT ( 'NONE',  ( 7.999999999999998224, 5.000000000000000000, -13.85640646055102820 ) ) ;
#189 = DIRECTION ( 'NONE',  ( -0.000000000000000000, 1.000000000000000000, -0.000000000000000000 ) ) ;
#190 = CARTESIAN_POINT ( 'NONE',  ( -16.00000000000000711, 0.000000000000000000, -1.800000000000001155 ) ) ;
#191 = ORIENTED_EDGE ( 'NONE', *, *, #331, .F. ) ;
#192 = DIRECTION ( 'NONE',  ( 0.000000000000000000, 0.000000000000000000, 1.000000000000000000 ) ) ;
#193 = DIRECTION ( 'NONE',  ( 0.000000000000000000, 0.000000000000000000, 1.000000000000000000 ) ) ;
#194 = EDGE_CURVE ( 'NONE', #351, #613, #738, .T. ) ;
#195 = VERTEX_POINT ( 'NONE', #745 ) ;
#196 = LINE ( 'NONE', #480, #122 ) ;
#197 = DIRECTION ( 'NONE',  ( -0.000000000000000000, 1.000000000000000000, -0.000000000000000000 ) ) ;
#198 = VECTOR ( 'NONE', #506, 1000.000000000000000 ) ;
#199 = CONICAL_SURFACE ( 'NONE', #485, 3.360000000000002096, 0.7853981633974492782 ) ;
#200 = ORIENTED_EDGE ( 'NONE', *, *, #943, .T. ) ;
#201 = CIRCLE ( 'NONE', #946, 30.00000000000000000 ) ;
#202 = EDGE_LOOP ( 'NONE', ( #864, #112, #807, #489 ) ) ;
#203 = CARTESIAN_POINT ( 'NONE',  ( 8.000000000000000000, 5.000000000000000000, 13.85640646055102820 ) ) ;
#204 = CARTESIAN_POINT ( 'NONE',  ( 7.999999999999998224, 5.000000000000000000, -17.21640646055102764 ) ) ;
#205 = CARTESIAN_POINT ( 'NONE',  ( 0.000000000000000000, 4.600000000000012967, -30.00000000000000000 ) ) ;
#206 = VERTEX_POINT ( 'NONE', #429 ) ;
#207 = DIRECTION ( 'NONE',  ( -0.000000000000000000, 1.000000000000000000, -0.000000000000000000 ) ) ;
#208 = EDGE_CURVE ( 'NONE', #774, #313, #119, .T. ) ;
#209 = FACE_BOUND ( 'NONE', #386, .T. ) ;
#210 = CARTESIAN_POINT ( 'NONE',  ( 7.999999999999998224, 3.440000000000001279, -13.85640646055102820 ) ) ;
#211 = ORIENTED_EDGE ( 'NONE', *, *, #304, .T. ) ;
#212 = APPROVAL_ROLE ( '' ) ;
#213 = EDGE_CURVE ( 'NONE', #852, #195, #751, .T. ) ;
#214 = AXIS2_PLACEMENT_3D ( 'NONE', #903, #375, #678 ) ;
#215 = CARTESIAN_POINT ( 'NONE',  ( -8.000000000000010658, 5.000000000000000000, 12.05640646055102394 ) ) ;
#216 = AXIS2_PLACEMENT_3D ( 'NONE', #783, #401, #708 ) ;
#217 = EDGE_LOOP ( 'NONE', ( #563, #620 ) ) ;
#218 = CIRCLE ( 'NONE', #650, 3.360000000000002096 ) ;
#219 = APPROVAL_STATUS ( 'not_yet_approved' ) ;
#220 = LOCAL_TIME ( 21, 24, 42.00000000000000000, #65 ) ;
#221 = DIRECTION ( 'NONE',  ( 0.000000000000000000, -0.000000000000000000, 1.000000000000000000 ) ) ;
#222 = CARTESIAN_POINT ( 'NONE',  ( 16.00000000000000000, 5.000000000000000000, 1.799999999999999600 ) ) ;
#223 = ORIENTED_EDGE ( 'NONE', *, *, #833, .F. ) ;
#224 = COORDINATED_UNIVERSAL_TIME_OFFSET ( 8, 0, .AHEAD. ) ;
#225 = DIRECTION ( 'NONE',  ( -0.000000000000000000, 1.000000000000000000, -0.000000000000000000 ) ) ;
#226 = VERTEX_POINT ( 'NONE', #205 ) ;
#227 = PERSON_AND_ORGANIZATION_ROLE ( 'design_supplier' ) ;
#228 = EDGE_CURVE ( 'NONE', #877, #351, #364, .T. ) ;
#229 = DIRECTION ( 'NONE',  ( -0.000000000000000000, 1.000000000000000000, -0.000000000000000000 ) ) ;
#230 = LINE ( 'NONE', #16, #468 ) ;
#231 = ORIENTED_EDGE ( 'NONE', *, *, #739, .F. ) ;
#232 = CALENDAR_DATE ( 2026, 26, 2 ) ;
#233 = ADVANCED_BREP_SHAPE_REPRESENTATION ( 'OutRunnerCap', ( #359, #105 ), #911 ) ;
#234 = AXIS2_PLACEMENT_3D ( 'NONE', #77, #161, #898 ) ;
#235 = CARTESIAN_POINT ( 'NONE',  ( 8.000000000000000000, 5.000000000000000000, 15.65640646055102536 ) ) ;
#236 = DIRECTION ( 'NONE',  ( 0.000000000000000000, -0.000000000000000000, 1.000000000000000000 ) ) ;
#237 = ORIENTED_EDGE ( 'NONE', *, *, #954, .F. ) ;
#238 = EDGE_CURVE ( 'NONE', #461, #534, #484, .T. ) ;
#239 = FACE_OUTER_BOUND ( 'NONE', #525, .T. ) ;
#240 = VERTEX_POINT ( 'NONE', #653 ) ;
#241 = VERTEX_POINT ( 'NONE', #884 ) ;
#242 = EDGE_CURVE ( 'NONE', #913, #681, #863, .T. ) ;
#243 = DIRECTION ( 'NONE',  ( 0.000000000000000000, 0.000000000000000000, 1.000000000000000000 ) ) ;
#244 = ORIENTED_EDGE ( 'NONE', *, *, #660, .T. ) ;
#245 = CIRCLE ( 'NONE', #455, 1.799999999999999600 ) ;
#246 = VECTOR ( 'NONE', #362, 1000.000000000000000 ) ;
#247 = VECTOR ( 'NONE', #853, 1000.000000000000000 ) ;
#248 = CARTESIAN_POINT ( 'NONE',  ( 3.673940397442059178E-15, 5.000000000000000000, 30.00000000000000000 ) ) ;
#249 = ORIENTED_EDGE ( 'NONE', *, *, #420, .F. ) ;
#250 = EDGE_CURVE ( 'NONE', #494, #240, #876, .T. ) ;
#251 = DIRECTION ( 'NONE',  ( 0.000000000000000000, 0.000000000000000000, 1.000000000000000000 ) ) ;
#252 = LINE ( 'NONE', #857, #686 ) ;
#253 = EDGE_LOOP ( 'NONE', ( #625, #107, #583, #832 ) ) ;
#254 = APPROVAL ( #447, 'UNSPECIFIED' ) ;
#255 = CARTESIAN_POINT ( 'NONE',  ( -8.000000000000000000, 0.000000000000000000, -13.85640646055103176 ) ) ;
#256 = VERTEX_POINT ( 'NONE', #669 ) ;
#257 = ORIENTED_EDGE ( 'NONE', *, *, #431, .F. ) ;
#258 = DIRECTION ( 'NONE',  ( 0.000000000000000000, 0.000000000000000000, 1.000000000000000000 ) ) ;
#259 = AXIS2_PLACEMENT_3D ( 'NONE', #910, #755, #450 ) ;
#260 = AXIS2_PLACEMENT_3D ( 'NONE', #661, #126, #286 ) ;
#261 = CONICAL_SURFACE ( 'NONE', #838, 3.360000000000002096, 0.7853981633974488341 ) ;
#262 = FACE_OUTER_BOUND ( 'NONE', #475, .T. ) ;
#263 = CARTESIAN_POINT ( 'NONE',  ( 7.999999999999998224, 5.000000000000000000, -10.49640646055102700 ) ) ;
#264 = ORIENTED_EDGE ( 'NONE', *, *, #660, .F. ) ;
#265 = CARTESIAN_POINT ( 'NONE',  ( 7.999999999999998224, 5.000000000000000000, -13.85640646055102820 ) ) ;
#266 = ORIENTED_EDGE ( 'NONE', *, *, #94, .F. ) ;
#267 = DIRECTION ( 'NONE',  ( 0.000000000000000000, 0.000000000000000000, 1.000000000000000000 ) ) ;
#268 = EDGE_CURVE ( 'NONE', #226, #256, #100, .T. ) ;
#269 = DIRECTION ( 'NONE',  ( -0.000000000000000000, 1.000000000000000000, -0.000000000000000000 ) ) ;
#270 = EDGE_LOOP ( 'NONE', ( #907, #752, #276, #827 ) ) ;
#271 = DIRECTION ( 'NONE',  ( -0.000000000000000000, 1.000000000000000000, -0.000000000000000000 ) ) ;
#272 = DIRECTION ( 'NONE',  ( -0.000000000000000000, 1.000000000000000000, -0.000000000000000000 ) ) ;
#273 = VECTOR ( 'NONE', #709, 1000.000000000000000 ) ;
#274 = CARTESIAN_POINT ( 'NONE',  ( 16.00000000000000000, 0.000000000000000000, 0.000000000000000000 ) ) ;
#275 = AXIS2_PLACEMENT_3D ( 'NONE', #255, #619, #702 ) ;
#276 = ORIENTED_EDGE ( 'NONE', *, *, #435, .T. ) ;
#277 = APPLICATION_PROTOCOL_DEFINITION ( 'international standard', 'config_control_design', 1994, #381 ) ;
#278 = EDGE_CURVE ( 'NONE', #533, #695, #393, .T. ) ;
#279 = DIRECTION ( 'NONE',  ( 0.000000000000000000, 0.000000000000000000, -1.000000000000000000 ) ) ;
#280 = DIRECTION ( 'NONE',  ( -0.000000000000000000, 1.000000000000000000, -0.000000000000000000 ) ) ;
#281 = EDGE_LOOP ( 'NONE', ( #965, #770, #517, #46 ) ) ;
#282 = PERSON_AND_ORGANIZATION_ROLE ( 'design_owner' ) ;
#283 = EDGE_CURVE ( 'NONE', #434, #149, #500, .T. ) ;
#284 = DIRECTION ( 'NONE',  ( 0.000000000000000000, 1.000000000000000000, 0.000000000000000000 ) ) ;
#285 = ORIENTED_EDGE ( 'NONE', *, *, #477, .F. ) ;
#286 = DIRECTION ( 'NONE',  ( 0.000000000000000000, 0.000000000000000000, 1.000000000000000000 ) ) ;
#287 = VECTOR ( 'NONE', #63, 1000.000000000000000 ) ;
#288 = CARTESIAN_POINT ( 'NONE',  ( -8.000000000000010658, 3.440000000000001279, 13.85640646055102287 ) ) ;
#289 = VECTOR ( 'NONE', #593, 1000.000000000000114 ) ;
#290 = ORIENTED_EDGE ( 'NONE', *, *, #91, .T. ) ;
#291 = LINE ( 'NONE', #573, #289 ) ;
#292 = EDGE_CURVE ( 'NONE', #695, #387, #888, .T. ) ;
#293 = DIRECTION ( 'NONE',  ( 0.000000000000000000, 0.000000000000000000, 1.000000000000000000 ) ) ;
#294 = ORIENTED_EDGE ( 'NONE', *, *, #308, .T. ) ;
#295 = PERSON_AND_ORGANIZATION ( #96, #317 ) ;
#296 = CARTESIAN_POINT ( 'NONE',  ( 16.00000000000000000, 3.440000000000001279, 0.000000000000000000 ) ) ;
#297 = FACE_BOUND ( 'NONE', #159, .T. ) ;
#298 = ORIENTED_EDGE ( 'NONE', *, *, #383, .T. ) ;
#299 = FACE_OUTER_BOUND ( 'NONE', #12, .T. ) ;
#300 = FACE_OUTER_BOUND ( 'NONE', #537, .T. ) ;
#301 = AXIS2_PLACEMENT_3D ( 'NONE', #721, #49, #193 ) ;
#302 = ORIENTED_EDGE ( 'NONE', *, *, #801, .T. ) ;
#303 = CIRCLE ( 'NONE', #234, 3.360000000000002096 ) ;
#304 = EDGE_CURVE ( 'NONE', #241, #422, #648, .T. ) ;
#305 = CARTESIAN_POINT ( 'NONE',  ( 7.999999999999998224, 5.000000000000000000, -12.05640646055102749 ) ) ;
#306 = ORIENTED_EDGE ( 'NONE', *, *, #278, .F. ) ;
#307 = ORIENTED_EDGE ( 'NONE', *, *, #640, .T. ) ;
#308 = EDGE_CURVE ( 'NONE', #905, #613, #521, .T. ) ;
#309 = CARTESIAN_POINT ( 'NONE',  ( -8.000000000000010658, 5.000000000000000000, 13.85640646055102287 ) ) ;
#310 = ORIENTED_EDGE ( 'NONE', *, *, #268, .T. ) ;
#311 = CARTESIAN_POINT ( 'NONE',  ( -16.00000000000000711, 5.000000000000000000, -3.360000000000002096 ) ) ;
#312 = ORIENTED_EDGE ( 'NONE', *, *, #931, .F. ) ;
#313 = VERTEX_POINT ( 'NONE', #130 ) ;
#314 = AXIS2_PLACEMENT_3D ( 'NONE', #334, #546, #846 ) ;
#315 = CARTESIAN_POINT ( 'NONE',  ( -16.00000000000000711, 0.000000000000000000, 1.799999999999997824 ) ) ;
#316 = AXIS2_PLACEMENT_3D ( 'NONE', #348, #652, #279 ) ;
#317 = ORGANIZATION ( 'UNSPECIFIED', 'UNSPECIFIED', '' ) ;
#318 = DIRECTION ( 'NONE',  ( 0.000000000000000000, 0.000000000000000000, 1.000000000000000000 ) ) ;
#319 = EDGE_CURVE ( 'NONE', #451, #128, #874, .T. ) ;
#320 = ORIENTED_EDGE ( 'NONE', *, *, #776, .F. ) ;
#321 = DIRECTION ( 'NONE',  ( 0.000000000000000000, 0.000000000000000000, 1.000000000000000000 ) ) ;
#322 = DIRECTION ( 'NONE',  ( 0.000000000000000000, -1.000000000000000000, 0.000000000000000000 ) ) ;
#323 = DIRECTION ( 'NONE',  ( 0.000000000000000000, -1.000000000000000000, 0.000000000000000000 ) ) ;
#324 = ORIENTED_EDGE ( 'NONE', *, *, #883, .T. ) ;
#325 = LINE ( 'NONE', #394, #651 ) ;
#326 = DIRECTION ( 'NONE',  ( -0.000000000000000000, 1.000000000000000000, -0.000000000000000000 ) ) ;
#327 = CARTESIAN_POINT ( 'NONE',  ( 7.999999999999998224, 5.000000000000000000, -13.85640646055102820 ) ) ;
#328 = ORIENTED_EDGE ( 'NONE', *, *, #568, .F. ) ;
#329 = DIRECTION ( 'NONE',  ( -0.000000000000000000, 1.000000000000000000, -0.000000000000000000 ) ) ;
#330 = AXIS2_PLACEMENT_3D ( 'NONE', #417, #726, #413 ) ;
#331 = EDGE_CURVE ( 'NONE', #918, #451, #245, .T. ) ;
#332 = CONICAL_SURFACE ( 'NONE', #365, 3.360000000000002096, 0.7853981633974488341 ) ;
#333 = AXIS2_PLACEMENT_3D ( 'NONE', #655, #804, #950 ) ;
#334 = CARTESIAN_POINT ( 'NONE',  ( 8.000000000000000000, 5.000000000000000000, 13.85640646055102820 ) ) ;
#335 = ORIENTED_EDGE ( 'NONE', *, *, #449, .T. ) ;
#336 = CARTESIAN_POINT ( 'NONE',  ( 16.00000000000000000, 5.000000000000000000, -1.799999999999999600 ) ) ;
#337 = ADVANCED_FACE ( 'NONE', ( #354, #742, #594, #952, #92, #297, #759 ), #385, .T. ) ;
#338 = CYLINDRICAL_SURFACE ( 'NONE', #605, 1.799999999999999600 ) ;
#339 = FACE_OUTER_BOUND ( 'NONE', #202, .T. ) ;
#340 = VERTEX_POINT ( 'NONE', #311 ) ;
#341 = CARTESIAN_POINT ( 'NONE',  ( 8.000000000000000000, 0.000000000000000000, 13.85640646055102820 ) ) ;
#342 = DIRECTION ( 'NONE',  ( -0.000000000000000000, 1.000000000000000000, -0.000000000000000000 ) ) ;
#343 = ADVANCED_FACE ( 'NONE', ( #599 ), #89, .F. ) ;
#344 = CARTESIAN_POINT ( 'NONE',  ( -8.000000000000010658, 3.440000000000001279, 15.65640646055102181 ) ) ;
#345 = ORIENTED_EDGE ( 'NONE', *, *, #278, .T. ) ;
#346 = DIRECTION ( 'NONE',  ( 0.000000000000000000, -0.7071067811865413555, -0.7071067811865536790 ) ) ;
#347 = VECTOR ( 'NONE', #137, 1000.000000000000000 ) ;
#348 = CARTESIAN_POINT ( 'NONE',  ( 0.000000000000000000, 5.000000000000000000, 0.000000000000000000 ) ) ;
#349 = DIRECTION ( 'NONE',  ( 0.000000000000000000, 0.000000000000000000, 1.000000000000000000 ) ) ;
#350 = EDGE_CURVE ( 'NONE', #256, #434, #535, .T. ) ;
#351 = VERTEX_POINT ( 'NONE', #840 ) ;
#352 = DIRECTION ( 'NONE',  ( 0.000000000000000000, 0.000000000000000000, 1.000000000000000000 ) ) ;
#353 = CARTESIAN_POINT ( 'NONE',  ( -16.00000000000000711, 0.000000000000000000, -1.788740740500655915E-15 ) ) ;
#354 = FACE_OUTER_BOUND ( 'NONE', #145, .T. ) ;
#355 = ORIENTED_EDGE ( 'NONE', *, *, #902, .F. ) ;
#356 = CARTESIAN_POINT ( 'NONE',  ( -16.00000000000000711, 5.000000000000000000, -1.800000000000001155 ) ) ;
#357 = DIRECTION ( 'NONE',  ( 0.000000000000000000, 0.000000000000000000, 1.000000000000000000 ) ) ;
#358 = ORIENTED_EDGE ( 'NONE', *, *, #931, .T. ) ;
#359 = MANIFOLD_SOLID_BREP ( 'Chamfer1', #926 ) ;
#360 = CALENDAR_DATE ( 2026, 26, 2 ) ;
#361 = ADVANCED_FACE ( 'NONE', ( #173 ), #460, .T. ) ;
#362 = DIRECTION ( 'NONE',  ( -0.000000000000000000, 1.000000000000000000, -0.000000000000000000 ) ) ;
#363 = AXIS2_PLACEMENT_3D ( 'NONE', #788, #115, #713 ) ;
#364 = LINE ( 'NONE', #74, #836 ) ;
#365 = AXIS2_PLACEMENT_3D ( 'NONE', #623, #21, #318 ) ;
#366 = ORIENTED_EDGE ( 'NONE', *, *, #213, .F. ) ;
#367 = AXIS2_PLACEMENT_3D ( 'NONE', #341, #786, #113 ) ;
#368 = DATE_TIME_ROLE ( 'creation_date' ) ;
#369 = CARTESIAN_POINT ( 'NONE',  ( -8.000000000000000000, 5.000000000000000000, -13.85640646055103176 ) ) ;
#370 = CARTESIAN_POINT ( 'NONE',  ( -8.000000000000000000, 5.000000000000000000, -10.49640646055103055 ) ) ;
#371 = ORIENTED_EDGE ( 'NONE', *, *, #943, .F. ) ;
#372 = CC_DESIGN_PERSON_AND_ORGANIZATION_ASSIGNMENT ( #757, #227, ( #736 ) ) ;
#373 = DATE_AND_TIME ( #76, #441 ) ;
#374 = DIRECTION ( 'NONE',  ( 0.000000000000000000, 0.000000000000000000, 1.000000000000000000 ) ) ;
#375 = DIRECTION ( 'NONE',  ( -0.000000000000000000, 1.000000000000000000, -0.000000000000000000 ) ) ;
#376 = ADVANCED_FACE ( 'NONE', ( #300 ), #837, .F. ) ;
#377 = ORIENTED_EDGE ( 'NONE', *, *, #182, .T. ) ;
#378 = APPROVAL_ROLE ( '' ) ;
#379 = FACE_OUTER_BOUND ( 'NONE', #97, .T. ) ;
#380 = DIRECTION ( 'NONE',  ( -0.000000000000000000, 1.000000000000000000, -0.000000000000000000 ) ) ;
#381 = APPLICATION_CONTEXT ( 'configuration controlled 3d designs of mechanical parts and assemblies' ) ;
#382 = ORIENTED_EDGE ( 'NONE', *, *, #6, .T. ) ;
#383 = EDGE_CURVE ( 'NONE', #681, #534, #230, .T. ) ;
#384 = CONICAL_SURFACE ( 'NONE', #504, 3.360000000000000320, 0.7853981633974488341 ) ;
#385 = PLANE ( 'NONE',  #38 ) ;
#386 = EDGE_LOOP ( 'NONE', ( #302, #564 ) ) ;
#387 = VERTEX_POINT ( 'NONE', #4 ) ;
#388 = CARTESIAN_POINT ( 'NONE',  ( -16.00000000000000711, 5.000000000000000000, -3.360000000000002096 ) ) ;
#389 = ORIENTED_EDGE ( 'NONE', *, *, #801, .F. ) ;
#390 = ADVANCED_FACE ( 'NONE', ( #79 ), #523, .F. ) ;
#391 = DIRECTION ( 'NONE',  ( -0.000000000000000000, 1.000000000000000000, -0.000000000000000000 ) ) ;
#392 = ORIENTED_EDGE ( 'NONE', *, *, #6, .F. ) ;
#393 = CIRCLE ( 'NONE', #571, 1.799999999999999600 ) ;
#394 = CARTESIAN_POINT ( 'NONE',  ( 16.00000000000000000, 5.000000000000000000, -3.360000000000002096 ) ) ;
#395 = CIRCLE ( 'NONE', #54, 1.799999999999997824 ) ;
#396 = AXIS2_PLACEMENT_3D ( 'NONE', #939, #643, #352 ) ;
#397 = FACE_OUTER_BOUND ( 'NONE', #579, .T. ) ;
#398 = DIRECTION ( 'NONE',  ( 0.000000000000000000, 0.000000000000000000, 1.000000000000000000 ) ) ;
#399 = ORIENTED_EDGE ( 'NONE', *, *, #144, .T. ) ;
#400 = CARTESIAN_POINT ( 'NONE',  ( -8.000000000000010658, 5.000000000000000000, 13.85640646055102287 ) ) ;
#401 = DIRECTION ( 'NONE',  ( -0.000000000000000000, 1.000000000000000000, -0.000000000000000000 ) ) ;
#402 = CARTESIAN_POINT ( 'NONE',  ( 0.000000000000000000, 0.000000000000000000, -30.00000000000000000 ) ) ;
#403 = EDGE_CURVE ( 'NONE', #422, #414, #95, .T. ) ;
#404 = ORIENTED_EDGE ( 'NONE', *, *, #595, .T. ) ;
#405 = FACE_OUTER_BOUND ( 'NONE', #281, .T. ) ;
#406 = CARTESIAN_POINT ( 'NONE',  ( 8.000000000000000000, 3.440000000000001279, 13.85640646055102820 ) ) ;
#407 = CARTESIAN_POINT ( 'NONE',  ( 16.00000000000000000, 5.000000000000000000, -3.360000000000002096 ) ) ;
#408 = ORIENTED_EDGE ( 'NONE', *, *, #902, .T. ) ;
#409 = EDGE_CURVE ( 'NONE', #740, #116, #834, .T. ) ;
#410 = VECTOR ( 'NONE', #165, 1000.000000000000000 ) ;
#411 = CIRCLE ( 'NONE', #961, 1.799999999999999600 ) ;
#412 = CARTESIAN_POINT ( 'NONE',  ( 8.000000000000000000, 0.000000000000000000, 15.65640646055102536 ) ) ;
#413 = DIRECTION ( 'NONE',  ( 0.000000000000000000, 0.000000000000000000, 1.000000000000000000 ) ) ;
#414 = VERTEX_POINT ( 'NONE', #826 ) ;
#415 = CARTESIAN_POINT ( 'NONE',  ( -8.000000000000000000, 0.000000000000000000, -12.05640646055103282 ) ) ;
#416 = EDGE_CURVE ( 'NONE', #498, #80, #793, .T. ) ;
#417 = CARTESIAN_POINT ( 'NONE',  ( 8.000000000000000000, 3.440000000000001279, 13.85640646055102820 ) ) ;
#418 = EDGE_LOOP ( 'NONE', ( #446, #915, #139, #244 ) ) ;
#419 = LINE ( 'NONE', #356, #246 ) ;
#420 = EDGE_CURVE ( 'NONE', #494, #877, #684, .T. ) ;
#421 = DIRECTION ( 'NONE',  ( -0.000000000000000000, 1.000000000000000000, -0.000000000000000000 ) ) ;
#422 = VERTEX_POINT ( 'NONE', #445 ) ;
#423 = CARTESIAN_POINT ( 'NONE',  ( -16.00000000000000711, 3.440000000000001279, -1.788740740500655915E-15 ) ) ;
#424 = CIRCLE ( 'NONE', #314, 3.360000000000000320 ) ;
#425 = FACE_BOUND ( 'NONE', #217, .T. ) ;
#426 = CARTESIAN_POINT ( 'NONE',  ( -8.000000000000010658, 0.000000000000000000, 13.85640646055102287 ) ) ;
#427 = ORIENTED_EDGE ( 'NONE', *, *, #104, .T. ) ;
#428 = FACE_BOUND ( 'NONE', #5, .T. ) ;
#429 = CARTESIAN_POINT ( 'NONE',  ( 16.00000000000000000, 5.000000000000000000, 3.360000000000002096 ) ) ;
#430 = ORIENTED_EDGE ( 'NONE', *, *, #182, .F. ) ;
#431 = EDGE_CURVE ( 'NONE', #451, #918, #808, .T. ) ;
#432 = DIRECTION ( 'NONE',  ( 0.000000000000000000, 0.000000000000000000, 1.000000000000000000 ) ) ;
#433 = DIRECTION ( 'NONE',  ( 0.000000000000000000, 0.000000000000000000, 1.000000000000000000 ) ) ;
#434 = VERTEX_POINT ( 'NONE', #10 ) ;
#435 = EDGE_CURVE ( 'NONE', #913, #461, #606, .T. ) ;
#436 = DIRECTION ( 'NONE',  ( -0.000000000000000000, 1.000000000000000000, -0.000000000000000000 ) ) ;
#437 = CIRCLE ( 'NONE', #734, 1.799999999999999600 ) ;
#438 = DIRECTION ( 'NONE',  ( 0.000000000000000000, 1.000000000000000000, 0.000000000000000000 ) ) ;
#439 = CIRCLE ( 'NONE', #168, 1.799999999999999600 ) ;
#440 = EDGE_LOOP ( 'NONE', ( #611, #200, #358, #794 ) ) ;
#441 = LOCAL_TIME ( 21, 24, 42.00000000000000000, #154 ) ;
#442 = APPROVAL_DATE_TIME ( #373, #254 ) ;
#443 = CARTESIAN_POINT ( 'NONE',  ( -8.000000000000000000, 5.000000000000000000, -13.85640646055103176 ) ) ;
#444 = ADVANCED_FACE ( 'NONE', ( #239 ), #532, .F. ) ;
#445 = CARTESIAN_POINT ( 'NONE',  ( -16.00000000000000711, 3.440000000000001279, 1.799999999999997824 ) ) ;
#446 = ORIENTED_EDGE ( 'NONE', *, *, #969, .F. ) ;
#447 = APPROVAL_STATUS ( 'not_yet_approved' ) ;
#448 = DIRECTION ( 'NONE',  ( -0.000000000000000000, 1.000000000000000000, -0.000000000000000000 ) ) ;
#449 = EDGE_CURVE ( 'NONE', #241, #340, #769, .T. ) ;
#450 = DIRECTION ( 'NONE',  ( 0.000000000000000000, 0.000000000000000000, 1.000000000000000000 ) ) ;
#451 = VERTEX_POINT ( 'NONE', #31 ) ;
#452 = ORIENTED_EDGE ( 'NONE', *, *, #228, .T. ) ;
#453 = CARTESIAN_POINT ( 'NONE',  ( 0.000000000000000000, 5.000000000000000000, 0.000000000000000000 ) ) ;
#454 = AXIS2_PLACEMENT_3D ( 'NONE', #327, #478, #45 ) ;
#455 = AXIS2_PLACEMENT_3D ( 'NONE', #426, #819, #433 ) ;
#456 = ORIENTED_EDGE ( 'NONE', *, *, #833, .T. ) ;
#457 = CONICAL_SURFACE ( 'NONE', #897, 29.60000000000000497, 0.7853981633974570498 ) ;
#458 = AXIS2_PLACEMENT_3D ( 'NONE', #203, #329, #800 ) ;
#459 = ORIENTED_EDGE ( 'NONE', *, *, #568, .T. ) ;
#460 = CYLINDRICAL_SURFACE ( 'NONE', #823, 30.00000000000000000 ) ;
#461 = VERTEX_POINT ( 'NONE', #114 ) ;
#462 = EDGE_CURVE ( 'NONE', #387, #206, #252, .T. ) ;
#463 = CARTESIAN_POINT ( 'NONE',  ( 0.000000000000000000, 5.000000000000000000, 0.000000000000000000 ) ) ;
#464 = ORIENTED_EDGE ( 'NONE', *, *, #795, .T. ) ;
#465 = DIRECTION ( 'NONE',  ( -0.000000000000000000, 1.000000000000000000, -0.000000000000000000 ) ) ;
#466 = DIRECTION ( 'NONE',  ( 0.000000000000000000, 0.000000000000000000, 1.000000000000000000 ) ) ;
#467 = CARTESIAN_POINT ( 'NONE',  ( 8.000000000000000000, 5.000000000000000000, 13.85640646055102820 ) ) ;
#468 = VECTOR ( 'NONE', #380, 1000.000000000000000 ) ;
#469 = VECTOR ( 'NONE', #845, 1000.000000000000000 ) ;
#470 = CYLINDRICAL_SURFACE ( 'NONE', #486, 1.799999999999999600 ) ;
#471 = VECTOR ( 'NONE', #775, 1000.000000000000000 ) ;
#472 = DIRECTION ( 'NONE',  ( 0.000000000000000000, 0.000000000000000000, 1.000000000000000000 ) ) ;
#473 = ADVANCED_FACE ( 'NONE', ( #262 ), #338, .F. ) ;
#474 = LINE ( 'NONE', #215, #198 ) ;
#475 = EDGE_LOOP ( 'NONE', ( #69, #575, #399, #617 ) ) ;
#476 = CARTESIAN_POINT ( 'NONE',  ( -8.000000000000000000, 5.000000000000000000, -17.21640646055103119 ) ) ;
#477 = EDGE_CURVE ( 'NONE', #240, #905, #118, .T. ) ;
#478 = DIRECTION ( 'NONE',  ( -0.000000000000000000, 1.000000000000000000, -0.000000000000000000 ) ) ;
#479 = ORIENTED_EDGE ( 'NONE', *, *, #843, .T. ) ;
#480 = CARTESIAN_POINT ( 'NONE',  ( 0.000000000000000000, 5.000000000000000000, -29.60000000000000497 ) ) ;
#481 = CYLINDRICAL_SURFACE ( 'NONE', #848, 1.799999999999999600 ) ;
#482 = EDGE_LOOP ( 'NONE', ( #901, #237, #608, #799 ) ) ;
#483 = DIRECTION ( 'NONE',  ( 0.000000000000000000, 0.000000000000000000, 1.000000000000000000 ) ) ;
#484 = CIRCLE ( 'NONE', #616, 1.799999999999999600 ) ;
#485 = AXIS2_PLACEMENT_3D ( 'NONE', #725, #58, #432 ) ;
#486 = AXIS2_PLACEMENT_3D ( 'NONE', #369, #818, #25 ) ;
#487 = CARTESIAN_POINT ( 'NONE',  ( 7.999999999999998224, 3.440000000000001279, -15.65640646055102536 ) ) ;
#488 = CARTESIAN_POINT ( 'NONE',  ( 0.000000000000000000, 5.000000000000000000, 0.000000000000000000 ) ) ;
#489 = ORIENTED_EDGE ( 'NONE', *, *, #35, .F. ) ;
#490 = CARTESIAN_POINT ( 'NONE',  ( 16.00000000000000000, 5.000000000000000000, 0.000000000000000000 ) ) ;
#491 = ADVANCED_FACE ( 'NONE', ( #777 ), #865, .F. ) ;
#492 = DIRECTION ( 'NONE',  ( 0.000000000000000000, 0.000000000000000000, 1.000000000000000000 ) ) ;
#493 = CARTESIAN_POINT ( 'NONE',  ( 0.000000000000000000, 0.000000000000000000, 0.000000000000000000 ) ) ;
#494 = VERTEX_POINT ( 'NONE', #628 ) ;
#495 = FACE_OUTER_BOUND ( 'NONE', #659, .T. ) ;
#496 = CARTESIAN_POINT ( 'NONE',  ( 0.000000000000000000, 5.000000000000000000, 0.000000000000000000 ) ) ;
#497 = DIRECTION ( 'NONE',  ( -0.000000000000000000, 1.000000000000000000, -0.000000000000000000 ) ) ;
#498 = VERTEX_POINT ( 'NONE', #412 ) ;
#499 = PERSON_AND_ORGANIZATION ( #96, #317 ) ;
#500 = CIRCLE ( 'NONE', #665, 30.00000000000000000 ) ;
#501 = VECTOR ( 'NONE', #185, 1000.000000000000000 ) ;
#502 = CARTESIAN_POINT ( 'NONE',  ( -8.000000000000010658, 5.000000000000000000, 17.21640646055102408 ) ) ;
#503 = VECTOR ( 'NONE', #109, 1000.000000000000000 ) ;
#504 = AXIS2_PLACEMENT_3D ( 'NONE', #188, #207, #483 ) ;
#505 = EDGE_CURVE ( 'NONE', #55, #740, #395, .T. ) ;
#506 = DIRECTION ( 'NONE',  ( -0.000000000000000000, 1.000000000000000000, -0.000000000000000000 ) ) ;
#507 = ORIENTED_EDGE ( 'NONE', *, *, #760, .T. ) ;
#508 = MECHANICAL_CONTEXT ( 'NONE', #381, 'mechanical' ) ;
#509 = FACE_OUTER_BOUND ( 'NONE', #569, .T. ) ;
#510 = APPLICATION_CONTEXT ( 'configuration controlled 3d designs of mechanical parts and assemblies' ) ;
#511 = CARTESIAN_POINT ( 'NONE',  ( -16.00000000000000711, 3.440000000000001279, -1.788740740500655915E-15 ) ) ;
#512 = ADVANCED_FACE ( 'NONE', ( #44 ), #932, .F. ) ;
#513 = ORIENTED_EDGE ( 'NONE', *, *, #588, .T. ) ;
#514 = APPROVAL_DATE_TIME ( #958, #528 ) ;
#515 = FACE_OUTER_BOUND ( 'NONE', #743, .T. ) ;
#516 = CARTESIAN_POINT ( 'NONE',  ( -8.000000000000000000, 5.000000000000000000, -13.85640646055103176 ) ) ;
#517 = ORIENTED_EDGE ( 'NONE', *, *, #724, .T. ) ;
#518 = SECURITY_CLASSIFICATION_LEVEL ( 'unclassified' ) ;
#519 = ADVANCED_FACE ( 'NONE', ( #562 ), #618, .F. ) ;
#520 = DIRECTION ( 'NONE',  ( 0.000000000000000000, 0.000000000000000000, 1.000000000000000000 ) ) ;
#521 = CIRCLE ( 'NONE', #699, 3.360000000000000320 ) ;
#522 = AXIS2_PLACEMENT_3D ( 'NONE', #754, #750, #108 ) ;
#523 = CYLINDRICAL_SURFACE ( 'NONE', #135, 1.799999999999997824 ) ;
#524 = AXIS2_PLACEMENT_3D ( 'NONE', #309, #612, #170 ) ;
#525 = EDGE_LOOP ( 'NONE', ( #191, #84, #377, #812 ) ) ;
#526 = VECTOR ( 'NONE', #861, 1000.000000000000000 ) ;
#527 = COORDINATED_UNIVERSAL_TIME_OFFSET ( 8, 0, .AHEAD. ) ;
#528 = APPROVAL ( #146, 'UNSPECIFIED' ) ;
#529 = CARTESIAN_POINT ( 'NONE',  ( 8.000000000000000000, 5.000000000000000000, 10.49640646055102700 ) ) ;
#530 = DIRECTION ( 'NONE',  ( 0.000000000000000000, 0.000000000000000000, -1.000000000000000000 ) ) ;
#531 = ORIENTED_EDGE ( 'NONE', *, *, #156, .T. ) ;
#532 = CYLINDRICAL_SURFACE ( 'NONE', #524, 1.799999999999999600 ) ;
#533 = VERTEX_POINT ( 'NONE', #566 ) ;
#534 = VERTEX_POINT ( 'NONE', #487 ) ;
#535 = LINE ( 'NONE', #248, #778 ) ;
#536 = EDGE_CURVE ( 'NONE', #773, #11, #879, .T. ) ;
#537 = EDGE_LOOP ( 'NONE', ( #732, #34, #43, #427 ) ) ;
#538 = CIRCLE ( 'NONE', #169, 1.799999999999999600 ) ;
#539 = DIRECTION ( 'NONE',  ( -0.000000000000000000, -1.000000000000000000, -0.000000000000000000 ) ) ;
#540 = ORIENTED_EDGE ( 'NONE', *, *, #91, .F. ) ;
#541 = ADVANCED_FACE ( 'NONE', ( #697 ), #332, .F. ) ;
#542 = ORIENTED_EDGE ( 'NONE', *, *, #308, .F. ) ;
#543 = FACE_OUTER_BOUND ( 'NONE', #29, .T. ) ;
#544 = APPROVAL ( #219, 'UNSPECIFIED' ) ;
#545 = CARTESIAN_POINT ( 'NONE',  ( 8.000000000000000000, 5.000000000000000000, 13.85640646055102820 ) ) ;
#546 = DIRECTION ( 'NONE',  ( -0.000000000000000000, 1.000000000000000000, -0.000000000000000000 ) ) ;
#547 = DIRECTION ( 'NONE',  ( 0.000000000000000000, 0.000000000000000000, 1.000000000000000000 ) ) ;
#548 = ADVANCED_FACE ( 'NONE', ( #397 ), #457, .T. ) ;
#549 = CARTESIAN_POINT ( 'NONE',  ( -8.000000000000010658, 5.000000000000000000, 13.85640646055102287 ) ) ;
#550 = EDGE_LOOP ( 'NONE', ( #890, #663 ) ) ;
#551 = AXIS2_PLACEMENT_3D ( 'NONE', #941, #590, #964 ) ;
#552 = EDGE_LOOP ( 'NONE', ( #98, #513, #632, #166 ) ) ;
#553 = AXIS2_PLACEMENT_3D ( 'NONE', #549, #326, #184 ) ;
#554 = FACE_OUTER_BOUND ( 'NONE', #418, .T. ) ;
#555 = AXIS2_PLACEMENT_3D ( 'NONE', #157, #622, #547 ) ;
#556 = EDGE_CURVE ( 'NONE', #17, #195, #909, .T. ) ;
#557 = DIRECTION ( 'NONE',  ( 0.000000000000000000, 0.7071067811865467956, 0.7071067811865483499 ) ) ;
#558 = ORIENTED_EDGE ( 'NONE', *, *, #477, .T. ) ;
#559 = CC_DESIGN_PERSON_AND_ORGANIZATION_ASSIGNMENT ( #499, #601, ( #881 ) ) ;
#560 = ORIENTED_EDGE ( 'NONE', *, *, #556, .F. ) ;
#561 =( LENGTH_UNIT ( ) NAMED_UNIT ( * ) SI_UNIT ( .MILLI., .METRE. ) );
#562 = FACE_OUTER_BOUND ( 'NONE', #482, .T. ) ;
#563 = ORIENTED_EDGE ( 'NONE', *, *, #431, .T. ) ;
#564 = ORIENTED_EDGE ( 'NONE', *, *, #420, .T. ) ;
#565 =( NAMED_UNIT ( * ) SI_UNIT ( $, .STERADIAN. ) SOLID_ANGLE_UNIT ( ) );
#566 = CARTESIAN_POINT ( 'NONE',  ( 16.00000000000000000, 0.000000000000000000, -1.799999999999999600 ) ) ;
#567 = DIRECTION ( 'NONE',  ( 0.000000000000000000, 0.000000000000000000, 1.000000000000000000 ) ) ;
#568 = EDGE_CURVE ( 'NONE', #240, #351, #87, .T. ) ;
#569 = EDGE_LOOP ( 'NONE', ( #835, #307, #211, #153 ) ) ;
#570 = CARTESIAN_POINT ( 'NONE',  ( 0.000000000000000000, 5.000000000000000000, -30.00000000000000000 ) ) ;
#571 = AXIS2_PLACEMENT_3D ( 'NONE', #274, #811, #869 ) ;
#572 = VECTOR ( 'NONE', #67, 1000.000000000000000 ) ;
#573 = CARTESIAN_POINT ( 'NONE',  ( 3.624954525476164961E-15, 5.000000000000000000, 29.60000000000000497 ) ) ;
#574 = DIRECTION ( 'NONE',  ( -0.000000000000000000, 1.000000000000000000, -0.000000000000000000 ) ) ;
#575 = ORIENTED_EDGE ( 'NONE', *, *, #536, .F. ) ;
#576 = LINE ( 'NONE', #336, #102 ) ;
#577 = DIRECTION ( 'NONE',  ( 0.000000000000000000, 1.000000000000000000, 0.000000000000000000 ) ) ;
#578 = DIRECTION ( 'NONE',  ( 0.000000000000000000, 0.000000000000000000, 1.000000000000000000 ) ) ;
#579 = EDGE_LOOP ( 'NONE', ( #692, #14, #15, #371 ) ) ;
#580 = PERSON_AND_ORGANIZATION ( #96, #317 ) ;
#581 = EDGE_CURVE ( 'NONE', #128, #17, #924, .T. ) ;
#582 = CARTESIAN_POINT ( 'NONE',  ( 7.999999999999998224, 0.000000000000000000, -13.85640646055102820 ) ) ;
#583 = ORIENTED_EDGE ( 'NONE', *, *, #462, .T. ) ;
#584 = APPROVAL_DATE_TIME ( #895, #544 ) ;
#585 = VECTOR ( 'NONE', #162, 1000.000000000000000 ) ;
#586 = CARTESIAN_POINT ( 'NONE',  ( 16.00000000000000000, 5.000000000000000000, 0.000000000000000000 ) ) ;
#587 = AXIS2_PLACEMENT_3D ( 'NONE', #51, #813, #147 ) ;
#588 = EDGE_CURVE ( 'NONE', #80, #55, #873, .T. ) ;
#589 = AXIS2_PLACEMENT_3D ( 'NONE', #73, #179, #258 ) ;
#590 = DIRECTION ( 'NONE',  ( 0.000000000000000000, -1.000000000000000000, 0.000000000000000000 ) ) ;
#591 = ORIENTED_EDGE ( 'NONE', *, *, #304, .F. ) ;
#592 = CARTESIAN_POINT ( 'NONE',  ( 0.000000000000000000, 0.000000000000000000, 0.000000000000000000 ) ) ;
#593 = DIRECTION ( 'NONE',  ( 8.659560562355009279E-17, -0.7071067811865413555, 0.7071067811865536790 ) ) ;
#594 = FACE_BOUND ( 'NONE', #7, .T. ) ;
#595 = EDGE_CURVE ( 'NONE', #340, #414, #181, .T. ) ;
#596 = ORIENTED_EDGE ( 'NONE', *, *, #194, .F. ) ;
#597 = PERSON_AND_ORGANIZATION_ROLE ( 'creator' ) ;
#598 = DIRECTION ( 'NONE',  ( 0.000000000000000000, 1.000000000000000000, 0.000000000000000000 ) ) ;
#599 = FACE_OUTER_BOUND ( 'NONE', #1, .T. ) ;
#600 = ORIENTED_EDGE ( 'NONE', *, *, #595, .F. ) ;
#601 = PERSON_AND_ORGANIZATION_ROLE ( 'classification_officer' ) ;
#602 = PRODUCT_DEFINITION ( 'UNKNOWN', '', #736, #33 ) ;
#603 = DIRECTION ( 'NONE',  ( -0.000000000000000000, 1.000000000000000000, -0.000000000000000000 ) ) ;
#604 = VECTOR ( 'NONE', #831, 1000.000000000000000 ) ;
#605 = AXIS2_PLACEMENT_3D ( 'NONE', #787, #720, #466 ) ;
#606 = LINE ( 'NONE', #305, #410 ) ;
#607 = APPROVAL_PERSON_ORGANIZATION ( #891, #528, #378 ) ;
#608 = ORIENTED_EDGE ( 'NONE', *, *, #403, .T. ) ;
#609 = DIRECTION ( 'NONE',  ( -0.000000000000000000, 1.000000000000000000, -0.000000000000000000 ) ) ;
#610 = ORIENTED_EDGE ( 'NONE', *, *, #795, .F. ) ;
#611 = ORIENTED_EDGE ( 'NONE', *, *, #350, .F. ) ;
#612 = DIRECTION ( 'NONE',  ( -0.000000000000000000, 1.000000000000000000, -0.000000000000000000 ) ) ;
#613 = VERTEX_POINT ( 'NONE', #142 ) ;
#614 = CC_DESIGN_PERSON_AND_ORGANIZATION_ASSIGNMENT ( #680, #282, ( #919 ) ) ;
#615 = CARTESIAN_POINT ( 'NONE',  ( 8.000000000000000000, 5.000000000000000000, 13.85640646055102820 ) ) ;
#616 = AXIS2_PLACEMENT_3D ( 'NONE', #210, #143, #658 ) ;
#617 = ORIENTED_EDGE ( 'NONE', *, *, #954, .T. ) ;
#618 = CONICAL_SURFACE ( 'NONE', #701, 3.360000000000000320, 0.7853981633974488341 ) ;
#619 = DIRECTION ( 'NONE',  ( -0.000000000000000000, 1.000000000000000000, -0.000000000000000000 ) ) ;
#620 = ORIENTED_EDGE ( 'NONE', *, *, #331, .T. ) ;
#621 = ADVANCED_FACE ( 'NONE', ( #48 ), #927, .F. ) ;
#622 = DIRECTION ( 'NONE',  ( -0.000000000000000000, 1.000000000000000000, -0.000000000000000000 ) ) ;
#623 = CARTESIAN_POINT ( 'NONE',  ( -8.000000000000010658, 5.000000000000000000, 13.85640646055102287 ) ) ;
#624 = DIRECTION ( 'NONE',  ( 0.000000000000000000, 0.000000000000000000, 1.000000000000000000 ) ) ;
#625 = ORIENTED_EDGE ( 'NONE', *, *, #789, .F. ) ;
#626 = ADVANCED_FACE ( 'NONE', ( #428, #882, #209, #887, #425, #741, #515 ), #62, .F. ) ;
#627 = DIRECTION ( 'NONE',  ( 8.659560562354942719E-17, 0.7071067811865467956, -0.7071067811865483499 ) ) ;
#628 = CARTESIAN_POINT ( 'NONE',  ( -8.000000000000000000, 0.000000000000000000, -15.65640646055102891 ) ) ;
#629 = ORIENTED_EDGE ( 'NONE', *, *, #693, .T. ) ;
#630 = AXIS2_PLACEMENT_3D ( 'NONE', #288, #731, #662 ) ;
#631 = CONICAL_SURFACE ( 'NONE', #715, 29.60000000000000497, 0.7853981633974570498 ) ;
#632 = ORIENTED_EDGE ( 'NONE', *, *, #505, .T. ) ;
#633 = CIRCLE ( 'NONE', #587, 3.360000000000000320 ) ;
#634 = CARTESIAN_POINT ( 'NONE',  ( 7.999999999999998224, 5.000000000000000000, -17.21640646055102764 ) ) ;
#635 = AXIS2_PLACEMENT_3D ( 'NONE', #18, #829, #847 ) ;
#636 = DIRECTION ( 'NONE',  ( 0.000000000000000000, 0.000000000000000000, 1.000000000000000000 ) ) ;
#637 = ORIENTED_EDGE ( 'NONE', *, *, #172, .F. ) ;
#638 = ORIENTED_EDGE ( 'NONE', *, *, #268, .F. ) ;
#639 = CARTESIAN_POINT ( 'NONE',  ( -16.00000000000000711, 5.000000000000000000, -1.788740740500655915E-15 ) ) ;
#640 = EDGE_CURVE ( 'NONE', #11, #241, #419, .T. ) ;
#641 = DIRECTION ( 'NONE',  ( -0.000000000000000000, 1.000000000000000000, -0.000000000000000000 ) ) ;
#642 = EDGE_LOOP ( 'NONE', ( #679, #629, #638, #860 ) ) ;
#643 = DIRECTION ( 'NONE',  ( -0.000000000000000000, 1.000000000000000000, -0.000000000000000000 ) ) ;
#644 = CARTESIAN_POINT ( 'NONE',  ( 7.999999999999998224, 0.000000000000000000, -15.65640646055102536 ) ) ;
#645 = CARTESIAN_POINT ( 'NONE',  ( 16.00000000000000000, 5.000000000000000000, 0.000000000000000000 ) ) ;
#646 = ORIENTED_EDGE ( 'NONE', *, *, #213, .T. ) ;
#647 = DIRECTION ( 'NONE',  ( 0.000000000000000000, 0.000000000000000000, 1.000000000000000000 ) ) ;
#648 = CIRCLE ( 'NONE', #925, 1.799999999999999600 ) ;
#649 = AXIS2_PLACEMENT_3D ( 'NONE', #892, #603, #251 ) ;
#650 = AXIS2_PLACEMENT_3D ( 'NONE', #490, #47, #132 ) ;
#651 = VECTOR ( 'NONE', #627, 999.9999999999998863 ) ;
#652 = DIRECTION ( 'NONE',  ( -0.000000000000000000, -1.000000000000000000, -0.000000000000000000 ) ) ;
#653 = CARTESIAN_POINT ( 'NONE',  ( -8.000000000000000000, 3.440000000000001279, -15.65640646055102891 ) ) ;
#654 = EDGE_LOOP ( 'NONE', ( #223, #862, #382, #670 ) ) ;
#655 = CARTESIAN_POINT ( 'NONE',  ( -8.000000000000000000, 3.440000000000001279, -13.85640646055103176 ) ) ;
#656 = ADVANCED_FACE ( 'NONE', ( #509 ), #666, .F. ) ;
#657 = FACE_OUTER_BOUND ( 'NONE', #820, .T. ) ;
#658 = DIRECTION ( 'NONE',  ( 0.000000000000000000, 0.000000000000000000, 1.000000000000000000 ) ) ;
#659 = EDGE_LOOP ( 'NONE', ( #610, #298, #479, #746 ) ) ;
#660 = EDGE_CURVE ( 'NONE', #768, #696, #633, .T. ) ;
#661 = CARTESIAN_POINT ( 'NONE',  ( -16.00000000000000711, 5.000000000000000000, -1.788740740500655915E-15 ) ) ;
#662 = DIRECTION ( 'NONE',  ( 0.000000000000000000, 0.000000000000000000, 1.000000000000000000 ) ) ;
#663 = ORIENTED_EDGE ( 'NONE', *, *, #690, .T. ) ;
#664 = AXIS2_PLACEMENT_3D ( 'NONE', #265, #641, #937 ) ;
#665 = AXIS2_PLACEMENT_3D ( 'NONE', #493, #284, #293 ) ;
#666 = CYLINDRICAL_SURFACE ( 'NONE', #260, 1.799999999999999600 ) ;
#667 = AXIS2_PLACEMENT_3D ( 'NONE', #30, #598, #707 ) ;
#668 = CIRCLE ( 'NONE', #72, 1.799999999999999600 ) ;
#669 = CARTESIAN_POINT ( 'NONE',  ( 3.673940397442059178E-15, 4.600000000000012967, 30.00000000000000000 ) ) ;
#670 = ORIENTED_EDGE ( 'NONE', *, *, #462, .F. ) ;
#671 = DATE_AND_TIME ( #232, #22 ) ;
#672 = DIRECTION ( 'NONE',  ( -0.000000000000000000, 1.000000000000000000, -0.000000000000000000 ) ) ;
#673 = ADVANCED_FACE ( 'NONE', ( #737 ), #199, .F. ) ;
#674 = DIRECTION ( 'NONE',  ( 0.000000000000000000, 0.000000000000000000, 1.000000000000000000 ) ) ;
#675 = EDGE_LOOP ( 'NONE', ( #306, #324, #456, #766 ) ) ;
#676 = DATE_TIME_ROLE ( 'classification_date' ) ;
#677 = DIRECTION ( 'NONE',  ( 0.000000000000000000, 0.000000000000000000, 1.000000000000000000 ) ) ;
#678 = DIRECTION ( 'NONE',  ( 0.000000000000000000, 0.000000000000000000, 1.000000000000000000 ) ) ;
#679 = ORIENTED_EDGE ( 'NONE', *, *, #718, .F. ) ;
#680 = PERSON_AND_ORGANIZATION ( #96, #317 ) ;
#681 = VERTEX_POINT ( 'NONE', #644 ) ;
#682 = CONICAL_SURFACE ( 'NONE', #664, 3.360000000000000320, 0.7853981633974488341 ) ;
#683 = CYLINDRICAL_SURFACE ( 'NONE', #522, 1.799999999999999600 ) ;
#684 = CIRCLE ( 'NONE', #86, 1.799999999999997824 ) ;
#685 = AXIS2_PLACEMENT_3D ( 'NONE', #645, #855, #121 ) ;
#686 = VECTOR ( 'NONE', #557, 999.9999999999998863 ) ;
#687 = DIRECTION ( 'NONE',  ( 0.000000000000000000, 0.000000000000000000, 1.000000000000000000 ) ) ;
#688 = VERTEX_POINT ( 'NONE', #962 ) ;
#689 = CC_DESIGN_APPROVAL ( #528, ( #736 ) ) ;
#690 = EDGE_CURVE ( 'NONE', #11, #773, #439, .T. ) ;
#691 = DIRECTION ( 'NONE',  ( -0.000000000000000000, 1.000000000000000000, -0.000000000000000000 ) ) ;
#692 = ORIENTED_EDGE ( 'NONE', *, *, #693, .F. ) ;
#693 = EDGE_CURVE ( 'NONE', #313, #256, #291, .T. ) ;
#694 = CARTESIAN_POINT ( 'NONE',  ( 16.00000000000000000, 5.000000000000000000, 0.000000000000000000 ) ) ;
#695 = VERTEX_POINT ( 'NONE', #868 ) ;
#696 = VERTEX_POINT ( 'NONE', #204 ) ;
#697 = FACE_OUTER_BOUND ( 'NONE', #700, .T. ) ;
#698 = ADVANCED_FACE ( 'NONE', ( #657 ), #129, .T. ) ;
#699 = AXIS2_PLACEMENT_3D ( 'NONE', #516, #59, #578 ) ;
#700 = EDGE_LOOP ( 'NONE', ( #366, #870, #706, #716 ) ) ;
#701 = AXIS2_PLACEMENT_3D ( 'NONE', #639, #935, #267 ) ;
#702 = DIRECTION ( 'NONE',  ( 0.000000000000000000, 0.000000000000000000, 1.000000000000000000 ) ) ;
#703 = CARTESIAN_POINT ( 'NONE',  ( 0.000000000000000000, 5.000000000000000000, 0.000000000000000000 ) ) ;
#704 = CC_DESIGN_PERSON_AND_ORGANIZATION_ASSIGNMENT ( #295, #597, ( #736 ) ) ;
#705 = LINE ( 'NONE', #178, #273 ) ;
#706 = ORIENTED_EDGE ( 'NONE', *, *, #581, .T. ) ;
#707 = DIRECTION ( 'NONE',  ( 0.000000000000000000, 0.000000000000000000, 1.000000000000000000 ) ) ;
#708 = DIRECTION ( 'NONE',  ( 0.000000000000000000, 0.000000000000000000, 1.000000000000000000 ) ) ;
#709 = DIRECTION ( 'NONE',  ( -0.000000000000000000, 1.000000000000000000, -0.000000000000000000 ) ) ;
#710 = ORIENTED_EDGE ( 'NONE', *, *, #319, .T. ) ;
#711 = CYLINDRICAL_SURFACE ( 'NONE', #458, 1.799999999999997824 ) ;
#712 = DIRECTION ( 'NONE',  ( -0.000000000000000000, 1.000000000000000000, -0.000000000000000000 ) ) ;
#713 = DIRECTION ( 'NONE',  ( 0.000000000000000000, 0.000000000000000000, 1.000000000000000000 ) ) ;
#714 = UNCERTAINTY_MEASURE_WITH_UNIT (LENGTH_MEASURE( 1.000000000000000082E-05 ), #561, 'distance_accuracy_value', 'NONE');
#715 = AXIS2_PLACEMENT_3D ( 'NONE', #488, #323, #32 ) ;
#716 = ORIENTED_EDGE ( 'NONE', *, *, #556, .T. ) ;
#717 = CIRCLE ( 'NONE', #942, 29.60000000000000497 ) ;
#718 = EDGE_CURVE ( 'NONE', #313, #774, #717, .T. ) ;
#719 = CC_DESIGN_APPROVAL ( #544, ( #881 ) ) ;
#720 = DIRECTION ( 'NONE',  ( -0.000000000000000000, 1.000000000000000000, -0.000000000000000000 ) ) ;
#721 = CARTESIAN_POINT ( 'NONE',  ( 8.000000000000000000, 5.000000000000000000, 13.85640646055102820 ) ) ;
#722 = ORIENTED_EDGE ( 'NONE', *, *, #767, .F. ) ;
#723 = CARTESIAN_POINT ( 'NONE',  ( -8.000000000000010658, 0.000000000000000000, 12.05640646055102394 ) ) ;
#724 = EDGE_CURVE ( 'NONE', #498, #740, #914, .T. ) ;
#725 = CARTESIAN_POINT ( 'NONE',  ( 16.00000000000000000, 5.000000000000000000, 0.000000000000000000 ) ) ;
#726 = DIRECTION ( 'NONE',  ( -0.000000000000000000, 1.000000000000000000, -0.000000000000000000 ) ) ;
#727 = CC_DESIGN_DATE_AND_TIME_ASSIGNMENT ( #2, #676, ( #881 ) ) ;
#728 = EDGE_LOOP ( 'NONE', ( #875, #50 ) ) ;
#729 = DIRECTION ( 'NONE',  ( 0.000000000000000000, 1.000000000000000000, 0.000000000000000000 ) ) ;
#730 = ADVANCED_FACE ( 'NONE', ( #781 ), #683, .F. ) ;
#731 = DIRECTION ( 'NONE',  ( -0.000000000000000000, 1.000000000000000000, -0.000000000000000000 ) ) ;
#732 = ORIENTED_EDGE ( 'NONE', *, *, #883, .F. ) ;
#733 = CARTESIAN_POINT ( 'NONE',  ( 7.999999999999998224, 0.000000000000000000, -12.05640646055102749 ) ) ;
#734 = AXIS2_PLACEMENT_3D ( 'NONE', #40, #850, #398 ) ;
#735 = AXIS2_PLACEMENT_3D ( 'NONE', #810, #951, #492 ) ;
#736 = PRODUCT_DEFINITION_FORMATION_WITH_SPECIFIED_SOURCE ( 'ANY', '', #919, .NOT_KNOWN. ) ;
#737 = FACE_OUTER_BOUND ( 'NONE', #654, .T. ) ;
#738 = LINE ( 'NONE', #370, #287 ) ;
#739 = EDGE_CURVE ( 'NONE', #149, #434, #120, .T. ) ;
#740 = VERTEX_POINT ( 'NONE', #3 ) ;
#741 = FACE_BOUND ( 'NONE', #885, .T. ) ;
#742 = FACE_BOUND ( 'NONE', #920, .T. ) ;
#743 = EDGE_LOOP ( 'NONE', ( #231, #944 ) ) ;
#744 = CARTESIAN_POINT ( 'NONE',  ( 8.000000000000000000, 5.000000000000000000, 12.05640646055102749 ) ) ;
#745 = CARTESIAN_POINT ( 'NONE',  ( -8.000000000000010658, 5.000000000000000000, 10.49640646055102167 ) ) ;
#746 = ORIENTED_EDGE ( 'NONE', *, *, #435, .F. ) ;
#747 = PERSON_AND_ORGANIZATION_ROLE ( 'creator' ) ;
#748 = CIRCLE ( 'NONE', #630, 1.799999999999999600 ) ;
#749 = ADVANCED_FACE ( 'NONE', ( #543 ), #101, .F. ) ;
#750 = DIRECTION ( 'NONE',  ( -0.000000000000000000, 1.000000000000000000, -0.000000000000000000 ) ) ;
#751 = LINE ( 'NONE', #152, #908 ) ;
#752 = ORIENTED_EDGE ( 'NONE', *, *, #242, .F. ) ;
#753 = CALENDAR_DATE ( 2026, 26, 2 ) ;
#754 = CARTESIAN_POINT ( 'NONE',  ( 16.00000000000000000, 5.000000000000000000, 0.000000000000000000 ) ) ;
#755 = DIRECTION ( 'NONE',  ( -0.000000000000000000, 1.000000000000000000, -0.000000000000000000 ) ) ;
#756 = ORIENTED_EDGE ( 'NONE', *, *, #66, .F. ) ;
#757 = PERSON_AND_ORGANIZATION ( #96, #317 ) ;
#758 = CARTESIAN_POINT ( 'NONE',  ( 7.999999999999998224, 3.440000000000001279, -13.85640646055102820 ) ) ;
#759 = FACE_BOUND ( 'NONE', #728, .T. ) ;
#760 = EDGE_CURVE ( 'NONE', #128, #852, #20, .T. ) ;
#761 = ORIENTED_EDGE ( 'NONE', *, *, #505, .F. ) ;
#762 = AXIS2_PLACEMENT_3D ( 'NONE', #582, #280, #68 ) ;
#763 = AXIS2_PLACEMENT_3D ( 'NONE', #26, #391, #103 ) ;
#764 = CARTESIAN_POINT ( 'NONE',  ( -8.000000000000010658, 5.000000000000000000, 13.85640646055102287 ) ) ;
#765 = CIRCLE ( 'NONE', #880, 1.799999999999999600 ) ;
#766 = ORIENTED_EDGE ( 'NONE', *, *, #292, .F. ) ;
#767 = EDGE_CURVE ( 'NONE', #195, #17, #303, .T. ) ;
#768 = VERTEX_POINT ( 'NONE', #916 ) ;
#769 = LINE ( 'NONE', #388, #469 ) ;
#770 = ORIENTED_EDGE ( 'NONE', *, *, #416, .F. ) ;
#771 = EDGE_CURVE ( 'NONE', #55, #780, #844, .T. ) ;
#772 = DIRECTION ( 'NONE',  ( -0.000000000000000000, 1.000000000000000000, -0.000000000000000000 ) ) ;
#773 = VERTEX_POINT ( 'NONE', #315 ) ;
#774 = VERTEX_POINT ( 'NONE', #175 ) ;
#775 = DIRECTION ( 'NONE',  ( 8.659560562354937789E-17, 0.7071067811865471286, -0.7071067811865479058 ) ) ;
#776 = EDGE_CURVE ( 'NONE', #414, #340, #56, .T. ) ;
#777 = FACE_OUTER_BOUND ( 'NONE', #938, .T. ) ;
#778 = VECTOR ( 'NONE', #539, 1000.000000000000000 ) ;
#779 = AXIS2_PLACEMENT_3D ( 'NONE', #37, #197, #636 ) ;
#780 = VERTEX_POINT ( 'NONE', #99 ) ;
#781 = FACE_OUTER_BOUND ( 'NONE', #675, .T. ) ;
#782 = PRODUCT_DEFINITION_SHAPE ( 'NONE', 'NONE',  #602 ) ;
#783 = CARTESIAN_POINT ( 'NONE',  ( -8.000000000000000000, 3.440000000000001279, -13.85640646055103176 ) ) ;
#784 = FACE_OUTER_BOUND ( 'NONE', #163, .T. ) ;
#785 = ORIENTED_EDGE ( 'NONE', *, *, #228, .F. ) ;
#786 = DIRECTION ( 'NONE',  ( -0.000000000000000000, 1.000000000000000000, -0.000000000000000000 ) ) ;
#787 = CARTESIAN_POINT ( 'NONE',  ( -16.00000000000000711, 5.000000000000000000, -1.788740740500655915E-15 ) ) ;
#788 = CARTESIAN_POINT ( 'NONE',  ( -8.000000000000000000, 5.000000000000000000, -13.85640646055103176 ) ) ;
#789 = EDGE_CURVE ( 'NONE', #688, #60, #325, .T. ) ;
#790 = ORIENTED_EDGE ( 'NONE', *, *, #936, .T. ) ;
#791 = CARTESIAN_POINT ( 'NONE',  ( -8.000000000000000000, 5.000000000000000000, -17.21640646055103119 ) ) ;
#792 = CARTESIAN_POINT ( 'NONE',  ( -8.000000000000000000, 5.000000000000000000, -13.85640646055103176 ) ) ;
#793 = CIRCLE ( 'NONE', #259, 1.799999999999997824 ) ;
#794 = ORIENTED_EDGE ( 'NONE', *, *, #739, .T. ) ;
#795 = EDGE_CURVE ( 'NONE', #681, #913, #538, .T. ) ;
#796 = DIRECTION ( 'NONE',  ( -0.000000000000000000, 1.000000000000000000, -0.000000000000000000 ) ) ;
#797 = CIRCLE ( 'NONE', #367, 1.799999999999997824 ) ;
#798 = CARTESIAN_POINT ( 'NONE',  ( 8.000000000000000000, 0.000000000000000000, 12.05640646055102749 ) ) ;
#799 = ORIENTED_EDGE ( 'NONE', *, *, #776, .T. ) ;
#800 = DIRECTION ( 'NONE',  ( 0.000000000000000000, 0.000000000000000000, 1.000000000000000000 ) ) ;
#801 = EDGE_CURVE ( 'NONE', #877, #494, #140, .T. ) ;
#802 = CARTESIAN_POINT ( 'NONE',  ( 16.00000000000000000, 0.000000000000000000, 0.000000000000000000 ) ) ;
#803 = ORIENTED_EDGE ( 'NONE', *, *, #250, .F. ) ;
#804 = DIRECTION ( 'NONE',  ( -0.000000000000000000, 1.000000000000000000, -0.000000000000000000 ) ) ;
#805 = ADVANCED_FACE ( 'NONE', ( #82 ), #851, .F. ) ;
#806 = CARTESIAN_POINT ( 'NONE',  ( 0.000000000000000000, 5.000000000000000000, 0.000000000000000000 ) ) ;
#807 = ORIENTED_EDGE ( 'NONE', *, *, #66, .T. ) ;
#808 = CIRCLE ( 'NONE', #214, 1.799999999999999600 ) ;
#809 = CONICAL_SURFACE ( 'NONE', #41, 3.360000000000000320, 0.7853981633974488341 ) ;
#810 = CARTESIAN_POINT ( 'NONE',  ( -16.00000000000000711, 5.000000000000000000, -1.788740740500655915E-15 ) ) ;
#811 = DIRECTION ( 'NONE',  ( -0.000000000000000000, 1.000000000000000000, -0.000000000000000000 ) ) ;
#812 = ORIENTED_EDGE ( 'NONE', *, *, #319, .F. ) ;
#813 = DIRECTION ( 'NONE',  ( -0.000000000000000000, 1.000000000000000000, -0.000000000000000000 ) ) ;
#814 = DIRECTION ( 'NONE',  ( -0.000000000000000000, 1.000000000000000000, -0.000000000000000000 ) ) ;
#815 = ORIENTED_EDGE ( 'NONE', *, *, #136, .T. ) ;
#816 = PERSON_AND_ORGANIZATION ( #96, #317 ) ;
#817 = ADVANCED_FACE ( 'NONE', ( #299 ), #470, .F. ) ;
#818 = DIRECTION ( 'NONE',  ( -0.000000000000000000, 1.000000000000000000, -0.000000000000000000 ) ) ;
#819 = DIRECTION ( 'NONE',  ( -0.000000000000000000, 1.000000000000000000, -0.000000000000000000 ) ) ;
#820 = EDGE_LOOP ( 'NONE', ( #310, #957, #839, #312 ) ) ;
#821 = DIRECTION ( 'NONE',  ( 0.000000000000000000, 0.000000000000000000, 1.000000000000000000 ) ) ;
#822 = AXIS2_PLACEMENT_3D ( 'NONE', #764, #772, #687 ) ;
#823 = AXIS2_PLACEMENT_3D ( 'NONE', #453, #893, #530 ) ;
#824 = CARTESIAN_POINT ( 'NONE',  ( -8.000000000000010658, 3.440000000000001279, 12.05640646055102394 ) ) ;
#825 = AXIS2_PLACEMENT_3D ( 'NONE', #133, #729, #221 ) ;
#826 = CARTESIAN_POINT ( 'NONE',  ( -16.00000000000000711, 5.000000000000000000, 3.359999999999998543 ) ) ;
#827 = ORIENTED_EDGE ( 'NONE', *, *, #238, .T. ) ;
#828 = CALENDAR_DATE ( 2026, 26, 2 ) ;
#829 = DIRECTION ( 'NONE',  ( -0.000000000000000000, 1.000000000000000000, -0.000000000000000000 ) ) ;
#830 = ADVANCED_FACE ( 'NONE', ( #151 ), #261, .F. ) ;
#831 = DIRECTION ( 'NONE',  ( 0.000000000000000000, 0.7071067811865471286, 0.7071067811865479058 ) ) ;
#832 = ORIENTED_EDGE ( 'NONE', *, *, #912, .T. ) ;
#833 = EDGE_CURVE ( 'NONE', #688, #387, #668, .T. ) ;
#834 = LINE ( 'NONE', #900, #585 ) ;
#835 = ORIENTED_EDGE ( 'NONE', *, *, #690, .F. ) ;
#836 = VECTOR ( 'NONE', #497, 1000.000000000000000 ) ;
#837 = CYLINDRICAL_SURFACE ( 'NONE', #896, 1.799999999999999600 ) ;
#838 = AXIS2_PLACEMENT_3D ( 'NONE', #400, #436, #321 ) ;
#839 = ORIENTED_EDGE ( 'NONE', *, *, #283, .T. ) ;
#840 = CARTESIAN_POINT ( 'NONE',  ( -8.000000000000000000, 3.440000000000001279, -12.05640646055103105 ) ) ;
#841 = ORIENTED_EDGE ( 'NONE', *, *, #912, .F. ) ;
#842 = ORIENTED_EDGE ( 'NONE', *, *, #581, .F. ) ;
#843 = EDGE_CURVE ( 'NONE', #534, #461, #411, .T. ) ;
#844 = LINE ( 'NONE', #529, #471 ) ;
#845 = DIRECTION ( 'NONE',  ( 8.659560562354937789E-17, 0.7071067811865471286, -0.7071067811865479058 ) ) ;
#846 = DIRECTION ( 'NONE',  ( 0.000000000000000000, 0.000000000000000000, 1.000000000000000000 ) ) ;
#847 = DIRECTION ( 'NONE',  ( 0.000000000000000000, 0.000000000000000000, 1.000000000000000000 ) ) ;
#848 = AXIS2_PLACEMENT_3D ( 'NONE', #792, #269, #567 ) ;
#849 = CIRCLE ( 'NONE', #685, 3.360000000000002096 ) ;
#850 = DIRECTION ( 'NONE',  ( -0.000000000000000000, 1.000000000000000000, -0.000000000000000000 ) ) ;
#851 = CONICAL_SURFACE ( 'NONE', #589, 3.360000000000000320, 0.7853981633974488341 ) ;
#852 = VERTEX_POINT ( 'NONE', #824 ) ;
#853 = DIRECTION ( 'NONE',  ( -0.000000000000000000, -1.000000000000000000, -0.000000000000000000 ) ) ;
#854 = ADVANCED_FACE ( 'NONE', ( #379 ), #809, .F. ) ;
#855 = DIRECTION ( 'NONE',  ( -0.000000000000000000, 1.000000000000000000, -0.000000000000000000 ) ) ;
#856 = ORIENTED_EDGE ( 'NONE', *, *, #403, .F. ) ;
#857 = CARTESIAN_POINT ( 'NONE',  ( 16.00000000000000000, 5.000000000000000000, 3.360000000000002096 ) ) ;
#858 = ADVANCED_FACE ( 'NONE', ( #554 ), #384, .F. ) ;
#859 = CARTESIAN_POINT ( 'NONE',  ( 8.000000000000000000, 5.000000000000000000, 17.21640646055102764 ) ) ;
#860 = ORIENTED_EDGE ( 'NONE', *, *, #922, .F. ) ;
#861 = DIRECTION ( 'NONE',  ( 8.659560562354937789E-17, 0.7071067811865471286, -0.7071067811865479058 ) ) ;
#862 = ORIENTED_EDGE ( 'NONE', *, *, #789, .T. ) ;
#863 = CIRCLE ( 'NONE', #762, 1.799999999999999600 ) ;
#864 = ORIENTED_EDGE ( 'NONE', *, *, #843, .F. ) ;
#865 = CONICAL_SURFACE ( 'NONE', #138, 3.360000000000000320, 0.7853981633974488341 ) ;
#866 = CARTESIAN_POINT ( 'NONE',  ( 0.000000000000000000, 4.600000000000012967, 0.000000000000000000 ) ) ;
#867 = APPROVAL_PERSON_ORGANIZATION ( #816, #254, #160 ) ;
#868 = CARTESIAN_POINT ( 'NONE',  ( 16.00000000000000000, 0.000000000000000000, 1.799999999999999600 ) ) ;
#869 = DIRECTION ( 'NONE',  ( 0.000000000000000000, 0.000000000000000000, 1.000000000000000000 ) ) ;
#870 = ORIENTED_EDGE ( 'NONE', *, *, #760, .F. ) ;
#871 = DIRECTION ( 'NONE',  ( 0.000000000000000000, 0.000000000000000000, 1.000000000000000000 ) ) ;
#872 = CC_DESIGN_DATE_AND_TIME_ASSIGNMENT ( #671, #368, ( #602 ) ) ;
#873 = LINE ( 'NONE', #744, #39 ) ;
#874 = LINE ( 'NONE', #948, #347 ) ;
#875 = ORIENTED_EDGE ( 'NONE', *, *, #156, .F. ) ;
#876 = LINE ( 'NONE', #53, #52 ) ;
#877 = VERTEX_POINT ( 'NONE', #415 ) ;
#878 = CIRCLE ( 'NONE', #155, 3.360000000000000320 ) ;
#879 = CIRCLE ( 'NONE', #763, 1.799999999999999600 ) ;
#880 = AXIS2_PLACEMENT_3D ( 'NONE', #423, #124, #871 ) ;
#881 = SECURITY_CLASSIFICATION ( '', '', #518 ) ;
#882 = FACE_BOUND ( 'NONE', #949, .T. ) ;
#883 = EDGE_CURVE ( 'NONE', #533, #688, #576, .T. ) ;
#884 = CARTESIAN_POINT ( 'NONE',  ( -16.00000000000000711, 3.440000000000001279, -1.800000000000001155 ) ) ;
#885 = EDGE_LOOP ( 'NONE', ( #904, #790 ) ) ;
#886 = APPLICATION_PROTOCOL_DEFINITION ( 'international standard', 'config_control_design', 1994, #510 ) ;
#887 = FACE_BOUND ( 'NONE', #550, .T. ) ;
#888 = LINE ( 'NONE', #222, #19 ) ;
#889 = ADVANCED_FACE ( 'NONE', ( #495 ), #57, .F. ) ;
#890 = ORIENTED_EDGE ( 'NONE', *, *, #536, .T. ) ;
#891 = PERSON_AND_ORGANIZATION ( #96, #317 ) ;
#892 = CARTESIAN_POINT ( 'NONE',  ( -16.00000000000000711, 5.000000000000000000, -1.788740740500655915E-15 ) ) ;
#893 = DIRECTION ( 'NONE',  ( -0.000000000000000000, -1.000000000000000000, -0.000000000000000000 ) ) ;
#894 = ORIENTED_EDGE ( 'NONE', *, *, #409, .T. ) ;
#895 = DATE_AND_TIME ( #360, #141 ) ;
#896 = AXIS2_PLACEMENT_3D ( 'NONE', #694, #13, #158 ) ;
#897 = AXIS2_PLACEMENT_3D ( 'NONE', #703, #322, #917 ) ;
#898 = DIRECTION ( 'NONE',  ( 0.000000000000000000, 0.000000000000000000, 1.000000000000000000 ) ) ;
#899 = CC_DESIGN_APPROVAL ( #254, ( #602 ) ) ;
#900 = CARTESIAN_POINT ( 'NONE',  ( 8.000000000000000000, 5.000000000000000000, 17.21640646055102764 ) ) ;
#901 = ORIENTED_EDGE ( 'NONE', *, *, #449, .F. ) ;
#902 = EDGE_CURVE ( 'NONE', #351, #240, #88, .T. ) ;
#903 = CARTESIAN_POINT ( 'NONE',  ( -8.000000000000010658, 0.000000000000000000, 13.85640646055102287 ) ) ;
#904 = ORIENTED_EDGE ( 'NONE', *, *, #416, .T. ) ;
#905 = VERTEX_POINT ( 'NONE', #476 ) ;
#906 = CARTESIAN_POINT ( 'NONE',  ( -8.000000000000000000, 0.000000000000000000, -13.85640646055103176 ) ) ;
#907 = ORIENTED_EDGE ( 'NONE', *, *, #383, .F. ) ;
#908 = VECTOR ( 'NONE', #956, 1000.000000000000000 ) ;
#909 = CIRCLE ( 'NONE', #553, 3.360000000000002096 ) ;
#910 = CARTESIAN_POINT ( 'NONE',  ( 8.000000000000000000, 0.000000000000000000, 13.85640646055102820 ) ) ;
#911 =( GEOMETRIC_REPRESENTATION_CONTEXT ( 3 ) GLOBAL_UNCERTAINTY_ASSIGNED_CONTEXT ( ( #714 ) ) GLOBAL_UNIT_ASSIGNED_CONTEXT ( ( #561, #117, #565 ) ) REPRESENTATION_CONTEXT ( 'NONE', 'WORKASPACE' ) );
#912 = EDGE_CURVE ( 'NONE', #206, #60, #218, .T. ) ;
#913 = VERTEX_POINT ( 'NONE', #733 ) ;
#914 = LINE ( 'NONE', #235, #960 ) ;
#915 = ORIENTED_EDGE ( 'NONE', *, *, #238, .F. ) ;
#916 = CARTESIAN_POINT ( 'NONE',  ( 7.999999999999998224, 5.000000000000000000, -10.49640646055102700 ) ) ;
#917 = DIRECTION ( 'NONE',  ( 0.000000000000000000, 0.000000000000000000, -1.000000000000000000 ) ) ;
#918 = VERTEX_POINT ( 'NONE', #723 ) ;
#919 = PRODUCT ( 'OutRunnerCap', 'OutRunnerCap', '', ( #508 ) ) ;
#920 = EDGE_LOOP ( 'NONE', ( #841, #392 ) ) ;
#921 = CARTESIAN_POINT ( 'NONE',  ( 7.999999999999998224, 0.000000000000000000, -13.85640646055102820 ) ) ;
#922 = EDGE_CURVE ( 'NONE', #774, #226, #196, .T. ) ;
#923 = CIRCLE ( 'NONE', #454, 3.360000000000000320 ) ;
#924 = LINE ( 'NONE', #502, #572 ) ;
#925 = AXIS2_PLACEMENT_3D ( 'NONE', #511, #814, #148 ) ;
#926 = CLOSED_SHELL ( 'NONE', ( #28, #673, #730, #61, #889, #805, #817, #749, #656, #830, #444, #491, #390, #698, #361, #337, #626, #963, #110, #343, #541, #473, #519, #125, #854, #512, #858, #376, #621, #548 ) ) ;
#927 = CONICAL_SURFACE ( 'NONE', #9, 3.360000000000002096, 0.7853981633974492782 ) ;
#928 = LINE ( 'NONE', #263, #501 ) ;
#929 = EDGE_LOOP ( 'NONE', ( #430, #646, #171, #842 ) ) ;
#930 = DIRECTION ( 'NONE',  ( 0.000000000000000000, -1.000000000000000000, 0.000000000000000000 ) ) ;
#931 = EDGE_CURVE ( 'NONE', #226, #149, #36, .T. ) ;
#932 = CYLINDRICAL_SURFACE ( 'NONE', #779, 1.799999999999999600 ) ;
#933 = FACE_OUTER_BOUND ( 'NONE', #642, .T. ) ;
#934 = ORIENTED_EDGE ( 'NONE', *, *, #718, .T. ) ;
#935 = DIRECTION ( 'NONE',  ( -0.000000000000000000, 1.000000000000000000, -0.000000000000000000 ) ) ;
#936 = EDGE_CURVE ( 'NONE', #80, #498, #797, .T. ) ;
#937 = DIRECTION ( 'NONE',  ( 0.000000000000000000, 0.000000000000000000, 1.000000000000000000 ) ) ;
#938 = EDGE_LOOP ( 'NONE', ( #761, #131, #815, #75 ) ) ;
#939 = CARTESIAN_POINT ( 'NONE',  ( 7.999999999999998224, 5.000000000000000000, -13.85640646055102820 ) ) ;
#940 = DIRECTION ( 'NONE',  ( 0.000000000000000000, 0.000000000000000000, 1.000000000000000000 ) ) ;
#941 = CARTESIAN_POINT ( 'NONE',  ( 0.000000000000000000, 4.600000000000012967, 0.000000000000000000 ) ) ;
#942 = AXIS2_PLACEMENT_3D ( 'NONE', #496, #577, #677 ) ;
#943 = EDGE_CURVE ( 'NONE', #256, #226, #201, .T. ) ;
#944 = ORIENTED_EDGE ( 'NONE', *, *, #283, .F. ) ;
#945 = LINE ( 'NONE', #634, #526 ) ;
#946 = AXIS2_PLACEMENT_3D ( 'NONE', #866, #930, #647 ) ;
#947 = DIRECTION ( 'NONE',  ( -0.000000000000000000, 1.000000000000000000, -0.000000000000000000 ) ) ;
#948 = CARTESIAN_POINT ( 'NONE',  ( -8.000000000000010658, 5.000000000000000000, 15.65640646055102181 ) ) ;
#949 = EDGE_LOOP ( 'NONE', ( #953, #464 ) ) ;
#950 = DIRECTION ( 'NONE',  ( 0.000000000000000000, 0.000000000000000000, 1.000000000000000000 ) ) ;
#951 = DIRECTION ( 'NONE',  ( -0.000000000000000000, 1.000000000000000000, -0.000000000000000000 ) ) ;
#952 = FACE_BOUND ( 'NONE', #90, .T. ) ;
#953 = ORIENTED_EDGE ( 'NONE', *, *, #242, .T. ) ;
#954 = EDGE_CURVE ( 'NONE', #422, #241, #765, .T. ) ;
#955 = DIRECTION ( 'NONE',  ( 0.000000000000000000, 0.000000000000000000, 1.000000000000000000 ) ) ;
#956 = DIRECTION ( 'NONE',  ( 8.659560562354937789E-17, 0.7071067811865471286, -0.7071067811865479058 ) ) ;
#957 = ORIENTED_EDGE ( 'NONE', *, *, #350, .T. ) ;
#958 = DATE_AND_TIME ( #828, #183 ) ;
#959 = CIRCLE ( 'NONE', #330, 1.799999999999997824 ) ;
#960 = VECTOR ( 'NONE', #465, 1000.000000000000000 ) ;
#961 = AXIS2_PLACEMENT_3D ( 'NONE', #758, #229, #520 ) ;
#962 = CARTESIAN_POINT ( 'NONE',  ( 16.00000000000000000, 3.440000000000001279, -1.799999999999999600 ) ) ;
#963 = ADVANCED_FACE ( 'NONE', ( #405 ), #711, .F. ) ;
#964 = DIRECTION ( 'NONE',  ( 0.000000000000000000, 0.000000000000000000, 1.000000000000000000 ) ) ;
#965 = ORIENTED_EDGE ( 'NONE', *, *, #588, .F. ) ;
#966 = PERSON_AND_ORGANIZATION ( #96, #317 ) ;
#967 = DIRECTION ( 'NONE',  ( 0.000000000000000000, 0.000000000000000000, 1.000000000000000000 ) ) ;
#968 = CARTESIAN_POINT ( 'NONE',  ( -16.00000000000000711, 5.000000000000000000, 3.359999999999998543 ) ) ;
#969 = EDGE_CURVE ( 'NONE', #534, #696, #945, .T. ) ;
ENDSEC;
END-ISO-10303-21;
