ISO-10303-21;
HEADER;
FILE_DESCRIPTION (( 'STEP AP203' ),
    '1' );
FILE_NAME ('InRunnerLowerPlate.STEP',
    '2026-02-26T13:22:36',
    ( '' ),
    ( '' ),
    'SwSTEP 2.0',
    'SolidWorks 2024',
    '' );
FILE_SCHEMA (( 'CONFIG_CONTROL_DESIGN' ));
ENDSEC;

DATA;
#1 = CYLINDRICAL_SURFACE ( 'NONE', #520, 1.699999999999993072 ) ;
#2 = CARTESIAN_POINT ( 'NONE',  ( 0.000000000000000000, 3.699999999999977529, -4.100000000000000533 ) ) ;
#3 = ORIENTED_EDGE ( 'NONE', *, *, #1028, .F. ) ;
#4 = DIRECTION ( 'NONE',  ( 0.000000000000000000, 0.000000000000000000, 1.000000000000000000 ) ) ;
#5 = VECTOR ( 'NONE', #1008, 1000.000000000000000 ) ;
#6 = CARTESIAN_POINT ( 'NONE',  ( 0.000000000000000000, 16.30923177083333897, 0.000000000000000000 ) ) ;
#7 = CIRCLE ( 'NONE', #79, 1.699999999999989742 ) ;
#8 = DIRECTION ( 'NONE',  ( -0.000000000000000000, 1.000000000000000000, -0.000000000000000000 ) ) ;
#9 = ORIENTED_EDGE ( 'NONE', *, *, #717, .F. ) ;
#10 = DIRECTION ( 'NONE',  ( 0.000000000000000000, 0.000000000000000000, 1.000000000000000000 ) ) ;
#11 = ORIENTED_EDGE ( 'NONE', *, *, #757, .F. ) ;
#12 = EDGE_CURVE ( 'NONE', #112, #872, #641, .T. ) ;
#13 = CARTESIAN_POINT ( 'NONE',  ( 0.000000000000000000, 8.400000000000000355, 2.700000000000002398 ) ) ;
#14 = DIRECTION ( 'NONE',  ( 0.000000000000000000, 0.000000000000000000, 1.000000000000000000 ) ) ;
#15 = ORIENTED_EDGE ( 'NONE', *, *, #132, .T. ) ;
#16 = LINE ( 'NONE', #833, #541 ) ;
#17 = LOCAL_TIME ( 21, 22, 36.00000000000000000, #1058 ) ;
#18 = EDGE_CURVE ( 'NONE', #910, #534, #264, .T. ) ;
#19 = DIRECTION ( 'NONE',  ( -0.000000000000000000, 1.000000000000000000, -0.000000000000000000 ) ) ;
#20 = EDGE_LOOP ( 'NONE', ( #644, #957 ) ) ;
#21 = LINE ( 'NONE', #338, #5 ) ;
#22 = AXIS2_PLACEMENT_3D ( 'NONE', #1007, #527, #444 ) ;
#23 = AXIS2_PLACEMENT_3D ( 'NONE', #371, #949, #461 ) ;
#24 = AXIS2_PLACEMENT_3D ( 'NONE', #445, #599, #602 ) ;
#25 = AXIS2_PLACEMENT_3D ( 'NONE', #531, #933, #457 ) ;
#26 = ORIENTED_EDGE ( 'NONE', *, *, #604, .T. ) ;
#27 = CARTESIAN_POINT ( 'NONE',  ( 0.000000000000000000, 8.400000000000000355, 0.000000000000000000 ) ) ;
#28 = DIRECTION ( 'NONE',  ( 0.000000000000000000, 0.000000000000000000, 1.000000000000000000 ) ) ;
#29 = ADVANCED_FACE ( 'NONE', ( #122 ), #770, .F. ) ;
#30 = EDGE_LOOP ( 'NONE', ( #154, #901, #536, #1052 ) ) ;
#31 = CYLINDRICAL_SURFACE ( 'NONE', #161, 1.699999999999993072 ) ;
#32 = EDGE_LOOP ( 'NONE', ( #912, #705, #140, #593 ) ) ;
#33 = AXIS2_PLACEMENT_3D ( 'NONE', #1024, #316, #535 ) ;
#34 = ORIENTED_EDGE ( 'NONE', *, *, #98, .T. ) ;
#35 = FACE_BOUND ( 'NONE', #65, .T. ) ;
#36 = ADVANCED_FACE ( 'NONE', ( #450 ), #776, .F. ) ;
#37 = ORIENTED_EDGE ( 'NONE', *, *, #12, .F. ) ;
#38 = PERSON_AND_ORGANIZATION ( #549, #101 ) ;
#39 = AXIS2_PLACEMENT_3D ( 'NONE', #886, #737, #170 ) ;
#40 = LINE ( 'NONE', #362, #914 ) ;
#41 = CIRCLE ( 'NONE', #300, 1.699999999999996625 ) ;
#42 = CARTESIAN_POINT ( 'NONE',  ( 0.000000000000000000, 16.30923177083333897, 0.000000000000000000 ) ) ;
#43 = DIRECTION ( 'NONE',  ( -0.000000000000000000, 1.000000000000000000, -0.000000000000000000 ) ) ;
#44 = ORIENTED_EDGE ( 'NONE', *, *, #156, .F. ) ;
#45 = FACE_OUTER_BOUND ( 'NONE', #532, .T. ) ;
#46 =( LENGTH_UNIT ( ) NAMED_UNIT ( * ) SI_UNIT ( .MILLI., .METRE. ) );
#47 = EDGE_CURVE ( 'NONE', #416, #669, #619, .T. ) ;
#48 = CARTESIAN_POINT ( 'NONE',  ( 13.50000000000000533, -3.469446951953614189E-15, -25.08268590217983984 ) ) ;
#49 = ORIENTED_EDGE ( 'NONE', *, *, #915, .F. ) ;
#50 = DIRECTION ( 'NONE',  ( -0.000000000000000000, 1.000000000000000000, -0.000000000000000000 ) ) ;
#51 = EDGE_LOOP ( 'NONE', ( #503, #168, #325, #598 ) ) ;
#52 = APPROVAL_ROLE ( '' ) ;
#53 = EDGE_CURVE ( 'NONE', #104, #711, #944, .T. ) ;
#54 = LINE ( 'NONE', #1013, #828 ) ;
#55 = DIRECTION ( 'NONE',  ( 8.659560562354922997E-17, -0.7071067811865483499, 0.7071067811865467956 ) ) ;
#56 = CARTESIAN_POINT ( 'NONE',  ( 3.673940397442059178E-15, 16.30923177083333897, -30.00000000000000000 ) ) ;
#57 = AXIS2_PLACEMENT_3D ( 'NONE', #607, #613, #763 ) ;
#58 = PLANE ( 'NONE',  #1012 ) ;
#59 = AXIS2_PLACEMENT_3D ( 'NONE', #373, #629, #782 ) ;
#60 = VECTOR ( 'NONE', #175, 1000.000000000000000 ) ;
#61 = ORIENTED_EDGE ( 'NONE', *, *, #604, .F. ) ;
#62 = DIRECTION ( 'NONE',  ( 0.000000000000000000, 0.000000000000000000, 1.000000000000000000 ) ) ;
#63 = CARTESIAN_POINT ( 'NONE',  ( 0.000000000000000000, 16.30923177083333897, 0.000000000000000000 ) ) ;
#64 = ADVANCED_FACE ( 'NONE', ( #556, #45 ), #147, .F. ) ;
#65 = EDGE_LOOP ( 'NONE', ( #348, #61 ) ) ;
#66 = DIRECTION ( 'NONE',  ( 0.000000000000000000, 0.000000000000000000, 1.000000000000000000 ) ) ;
#67 = LOCAL_TIME ( 21, 22, 36.00000000000000000, #627 ) ;
#68 = CARTESIAN_POINT ( 'NONE',  ( 0.000000000000000000, 8.400000000000000355, 0.000000000000000000 ) ) ;
#69 = PERSON_AND_ORGANIZATION ( #549, #101 ) ;
#70 = ORIENTED_EDGE ( 'NONE', *, *, #838, .F. ) ;
#71 = DIRECTION ( 'NONE',  ( -0.000000000000000000, 1.000000000000000000, -0.000000000000000000 ) ) ;
#72 = CC_DESIGN_PERSON_AND_ORGANIZATION_ASSIGNMENT ( #1032, #120, ( #88 ) ) ;
#73 = CARTESIAN_POINT ( 'NONE',  ( -13.49999999999999822, -3.469446951953614189E-15, -21.68268590217985192 ) ) ;
#74 = DIRECTION ( 'NONE',  ( 0.000000000000000000, 0.000000000000000000, 1.000000000000000000 ) ) ;
#75 = PERSON_AND_ORGANIZATION ( #549, #101 ) ;
#76 = CIRCLE ( 'NONE', #474, 11.50000000000000178 ) ;
#77 = ORIENTED_EDGE ( 'NONE', *, *, #947, .T. ) ;
#78 = DIRECTION ( 'NONE',  ( -0.000000000000000000, 1.000000000000000000, -0.000000000000000000 ) ) ;
#79 = AXIS2_PLACEMENT_3D ( 'NONE', #229, #559, #66 ) ;
#80 = EDGE_CURVE ( 'NONE', #125, #370, #590, .T. ) ;
#81 = UNCERTAINTY_MEASURE_WITH_UNIT (LENGTH_MEASURE( 1.000000000000000082E-05 ), #46, 'distance_accuracy_value', 'NONE');
#82 = EDGE_LOOP ( 'NONE', ( #407, #714, #199, #761 ) ) ;
#83 = DIRECTION ( 'NONE',  ( 0.000000000000000000, 0.000000000000000000, 1.000000000000000000 ) ) ;
#84 = PRODUCT_RELATED_PRODUCT_CATEGORY ( 'detail', '', ( #88 ) ) ;
#85 = CC_DESIGN_APPROVAL ( #271, ( #206 ) ) ;
#86 = ORIENTED_EDGE ( 'NONE', *, *, #223, .T. ) ;
#87 = DIRECTION ( 'NONE',  ( -0.000000000000000000, 1.000000000000000000, -0.000000000000000000 ) ) ;
#88 = PRODUCT ( 'InRunnerLowerPlate', 'InRunnerLowerPlate', '', ( #462 ) ) ;
#89 = DIRECTION ( 'NONE',  ( -0.000000000000000000, 1.000000000000000000, -0.000000000000000000 ) ) ;
#90 = EDGE_CURVE ( 'NONE', #764, #989, #942, .T. ) ;
#91 = EDGE_LOOP ( 'NONE', ( #340, #982, #684, #819 ) ) ;
#92 = CARTESIAN_POINT ( 'NONE',  ( 0.000000000000000000, 3.300000000000000711, 0.000000000000000000 ) ) ;
#93 = CIRCLE ( 'NONE', #946, 1.700000000000000178 ) ;
#94 = AXIS2_PLACEMENT_3D ( 'NONE', #306, #225, #876 ) ;
#95 = AXIS2_PLACEMENT_3D ( 'NONE', #374, #857, #961 ) ;
#96 = EDGE_LOOP ( 'NONE', ( #866, #751 ) ) ;
#97 = CARTESIAN_POINT ( 'NONE',  ( -13.49999999999999822, -3.469446951953614189E-15, 23.38268590217984055 ) ) ;
#98 = EDGE_CURVE ( 'NONE', #370, #125, #726, .T. ) ;
#99 = ORIENTED_EDGE ( 'NONE', *, *, #560, .T. ) ;
#100 = FACE_OUTER_BOUND ( 'NONE', #743, .T. ) ;
#101 = ORGANIZATION ( 'UNSPECIFIED', 'UNSPECIFIED', '' ) ;
#102 = ORIENTED_EDGE ( 'NONE', *, *, #507, .T. ) ;
#103 = CARTESIAN_POINT ( 'NONE',  ( 13.49999999999998757, 8.400000000000000355, 25.08268590217984340 ) ) ;
#104 = VERTEX_POINT ( 'NONE', #467 ) ;
#105 = DIRECTION ( 'NONE',  ( -0.000000000000000000, 1.000000000000000000, -0.000000000000000000 ) ) ;
#106 = ORIENTED_EDGE ( 'NONE', *, *, #647, .T. ) ;
#107 = AXIS2_PLACEMENT_3D ( 'NONE', #63, #411, #1050 ) ;
#108 = CIRCLE ( 'NONE', #361, 1.699999999999986189 ) ;
#109 = ADVANCED_FACE ( 'NONE', ( #863 ), #391, .F. ) ;
#110 = VECTOR ( 'NONE', #554, 1000.000000000000000 ) ;
#111 = DIRECTION ( 'NONE',  ( -0.000000000000000000, 1.000000000000000000, -0.000000000000000000 ) ) ;
#112 = VERTEX_POINT ( 'NONE', #1041 ) ;
#113 = DIRECTION ( 'NONE',  ( 0.000000000000000000, 0.000000000000000000, 1.000000000000000000 ) ) ;
#114 = ORIENTED_EDGE ( 'NONE', *, *, #47, .T. ) ;
#115 = APPLICATION_PROTOCOL_DEFINITION ( 'international standard', 'config_control_design', 1994, #614 ) ;
#116 = EDGE_CURVE ( 'NONE', #824, #416, #877, .T. ) ;
#117 = ORIENTED_EDGE ( 'NONE', *, *, #947, .F. ) ;
#118 = DIRECTION ( 'NONE',  ( -0.000000000000000000, 1.000000000000000000, -0.000000000000000000 ) ) ;
#119 = VERTEX_POINT ( 'NONE', #169 ) ;
#120 = PERSON_AND_ORGANIZATION_ROLE ( 'design_owner' ) ;
#121 = DIRECTION ( 'NONE',  ( -0.000000000000000000, 1.000000000000000000, -0.000000000000000000 ) ) ;
#122 = FACE_OUTER_BOUND ( 'NONE', #852, .T. ) ;
#123 = CARTESIAN_POINT ( 'NONE',  ( -26.99999999999999645, 8.400000000000002132, -1.699999999999996625 ) ) ;
#124 = EDGE_CURVE ( 'NONE', #692, #479, #995, .T. ) ;
#125 = VERTEX_POINT ( 'NONE', #504 ) ;
#126 = AXIS2_PLACEMENT_3D ( 'NONE', #131, #378, #480 ) ;
#127 = DIRECTION ( 'NONE',  ( 0.000000000000000000, 0.000000000000000000, 1.000000000000000000 ) ) ;
#128 = VERTEX_POINT ( 'NONE', #496 ) ;
#129 = DIRECTION ( 'NONE',  ( 0.000000000000000000, 0.000000000000000000, 1.000000000000000000 ) ) ;
#130 = ORIENTED_EDGE ( 'NONE', *, *, #998, .T. ) ;
#131 = CARTESIAN_POINT ( 'NONE',  ( 0.000000000000000000, 3.699999999999977529, 0.000000000000000000 ) ) ;
#132 = EDGE_CURVE ( 'NONE', #711, #209, #911, .T. ) ;
#133 =( NAMED_UNIT ( * ) SI_UNIT ( $, .STERADIAN. ) SOLID_ANGLE_UNIT ( ) );
#134 = CARTESIAN_POINT ( 'NONE',  ( 1.408343819019456373E-15, 2.300000000000001599, -11.50000000000000178 ) ) ;
#135 = CARTESIAN_POINT ( 'NONE',  ( 27.00000000000000000, 8.400000000000000355, -1.699999999999993072 ) ) ;
#136 = VERTEX_POINT ( 'NONE', #825 ) ;
#137 = PLANE ( 'NONE',  #897 ) ;
#138 = DIRECTION ( 'NONE',  ( -0.000000000000000000, 1.000000000000000000, -0.000000000000000000 ) ) ;
#139 = LINE ( 'NONE', #945, #573 ) ;
#140 = ORIENTED_EDGE ( 'NONE', *, *, #415, .F. ) ;
#141 = DIRECTION ( 'NONE',  ( -0.000000000000000000, 1.000000000000000000, -0.000000000000000000 ) ) ;
#142 = EDGE_CURVE ( 'NONE', #889, #989, #76, .T. ) ;
#143 = CIRCLE ( 'NONE', #727, 22.10000000000000142 ) ;
#144 = CARTESIAN_POINT ( 'NONE',  ( 5.510910596163058001E-16, 3.300000000000001599, 4.499999999999975131 ) ) ;
#145 = VECTOR ( 'NONE', #314, 1000.000000000000000 ) ;
#146 = ORIENTED_EDGE ( 'NONE', *, *, #874, .F. ) ;
#147 = PLANE ( 'NONE',  #453 ) ;
#148 = LINE ( 'NONE', #1049, #145 ) ;
#149 = CARTESIAN_POINT ( 'NONE',  ( -13.49999999999999822, -3.469446951953614189E-15, -23.38268590217984766 ) ) ;
#150 = CARTESIAN_POINT ( 'NONE',  ( -26.99999999999999645, -3.469446951953614189E-15, -1.037996839893070537E-14 ) ) ;
#151 = ORIENTED_EDGE ( 'NONE', *, *, #867, .F. ) ;
#152 = CARTESIAN_POINT ( 'NONE',  ( 0.000000000000000000, 16.30923177083333897, 30.00000000000000000 ) ) ;
#153 = CARTESIAN_POINT ( 'NONE',  ( 13.49999999999998757, 8.400000000000002132, 23.38268590217985121 ) ) ;
#154 = ORIENTED_EDGE ( 'NONE', *, *, #176, .T. ) ;
#155 = CARTESIAN_POINT ( 'NONE',  ( 3.306546357697856692E-16, 16.30923177083333897, -2.700000000000002398 ) ) ;
#156 = EDGE_CURVE ( 'NONE', #238, #596, #566, .T. ) ;
#157 = AXIS2_PLACEMENT_3D ( 'NONE', #42, #364, #697 ) ;
#158 = CARTESIAN_POINT ( 'NONE',  ( -13.49999999999999822, -3.469446951953614189E-15, -25.08268590217984340 ) ) ;
#159 = CIRCLE ( 'NONE', #360, 2.700000000000002398 ) ;
#160 = ORIENTED_EDGE ( 'NONE', *, *, #265, .F. ) ;
#161 = AXIS2_PLACEMENT_3D ( 'NONE', #267, #1004, #689 ) ;
#162 = DIRECTION ( 'NONE',  ( -0.000000000000000000, 1.000000000000000000, -0.000000000000000000 ) ) ;
#163 = CIRCLE ( 'NONE', #59, 11.50000000000000178 ) ;
#164 = EDGE_CURVE ( 'NONE', #181, #752, #805, .T. ) ;
#165 = DESIGN_CONTEXT ( 'detailed design', #359, 'design' ) ;
#166 = CARTESIAN_POINT ( 'NONE',  ( 0.000000000000000000, 3.300000000000000711, 22.10000000000000142 ) ) ;
#167 = APPROVAL_STATUS ( 'not_yet_approved' ) ;
#168 = ORIENTED_EDGE ( 'NONE', *, *, #164, .T. ) ;
#169 = CARTESIAN_POINT ( 'NONE',  ( 13.49999999999998757, -3.469446951953614189E-15, 21.68268590217985192 ) ) ;
#170 = DIRECTION ( 'NONE',  ( 0.000000000000000000, 0.000000000000000000, 1.000000000000000000 ) ) ;
#171 = EDGE_LOOP ( 'NONE', ( #272, #322, #1045, #44 ) ) ;
#172 = CARTESIAN_POINT ( 'NONE',  ( 3.306546357697856692E-16, 8.400000000000000355, -2.700000000000002398 ) ) ;
#173 = ORIENTED_EDGE ( 'NONE', *, *, #772, .F. ) ;
#174 = AXIS2_PLACEMENT_3D ( 'NONE', #968, #883, #454 ) ;
#175 = DIRECTION ( 'NONE',  ( -0.000000000000000000, 1.000000000000000000, -0.000000000000000000 ) ) ;
#176 = EDGE_CURVE ( 'NONE', #233, #764, #1033, .T. ) ;
#177 = CARTESIAN_POINT ( 'NONE',  ( 3.306546357697856692E-16, -3.469446951953614189E-15, -2.700000000000002398 ) ) ;
#178 = EDGE_LOOP ( 'NONE', ( #412, #924 ) ) ;
#179 = DIRECTION ( 'NONE',  ( -0.000000000000000000, 1.000000000000000000, -0.000000000000000000 ) ) ;
#180 = VECTOR ( 'NONE', #1016, 1000.000000000000000 ) ;
#181 = VERTEX_POINT ( 'NONE', #661 ) ;
#182 = FACE_OUTER_BOUND ( 'NONE', #430, .T. ) ;
#183 = ORIENTED_EDGE ( 'NONE', *, *, #728, .F. ) ;
#184 = DIRECTION ( 'NONE',  ( 0.000000000000000000, 0.000000000000000000, 1.000000000000000000 ) ) ;
#185 = DIRECTION ( 'NONE',  ( 0.000000000000000000, 0.000000000000000000, 1.000000000000000000 ) ) ;
#186 = DIRECTION ( 'NONE',  ( -0.000000000000000000, 1.000000000000000000, -0.000000000000000000 ) ) ;
#187 = CARTESIAN_POINT ( 'NONE',  ( 1.898202538678397557E-15, 2.300000000000003375, -15.50000000000000178 ) ) ;
#188 = ORIENTED_EDGE ( 'NONE', *, *, #12, .T. ) ;
#189 = FACE_BOUND ( 'NONE', #934, .T. ) ;
#190 = ADVANCED_FACE ( 'NONE', ( #734 ), #396, .F. ) ;
#191 = ORIENTED_EDGE ( 'NONE', *, *, #881, .T. ) ;
#192 = CARTESIAN_POINT ( 'NONE',  ( 22.10000000000000142, 8.400000000000000355, 0.000000000000000000 ) ) ;
#193 = ORIENTED_EDGE ( 'NONE', *, *, #53, .T. ) ;
#194 = AXIS2_PLACEMENT_3D ( 'NONE', #440, #595, #198 ) ;
#195 = ADVANCED_FACE ( 'NONE', ( #894 ), #987, .T. ) ;
#196 = AXIS2_PLACEMENT_3D ( 'NONE', #759, #111, #28 ) ;
#197 = VERTEX_POINT ( 'NONE', #413 ) ;
#198 = DIRECTION ( 'NONE',  ( 0.000000000000000000, 0.000000000000000000, 1.000000000000000000 ) ) ;
#199 = ORIENTED_EDGE ( 'NONE', *, *, #838, .T. ) ;
#200 = DIRECTION ( 'NONE',  ( 0.000000000000000000, -1.000000000000000000, 0.000000000000000000 ) ) ;
#201 = EDGE_CURVE ( 'NONE', #815, #529, #255, .T. ) ;
#202 = ORIENTED_EDGE ( 'NONE', *, *, #988, .T. ) ;
#203 = DIRECTION ( 'NONE',  ( 0.000000000000000000, 0.000000000000000000, 1.000000000000000000 ) ) ;
#204 = ORIENTED_EDGE ( 'NONE', *, *, #261, .F. ) ;
#205 = APPROVAL_DATE_TIME ( #937, #736 ) ;
#206 = SECURITY_CLASSIFICATION ( '', '', #403 ) ;
#207 = CARTESIAN_POINT ( 'NONE',  ( 13.49999999999998757, 8.400000000000002132, 21.68268590217986613 ) ) ;
#208 = ADVANCED_FACE ( 'NONE', ( #579 ), #1, .F. ) ;
#209 = VERTEX_POINT ( 'NONE', #172 ) ;
#210 = CARTESIAN_POINT ( 'NONE',  ( 30.00000000000000000, -1.671642880836137297E-15, 0.000000000000000000 ) ) ;
#211 = VERTEX_POINT ( 'NONE', #749 ) ;
#212 = DIRECTION ( 'NONE',  ( 0.000000000000000000, 0.000000000000000000, 1.000000000000000000 ) ) ;
#213 = VECTOR ( 'NONE', #179, 1000.000000000000000 ) ;
#214 = CIRCLE ( 'NONE', #812, 1.699999999999996625 ) ;
#215 = CIRCLE ( 'NONE', #232, 11.50000000000000178 ) ;
#216 = CARTESIAN_POINT ( 'NONE',  ( 0.000000000000000000, 3.699999999999977529, 0.000000000000000000 ) ) ;
#217 = ORIENTED_EDGE ( 'NONE', *, *, #585, .T. ) ;
#218 = CARTESIAN_POINT ( 'NONE',  ( 4.100000000000001421, 3.300000000000001599, 0.000000000000000000 ) ) ;
#219 = CALENDAR_DATE ( 2026, 26, 2 ) ;
#220 = CARTESIAN_POINT ( 'NONE',  ( 0.000000000000000000, 3.300000000000002487, 0.000000000000000000 ) ) ;
#221 = DIRECTION ( 'NONE',  ( -0.000000000000000000, 1.000000000000000000, 0.000000000000000000 ) ) ;
#222 = EDGE_LOOP ( 'NONE', ( #193, #1040 ) ) ;
#223 = EDGE_CURVE ( 'NONE', #539, #829, #379, .T. ) ;
#224 = CARTESIAN_POINT ( 'NONE',  ( 2.706469426115650955E-15, 16.30923177083333897, -22.10000000000000142 ) ) ;
#225 = DIRECTION ( 'NONE',  ( 0.000000000000000000, -1.000000000000000000, 0.000000000000000000 ) ) ;
#226 = VERTEX_POINT ( 'NONE', #816 ) ;
#227 = DIRECTION ( 'NONE',  ( -0.000000000000000000, 1.000000000000000000, -0.000000000000000000 ) ) ;
#228 = PRODUCT_DEFINITION ( 'UNKNOWN', '', #372, #165 ) ;
#229 = CARTESIAN_POINT ( 'NONE',  ( -13.49999999999999822, 8.400000000000002132, -23.38268590217984766 ) ) ;
#230 = AXIS2_PLACEMENT_3D ( 'NONE', #623, #43, #365 ) ;
#231 = DIRECTION ( 'NONE',  ( -0.000000000000000000, 1.000000000000000000, -0.000000000000000000 ) ) ;
#232 = AXIS2_PLACEMENT_3D ( 'NONE', #668, #19, #928 ) ;
#233 = VERTEX_POINT ( 'NONE', #336 ) ;
#234 = DIRECTION ( 'NONE',  ( 0.000000000000000000, -0.000000000000000000, -1.000000000000000000 ) ) ;
#235 = ADVANCED_FACE ( 'NONE', ( #890 ), #1054, .F. ) ;
#236 = CARTESIAN_POINT ( 'NONE',  ( 0.000000000000000000, 3.300000000000002487, 15.50000000000000178 ) ) ;
#237 =( NAMED_UNIT ( * ) PLANE_ANGLE_UNIT ( ) SI_UNIT ( $, .RADIAN. ) );
#238 = VERTEX_POINT ( 'NONE', #408 ) ;
#239 = DIRECTION ( 'NONE',  ( 0.000000000000000000, 0.000000000000000000, 1.000000000000000000 ) ) ;
#240 = CARTESIAN_POINT ( 'NONE',  ( 0.000000000000000000, 3.300000000000000711, 11.50000000000000178 ) ) ;
#241 = CARTESIAN_POINT ( 'NONE',  ( -26.99999999999999645, 8.400000000000002132, -1.037996839893070537E-14 ) ) ;
#242 = COORDINATED_UNIVERSAL_TIME_OFFSET ( 8, 0, .AHEAD. ) ;
#243 = EDGE_CURVE ( 'NONE', #119, #858, #93, .T. ) ;
#244 = ORIENTED_EDGE ( 'NONE', *, *, #547, .F. ) ;
#245 = CYLINDRICAL_SURFACE ( 'NONE', #795, 2.700000000000002398 ) ;
#246 = AXIS2_PLACEMENT_3D ( 'NONE', #571, #251, #990 ) ;
#247 = CARTESIAN_POINT ( 'NONE',  ( -26.99999999999999645, 8.400000000000002132, 1.699999999999975753 ) ) ;
#248 = AXIS2_PLACEMENT_3D ( 'NONE', #544, #1022, #1046 ) ;
#249 = EDGE_LOOP ( 'NONE', ( #446, #621 ) ) ;
#250 = AXIS2_PLACEMENT_3D ( 'NONE', #241, #568, #891 ) ;
#251 = DIRECTION ( 'NONE',  ( -0.000000000000000000, 1.000000000000000000, -0.000000000000000000 ) ) ;
#252 = CARTESIAN_POINT ( 'NONE',  ( 5.021051876504148371E-16, 16.30923177083333897, -4.100000000000000533 ) ) ;
#253 = PRODUCT_DEFINITION_SHAPE ( 'NONE', 'NONE',  #228 ) ;
#254 = ORIENTED_EDGE ( 'NONE', *, *, #677, .F. ) ;
#255 = LINE ( 'NONE', #664, #839 ) ;
#256 = ORIENTED_EDGE ( 'NONE', *, *, #308, .F. ) ;
#257 = ADVANCED_FACE ( 'NONE', ( #326 ), #245, .F. ) ;
#258 = CARTESIAN_POINT ( 'NONE',  ( -13.49999999999999822, 8.400000000000000355, 23.38268590217984055 ) ) ;
#259 = ORIENTED_EDGE ( 'NONE', *, *, #47, .F. ) ;
#260 = DIRECTION ( 'NONE',  ( -0.000000000000000000, 1.000000000000000000, -0.000000000000000000 ) ) ;
#261 = EDGE_CURVE ( 'NONE', #119, #804, #21, .T. ) ;
#262 = ORIENTED_EDGE ( 'NONE', *, *, #18, .T. ) ;
#263 = DIRECTION ( 'NONE',  ( -0.000000000000000000, 1.000000000000000000, -0.000000000000000000 ) ) ;
#264 = CIRCLE ( 'NONE', #22, 1.699999999999996625 ) ;
#265 = EDGE_CURVE ( 'NONE', #529, #197, #400, .T. ) ;
#266 = EDGE_LOOP ( 'NONE', ( #49, #11 ) ) ;
#267 = CARTESIAN_POINT ( 'NONE',  ( -13.49999999999999822, 8.400000000000000355, -23.38268590217984766 ) ) ;
#268 = CARTESIAN_POINT ( 'NONE',  ( 0.000000000000000000, 16.30923177083333897, 0.000000000000000000 ) ) ;
#269 = EDGE_LOOP ( 'NONE', ( #603, #244, #303, #631 ) ) ;
#270 = DIRECTION ( 'NONE',  ( 0.000000000000000000, -1.000000000000000000, 0.000000000000000000 ) ) ;
#271 = APPROVAL ( #167, 'UNSPECIFIED' ) ;
#272 = ORIENTED_EDGE ( 'NONE', *, *, #851, .F. ) ;
#273 = ORIENTED_EDGE ( 'NONE', *, *, #319, .T. ) ;
#274 = DIRECTION ( 'NONE',  ( 0.000000000000000000, 0.000000000000000000, 1.000000000000000000 ) ) ;
#275 = ORIENTED_EDGE ( 'NONE', *, *, #581, .T. ) ;
#276 = DIRECTION ( 'NONE',  ( 0.000000000000000000, 0.000000000000000000, 1.000000000000000000 ) ) ;
#277 = AXIS2_PLACEMENT_3D ( 'NONE', #435, #356, #282 ) ;
#278 = ADVANCED_FACE ( 'NONE', ( #994 ), #830, .F. ) ;
#279 = CIRCLE ( 'NONE', #675, 22.10000000000000142 ) ;
#280 = DIRECTION ( 'NONE',  ( -0.000000000000000000, 1.000000000000000000, -0.000000000000000000 ) ) ;
#281 = DIRECTION ( 'NONE',  ( -0.000000000000000000, 1.000000000000000000, -0.000000000000000000 ) ) ;
#282 = DIRECTION ( 'NONE',  ( 0.000000000000000000, 0.000000000000000000, 1.000000000000000000 ) ) ;
#283 = ORIENTED_EDGE ( 'NONE', *, *, #581, .F. ) ;
#284 = COORDINATED_UNIVERSAL_TIME_OFFSET ( 8, 0, .AHEAD. ) ;
#285 = EDGE_CURVE ( 'NONE', #181, #211, #214, .T. ) ;
#286 = CARTESIAN_POINT ( 'NONE',  ( 13.50000000000000533, 8.400000000000000355, -23.38268590217984055 ) ) ;
#287 = CARTESIAN_POINT ( 'NONE',  ( 27.00000000000000000, -3.469446951953614189E-15, 0.000000000000000000 ) ) ;
#288 = LINE ( 'NONE', #135, #758 ) ;
#289 = ORIENTED_EDGE ( 'NONE', *, *, #611, .F. ) ;
#290 = DIRECTION ( 'NONE',  ( -0.000000000000000000, 1.000000000000000000, -0.000000000000000000 ) ) ;
#291 = FACE_OUTER_BOUND ( 'NONE', #1042, .T. ) ;
#292 = CARTESIAN_POINT ( 'NONE',  ( 0.000000000000000000, 0.000000000000000000, 0.000000000000000000 ) ) ;
#293 = FACE_BOUND ( 'NONE', #789, .T. ) ;
#294 = EDGE_LOOP ( 'NONE', ( #377, #495, #114, #766 ) ) ;
#295 = CARTESIAN_POINT ( 'NONE',  ( 13.49999999999998757, 8.400000000000000355, 23.38268590217985121 ) ) ;
#296 = AXIS2_PLACEMENT_3D ( 'NONE', #405, #500, #741 ) ;
#297 = VECTOR ( 'NONE', #1029, 1000.000000000000000 ) ;
#298 = CIRCLE ( 'NONE', #642, 1.699999999999996625 ) ;
#299 = CARTESIAN_POINT ( 'NONE',  ( 2.706469426115650955E-15, 3.300000000000000711, -22.10000000000000142 ) ) ;
#300 = AXIS2_PLACEMENT_3D ( 'NONE', #149, #330, #502 ) ;
#301 = DIRECTION ( 'NONE',  ( -0.000000000000000000, 1.000000000000000000, -0.000000000000000000 ) ) ;
#302 = EDGE_CURVE ( 'NONE', #211, #484, #935, .T. ) ;
#303 = ORIENTED_EDGE ( 'NONE', *, *, #302, .T. ) ;
#304 = CARTESIAN_POINT ( 'NONE',  ( 0.000000000000000000, 0.000000000000000000, 0.000000000000000000 ) ) ;
#305 = DIRECTION ( 'NONE',  ( 0.000000000000000000, 0.000000000000000000, 1.000000000000000000 ) ) ;
#306 = CARTESIAN_POINT ( 'NONE',  ( 2.700000000000002398, 8.400000000000000355, 0.000000000000000000 ) ) ;
#307 = EDGE_LOOP ( 'NONE', ( #86, #842 ) ) ;
#308 = EDGE_CURVE ( 'NONE', #434, #580, #492, .T. ) ;
#309 = CC_DESIGN_APPROVAL ( #923, ( #228 ) ) ;
#310 = CIRCLE ( 'NONE', #33, 1.699999999999996625 ) ;
#311 = FACE_OUTER_BOUND ( 'NONE', #294, .T. ) ;
#312 = ORIENTED_EDGE ( 'NONE', *, *, #750, .T. ) ;
#313 = EDGE_CURVE ( 'NONE', #845, #681, #840, .T. ) ;
#314 = DIRECTION ( 'NONE',  ( -0.000000000000000000, 1.000000000000000000, -0.000000000000000000 ) ) ;
#315 = DIRECTION ( 'NONE',  ( -0.000000000000000000, 1.000000000000000000, -0.000000000000000000 ) ) ;
#316 = DIRECTION ( 'NONE',  ( -0.000000000000000000, 1.000000000000000000, -0.000000000000000000 ) ) ;
#317 = ORIENTED_EDGE ( 'NONE', *, *, #647, .F. ) ;
#318 = CARTESIAN_POINT ( 'NONE',  ( -13.49999999999999822, 8.400000000000000355, -23.38268590217984766 ) ) ;
#319 = EDGE_CURVE ( 'NONE', #910, #481, #16, .T. ) ;
#320 = LINE ( 'NONE', #2, #762 ) ;
#321 = DATE_TIME_ROLE ( 'classification_date' ) ;
#322 = ORIENTED_EDGE ( 'NONE', *, *, #728, .T. ) ;
#323 = DIRECTION ( 'NONE',  ( 0.000000000000000000, 0.000000000000000000, 1.000000000000000000 ) ) ;
#324 = DIRECTION ( 'NONE',  ( 0.000000000000000000, 0.000000000000000000, 1.000000000000000000 ) ) ;
#325 = ORIENTED_EDGE ( 'NONE', *, *, #497, .T. ) ;
#326 = FACE_OUTER_BOUND ( 'NONE', #837, .T. ) ;
#327 = ORIENTED_EDGE ( 'NONE', *, *, #90, .F. ) ;
#328 = DIRECTION ( 'NONE',  ( -0.000000000000000000, 1.000000000000000000, -0.000000000000000000 ) ) ;
#329 = AXIS2_PLACEMENT_3D ( 'NONE', #589, #87, #4 ) ;
#330 = DIRECTION ( 'NONE',  ( -0.000000000000000000, 1.000000000000000000, -0.000000000000000000 ) ) ;
#331 = ORIENTED_EDGE ( 'NONE', *, *, #223, .F. ) ;
#332 = AXIS2_PLACEMENT_3D ( 'NONE', #802, #328, #918 ) ;
#333 = CARTESIAN_POINT ( 'NONE',  ( -13.49999999999999822, 8.400000000000000355, 21.68268590217984837 ) ) ;
#334 = EDGE_CURVE ( 'NONE', #125, #128, #510, .T. ) ;
#335 = DIRECTION ( 'NONE',  ( 0.000000000000000000, 0.000000000000000000, 1.000000000000000000 ) ) ;
#336 = CARTESIAN_POINT ( 'NONE',  ( 0.000000000000000000, 2.300000000000001599, 11.50000000000000178 ) ) ;
#337 = ORIENTED_EDGE ( 'NONE', *, *, #308, .T. ) ;
#338 = CARTESIAN_POINT ( 'NONE',  ( 13.49999999999998757, 8.400000000000000355, 21.68268590217985903 ) ) ;
#339 = ADVANCED_FACE ( 'NONE', ( #922 ), #31, .F. ) ;
#340 = ORIENTED_EDGE ( 'NONE', *, *, #585, .F. ) ;
#341 = DIRECTION ( 'NONE',  ( -0.000000000000000000, 1.000000000000000000, -0.000000000000000000 ) ) ;
#342 = EDGE_LOOP ( 'NONE', ( #785, #601, #545, #656 ) ) ;
#343 = AXIS2_PLACEMENT_3D ( 'NONE', #955, #498, #185 ) ;
#344 = CC_DESIGN_PERSON_AND_ORGANIZATION_ASSIGNMENT ( #855, #808, ( #372 ) ) ;
#345 = LINE ( 'NONE', #673, #476 ) ;
#346 = ORIENTED_EDGE ( 'NONE', *, *, #497, .F. ) ;
#347 = CARTESIAN_POINT ( 'NONE',  ( 0.000000000000000000, -3.469446951953614189E-15, 0.000000000000000000 ) ) ;
#348 = ORIENTED_EDGE ( 'NONE', *, *, #662, .F. ) ;
#349 = DIRECTION ( 'NONE',  ( 0.000000000000000000, 0.000000000000000000, 1.000000000000000000 ) ) ;
#350 = FACE_OUTER_BOUND ( 'NONE', #487, .T. ) ;
#351 = ORIENTED_EDGE ( 'NONE', *, *, #622, .F. ) ;
#352 = APPROVAL_STATUS ( 'not_yet_approved' ) ;
#353 = AXIS2_PLACEMENT_3D ( 'NONE', #295, #1011, #212 ) ;
#354 = DIRECTION ( 'NONE',  ( -0.000000000000000000, 1.000000000000000000, -0.000000000000000000 ) ) ;
#355 = EDGE_LOOP ( 'NONE', ( #665, #3, #660, #275 ) ) ;
#356 = DIRECTION ( 'NONE',  ( -0.000000000000000000, 1.000000000000000000, -0.000000000000000000 ) ) ;
#357 = EDGE_LOOP ( 'NONE', ( #254, #562 ) ) ;
#358 = EDGE_CURVE ( 'NONE', #479, #692, #143, .T. ) ;
#359 = APPLICATION_CONTEXT ( 'configuration controlled 3d designs of mechanical parts and assemblies' ) ;
#360 = AXIS2_PLACEMENT_3D ( 'NONE', #347, #925, #203 ) ;
#361 = AXIS2_PLACEMENT_3D ( 'NONE', #153, #814, #74 ) ;
#362 = CARTESIAN_POINT ( 'NONE',  ( 0.000000000000000000, 16.30923177083333897, 2.700000000000002398 ) ) ;
#363 = CARTESIAN_POINT ( 'NONE',  ( 13.49999999999998757, -3.469446951953614189E-15, 23.38268590217985121 ) ) ;
#364 = DIRECTION ( 'NONE',  ( -0.000000000000000000, 1.000000000000000000, -0.000000000000000000 ) ) ;
#365 = DIRECTION ( 'NONE',  ( 0.000000000000000000, 0.000000000000000000, 1.000000000000000000 ) ) ;
#366 = ORIENTED_EDGE ( 'NONE', *, *, #431, .T. ) ;
#367 = DIRECTION ( 'NONE',  ( 0.000000000000000000, -0.000000000000000000, -1.000000000000000000 ) ) ;
#368 = CYLINDRICAL_SURFACE ( 'NONE', #174, 2.700000000000002398 ) ;
#369 = FACE_BOUND ( 'NONE', #721, .T. ) ;
#370 = VERTEX_POINT ( 'NONE', #518 ) ;
#371 = CARTESIAN_POINT ( 'NONE',  ( 0.000000000000000000, -3.469446951953614189E-15, 0.000000000000000000 ) ) ;
#372 = PRODUCT_DEFINITION_FORMATION_WITH_SPECIFIED_SOURCE ( 'ANY', '', #88, .NOT_KNOWN. ) ;
#373 = CARTESIAN_POINT ( 'NONE',  ( 0.000000000000000000, 3.300000000000000711, 0.000000000000000000 ) ) ;
#374 = CARTESIAN_POINT ( 'NONE',  ( 0.000000000000000000, 16.30923177083333897, 0.000000000000000000 ) ) ;
#375 = ADVANCED_FACE ( 'NONE', ( #350 ), #682, .T. ) ;
#376 = CARTESIAN_POINT ( 'NONE',  ( 0.000000000000000000, 0.000000000000000000, 30.00000000000000000 ) ) ;
#377 = ORIENTED_EDGE ( 'NONE', *, *, #954, .F. ) ;
#378 = DIRECTION ( 'NONE',  ( -0.000000000000000000, 1.000000000000000000, -0.000000000000000000 ) ) ;
#379 = CIRCLE ( 'NONE', #927, 22.10000000000000142 ) ;
#380 = VECTOR ( 'NONE', #301, 1000.000000000000000 ) ;
#381 = CIRCLE ( 'NONE', #1055, 15.50000000000000178 ) ;
#382 = DIRECTION ( 'NONE',  ( -0.000000000000000000, 1.000000000000000000, -0.000000000000000000 ) ) ;
#383 = AXIS2_PLACEMENT_3D ( 'NONE', #363, #138, #305 ) ;
#384 = ADVANCED_FACE ( 'NONE', ( #679, #930, #513, #528, #189, #35, #836, #100 ), #429, .F. ) ;
#385 = CARTESIAN_POINT ( 'NONE',  ( -13.49999999999999822, 8.400000000000002132, 25.08268590217983274 ) ) ;
#386 = ORIENTED_EDGE ( 'NONE', *, *, #637, .F. ) ;
#387 = DIRECTION ( 'NONE',  ( 0.000000000000000000, -1.000000000000000000, 0.000000000000000000 ) ) ;
#388 = CARTESIAN_POINT ( 'NONE',  ( 27.00000000000000000, 8.400000000000002132, 0.000000000000000000 ) ) ;
#389 = LINE ( 'NONE', #720, #712 ) ;
#390 = ORIENTED_EDGE ( 'NONE', *, *, #116, .F. ) ;
#391 = CYLINDRICAL_SURFACE ( 'NONE', #398, 1.699999999999993072 ) ;
#392 = EDGE_CURVE ( 'NONE', #511, #128, #626, .T. ) ;
#393 = DIRECTION ( 'NONE',  ( -0.000000000000000000, 1.000000000000000000, -0.000000000000000000 ) ) ;
#394 = COORDINATED_UNIVERSAL_TIME_OFFSET ( 8, 0, .AHEAD. ) ;
#395 = EDGE_LOOP ( 'NONE', ( #1005, #674 ) ) ;
#396 = CYLINDRICAL_SURFACE ( 'NONE', #710, 1.699999999999993072 ) ;
#397 = EDGE_CURVE ( 'NONE', #233, #889, #849, .T. ) ;
#398 = AXIS2_PLACEMENT_3D ( 'NONE', #700, #290, #790 ) ;
#399 = FACE_OUTER_BOUND ( 'NONE', #525, .T. ) ;
#400 = CIRCLE ( 'NONE', #277, 1.699999999999989742 ) ;
#401 = DIRECTION ( 'NONE',  ( 0.000000000000000000, 0.000000000000000000, 1.000000000000000000 ) ) ;
#402 = AXIS2_PLACEMENT_3D ( 'NONE', #951, #1026, #707 ) ;
#403 = SECURITY_CLASSIFICATION_LEVEL ( 'unclassified' ) ;
#404 = ORIENTED_EDGE ( 'NONE', *, *, #874, .T. ) ;
#405 = CARTESIAN_POINT ( 'NONE',  ( 0.000000000000000000, 8.400000000000000355, 0.000000000000000000 ) ) ;
#406 = PERSON_AND_ORGANIZATION ( #549, #101 ) ;
#407 = ORIENTED_EDGE ( 'NONE', *, *, #618, .F. ) ;
#408 = CARTESIAN_POINT ( 'NONE',  ( 0.000000000000000000, 2.300000000000003375, 15.50000000000000178 ) ) ;
#409 = APPROVAL_PERSON_ORGANIZATION ( #406, #271, #973 ) ;
#410 = EDGE_CURVE ( 'NONE', #711, #104, #159, .T. ) ;
#411 = DIRECTION ( 'NONE',  ( -0.000000000000000000, 1.000000000000000000, -0.000000000000000000 ) ) ;
#412 = ORIENTED_EDGE ( 'NONE', *, *, #1028, .T. ) ;
#413 = CARTESIAN_POINT ( 'NONE',  ( 13.50000000000000533, 8.400000000000002132, -21.68268590217985192 ) ) ;
#414 = CARTESIAN_POINT ( 'NONE',  ( 0.000000000000000000, 3.300000000000001599, -4.499999999999975131 ) ) ;
#415 = EDGE_CURVE ( 'NONE', #128, #511, #690, .T. ) ;
#416 = VERTEX_POINT ( 'NONE', #376 ) ;
#417 = AXIS2_PLACEMENT_3D ( 'NONE', #1056, #646, #971 ) ;
#418 = DIRECTION ( 'NONE',  ( -0.000000000000000000, 1.000000000000000000, -0.000000000000000000 ) ) ;
#419 = DIRECTION ( 'NONE',  ( 0.000000000000000000, 0.000000000000000000, 1.000000000000000000 ) ) ;
#420 = CARTESIAN_POINT ( 'NONE',  ( -13.49999999999999822, 8.400000000000002132, 23.38268590217984055 ) ) ;
#421 = EDGE_LOOP ( 'NONE', ( #654, #9 ) ) ;
#422 = CARTESIAN_POINT ( 'NONE',  ( -13.49999999999999822, 8.400000000000000355, 25.08268590217983629 ) ) ;
#423 = ORIENTED_EDGE ( 'NONE', *, *, #750, .F. ) ;
#424 = EDGE_CURVE ( 'NONE', #681, #226, #853, .T. ) ;
#425 = DIRECTION ( 'NONE',  ( 0.000000000000000000, 0.000000000000000000, 1.000000000000000000 ) ) ;
#426 = DIRECTION ( 'NONE',  ( -0.000000000000000000, 1.000000000000000000, -0.000000000000000000 ) ) ;
#427 = APPROVAL_PERSON_ORGANIZATION ( #786, #923, #52 ) ;
#428 = ORIENTED_EDGE ( 'NONE', *, *, #124, .T. ) ;
#429 = PLANE ( 'NONE',  #523 ) ;
#430 = EDGE_LOOP ( 'NONE', ( #519, #794, #26, #1009 ) ) ;
#431 = EDGE_CURVE ( 'NONE', #845, #1059, #630, .T. ) ;
#432 = CYLINDRICAL_SURFACE ( 'NONE', #574, 1.699999999999993072 ) ;
#433 = VECTOR ( 'NONE', #820, 1000.000000000000000 ) ;
#434 = VERTEX_POINT ( 'NONE', #144 ) ;
#435 = CARTESIAN_POINT ( 'NONE',  ( 13.50000000000000533, 8.400000000000002132, -23.38268590217984055 ) ) ;
#436 = AXIS2_PLACEMENT_3D ( 'NONE', #859, #870, #129 ) ;
#437 = AXIS2_PLACEMENT_3D ( 'NONE', #735, #387, #234 ) ;
#438 = CIRCLE ( 'NONE', #898, 30.00000000000000000 ) ;
#439 = DIRECTION ( 'NONE',  ( -0.000000000000000000, 1.000000000000000000, -0.000000000000000000 ) ) ;
#440 = CARTESIAN_POINT ( 'NONE',  ( -26.99999999999999645, 8.400000000000000355, -1.037996839893070537E-14 ) ) ;
#441 = ORIENTED_EDGE ( 'NONE', *, *, #53, .F. ) ;
#442 = CARTESIAN_POINT ( 'NONE',  ( -13.49999999999999822, 8.400000000000002132, -21.68268590217985903 ) ) ;
#443 = ADVANCED_FACE ( 'NONE', ( #311 ), #620, .T. ) ;
#444 = DIRECTION ( 'NONE',  ( 0.000000000000000000, 0.000000000000000000, 1.000000000000000000 ) ) ;
#445 = CARTESIAN_POINT ( 'NONE',  ( 0.000000000000000000, 3.300000000000001599, 0.000000000000000000 ) ) ;
#446 = ORIENTED_EDGE ( 'NONE', *, *, #415, .T. ) ;
#447 = PERSON_AND_ORGANIZATION_ROLE ( 'creator' ) ;
#448 = AXIS2_PLACEMENT_3D ( 'NONE', #150, #564, #276 ) ;
#449 = CARTESIAN_POINT ( 'NONE',  ( 27.00000000000000000, 8.400000000000002132, 0.000000000000000000 ) ) ;
#450 = FACE_OUTER_BOUND ( 'NONE', #663, .T. ) ;
#451 = CYLINDRICAL_SURFACE ( 'NONE', #436, 1.699999999999991518 ) ;
#452 = CC_DESIGN_PERSON_AND_ORGANIZATION_ASSIGNMENT ( #69, #447, ( #228 ) ) ;
#453 = AXIS2_PLACEMENT_3D ( 'NONE', #218, #546, #367 ) ;
#454 = DIRECTION ( 'NONE',  ( 0.000000000000000000, 0.000000000000000000, 1.000000000000000000 ) ) ;
#455 = CIRCLE ( 'NONE', #1053, 2.700000000000002398 ) ;
#456 = AXIS2_PLACEMENT_3D ( 'NONE', #633, #200, #553 ) ;
#457 = DIRECTION ( 'NONE',  ( 0.000000000000000000, 0.000000000000000000, 1.000000000000000000 ) ) ;
#458 = EDGE_LOOP ( 'NONE', ( #745, #606 ) ) ;
#459 = CARTESIAN_POINT ( 'NONE',  ( -13.49999999999999822, 8.400000000000002132, 23.38268590217984055 ) ) ;
#460 = ORIENTED_EDGE ( 'NONE', *, *, #932, .F. ) ;
#461 = DIRECTION ( 'NONE',  ( 0.000000000000000000, 0.000000000000000000, 1.000000000000000000 ) ) ;
#462 = MECHANICAL_CONTEXT ( 'NONE', #614, 'mechanical' ) ;
#463 = EDGE_CURVE ( 'NONE', #872, #508, #288, .T. ) ;
#464 = DIRECTION ( 'NONE',  ( 0.000000000000000000, 0.000000000000000000, 1.000000000000000000 ) ) ;
#465 = DIRECTION ( 'NONE',  ( 0.000000000000000000, 0.000000000000000000, 1.000000000000000000 ) ) ;
#466 = ORIENTED_EDGE ( 'NONE', *, *, #501, .F. ) ;
#467 = CARTESIAN_POINT ( 'NONE',  ( 0.000000000000000000, -3.469446951953614189E-15, 2.700000000000002398 ) ) ;
#468 = ADVANCED_FACE ( 'NONE', ( #777 ), #657, .T. ) ;
#469 = CARTESIAN_POINT ( 'NONE',  ( 15.50000000000000178, 3.300000000000002043, 0.000000000000000000 ) ) ;
#470 = CARTESIAN_POINT ( 'NONE',  ( -26.99999999999999645, -3.469446951953614189E-15, -1.700000000000007061 ) ) ;
#471 = CARTESIAN_POINT ( 'NONE',  ( 5.021051876504148371E-16, 8.400000000000000355, -4.099999999999999645 ) ) ;
#472 = EDGE_LOOP ( 'NONE', ( #327, #680, #699, #783 ) ) ;
#473 = DIRECTION ( 'NONE',  ( -0.000000000000000000, 1.000000000000000000, -0.000000000000000000 ) ) ;
#474 = AXIS2_PLACEMENT_3D ( 'NONE', #92, #71, #323 ) ;
#475 = CIRCLE ( 'NONE', #964, 1.699999999999996625 ) ;
#476 = VECTOR ( 'NONE', #999, 1000.000000000000000 ) ;
#477 = ADVANCED_FACE ( 'NONE', ( #293, #788, #956, #551, #952, #369, #639, #698 ), #58, .F. ) ;
#478 = FACE_OUTER_BOUND ( 'NONE', #30, .T. ) ;
#479 = VERTEX_POINT ( 'NONE', #537 ) ;
#480 = DIRECTION ( 'NONE',  ( 0.000000000000000000, 0.000000000000000000, -1.000000000000000000 ) ) ;
#481 = VERTEX_POINT ( 'NONE', #123 ) ;
#482 = CYLINDRICAL_SURFACE ( 'NONE', #827, 1.699999999999993072 ) ;
#483 = ADVANCED_FACE ( 'NONE', ( #555 ), #451, .F. ) ;
#484 = VERTEX_POINT ( 'NONE', #385 ) ;
#485 = LOCAL_TIME ( 21, 22, 36.00000000000000000, #242 ) ;
#486 = CARTESIAN_POINT ( 'NONE',  ( 13.50000000000000533, -3.469446951953614189E-15, -23.38268590217984055 ) ) ;
#487 = EDGE_LOOP ( 'NONE', ( #289, #34, #953, #939 ) ) ;
#488 = CARTESIAN_POINT ( 'NONE',  ( -13.49999999999999822, 8.400000000000000355, 23.38268590217984055 ) ) ;
#489 = VECTOR ( 'NONE', #141, 1000.000000000000000 ) ;
#490 = AXIS2_PLACEMENT_3D ( 'NONE', #1015, #281, #612 ) ;
#491 = FACE_OUTER_BOUND ( 'NONE', #20, .T. ) ;
#492 = CIRCLE ( 'NONE', #24, 4.499999999999975131 ) ;
#493 = FACE_OUTER_BOUND ( 'NONE', #269, .T. ) ;
#494 = PERSON_AND_ORGANIZATION ( #549, #101 ) ;
#495 = ORIENTED_EDGE ( 'NONE', *, *, #116, .T. ) ;
#496 = CARTESIAN_POINT ( 'NONE',  ( 0.000000000000000000, 8.400000000000000355, 4.099999999999999645 ) ) ;
#497 = EDGE_CURVE ( 'NONE', #752, #484, #896, .T. ) ;
#498 = DIRECTION ( 'NONE',  ( -0.000000000000000000, 1.000000000000000000, -0.000000000000000000 ) ) ;
#499 = ORIENTED_EDGE ( 'NONE', *, *, #915, .T. ) ;
#500 = DIRECTION ( 'NONE',  ( -0.000000000000000000, 1.000000000000000000, -0.000000000000000000 ) ) ;
#501 = EDGE_CURVE ( 'NONE', #534, #588, #139, .T. ) ;
#502 = DIRECTION ( 'NONE',  ( 0.000000000000000000, 0.000000000000000000, 1.000000000000000000 ) ) ;
#503 = ORIENTED_EDGE ( 'NONE', *, *, #285, .F. ) ;
#504 = CARTESIAN_POINT ( 'NONE',  ( 0.000000000000000000, 3.699999999999977529, 4.100000000000000533 ) ) ;
#505 = CARTESIAN_POINT ( 'NONE',  ( 1.408343819019456373E-15, 3.300000000000000711, -11.50000000000000178 ) ) ;
#506 = CIRCLE ( 'NONE', #39, 2.700000000000002398 ) ;
#507 = EDGE_CURVE ( 'NONE', #125, #434, #389, .T. ) ;
#508 = VERTEX_POINT ( 'NONE', #709 ) ;
#509 = CIRCLE ( 'NONE', #843, 1.699999999999989742 ) ;
#510 = LINE ( 'NONE', #522, #180 ) ;
#511 = VERTEX_POINT ( 'NONE', #471 ) ;
#512 = EDGE_LOOP ( 'NONE', ( #351, #809, #963, #986 ) ) ;
#513 = FACE_BOUND ( 'NONE', #936, .T. ) ;
#514 = ADVANCED_FACE ( 'NONE', ( #1037, #716 ), #1044, .F. ) ;
#515 = CARTESIAN_POINT ( 'NONE',  ( 27.00000000000000000, -3.469446951953614189E-15, -1.699999999999996625 ) ) ;
#516 = DIRECTION ( 'NONE',  ( 0.000000000000000000, 0.000000000000000000, 1.000000000000000000 ) ) ;
#517 = ORIENTED_EDGE ( 'NONE', *, *, #80, .F. ) ;
#518 = CARTESIAN_POINT ( 'NONE',  ( 5.021051876504148371E-16, 3.699999999999977529, -4.100000000000000533 ) ) ;
#519 = ORIENTED_EDGE ( 'NONE', *, *, #243, .F. ) ;
#520 = AXIS2_PLACEMENT_3D ( 'NONE', #725, #418, #83 ) ;
#521 = ORIENTED_EDGE ( 'NONE', *, *, #132, .F. ) ;
#522 = CARTESIAN_POINT ( 'NONE',  ( 0.000000000000000000, 16.30923177083333897, 4.100000000000000533 ) ) ;
#523 = AXIS2_PLACEMENT_3D ( 'NONE', #192, #270, #755 ) ;
#524 = AXIS2_PLACEMENT_3D ( 'NONE', #856, #280, #127 ) ;
#525 = EDGE_LOOP ( 'NONE', ( #77, #615, #423, #259 ) ) ;
#526 = ADVANCED_FACE ( 'NONE', ( #478 ), #799, .T. ) ;
#527 = DIRECTION ( 'NONE',  ( -0.000000000000000000, 1.000000000000000000, -0.000000000000000000 ) ) ;
#528 = FACE_BOUND ( 'NONE', #357, .T. ) ;
#529 = VERTEX_POINT ( 'NONE', #904 ) ;
#530 = CARTESIAN_POINT ( 'NONE',  ( 0.000000000000000000, 0.000000000000000000, 0.000000000000000000 ) ) ;
#531 = CARTESIAN_POINT ( 'NONE',  ( 0.000000000000000000, 8.400000000000000355, 0.000000000000000000 ) ) ;
#532 = EDGE_LOOP ( 'NONE', ( #671, #921 ) ) ;
#533 = DIRECTION ( 'NONE',  ( -0.000000000000000000, 1.000000000000000000, -0.000000000000000000 ) ) ;
#534 = VERTEX_POINT ( 'NONE', #823 ) ;
#535 = DIRECTION ( 'NONE',  ( 0.000000000000000000, 0.000000000000000000, 1.000000000000000000 ) ) ;
#536 = ORIENTED_EDGE ( 'NONE', *, *, #142, .F. ) ;
#537 = CARTESIAN_POINT ( 'NONE',  ( 2.706469426115650955E-15, 8.400000000000000355, -22.10000000000000142 ) ) ;
#538 = ADVANCED_FACE ( 'NONE', ( #561 ), #482, .F. ) ;
#539 = VERTEX_POINT ( 'NONE', #166 ) ;
#540 = VECTOR ( 'NONE', #1060, 1000.000000000000000 ) ;
#541 = VECTOR ( 'NONE', #753, 1000.000000000000000 ) ;
#542 = CIRCLE ( 'NONE', #332, 15.50000000000000178 ) ;
#543 = DIRECTION ( 'NONE',  ( 0.000000000000000000, 0.000000000000000000, 1.000000000000000000 ) ) ;
#544 = CARTESIAN_POINT ( 'NONE',  ( 0.000000000000000000, 8.400000000000000355, 0.000000000000000000 ) ) ;
#545 = ORIENTED_EDGE ( 'NONE', *, *, #501, .T. ) ;
#546 = DIRECTION ( 'NONE',  ( 0.000000000000000000, -1.000000000000000000, 0.000000000000000000 ) ) ;
#547 = EDGE_CURVE ( 'NONE', #211, #181, #475, .T. ) ;
#548 = APPROVAL_DATE_TIME ( #950, #923 ) ;
#549 = PERSON ( 'UNSPECIFIED', 'UNSPECIFIED', 'UNSPECIFIED', ('UNSPECIFIED'), ('UNSPECIFIED'), ('UNSPECIFIED') ) ;
#550 = FACE_BOUND ( 'NONE', #821, .T. ) ;
#551 = FACE_BOUND ( 'NONE', #906, .T. ) ;
#552 = ORIENTED_EDGE ( 'NONE', *, *, #822, .T. ) ;
#553 = DIRECTION ( 'NONE',  ( 0.000000000000000000, 0.000000000000000000, -1.000000000000000000 ) ) ;
#554 = DIRECTION ( 'NONE',  ( -0.000000000000000000, 1.000000000000000000, -0.000000000000000000 ) ) ;
#555 = FACE_OUTER_BOUND ( 'NONE', #342, .T. ) ;
#556 = FACE_BOUND ( 'NONE', #1003, .T. ) ;
#557 = AXIS2_PLACEMENT_3D ( 'NONE', #216, #793, #940 ) ;
#558 = CONICAL_SURFACE ( 'NONE', #456, 4.100000000000000533, 0.7853981633974471688 ) ;
#559 = DIRECTION ( 'NONE',  ( -0.000000000000000000, 1.000000000000000000, -0.000000000000000000 ) ) ;
#560 = EDGE_CURVE ( 'NONE', #209, #1000, #506, .T. ) ;
#561 = FACE_OUTER_BOUND ( 'NONE', #565, .T. ) ;
#562 = ORIENTED_EDGE ( 'NONE', *, *, #998, .F. ) ;
#563 = FACE_OUTER_BOUND ( 'NONE', #754, .T. ) ;
#564 = DIRECTION ( 'NONE',  ( -0.000000000000000000, 1.000000000000000000, -0.000000000000000000 ) ) ;
#565 = EDGE_LOOP ( 'NONE', ( #204, #460, #202, #625 ) ) ;
#566 = LINE ( 'NONE', #744, #213 ) ;
#567 = LOCAL_TIME ( 21, 22, 36.00000000000000000, #284 ) ;
#568 = DIRECTION ( 'NONE',  ( -0.000000000000000000, 1.000000000000000000, -0.000000000000000000 ) ) ;
#569 = DATE_AND_TIME ( #887, #485 ) ;
#570 = ORIENTED_EDGE ( 'NONE', *, *, #313, .F. ) ;
#571 = CARTESIAN_POINT ( 'NONE',  ( 0.000000000000000000, 16.30923177083333897, 0.000000000000000000 ) ) ;
#572 = EDGE_CURVE ( 'NONE', #1000, #209, #455, .T. ) ;
#573 = VECTOR ( 'NONE', #865, 1000.000000000000000 ) ;
#574 = AXIS2_PLACEMENT_3D ( 'NONE', #258, #831, #992 ) ;
#575 = DIRECTION ( 'NONE',  ( -0.000000000000000000, 1.000000000000000000, -0.000000000000000000 ) ) ;
#576 = CIRCLE ( 'NONE', #383, 1.700000000000000178 ) ;
#577 = DATE_AND_TIME ( #649, #17 ) ;
#578 = ORIENTED_EDGE ( 'NONE', *, *, #806, .T. ) ;
#579 = FACE_OUTER_BOUND ( 'NONE', #91, .T. ) ;
#580 = VERTEX_POINT ( 'NONE', #414 ) ;
#581 = EDGE_CURVE ( 'NONE', #197, #529, #592, .T. ) ;
#582 = DIRECTION ( 'NONE',  ( 0.000000000000000000, -0.7071067811865483499, -0.7071067811865467956 ) ) ;
#583 = ORIENTED_EDGE ( 'NONE', *, *, #822, .F. ) ;
#584 = DIRECTION ( 'NONE',  ( -0.000000000000000000, 1.000000000000000000, -0.000000000000000000 ) ) ;
#585 = EDGE_CURVE ( 'NONE', #872, #112, #713, .T. ) ;
#586 = FACE_OUTER_BOUND ( 'NONE', #1063, .T. ) ;
#587 = CIRCLE ( 'NONE', #958, 1.699999999999986189 ) ;
#588 = VERTEX_POINT ( 'NONE', #247 ) ;
#589 = CARTESIAN_POINT ( 'NONE',  ( 0.000000000000000000, 2.300000000000001599, 0.000000000000000000 ) ) ;
#590 = CIRCLE ( 'NONE', #126, 4.100000000000000533 ) ;
#591 = EDGE_CURVE ( 'NONE', #978, #596, #381, .T. ) ;
#592 = CIRCLE ( 'NONE', #1014, 1.699999999999989742 ) ;
#593 = ORIENTED_EDGE ( 'NONE', *, *, #334, .F. ) ;
#594 = CIRCLE ( 'NONE', #813, 1.699999999999986189 ) ;
#595 = DIRECTION ( 'NONE',  ( -0.000000000000000000, 1.000000000000000000, -0.000000000000000000 ) ) ;
#596 = VERTEX_POINT ( 'NONE', #236 ) ;
#597 = CARTESIAN_POINT ( 'NONE',  ( 0.000000000000000000, 2.300000000000003375, 0.000000000000000000 ) ) ;
#598 = ORIENTED_EDGE ( 'NONE', *, *, #302, .F. ) ;
#599 = DIRECTION ( 'NONE',  ( 0.000000000000000000, -1.000000000000000000, 0.000000000000000000 ) ) ;
#600 = FACE_OUTER_BOUND ( 'NONE', #171, .T. ) ;
#601 = ORIENTED_EDGE ( 'NONE', *, *, #1061, .F. ) ;
#602 = DIRECTION ( 'NONE',  ( 0.000000000000000000, 0.000000000000000000, -1.000000000000000000 ) ) ;
#603 = ORIENTED_EDGE ( 'NONE', *, *, #164, .F. ) ;
#604 = EDGE_CURVE ( 'NONE', #804, #884, #108, .T. ) ;
#605 = CARTESIAN_POINT ( 'NONE',  ( 0.000000000000000000, 8.400000000000000355, 22.10000000000000142 ) ) ;
#606 = ORIENTED_EDGE ( 'NONE', *, *, #560, .F. ) ;
#607 = CARTESIAN_POINT ( 'NONE',  ( 0.000000000000000000, 16.30923177083333897, 0.000000000000000000 ) ) ;
#608 = CIRCLE ( 'NONE', #25, 30.00000000000000355 ) ;
#609 = ORIENTED_EDGE ( 'NONE', *, *, #547, .T. ) ;
#610 = CARTESIAN_POINT ( 'NONE',  ( 3.673940397442059967E-15, 8.400000000000000355, -30.00000000000000711 ) ) ;
#611 = EDGE_CURVE ( 'NONE', #370, #511, #818, .T. ) ;
#612 = DIRECTION ( 'NONE',  ( 0.000000000000000000, 0.000000000000000000, 1.000000000000000000 ) ) ;
#613 = DIRECTION ( 'NONE',  ( -0.000000000000000000, 1.000000000000000000, -0.000000000000000000 ) ) ;
#614 = APPLICATION_CONTEXT ( 'configuration controlled 3d designs of mechanical parts and assemblies' ) ;
#615 = ORIENTED_EDGE ( 'NONE', *, *, #954, .T. ) ;
#616 = CALENDAR_DATE ( 2026, 26, 2 ) ;
#617 = DIRECTION ( 'NONE',  ( -0.000000000000000000, 1.000000000000000000, -0.000000000000000000 ) ) ;
#618 = EDGE_CURVE ( 'NONE', #681, #845, #41, .T. ) ;
#619 = LINE ( 'NONE', #152, #895 ) ;
#620 = CYLINDRICAL_SURFACE ( 'NONE', #230, 30.00000000000000000 ) ;
#621 = ORIENTED_EDGE ( 'NONE', *, *, #392, .T. ) ;
#622 = EDGE_CURVE ( 'NONE', #815, #136, #298, .T. ) ;
#623 = CARTESIAN_POINT ( 'NONE',  ( 0.000000000000000000, 16.30923177083333897, 0.000000000000000000 ) ) ;
#624 = CLOSED_SHELL ( 'NONE', ( #468, #208, #781, #235, #278, #190, #1010, #888, #29, #981, #526, #195, #1048, #477, #257, #514, #375, #64, #903, #847, #966, #834, #36, #384, #443, #538, #683, #483, #339, #109, #701, #765 ) ) ;
#625 = ORIENTED_EDGE ( 'NONE', *, *, #662, .T. ) ;
#626 = CIRCLE ( 'NONE', #878, 4.099999999999999645 ) ;
#627 = COORDINATED_UNIVERSAL_TIME_OFFSET ( 8, 0, .AHEAD. ) ;
#628 = AXIS2_PLACEMENT_3D ( 'NONE', #597, #880, #651 ) ;
#629 = DIRECTION ( 'NONE',  ( -0.000000000000000000, 1.000000000000000000, -0.000000000000000000 ) ) ;
#630 = LINE ( 'NONE', #784, #297 ) ;
#631 = ORIENTED_EDGE ( 'NONE', *, *, #694, .T. ) ;
#632 = DIRECTION ( 'NONE',  ( -0.000000000000000000, 1.000000000000000000, -0.000000000000000000 ) ) ;
#633 = CARTESIAN_POINT ( 'NONE',  ( 0.000000000000000000, 3.699999999999977529, 0.000000000000000000 ) ) ;
#634 = DIRECTION ( 'NONE',  ( -0.000000000000000000, 1.000000000000000000, -0.000000000000000000 ) ) ;
#635 = CARTESIAN_POINT ( 'NONE',  ( -13.49999999999999822, 8.400000000000000355, -25.08268590217984340 ) ) ;
#636 = EDGE_LOOP ( 'NONE', ( #283, #160 ) ) ;
#637 = EDGE_CURVE ( 'NONE', #829, #539, #279, .T. ) ;
#638 = CIRCLE ( 'NONE', #448, 1.699999999999996625 ) ;
#639 = FACE_OUTER_BOUND ( 'NONE', #862, .T. ) ;
#640 = EDGE_LOOP ( 'NONE', ( #832, #570, #366, #404 ) ) ;
#641 = CIRCLE ( 'NONE', #913, 1.699999999999996625 ) ;
#642 = AXIS2_PLACEMENT_3D ( 'NONE', #486, #575, #899 ) ;
#643 = DIRECTION ( 'NONE',  ( 0.000000000000000000, 0.000000000000000000, 1.000000000000000000 ) ) ;
#644 = ORIENTED_EDGE ( 'NONE', *, *, #867, .T. ) ;
#645 = DIRECTION ( 'NONE',  ( 0.000000000000000000, 0.000000000000000000, 1.000000000000000000 ) ) ;
#646 = DIRECTION ( 'NONE',  ( -0.000000000000000000, 1.000000000000000000, -0.000000000000000000 ) ) ;
#647 = EDGE_CURVE ( 'NONE', #370, #580, #320, .T. ) ;
#648 = CARTESIAN_POINT ( 'NONE',  ( 13.49999999999998757, 8.400000000000002132, 23.38268590217985121 ) ) ;
#649 = CALENDAR_DATE ( 2026, 26, 2 ) ;
#650 = DIRECTION ( 'NONE',  ( -0.000000000000000000, 1.000000000000000000, -0.000000000000000000 ) ) ;
#651 = DIRECTION ( 'NONE',  ( 0.000000000000000000, 0.000000000000000000, 1.000000000000000000 ) ) ;
#652 = CARTESIAN_POINT ( 'NONE',  ( 0.000000000000000000, 3.300000000000002487, 0.000000000000000000 ) ) ;
#653 = CC_DESIGN_DATE_AND_TIME_ASSIGNMENT ( #577, #321, ( #206 ) ) ;
#654 = ORIENTED_EDGE ( 'NONE', *, *, #176, .F. ) ;
#655 = CARTESIAN_POINT ( 'NONE',  ( 0.000000000000000000, 16.30923177083333897, 0.000000000000000000 ) ) ;
#656 = ORIENTED_EDGE ( 'NONE', *, *, #677, .T. ) ;
#657 = CONICAL_SURFACE ( 'NONE', #557, 4.100000000000000533, 0.7853981633974471688 ) ;
#658 = CIRCLE ( 'NONE', #402, 4.499999999999975131 ) ;
#659 = CARTESIAN_POINT ( 'NONE',  ( 13.50000000000000533, 8.400000000000002132, -23.38268590217984055 ) ) ;
#660 = ORIENTED_EDGE ( 'NONE', *, *, #792, .T. ) ;
#661 = CARTESIAN_POINT ( 'NONE',  ( -13.49999999999999822, -3.469446951953614189E-15, 21.68268590217984482 ) ) ;
#662 = EDGE_CURVE ( 'NONE', #884, #804, #594, .T. ) ;
#663 = EDGE_LOOP ( 'NONE', ( #835, #331, #191, #428 ) ) ;
#664 = CARTESIAN_POINT ( 'NONE',  ( 13.50000000000000533, 8.400000000000000355, -25.08268590217983629 ) ) ;
#665 = ORIENTED_EDGE ( 'NONE', *, *, #201, .F. ) ;
#666 = CC_DESIGN_DATE_AND_TIME_ASSIGNMENT ( #1051, #774, ( #228 ) ) ;
#667 = CC_DESIGN_SECURITY_CLASSIFICATION ( #206, ( #372 ) ) ;
#668 = CARTESIAN_POINT ( 'NONE',  ( 0.000000000000000000, 2.300000000000001599, 0.000000000000000000 ) ) ;
#669 = VERTEX_POINT ( 'NONE', #972 ) ;
#670 = CARTESIAN_POINT ( 'NONE',  ( 0.000000000000000000, 8.400000000000000355, 0.000000000000000000 ) ) ;
#671 = ORIENTED_EDGE ( 'NONE', *, *, #142, .T. ) ;
#672 = LINE ( 'NONE', #103, #60 ) ;
#673 = CARTESIAN_POINT ( 'NONE',  ( 1.898202538678397557E-15, 16.30923177083333897, -15.50000000000000178 ) ) ;
#674 = ORIENTED_EDGE ( 'NONE', *, *, #358, .F. ) ;
#675 = AXIS2_PLACEMENT_3D ( 'NONE', #807, #731, #742 ) ;
#676 = DIRECTION ( 'NONE',  ( 0.000000000000000000, 0.000000000000000000, 1.000000000000000000 ) ) ;
#677 = EDGE_CURVE ( 'NONE', #588, #481, #746, .T. ) ;
#678 = ORIENTED_EDGE ( 'NONE', *, *, #507, .F. ) ;
#679 = FACE_BOUND ( 'NONE', #266, .T. ) ;
#680 = ORIENTED_EDGE ( 'NONE', *, *, #717, .T. ) ;
#681 = VERTEX_POINT ( 'NONE', #158 ) ;
#682 = CYLINDRICAL_SURFACE ( 'NONE', #57, 4.100000000000000533 ) ;
#683 = ADVANCED_FACE ( 'NONE', ( #493 ), #432, .F. ) ;
#684 = ORIENTED_EDGE ( 'NONE', *, *, #757, .T. ) ;
#685 = CYLINDRICAL_SURFACE ( 'NONE', #353, 1.699999999999993072 ) ;
#686 = DIRECTION ( 'NONE',  ( 0.000000000000000000, 0.000000000000000000, 1.000000000000000000 ) ) ;
#687 = AXIS2_PLACEMENT_3D ( 'NONE', #318, #260, #645 ) ;
#688 = ORIENTED_EDGE ( 'NONE', *, *, #243, .T. ) ;
#689 = DIRECTION ( 'NONE',  ( 0.000000000000000000, 0.000000000000000000, 1.000000000000000000 ) ) ;
#690 = CIRCLE ( 'NONE', #248, 4.099999999999999645 ) ;
#691 = AXIS2_PLACEMENT_3D ( 'NONE', #420, #426, #14 ) ;
#692 = VERTEX_POINT ( 'NONE', #605 ) ;
#693 = APPROVAL_STATUS ( 'not_yet_approved' ) ;
#694 = EDGE_CURVE ( 'NONE', #484, #752, #779, .T. ) ;
#695 = DIRECTION ( 'NONE',  ( -0.000000000000000000, 1.000000000000000000, -0.000000000000000000 ) ) ;
#696 = DIRECTION ( 'NONE',  ( -0.000000000000000000, 1.000000000000000000, -0.000000000000000000 ) ) ;
#697 = DIRECTION ( 'NONE',  ( 0.000000000000000000, 0.000000000000000000, 1.000000000000000000 ) ) ;
#698 = FACE_BOUND ( 'NONE', #222, .T. ) ;
#699 = ORIENTED_EDGE ( 'NONE', *, *, #397, .T. ) ;
#700 = CARTESIAN_POINT ( 'NONE',  ( 13.50000000000000533, 8.400000000000000355, -23.38268590217984055 ) ) ;
#701 = ADVANCED_FACE ( 'NONE', ( #586 ), #909, .F. ) ;
#702 = CYLINDRICAL_SURFACE ( 'NONE', #729, 1.699999999999993072 ) ;
#703 = DIRECTION ( 'NONE',  ( 0.000000000000000000, 0.000000000000000000, 1.000000000000000000 ) ) ;
#704 = LOCAL_TIME ( 21, 22, 36.00000000000000000, #394 ) ;
#705 = ORIENTED_EDGE ( 'NONE', *, *, #611, .T. ) ;
#706 = DIRECTION ( 'NONE',  ( 1.000000000000000000, 0.000000000000000000, 0.000000000000000000 ) ) ;
#707 = DIRECTION ( 'NONE',  ( 0.000000000000000000, 0.000000000000000000, -1.000000000000000000 ) ) ;
#708 = CYLINDRICAL_SURFACE ( 'NONE', #95, 11.50000000000000178 ) ;
#709 = CARTESIAN_POINT ( 'NONE',  ( 27.00000000000000000, 8.400000000000002132, -1.699999999999989742 ) ) ;
#710 = AXIS2_PLACEMENT_3D ( 'NONE', #488, #650, #810 ) ;
#711 = VERTEX_POINT ( 'NONE', #177 ) ;
#712 = VECTOR ( 'NONE', #55, 999.9999999999998863 ) ;
#713 = CIRCLE ( 'NONE', #929, 1.699999999999996625 ) ;
#714 = ORIENTED_EDGE ( 'NONE', *, *, #424, .T. ) ;
#715 = AXIS2_PLACEMENT_3D ( 'NONE', #268, #907, #425 ) ;
#716 = FACE_OUTER_BOUND ( 'NONE', #249, .T. ) ;
#717 = EDGE_CURVE ( 'NONE', #764, #233, #215, .T. ) ;
#718 = ORIENTED_EDGE ( 'NONE', *, *, #591, .F. ) ;
#719 = LINE ( 'NONE', #224, #110 ) ;
#720 = CARTESIAN_POINT ( 'NONE',  ( 5.021051876504147385E-16, 3.699999999999977529, 4.100000000000000533 ) ) ;
#721 = EDGE_LOOP ( 'NONE', ( #848, #688 ) ) ;
#722 = CC_DESIGN_PERSON_AND_ORGANIZATION_ASSIGNMENT ( #494, #732, ( #206 ) ) ;
#723 = DIRECTION ( 'NONE',  ( 0.000000000000000000, 0.000000000000000000, 1.000000000000000000 ) ) ;
#724 = CALENDAR_DATE ( 2026, 26, 2 ) ;
#725 = CARTESIAN_POINT ( 'NONE',  ( 27.00000000000000000, 8.400000000000000355, 0.000000000000000000 ) ) ;
#726 = CIRCLE ( 'NONE', #756, 4.100000000000000533 ) ;
#727 = AXIS2_PLACEMENT_3D ( 'NONE', #670, #917, #184 ) ;
#728 = EDGE_CURVE ( 'NONE', #748, #978, #345, .T. ) ;
#729 = AXIS2_PLACEMENT_3D ( 'NONE', #286, #354, #464 ) ;
#730 = CYLINDRICAL_SURFACE ( 'NONE', #417, 30.00000000000000000 ) ;
#731 = DIRECTION ( 'NONE',  ( -0.000000000000000000, 1.000000000000000000, -0.000000000000000000 ) ) ;
#732 = PERSON_AND_ORGANIZATION_ROLE ( 'classification_officer' ) ;
#733 = EDGE_LOOP ( 'NONE', ( #854, #273, #130, #466 ) ) ;
#734 = FACE_OUTER_BOUND ( 'NONE', #51, .T. ) ;
#735 = CARTESIAN_POINT ( 'NONE',  ( 11.50000000000000178, 2.300000000000002043, 0.000000000000000000 ) ) ;
#736 = APPROVAL ( #693, 'UNSPECIFIED' ) ;
#737 = DIRECTION ( 'NONE',  ( -0.000000000000000000, 1.000000000000000000, -0.000000000000000000 ) ) ;
#738 = APPROVAL_DATE_TIME ( #569, #271 ) ;
#739 = VERTEX_POINT ( 'NONE', #920 ) ;
#740 = ADVANCED_BREP_SHAPE_REPRESENTATION ( 'InRunnerLowerPlate', ( #803, #1006 ), #871 ) ;
#741 = DIRECTION ( 'NONE',  ( 0.000000000000000000, 0.000000000000000000, 1.000000000000000000 ) ) ;
#742 = DIRECTION ( 'NONE',  ( 0.000000000000000000, 0.000000000000000000, 1.000000000000000000 ) ) ;
#743 = EDGE_LOOP ( 'NONE', ( #312, #578 ) ) ;
#744 = CARTESIAN_POINT ( 'NONE',  ( 0.000000000000000000, 16.30923177083333897, 15.50000000000000178 ) ) ;
#745 = ORIENTED_EDGE ( 'NONE', *, *, #572, .F. ) ;
#746 = CIRCLE ( 'NONE', #250, 1.699999999999986189 ) ;
#747 = DIRECTION ( 'NONE',  ( 0.000000000000000000, 0.000000000000000000, 1.000000000000000000 ) ) ;
#748 = VERTEX_POINT ( 'NONE', #187 ) ;
#749 = CARTESIAN_POINT ( 'NONE',  ( -13.49999999999999822, -3.469446951953614189E-15, 25.08268590217983984 ) ) ;
#750 = EDGE_CURVE ( 'NONE', #669, #1021, #608, .T. ) ;
#751 = ORIENTED_EDGE ( 'NONE', *, *, #618, .T. ) ;
#752 = VERTEX_POINT ( 'NONE', #864 ) ;
#753 = DIRECTION ( 'NONE',  ( -0.000000000000000000, 1.000000000000000000, -0.000000000000000000 ) ) ;
#754 = EDGE_LOOP ( 'NONE', ( #183, #151, #916, #931 ) ) ;
#755 = DIRECTION ( 'NONE',  ( 0.000000000000000000, -0.000000000000000000, -1.000000000000000000 ) ) ;
#756 = AXIS2_PLACEMENT_3D ( 'NONE', #1031, #473, #801 ) ;
#757 = EDGE_CURVE ( 'NONE', #508, #739, #760, .T. ) ;
#758 = VECTOR ( 'NONE', #533, 1000.000000000000000 ) ;
#759 = CARTESIAN_POINT ( 'NONE',  ( 27.00000000000000000, 8.400000000000000355, 0.000000000000000000 ) ) ;
#760 = CIRCLE ( 'NONE', #1038, 1.699999999999989742 ) ;
#761 = ORIENTED_EDGE ( 'NONE', *, *, #431, .F. ) ;
#762 = VECTOR ( 'NONE', #582, 999.9999999999998863 ) ;
#763 = DIRECTION ( 'NONE',  ( 0.000000000000000000, 0.000000000000000000, 1.000000000000000000 ) ) ;
#764 = VERTEX_POINT ( 'NONE', #134 ) ;
#765 = ADVANCED_FACE ( 'NONE', ( #875 ), #558, .T. ) ;
#766 = ORIENTED_EDGE ( 'NONE', *, *, #806, .F. ) ;
#767 = DIRECTION ( 'NONE',  ( -0.000000000000000000, 1.000000000000000000, -0.000000000000000000 ) ) ;
#768 = APPLICATION_PROTOCOL_DEFINITION ( 'international standard', 'config_control_design', 1994, #359 ) ;
#769 = CC_DESIGN_APPROVAL ( #736, ( #372 ) ) ;
#770 = CYLINDRICAL_SURFACE ( 'NONE', #490, 22.10000000000000142 ) ;
#771 = CARTESIAN_POINT ( 'NONE',  ( -13.49999999999999822, -3.469446951953614189E-15, -23.38268590217984766 ) ) ;
#772 = EDGE_CURVE ( 'NONE', #104, #1000, #40, .T. ) ;
#773 = ORIENTED_EDGE ( 'NONE', *, *, #572, .T. ) ;
#774 = DATE_TIME_ROLE ( 'creation_date' ) ;
#775 = DIRECTION ( 'NONE',  ( 0.000000000000000000, 0.000000000000000000, 1.000000000000000000 ) ) ;
#776 = CYLINDRICAL_SURFACE ( 'NONE', #157, 22.10000000000000142 ) ;
#777 = FACE_OUTER_BOUND ( 'NONE', #948, .T. ) ;
#778 = VECTOR ( 'NONE', #105, 1000.000000000000000 ) ;
#779 = CIRCLE ( 'NONE', #691, 1.699999999999989742 ) ;
#780 = ORIENTED_EDGE ( 'NONE', *, *, #1061, .T. ) ;
#781 = ADVANCED_FACE ( 'NONE', ( #1019 ), #702, .F. ) ;
#782 = DIRECTION ( 'NONE',  ( 0.000000000000000000, 0.000000000000000000, 1.000000000000000000 ) ) ;
#783 = ORIENTED_EDGE ( 'NONE', *, *, #811, .F. ) ;
#784 = CARTESIAN_POINT ( 'NONE',  ( -13.49999999999999822, 8.400000000000000355, -21.68268590217985547 ) ) ;
#785 = ORIENTED_EDGE ( 'NONE', *, *, #319, .F. ) ;
#786 = PERSON_AND_ORGANIZATION ( #549, #101 ) ;
#787 = LINE ( 'NONE', #938, #983 ) ;
#788 = FACE_BOUND ( 'NONE', #178, .T. ) ;
#789 = EDGE_LOOP ( 'NONE', ( #188, #217 ) ) ;
#790 = DIRECTION ( 'NONE',  ( 0.000000000000000000, 0.000000000000000000, 1.000000000000000000 ) ) ;
#791 = DIRECTION ( 'NONE',  ( 0.000000000000000000, -1.000000000000000000, 0.000000000000000000 ) ) ;
#792 = EDGE_CURVE ( 'NONE', #136, #197, #54, .T. ) ;
#793 = DIRECTION ( 'NONE',  ( 0.000000000000000000, -1.000000000000000000, 0.000000000000000000 ) ) ;
#794 = ORIENTED_EDGE ( 'NONE', *, *, #261, .T. ) ;
#795 = AXIS2_PLACEMENT_3D ( 'NONE', #655, #979, #844 ) ;
#796 = CIRCLE ( 'NONE', #628, 15.50000000000000178 ) ;
#797 = DIRECTION ( 'NONE',  ( -0.000000000000000000, 1.000000000000000000, -0.000000000000000000 ) ) ;
#798 = EDGE_CURVE ( 'NONE', #112, #739, #787, .T. ) ;
#799 = CYLINDRICAL_SURFACE ( 'NONE', #107, 11.50000000000000178 ) ;
#800 = ORIENTED_EDGE ( 'NONE', *, *, #798, .T. ) ;
#801 = DIRECTION ( 'NONE',  ( 0.000000000000000000, 0.000000000000000000, -1.000000000000000000 ) ) ;
#802 = CARTESIAN_POINT ( 'NONE',  ( 0.000000000000000000, 2.300000000000003375, 0.000000000000000000 ) ) ;
#803 = MANIFOLD_SOLID_BREP ( 'Chamfer1', #624 ) ;
#804 = VERTEX_POINT ( 'NONE', #207 ) ;
#805 = LINE ( 'NONE', #333, #433 ) ;
#806 = EDGE_CURVE ( 'NONE', #1021, #669, #841, .T. ) ;
#807 = CARTESIAN_POINT ( 'NONE',  ( 0.000000000000000000, 3.300000000000000711, 0.000000000000000000 ) ) ;
#808 = PERSON_AND_ORGANIZATION_ROLE ( 'creator' ) ;
#809 = ORIENTED_EDGE ( 'NONE', *, *, #201, .T. ) ;
#810 = DIRECTION ( 'NONE',  ( 0.000000000000000000, 0.000000000000000000, 1.000000000000000000 ) ) ;
#811 = EDGE_CURVE ( 'NONE', #989, #889, #163, .T. ) ;
#812 = AXIS2_PLACEMENT_3D ( 'NONE', #97, #263, #113 ) ;
#813 = AXIS2_PLACEMENT_3D ( 'NONE', #648, #89, #747 ) ;
#814 = DIRECTION ( 'NONE',  ( -0.000000000000000000, 1.000000000000000000, -0.000000000000000000 ) ) ;
#815 = VERTEX_POINT ( 'NONE', #48 ) ;
#816 = CARTESIAN_POINT ( 'NONE',  ( -13.49999999999999822, 8.400000000000002132, -25.08268590217983984 ) ) ;
#817 = CARTESIAN_POINT ( 'NONE',  ( 13.49999999999998757, -3.469446951953614189E-15, 25.08268590217985050 ) ) ;
#818 = LINE ( 'NONE', #252, #997 ) ;
#819 = ORIENTED_EDGE ( 'NONE', *, *, #798, .F. ) ;
#820 = DIRECTION ( 'NONE',  ( -0.000000000000000000, 1.000000000000000000, -0.000000000000000000 ) ) ;
#821 = EDGE_LOOP ( 'NONE', ( #905, #718 ) ) ;
#822 = EDGE_CURVE ( 'NONE', #580, #434, #658, .T. ) ;
#823 = CARTESIAN_POINT ( 'NONE',  ( -26.99999999999999645, -3.469446951953614189E-15, 1.699999999999986189 ) ) ;
#824 = VERTEX_POINT ( 'NONE', #1034 ) ;
#825 = CARTESIAN_POINT ( 'NONE',  ( 13.50000000000000533, -3.469446951953614189E-15, -21.68268590217984482 ) ) ;
#826 = DIRECTION ( 'NONE',  ( -0.000000000000000000, 1.000000000000000000, -0.000000000000000000 ) ) ;
#827 = AXIS2_PLACEMENT_3D ( 'NONE', #1062, #231, #643 ) ;
#828 = VECTOR ( 'NONE', #617, 1000.000000000000000 ) ;
#829 = VERTEX_POINT ( 'NONE', #299 ) ;
#830 = CYLINDRICAL_SURFACE ( 'NONE', #194, 1.699999999999991518 ) ;
#831 = DIRECTION ( 'NONE',  ( -0.000000000000000000, 1.000000000000000000, -0.000000000000000000 ) ) ;
#832 = ORIENTED_EDGE ( 'NONE', *, *, #424, .F. ) ;
#833 = CARTESIAN_POINT ( 'NONE',  ( -26.99999999999999645, 8.400000000000000355, -1.700000000000001954 ) ) ;
#834 = ADVANCED_FACE ( 'NONE', ( #550, #868 ), #137, .F. ) ;
#835 = ORIENTED_EDGE ( 'NONE', *, *, #959, .F. ) ;
#836 = FACE_BOUND ( 'NONE', #395, .T. ) ;
#837 = EDGE_LOOP ( 'NONE', ( #521, #441, #1017, #773 ) ) ;
#838 = EDGE_CURVE ( 'NONE', #226, #1059, #861, .T. ) ;
#839 = VECTOR ( 'NONE', #584, 1000.000000000000000 ) ;
#840 = CIRCLE ( 'NONE', #996, 1.699999999999996625 ) ;
#841 = CIRCLE ( 'NONE', #524, 30.00000000000000355 ) ;
#842 = ORIENTED_EDGE ( 'NONE', *, *, #637, .T. ) ;
#843 = AXIS2_PLACEMENT_3D ( 'NONE', #388, #121, #775 ) ;
#844 = DIRECTION ( 'NONE',  ( 0.000000000000000000, 0.000000000000000000, 1.000000000000000000 ) ) ;
#845 = VERTEX_POINT ( 'NONE', #73 ) ;
#846 = CARTESIAN_POINT ( 'NONE',  ( 1.898202538678397557E-15, 3.300000000000002487, -15.50000000000000178 ) ) ;
#847 = ADVANCED_FACE ( 'NONE', ( #960, #491 ), #976, .F. ) ;
#848 = ORIENTED_EDGE ( 'NONE', *, *, #932, .T. ) ;
#849 = LINE ( 'NONE', #1001, #778 ) ;
#850 = ORIENTED_EDGE ( 'NONE', *, *, #881, .F. ) ;
#851 = EDGE_CURVE ( 'NONE', #748, #238, #796, .T. ) ;
#852 = EDGE_LOOP ( 'NONE', ( #386, #926, #893, #850 ) ) ;
#853 = LINE ( 'NONE', #635, #380 ) ;
#854 = ORIENTED_EDGE ( 'NONE', *, *, #18, .F. ) ;
#855 = PERSON_AND_ORGANIZATION ( #549, #101 ) ;
#856 = CARTESIAN_POINT ( 'NONE',  ( 0.000000000000000000, 8.400000000000000355, 0.000000000000000000 ) ) ;
#857 = DIRECTION ( 'NONE',  ( -0.000000000000000000, 1.000000000000000000, -0.000000000000000000 ) ) ;
#858 = VERTEX_POINT ( 'NONE', #817 ) ;
#859 = CARTESIAN_POINT ( 'NONE',  ( -26.99999999999999645, 8.400000000000000355, -1.037996839893070537E-14 ) ) ;
#860 = VECTOR ( 'NONE', #118, 1000.000000000000000 ) ;
#861 = CIRCLE ( 'NONE', #343, 1.699999999999989742 ) ;
#862 = EDGE_LOOP ( 'NONE', ( #117, #390 ) ) ;
#863 = FACE_OUTER_BOUND ( 'NONE', #355, .T. ) ;
#864 = CARTESIAN_POINT ( 'NONE',  ( -13.49999999999999822, 8.400000000000002132, 21.68268590217985192 ) ) ;
#865 = DIRECTION ( 'NONE',  ( -0.000000000000000000, 1.000000000000000000, -0.000000000000000000 ) ) ;
#866 = ORIENTED_EDGE ( 'NONE', *, *, #313, .T. ) ;
#867 = EDGE_CURVE ( 'NONE', #238, #748, #542, .T. ) ;
#868 = FACE_OUTER_BOUND ( 'NONE', #307, .T. ) ;
#869 = DIRECTION ( 'NONE',  ( -0.000000000000000000, 1.000000000000000000, -0.000000000000000000 ) ) ;
#870 = DIRECTION ( 'NONE',  ( -0.000000000000000000, 1.000000000000000000, -0.000000000000000000 ) ) ;
#871 =( GEOMETRIC_REPRESENTATION_CONTEXT ( 3 ) GLOBAL_UNCERTAINTY_ASSIGNED_CONTEXT ( ( #81 ) ) GLOBAL_UNIT_ASSIGNED_CONTEXT ( ( #46, #237, #133 ) ) REPRESENTATION_CONTEXT ( 'NONE', 'WORKASPACE' ) );
#872 = VERTEX_POINT ( 'NONE', #515 ) ;
#873 = CARTESIAN_POINT ( 'NONE',  ( 1.408343819019456373E-15, 16.30923177083333897, -11.50000000000000178 ) ) ;
#874 = EDGE_CURVE ( 'NONE', #1059, #226, #7, .T. ) ;
#875 = FACE_OUTER_BOUND ( 'NONE', #941, .T. ) ;
#876 = DIRECTION ( 'NONE',  ( 0.000000000000000000, -0.000000000000000000, -1.000000000000000000 ) ) ;
#877 = CIRCLE ( 'NONE', #980, 30.00000000000000000 ) ;
#878 = AXIS2_PLACEMENT_3D ( 'NONE', #27, #341, #676 ) ;
#879 = CIRCLE ( 'NONE', #965, 15.50000000000000178 ) ;
#880 = DIRECTION ( 'NONE',  ( -0.000000000000000000, 1.000000000000000000, -0.000000000000000000 ) ) ;
#881 = EDGE_CURVE ( 'NONE', #539, #692, #148, .T. ) ;
#882 = DIRECTION ( 'NONE',  ( -0.000000000000000000, 1.000000000000000000, -0.000000000000000000 ) ) ;
#883 = DIRECTION ( 'NONE',  ( -0.000000000000000000, 1.000000000000000000, -0.000000000000000000 ) ) ;
#884 = VERTEX_POINT ( 'NONE', #885 ) ;
#885 = CARTESIAN_POINT ( 'NONE',  ( 13.49999999999998757, 8.400000000000002132, 25.08268590217983984 ) ) ;
#886 = CARTESIAN_POINT ( 'NONE',  ( 0.000000000000000000, 8.400000000000000355, 0.000000000000000000 ) ) ;
#887 = CALENDAR_DATE ( 2026, 26, 2 ) ;
#888 = ADVANCED_FACE ( 'NONE', ( #399 ), #730, .T. ) ;
#889 = VERTEX_POINT ( 'NONE', #240 ) ;
#890 = FACE_OUTER_BOUND ( 'NONE', #82, .T. ) ;
#891 = DIRECTION ( 'NONE',  ( 0.000000000000000000, 0.000000000000000000, 1.000000000000000000 ) ) ;
#892 = PERSON_AND_ORGANIZATION_ROLE ( 'design_supplier' ) ;
#893 = ORIENTED_EDGE ( 'NONE', *, *, #358, .T. ) ;
#894 = FACE_OUTER_BOUND ( 'NONE', #32, .T. ) ;
#895 = VECTOR ( 'NONE', #227, 1000.000000000000000 ) ;
#896 = CIRCLE ( 'NONE', #1035, 1.699999999999989742 ) ;
#897 = AXIS2_PLACEMENT_3D ( 'NONE', #469, #791, #1043 ) ;
#898 = AXIS2_PLACEMENT_3D ( 'NONE', #292, #696, #543 ) ;
#899 = DIRECTION ( 'NONE',  ( 0.000000000000000000, 0.000000000000000000, 1.000000000000000000 ) ) ;
#900 = SHAPE_DEFINITION_REPRESENTATION ( #253, #740 ) ;
#901 = ORIENTED_EDGE ( 'NONE', *, *, #90, .T. ) ;
#902 = DIRECTION ( 'NONE',  ( 0.000000000000000000, 0.000000000000000000, 1.000000000000000000 ) ) ;
#903 = ADVANCED_FACE ( 'NONE', ( #1027 ), #708, .T. ) ;
#904 = CARTESIAN_POINT ( 'NONE',  ( 13.50000000000000533, 8.400000000000002132, -25.08268590217983274 ) ) ;
#905 = ORIENTED_EDGE ( 'NONE', *, *, #908, .F. ) ;
#906 = EDGE_LOOP ( 'NONE', ( #780, #262 ) ) ;
#907 = DIRECTION ( 'NONE',  ( -0.000000000000000000, 1.000000000000000000, -0.000000000000000000 ) ) ;
#908 = EDGE_CURVE ( 'NONE', #596, #978, #879, .T. ) ;
#909 = CYLINDRICAL_SURFACE ( 'NONE', #196, 1.699999999999993072 ) ;
#910 = VERTEX_POINT ( 'NONE', #470 ) ;
#911 = LINE ( 'NONE', #155, #540 ) ;
#912 = ORIENTED_EDGE ( 'NONE', *, *, #80, .T. ) ;
#913 = AXIS2_PLACEMENT_3D ( 'NONE', #287, #439, #349 ) ;
#914 = VECTOR ( 'NONE', #797, 1000.000000000000000 ) ;
#915 = EDGE_CURVE ( 'NONE', #739, #508, #509, .T. ) ;
#916 = ORIENTED_EDGE ( 'NONE', *, *, #156, .T. ) ;
#917 = DIRECTION ( 'NONE',  ( -0.000000000000000000, 1.000000000000000000, -0.000000000000000000 ) ) ;
#918 = DIRECTION ( 'NONE',  ( 0.000000000000000000, 0.000000000000000000, 1.000000000000000000 ) ) ;
#919 = CYLINDRICAL_SURFACE ( 'NONE', #984, 15.50000000000000178 ) ;
#920 = CARTESIAN_POINT ( 'NONE',  ( 27.00000000000000000, 8.400000000000002132, 1.699999999999989742 ) ) ;
#921 = ORIENTED_EDGE ( 'NONE', *, *, #811, .T. ) ;
#922 = FACE_OUTER_BOUND ( 'NONE', #640, .T. ) ;
#923 = APPROVAL ( #352, 'UNSPECIFIED' ) ;
#924 = ORIENTED_EDGE ( 'NONE', *, *, #622, .T. ) ;
#925 = DIRECTION ( 'NONE',  ( -0.000000000000000000, 1.000000000000000000, -0.000000000000000000 ) ) ;
#926 = ORIENTED_EDGE ( 'NONE', *, *, #959, .T. ) ;
#927 = AXIS2_PLACEMENT_3D ( 'NONE', #975, #78, #10 ) ;
#928 = DIRECTION ( 'NONE',  ( 0.000000000000000000, 0.000000000000000000, 1.000000000000000000 ) ) ;
#929 = AXIS2_PLACEMENT_3D ( 'NONE', #985, #962, #723 ) ;
#930 = FACE_BOUND ( 'NONE', #636, .T. ) ;
#931 = ORIENTED_EDGE ( 'NONE', *, *, #908, .T. ) ;
#932 = EDGE_CURVE ( 'NONE', #858, #119, #576, .T. ) ;
#933 = DIRECTION ( 'NONE',  ( -0.000000000000000000, 1.000000000000000000, -0.000000000000000000 ) ) ;
#934 = EDGE_LOOP ( 'NONE', ( #993, #346 ) ) ;
#935 = LINE ( 'NONE', #422, #860 ) ;
#936 = EDGE_LOOP ( 'NONE', ( #146, #70 ) ) ;
#937 = DATE_AND_TIME ( #616, #567 ) ;
#938 = CARTESIAN_POINT ( 'NONE',  ( 27.00000000000000000, 8.400000000000000355, 1.699999999999993072 ) ) ;
#939 = ORIENTED_EDGE ( 'NONE', *, *, #392, .F. ) ;
#940 = DIRECTION ( 'NONE',  ( 0.000000000000000000, 0.000000000000000000, -1.000000000000000000 ) ) ;
#941 = EDGE_LOOP ( 'NONE', ( #678, #1023, #106, #256 ) ) ;
#942 = LINE ( 'NONE', #873, #489 ) ;
#943 = DIRECTION ( 'NONE',  ( 0.000000000000000000, 0.000000000000000000, 1.000000000000000000 ) ) ;
#944 = CIRCLE ( 'NONE', #23, 2.700000000000002398 ) ;
#945 = CARTESIAN_POINT ( 'NONE',  ( -26.99999999999999645, 8.400000000000000355, 1.699999999999981082 ) ) ;
#946 = AXIS2_PLACEMENT_3D ( 'NONE', #970, #162, #239 ) ;
#947 = EDGE_CURVE ( 'NONE', #416, #824, #438, .T. ) ;
#948 = EDGE_LOOP ( 'NONE', ( #517, #102, #583, #317 ) ) ;
#949 = DIRECTION ( 'NONE',  ( -0.000000000000000000, 1.000000000000000000, -0.000000000000000000 ) ) ;
#950 = DATE_AND_TIME ( #219, #67 ) ;
#951 = CARTESIAN_POINT ( 'NONE',  ( 0.000000000000000000, 3.300000000000001599, 0.000000000000000000 ) ) ;
#952 = FACE_BOUND ( 'NONE', #1030, .T. ) ;
#953 = ORIENTED_EDGE ( 'NONE', *, *, #334, .T. ) ;
#954 = EDGE_CURVE ( 'NONE', #824, #1021, #1020, .T. ) ;
#955 = CARTESIAN_POINT ( 'NONE',  ( -13.49999999999999822, 8.400000000000002132, -23.38268590217984766 ) ) ;
#956 = FACE_BOUND ( 'NONE', #96, .T. ) ;
#957 = ORIENTED_EDGE ( 'NONE', *, *, #851, .T. ) ;
#958 = AXIS2_PLACEMENT_3D ( 'NONE', #991, #826, #419 ) ;
#959 = EDGE_CURVE ( 'NONE', #829, #479, #719, .T. ) ;
#960 = FACE_BOUND ( 'NONE', #421, .T. ) ;
#961 = DIRECTION ( 'NONE',  ( 0.000000000000000000, 0.000000000000000000, 1.000000000000000000 ) ) ;
#962 = DIRECTION ( 'NONE',  ( -0.000000000000000000, 1.000000000000000000, -0.000000000000000000 ) ) ;
#963 = ORIENTED_EDGE ( 'NONE', *, *, #265, .T. ) ;
#964 = AXIS2_PLACEMENT_3D ( 'NONE', #977, #393, #401 ) ;
#965 = AXIS2_PLACEMENT_3D ( 'NONE', #220, #869, #62 ) ;
#966 = ADVANCED_FACE ( 'NONE', ( #563 ), #1002, .F. ) ;
#967 = DIRECTION ( 'NONE',  ( 0.000000000000000000, 0.000000000000000000, 1.000000000000000000 ) ) ;
#968 = CARTESIAN_POINT ( 'NONE',  ( 0.000000000000000000, 16.30923177083333897, 0.000000000000000000 ) ) ;
#969 = ORIENTED_EDGE ( 'NONE', *, *, #410, .F. ) ;
#970 = CARTESIAN_POINT ( 'NONE',  ( 13.49999999999998757, -3.469446951953614189E-15, 23.38268590217985121 ) ) ;
#971 = DIRECTION ( 'NONE',  ( 0.000000000000000000, 0.000000000000000000, 1.000000000000000000 ) ) ;
#972 = CARTESIAN_POINT ( 'NONE',  ( 0.000000000000000000, 8.400000000000000355, 30.00000000000000355 ) ) ;
#973 = APPROVAL_ROLE ( '' ) ;
#974 = ORIENTED_EDGE ( 'NONE', *, *, #463, .F. ) ;
#975 = CARTESIAN_POINT ( 'NONE',  ( 0.000000000000000000, 3.300000000000000711, 0.000000000000000000 ) ) ;
#976 = PLANE ( 'NONE',  #437 ) ;
#977 = CARTESIAN_POINT ( 'NONE',  ( -13.49999999999999822, -3.469446951953614189E-15, 23.38268590217984055 ) ) ;
#978 = VERTEX_POINT ( 'NONE', #846 ) ;
#979 = DIRECTION ( 'NONE',  ( -0.000000000000000000, 1.000000000000000000, -0.000000000000000000 ) ) ;
#980 = AXIS2_PLACEMENT_3D ( 'NONE', #304, #632, #902 ) ;
#981 = ADVANCED_FACE ( 'NONE', ( #600 ), #919, .F. ) ;
#982 = ORIENTED_EDGE ( 'NONE', *, *, #463, .T. ) ;
#983 = VECTOR ( 'NONE', #382, 1000.000000000000000 ) ;
#984 = AXIS2_PLACEMENT_3D ( 'NONE', #6, #186, #516 ) ;
#985 = CARTESIAN_POINT ( 'NONE',  ( 27.00000000000000000, -3.469446951953614189E-15, 0.000000000000000000 ) ) ;
#986 = ORIENTED_EDGE ( 'NONE', *, *, #792, .F. ) ;
#987 = CYLINDRICAL_SURFACE ( 'NONE', #246, 4.100000000000000533 ) ;
#988 = EDGE_CURVE ( 'NONE', #858, #884, #672, .T. ) ;
#989 = VERTEX_POINT ( 'NONE', #505 ) ;
#990 = DIRECTION ( 'NONE',  ( 0.000000000000000000, 0.000000000000000000, 1.000000000000000000 ) ) ;
#991 = CARTESIAN_POINT ( 'NONE',  ( -26.99999999999999645, 8.400000000000002132, -1.037996839893070537E-14 ) ) ;
#992 = DIRECTION ( 'NONE',  ( 0.000000000000000000, 0.000000000000000000, 1.000000000000000000 ) ) ;
#993 = ORIENTED_EDGE ( 'NONE', *, *, #694, .F. ) ;
#994 = FACE_OUTER_BOUND ( 'NONE', #733, .T. ) ;
#995 = CIRCLE ( 'NONE', #296, 22.10000000000000142 ) ;
#996 = AXIS2_PLACEMENT_3D ( 'NONE', #771, #767, #274 ) ;
#997 = VECTOR ( 'NONE', #8, 1000.000000000000000 ) ;
#998 = EDGE_CURVE ( 'NONE', #481, #588, #587, .T. ) ;
#999 = DIRECTION ( 'NONE',  ( -0.000000000000000000, 1.000000000000000000, -0.000000000000000000 ) ) ;
#1000 = VERTEX_POINT ( 'NONE', #13 ) ;
#1001 = CARTESIAN_POINT ( 'NONE',  ( 0.000000000000000000, 16.30923177083333897, 11.50000000000000178 ) ) ;
#1002 = CYLINDRICAL_SURFACE ( 'NONE', #715, 15.50000000000000178 ) ;
#1003 = EDGE_LOOP ( 'NONE', ( #552, #337 ) ) ;
#1004 = DIRECTION ( 'NONE',  ( -0.000000000000000000, 1.000000000000000000, -0.000000000000000000 ) ) ;
#1005 = ORIENTED_EDGE ( 'NONE', *, *, #124, .F. ) ;
#1006 = AXIS2_PLACEMENT_3D ( 'NONE', #530, #943, #706 ) ;
#1007 = CARTESIAN_POINT ( 'NONE',  ( -26.99999999999999645, -3.469446951953614189E-15, -1.037996839893070537E-14 ) ) ;
#1008 = DIRECTION ( 'NONE',  ( -0.000000000000000000, 1.000000000000000000, -0.000000000000000000 ) ) ;
#1009 = ORIENTED_EDGE ( 'NONE', *, *, #988, .F. ) ;
#1010 = ADVANCED_FACE ( 'NONE', ( #182 ), #685, .F. ) ;
#1011 = DIRECTION ( 'NONE',  ( -0.000000000000000000, 1.000000000000000000, -0.000000000000000000 ) ) ;
#1012 = AXIS2_PLACEMENT_3D ( 'NONE', #210, #221, #465 ) ;
#1013 = CARTESIAN_POINT ( 'NONE',  ( 13.50000000000000533, 8.400000000000000355, -21.68268590217984837 ) ) ;
#1014 = AXIS2_PLACEMENT_3D ( 'NONE', #659, #882, #324 ) ;
#1015 = CARTESIAN_POINT ( 'NONE',  ( 0.000000000000000000, 16.30923177083333897, 0.000000000000000000 ) ) ;
#1016 = DIRECTION ( 'NONE',  ( -0.000000000000000000, 1.000000000000000000, -0.000000000000000000 ) ) ;
#1017 = ORIENTED_EDGE ( 'NONE', *, *, #772, .T. ) ;
#1018 = APPROVAL_ROLE ( '' ) ;
#1019 = FACE_OUTER_BOUND ( 'NONE', #512, .T. ) ;
#1020 = LINE ( 'NONE', #56, #1039 ) ;
#1021 = VERTEX_POINT ( 'NONE', #610 ) ;
#1022 = DIRECTION ( 'NONE',  ( -0.000000000000000000, 1.000000000000000000, -0.000000000000000000 ) ) ;
#1023 = ORIENTED_EDGE ( 'NONE', *, *, #98, .F. ) ;
#1024 = CARTESIAN_POINT ( 'NONE',  ( 13.50000000000000533, -3.469446951953614189E-15, -23.38268590217984055 ) ) ;
#1025 = APPROVAL_PERSON_ORGANIZATION ( #38, #736, #1018 ) ;
#1026 = DIRECTION ( 'NONE',  ( 0.000000000000000000, -1.000000000000000000, 0.000000000000000000 ) ) ;
#1027 = FACE_OUTER_BOUND ( 'NONE', #472, .T. ) ;
#1028 = EDGE_CURVE ( 'NONE', #136, #815, #310, .T. ) ;
#1029 = DIRECTION ( 'NONE',  ( -0.000000000000000000, 1.000000000000000000, -0.000000000000000000 ) ) ;
#1030 = EDGE_LOOP ( 'NONE', ( #609, #1047 ) ) ;
#1031 = CARTESIAN_POINT ( 'NONE',  ( 0.000000000000000000, 3.699999999999977529, 0.000000000000000000 ) ) ;
#1032 = PERSON_AND_ORGANIZATION ( #549, #101 ) ;
#1033 = CIRCLE ( 'NONE', #329, 11.50000000000000178 ) ;
#1034 = CARTESIAN_POINT ( 'NONE',  ( 3.673940397442059178E-15, 0.000000000000000000, -30.00000000000000000 ) ) ;
#1035 = AXIS2_PLACEMENT_3D ( 'NONE', #459, #50, #703 ) ;
#1036 = CC_DESIGN_PERSON_AND_ORGANIZATION_ASSIGNMENT ( #75, #892, ( #372 ) ) ;
#1037 = FACE_BOUND ( 'NONE', #458, .T. ) ;
#1038 = AXIS2_PLACEMENT_3D ( 'NONE', #449, #695, #686 ) ;
#1039 = VECTOR ( 'NONE', #634, 1000.000000000000000 ) ;
#1040 = ORIENTED_EDGE ( 'NONE', *, *, #410, .T. ) ;
#1041 = CARTESIAN_POINT ( 'NONE',  ( 27.00000000000000000, -3.469446951953614189E-15, 1.699999999999996625 ) ) ;
#1042 = EDGE_LOOP ( 'NONE', ( #969, #15, #99, #173 ) ) ;
#1043 = DIRECTION ( 'NONE',  ( 0.000000000000000000, -0.000000000000000000, -1.000000000000000000 ) ) ;
#1044 = PLANE ( 'NONE',  #94 ) ;
#1045 = ORIENTED_EDGE ( 'NONE', *, *, #591, .T. ) ;
#1046 = DIRECTION ( 'NONE',  ( 0.000000000000000000, 0.000000000000000000, 1.000000000000000000 ) ) ;
#1047 = ORIENTED_EDGE ( 'NONE', *, *, #285, .T. ) ;
#1048 = ADVANCED_FACE ( 'NONE', ( #291 ), #368, .F. ) ;
#1049 = CARTESIAN_POINT ( 'NONE',  ( 0.000000000000000000, 16.30923177083333897, 22.10000000000000142 ) ) ;
#1050 = DIRECTION ( 'NONE',  ( 0.000000000000000000, 0.000000000000000000, 1.000000000000000000 ) ) ;
#1051 = DATE_AND_TIME ( #724, #704 ) ;
#1052 = ORIENTED_EDGE ( 'NONE', *, *, #397, .F. ) ;
#1053 = AXIS2_PLACEMENT_3D ( 'NONE', #68, #1057, #335 ) ;
#1054 = CYLINDRICAL_SURFACE ( 'NONE', #687, 1.699999999999993072 ) ;
#1055 = AXIS2_PLACEMENT_3D ( 'NONE', #652, #315, #967 ) ;
#1056 = CARTESIAN_POINT ( 'NONE',  ( 0.000000000000000000, 16.30923177083333897, 0.000000000000000000 ) ) ;
#1057 = DIRECTION ( 'NONE',  ( -0.000000000000000000, 1.000000000000000000, -0.000000000000000000 ) ) ;
#1058 = COORDINATED_UNIVERSAL_TIME_OFFSET ( 8, 0, .AHEAD. ) ;
#1059 = VERTEX_POINT ( 'NONE', #442 ) ;
#1060 = DIRECTION ( 'NONE',  ( -0.000000000000000000, 1.000000000000000000, -0.000000000000000000 ) ) ;
#1061 = EDGE_CURVE ( 'NONE', #534, #910, #638, .T. ) ;
#1062 = CARTESIAN_POINT ( 'NONE',  ( 13.49999999999998757, 8.400000000000000355, 23.38268590217985121 ) ) ;
#1063 = EDGE_LOOP ( 'NONE', ( #974, #37, #800, #499 ) ) ;
ENDSEC;
END-ISO-10303-21;
