ISO-10303-21;
HEADER;
FILE_DESCRIPTION (( 'STEP AP203' ),
    '1' );
FILE_NAME ('InRunnerEccentricCam.STEP',
    '2026-02-26T13:21:46',
    ( '' ),
    ( '' ),
    'SwSTEP 2.0',
    'SolidWorks 2024',
    '' );
FILE_SCHEMA (( 'CONFIG_CONTROL_DESIGN' ));
ENDSEC;

DATA;
#1 = DIRECTION ( 'NONE',  ( -0.000000000000000000, -1.000000000000000000, -0.000000000000000000 ) ) ;
#2 = ORIENTED_EDGE ( 'NONE', *, *, #913, .T. ) ;
#3 = CARTESIAN_POINT ( 'NONE',  ( 2.347211839713588599, 15.26668224042964006, 3.030678378027351183 ) ) ;
#4 = CARTESIAN_POINT ( 'NONE',  ( 1.983929622489282396, 5.394728657542223971, -3.602878887934804375 ) ) ;
#5 = ADVANCED_FACE ( 'NONE', ( #147 ), #874, .T. ) ;
#6 = DIRECTION ( 'NONE',  ( 0.000000000000000000, 0.000000000000000000, -1.000000000000000000 ) ) ;
#7 = PERSON_AND_ORGANIZATION ( #832, #95 ) ;
#8 = ORIENTED_EDGE ( 'NONE', *, *, #317, .F. ) ;
#9 = DIRECTION ( 'NONE',  ( -0.000000000000000000, -1.000000000000000000, -0.000000000000000000 ) ) ;
#10 = LINE ( 'NONE', #214, #803 ) ;
#11 = AXIS2_PLACEMENT_3D ( 'NONE', #1032, #307, #939 ) ;
#12 = APPLICATION_CONTEXT ( 'configuration controlled 3d designs of mechanical parts and assemblies' ) ;
#13 = CARTESIAN_POINT ( 'NONE',  ( -0.7499999999999994449, 15.40000000000000036, 4.600000000000000533 ) ) ;
#14 = ORIENTED_EDGE ( 'NONE', *, *, #1118, .F. ) ;
#15 = AXIS2_PLACEMENT_3D ( 'NONE', #130, #427, #783 ) ;
#16 = CARTESIAN_POINT ( 'NONE',  ( -0.4024555284354754958, 5.840150939631088889, 4.090499682248760038 ) ) ;
#17 = DIRECTION ( 'NONE',  ( 0.000000000000000000, -1.000000000000000000, 0.000000000000000000 ) ) ;
#18 = AXIS2_PLACEMENT_3D ( 'NONE', #549, #927, #369 ) ;
#19 = DIRECTION ( 'NONE',  ( -0.000000000000000000, -1.000000000000000000, -0.000000000000000000 ) ) ;
#20 = PERSON_AND_ORGANIZATION ( #832, #95 ) ;
#21 = EDGE_LOOP ( 'NONE', ( #81, #953, #397, #1098 ) ) ;
#22 = EDGE_CURVE ( 'NONE', #838, #1077, #878, .T. ) ;
#23 = LINE ( 'NONE', #288, #451 ) ;
#24 = ORIENTED_EDGE ( 'NONE', *, *, #724, .F. ) ;
#25 = EDGE_CURVE ( 'NONE', #192, #508, #510, .T. ) ;
#26 = DIRECTION ( 'NONE',  ( 1.000000000000000000, -0.000000000000000000, 0.000000000000000000 ) ) ;
#27 = FACE_OUTER_BOUND ( 'NONE', #1060, .T. ) ;
#28 = PERSON_AND_ORGANIZATION ( #832, #95 ) ;
#29 = ORIENTED_EDGE ( 'NONE', *, *, #1179, .T. ) ;
#30 = DIRECTION ( 'NONE',  ( -0.000000000000000000, -1.000000000000000000, -0.000000000000000000 ) ) ;
#31 = EDGE_LOOP ( 'NONE', ( #14, #679, #367, #759, #775 ) ) ;
#32 = CARTESIAN_POINT ( 'NONE',  ( -0.7499999999999994449, 4.000000000000000000, 4.599999999999999645 ) ) ;
#33 = CARTESIAN_POINT ( 'NONE',  ( 3.384162696625888866, 4.918173948181863153, -2.039103471398292289 ) ) ;
#34 = DATE_AND_TIME ( #136, #615 ) ;
#35 = ORIENTED_EDGE ( 'NONE', *, *, #483, .F. ) ;
#36 = AXIS2_PLACEMENT_3D ( 'NONE', #987, #153, #515 ) ;
#37 = CARTESIAN_POINT ( 'NONE',  ( 0.000000000000000000, 15.40000000000000036, 0.000000000000000000 ) ) ;
#38 = EDGE_LOOP ( 'NONE', ( #442, #657, #1092, #766 ) ) ;
#39 = CIRCLE ( 'NONE', #73, 4.600000000000000533 ) ;
#40 = CARTESIAN_POINT ( 'NONE',  ( 2.258333333333339521, 15.40000000000000036, -2.930858330857291527 ) ) ;
#41 = ADVANCED_FACE ( 'NONE', ( #137 ), #868, .T. ) ;
#42 = CARTESIAN_POINT ( 'NONE',  ( 3.702408960599123056, 4.770735375812702905, -1.194485701339687012 ) ) ;
#43 = CARTESIAN_POINT ( 'NONE',  ( -7.837840640166284244E-17, 5.768033109273484449, -4.100000000000000533 ) ) ;
#44 = CARTESIAN_POINT ( 'NONE',  ( 2.525000000000003020, 10.31421650120357825, -3.230228320103702533 ) ) ;
#45 = ORIENTED_EDGE ( 'NONE', *, *, #25, .T. ) ;
#46 = CARTESIAN_POINT ( 'NONE',  ( -2.915930163111065010, 5.076195740025331915, 2.794093940343636895 ) ) ;
#47 = CARTESIAN_POINT ( 'NONE',  ( -2.205343931487647838E-16, 9.831966890726514308, -4.100000000000000533 ) ) ;
#48 = EDGE_CURVE ( 'NONE', #918, #58, #215, .T. ) ;
#49 = CARTESIAN_POINT ( 'NONE',  ( 3.384162696625890643, 10.68182605181814004, 2.039103471398289624 ) ) ;
#50 = ORIENTED_EDGE ( 'NONE', *, *, #1025, .T. ) ;
#51 = DIRECTION ( 'NONE',  ( -2.168404344971008868E-16, 0.000000000000000000, -1.000000000000000000 ) ) ;
#52 = DIRECTION ( 'NONE',  ( -7.228014483236695816E-17, -0.000000000000000000, -1.000000000000000000 ) ) ;
#53 = CARTESIAN_POINT ( 'NONE',  ( 2.915760937699309885, 10.47610746749430888, 2.794693211596178894 ) ) ;
#54 = ORIENTED_EDGE ( 'NONE', *, *, #61, .F. ) ;
#55 = CONICAL_SURFACE ( 'NONE', #885, 3.700000000000008171, 0.7853981633974504994 ) ;
#56 = CARTESIAN_POINT ( 'NONE',  ( 1.983929622489283728, 10.20527134245777567, 3.602878887934802599 ) ) ;
#57 = FACE_OUTER_BOUND ( 'NONE', #308, .T. ) ;
#58 = VERTEX_POINT ( 'NONE', #43 ) ;
#59 = EDGE_CURVE ( 'NONE', #385, #898, #817, .T. ) ;
#60 = CARTESIAN_POINT ( 'NONE',  ( -3.244491313989230186, 5.218936612493603633, -2.300335922138010414 ) ) ;
#61 = EDGE_CURVE ( 'NONE', #751, #696, #1196, .T. ) ;
#62 = DIRECTION ( 'NONE',  ( -0.000000000000000000, -1.000000000000000000, -0.000000000000000000 ) ) ;
#63 = DIRECTION ( 'NONE',  ( 1.000000000000000000, 0.000000000000000000, 0.000000000000000000 ) ) ;
#64 = ORIENTED_EDGE ( 'NONE', *, *, #486, .T. ) ;
#65 = CARTESIAN_POINT ( 'NONE',  ( 0.000000000000000000, 15.40000000000000036, 0.000000000000000000 ) ) ;
#66 = B_SPLINE_CURVE_WITH_KNOTS ( 'NONE', 3,
 ( #770, #566, #669, #1145, #960, #946 ),
 .UNSPECIFIED., .F., .F.,
 ( 4, 2, 4 ),
 ( 2.534468550092111753E-07, 0.001375366803634219546, 0.002750480160413429961 ),
 .UNSPECIFIED. ) ;
#67 = AXIS2_PLACEMENT_3D ( 'NONE', #445, #434, #1011 ) ;
#68 = CARTESIAN_POINT ( 'NONE',  ( -2.525000000000004796, 9.400000000000000355, 3.230228320103700312 ) ) ;
#69 = FACE_OUTER_BOUND ( 'NONE', #558, .T. ) ;
#70 = ORIENTED_EDGE ( 'NONE', *, *, #476, .T. ) ;
#71 = CARTESIAN_POINT ( 'NONE',  ( 2.153860455202604829, 4.060794205903828669, -3.496027025983688752 ) ) ;
#72 = FACE_OUTER_BOUND ( 'NONE', #944, .T. ) ;
#73 = AXIS2_PLACEMENT_3D ( 'NONE', #1115, #749, #739 ) ;
#74 = EDGE_CURVE ( 'NONE', #893, #286, #517, .T. ) ;
#75 = LINE ( 'NONE', #531, #870 ) ;
#76 = ORIENTED_EDGE ( 'NONE', *, *, #849, .F. ) ;
#77 = CARTESIAN_POINT ( 'NONE',  ( 1.755590640760088306, 4.127083220146781528, -3.712037355546077055 ) ) ;
#78 = LINE ( 'NONE', #1003, #306 ) ;
#79 = DIRECTION ( 'NONE',  ( -0.000000000000000000, -1.000000000000000000, -0.000000000000000000 ) ) ;
#80 = EDGE_CURVE ( 'NONE', #673, #1157, #155, .T. ) ;
#81 = ORIENTED_EDGE ( 'NONE', *, *, #1061, .T. ) ;
#82 = DIRECTION ( 'NONE',  ( -0.000000000000000000, -1.000000000000000000, -0.000000000000000000 ) ) ;
#83 = LINE ( 'NONE', #169, #748 ) ;
#84 = VECTOR ( 'NONE', #63, 1000.000000000000000 ) ;
#85 = CARTESIAN_POINT ( 'NONE',  ( -0.7500000000000000000, 0.000000000000000000, -4.600000000000000533 ) ) ;
#86 = ORIENTED_EDGE ( 'NONE', *, *, #866, .T. ) ;
#87 = EDGE_CURVE ( 'NONE', #819, #1034, #688, .T. ) ;
#88 = CARTESIAN_POINT ( 'NONE',  ( 0.7500000000000000000, 6.199999999999999289, -4.599999999999999645 ) ) ;
#89 = ORIENTED_EDGE ( 'NONE', *, *, #483, .T. ) ;
#90 = APPLICATION_CONTEXT ( 'configuration controlled 3d designs of mechanical parts and assemblies' ) ;
#91 = LINE ( 'NONE', #569, #1004 ) ;
#92 = DIRECTION ( 'NONE',  ( -0.000000000000000000, -1.000000000000000000, -0.000000000000000000 ) ) ;
#93 = ORIENTED_EDGE ( 'NONE', *, *, #1025, .F. ) ;
#94 = DIRECTION ( 'NONE',  ( 0.000000000000000000, 0.000000000000000000, 1.000000000000000000 ) ) ;
#95 = ORGANIZATION ( 'UNSPECIFIED', 'UNSPECIFIED', '' ) ;
#96 = CARTESIAN_POINT ( 'NONE',  ( -1.500000000000000222, 9.400000000000000355, -1.499999999999999556 ) ) ;
#97 = ORIENTED_EDGE ( 'NONE', *, *, #975, .F. ) ;
#98 = CARTESIAN_POINT ( 'NONE',  ( -0.7500000000000000000, 15.40000000000000036, 9.184850993605149670E-17 ) ) ;
#99 = CARTESIAN_POINT ( 'NONE',  ( 2.525000000000003020, 5.285783498796421398, -3.230228320103702533 ) ) ;
#100 = CARTESIAN_POINT ( 'NONE',  ( -2.258333333333341297, 15.40000000000000036, -2.930858330857289751 ) ) ;
#101 = PERSON_AND_ORGANIZATION_ROLE ( 'creator' ) ;
#102 = ORIENTED_EDGE ( 'NONE', *, *, #270, .F. ) ;
#103 = CARTESIAN_POINT ( 'NONE',  ( 0.7500000000000000000, 6.199999999999999289, 0.000000000000000000 ) ) ;
#104 = CARTESIAN_POINT ( 'NONE',  ( 0.7500000000000009992, 9.969181224614532155, 4.030818775385467845 ) ) ;
#105 = CIRCLE ( 'NONE', #1137, 4.599999999999999645 ) ;
#106 = EDGE_CURVE ( 'NONE', #470, #815, #1104, .T. ) ;
#107 = LINE ( 'NONE', #473, #826 ) ;
#108 = CARTESIAN_POINT ( 'NONE',  ( -1.765325212155071322, 4.761862638282969407, 3.728410243164241411 ) ) ;
#109 = ORIENTED_EDGE ( 'NONE', *, *, #378, .T. ) ;
#110 = EDGE_CURVE ( 'NONE', #751, #167, #178, .T. ) ;
#111 = FACE_OUTER_BOUND ( 'NONE', #216, .T. ) ;
#112 = ORIENTED_EDGE ( 'NONE', *, *, #476, .F. ) ;
#113 = CARTESIAN_POINT ( 'NONE',  ( 0.000000000000000000, 15.40000000000000036, 0.000000000000000000 ) ) ;
#114 =( GEOMETRIC_REPRESENTATION_CONTEXT ( 3 ) GLOBAL_UNCERTAINTY_ASSIGNED_CONTEXT ( ( #277 ) ) GLOBAL_UNIT_ASSIGNED_CONTEXT ( ( #664, #955, #765 ) ) REPRESENTATION_CONTEXT ( 'NONE', 'WORKASPACE' ) );
#115 = CARTESIAN_POINT ( 'NONE',  ( -2.525000000000002132, 15.00000000000001066, -3.230228320103702977 ) ) ;
#116 = COORDINATED_UNIVERSAL_TIME_OFFSET ( 8, 0, .AHEAD. ) ;
#117 = ORIENTED_EDGE ( 'NONE', *, *, #1084, .T. ) ;
#118 = CARTESIAN_POINT ( 'NONE',  ( -2.293525897132142166, 6.162259657141109237, 3.411166647621858061 ) ) ;
#119 = ORIENTED_EDGE ( 'NONE', *, *, #687, .T. ) ;
#120 = DIRECTION ( 'NONE',  ( 0.000000000000000000, 0.000000000000000000, 1.000000000000000000 ) ) ;
#121 = ORIENTED_EDGE ( 'NONE', *, *, #993, .F. ) ;
#122 = B_SPLINE_CURVE_WITH_KNOTS ( 'NONE', 3,
 ( #260, #633, #626, #1005, #171, #644, #1040, #108, #285, #291 ),
 .UNSPECIFIED., .F., .F.,
 ( 4, 2, 2, 2, 4 ),
 ( 2.524706457998931226E-07, 0.001373401443229944723, 0.002746550415814089270, 0.004119699388398234685, 0.005492848360982378365 ),
 .UNSPECIFIED. ) ;
#123 = CARTESIAN_POINT ( 'NONE',  ( -2.205343931487647838E-16, 9.831966890726514308, -4.100000000000000533 ) ) ;
#124 = ORIENTED_EDGE ( 'NONE', *, *, #698, .F. ) ;
#125 = EDGE_CURVE ( 'NONE', #925, #273, #720, .T. ) ;
#126 = VECTOR ( 'NONE', #477, 999.9999999999998863 ) ;
#127 = DIRECTION ( 'NONE',  ( 0.000000000000000000, 0.000000000000000000, -1.000000000000000000 ) ) ;
#128 = AXIS2_PLACEMENT_3D ( 'NONE', #98, #197, #1026 ) ;
#129 = CARTESIAN_POINT ( 'NONE',  ( 3.244546609430020823, 4.981044448902914645, -2.300371879587087776 ) ) ;
#130 = CARTESIAN_POINT ( 'NONE',  ( 0.7500000000000000000, 15.40000000000000036, 7.758315481586230702E-17 ) ) ;
#131 = LINE ( 'NONE', #497, #84 ) ;
#132 = ORIENTED_EDGE ( 'NONE', *, *, #468, .F. ) ;
#133 = CARTESIAN_POINT ( 'NONE',  ( 0.3750000000000000000, 0.000000000000000000, 3.879157740793115351E-17 ) ) ;
#134 = AXIS2_PLACEMENT_3D ( 'NONE', #1113, #282, #1027 ) ;
#135 = SECURITY_CLASSIFICATION ( '', '', #202 ) ;
#136 = CALENDAR_DATE ( 2026, 26, 2 ) ;
#137 = FACE_OUTER_BOUND ( 'NONE', #1144, .T. ) ;
#138 = CARTESIAN_POINT ( 'NONE',  ( 3.820160068985405388, 10.88546801296386235, 0.6036377945255215760 ) ) ;
#139 = VERTEX_POINT ( 'NONE', #480 ) ;
#140 = CARTESIAN_POINT ( 'NONE',  ( -3.849738162715191869, 5.499873304573123178, 0.3065091047350604336 ) ) ;
#141 = ADVANCED_FACE ( 'NONE', ( #27 ), #208, .F. ) ;
#142 = DIRECTION ( 'NONE',  ( -0.000000000000000000, -1.000000000000000000, -0.000000000000000000 ) ) ;
#143 = ORIENTED_EDGE ( 'NONE', *, *, #916, .F. ) ;
#144 = CARTESIAN_POINT ( 'NONE',  ( -0.4020866863066651642, 9.759912182514833390, 4.090603164456663166 ) ) ;
#145 = DIRECTION ( 'NONE',  ( 0.000000000000000000, 0.000000000000000000, -1.000000000000000000 ) ) ;
#146 = APPROVAL_ROLE ( '' ) ;
#147 = FACE_OUTER_BOUND ( 'NONE', #446, .T. ) ;
#148 = EDGE_CURVE ( 'NONE', #470, #1131, #91, .T. ) ;
#149 = AXIS2_PLACEMENT_3D ( 'NONE', #683, #207, #655 ) ;
#150 = DIRECTION ( 'NONE',  ( -7.228014483236695816E-17, 0.000000000000000000, -1.000000000000000000 ) ) ;
#151 = PRODUCT_DEFINITION ( 'UNKNOWN', '', #614, #1021 ) ;
#152 = VERTEX_POINT ( 'NONE', #96 ) ;
#153 = DIRECTION ( 'NONE',  ( -7.885106708985489034E-17, 1.000000000000000000, -0.000000000000000000 ) ) ;
#154 = CONICAL_SURFACE ( 'NONE', #824, 3.100000000000000533, 0.7853981633974480570 ) ;
#155 = CIRCLE ( 'NONE', #1024, 2.600000000000000089 ) ;
#156 = CARTESIAN_POINT ( 'NONE',  ( 3.820160068985405832, 4.714531987036139071, -0.6036377945255250177 ) ) ;
#157 = DIRECTION ( 'NONE',  ( 0.000000000000000000, 0.000000000000000000, 1.000000000000000000 ) ) ;
#158 = CC_DESIGN_APPROVAL ( #506, ( #151 ) ) ;
#159 = LINE ( 'NONE', #1175, #705 ) ;
#160 = ORIENTED_EDGE ( 'NONE', *, *, #1188, .F. ) ;
#161 = CYLINDRICAL_SURFACE ( 'NONE', #456, 4.100000000000000533 ) ;
#162 = CARTESIAN_POINT ( 'NONE',  ( 0.3750000000000000000, 9.400000000000000355, 3.879157740793115351E-17 ) ) ;
#163 = VERTEX_POINT ( 'NONE', #190 ) ;
#164 = CARTESIAN_POINT ( 'NONE',  ( 2.436101691436198369, 15.13334746284571430, 3.130465598522014226 ) ) ;
#165 = EDGE_CURVE ( 'NONE', #527, #828, #107, .T. ) ;
#166 = CARTESIAN_POINT ( 'NONE',  ( 1.983911694938608417, 5.394734213104597664, 3.602954601980456140 ) ) ;
#167 = VERTEX_POINT ( 'NONE', #194 ) ;
#168 = DIRECTION ( 'NONE',  ( 0.000000000000000000, 0.000000000000000000, -1.000000000000000000 ) ) ;
#169 = CARTESIAN_POINT ( 'NONE',  ( -2.525000000000004796, 15.40000000000000036, 3.230228320103700312 ) ) ;
#170 = VECTOR ( 'NONE', #52, 1000.000000000000000 ) ;
#171 = CARTESIAN_POINT ( 'NONE',  ( 0.4528107104563912078, 4.350475547574545132, 4.100380950443223149 ) ) ;
#172 = ORIENTED_EDGE ( 'NONE', *, *, #858, .F. ) ;
#173 = DIRECTION ( 'NONE',  ( 0.000000000000000000, 0.000000000000000000, 1.000000000000000000 ) ) ;
#174 = DIRECTION ( 'NONE',  ( -0.000000000000000000, -1.000000000000000000, -0.000000000000000000 ) ) ;
#175 = FACE_OUTER_BOUND ( 'NONE', #31, .T. ) ;
#176 = VERTEX_POINT ( 'NONE', #290 ) ;
#177 = DIRECTION ( 'NONE',  ( 0.000000000000000000, -1.000000000000000000, 0.000000000000000000 ) ) ;
#178 = B_SPLINE_CURVE_WITH_KNOTS ( 'NONE', 3,
 ( #433, #807, #343, #715 ),
 .UNSPECIFIED., .F., .F.,
 ( 4, 4 ),
 ( 0.000000000000000000, 0.0005663333837701059990 ),
 .UNSPECIFIED. ) ;
#179 = DIRECTION ( 'NONE',  ( -1.000000000000000000, 0.000000000000000000, 0.000000000000000000 ) ) ;
#180 = VERTEX_POINT ( 'NONE', #842 ) ;
#181 = CARTESIAN_POINT ( 'NONE',  ( -1.499999999999999556, 15.40000000000000036, 1.500000000000000444 ) ) ;
#182 = DIRECTION ( 'NONE',  ( 0.000000000000000000, 0.000000000000000000, -1.000000000000000000 ) ) ;
#183 = ORIENTED_EDGE ( 'NONE', *, *, #827, .T. ) ;
#184 = EDGE_CURVE ( 'NONE', #163, #898, #764, .T. ) ;
#185 = CARTESIAN_POINT ( 'NONE',  ( 0.7500000000000000000, 9.399999999999998579, 0.000000000000000000 ) ) ;
#186 = VECTOR ( 'NONE', #1159, 1000.000000000000000 ) ;
#187 = CARTESIAN_POINT ( 'NONE',  ( 0.7499999999999996669, 5.630818775385466601, -4.030818775385467845 ) ) ;
#188 = VECTOR ( 'NONE', #371, 1000.000000000000000 ) ;
#189 = CONICAL_SURFACE ( 'NONE', #729, 4.200000000000008171, 0.7853981633974504994 ) ;
#190 = CARTESIAN_POINT ( 'NONE',  ( 0.000000000000000000, 15.00000000000001066, -4.100000000000000533 ) ) ;
#191 = APPROVAL_ROLE ( '' ) ;
#192 = VERTEX_POINT ( 'NONE', #550 ) ;
#193 = CARTESIAN_POINT ( 'NONE',  ( 0.9099667019973807225, 9.998945655412235567, -4.001054344587767986 ) ) ;
#194 = CARTESIAN_POINT ( 'NONE',  ( -2.258333333333343518, 15.40000000000000036, 2.930858330857287530 ) ) ;
#195 = CALENDAR_DATE ( 2026, 26, 2 ) ;
#196 = VERTEX_POINT ( 'NONE', #278 ) ;
#197 = DIRECTION ( 'NONE',  ( -0.000000000000000000, -1.000000000000000000, -0.000000000000000000 ) ) ;
#198 = CARTESIAN_POINT ( 'NONE',  ( -0.7500000000000000000, 4.000000000000000000, -4.599999999999999645 ) ) ;
#199 = EDGE_CURVE ( 'NONE', #532, #316, #948, .T. ) ;
#200 = EDGE_CURVE ( 'NONE', #956, #673, #398, .T. ) ;
#201 = CARTESIAN_POINT ( 'NONE',  ( 2.729421166721429426, 5.202590400183257913, 3.022973830739563272 ) ) ;
#202 = SECURITY_CLASSIFICATION_LEVEL ( 'unclassified' ) ;
#203 = ORIENTED_EDGE ( 'NONE', *, *, #1201, .T. ) ;
#204 = DIRECTION ( 'NONE',  ( 0.000000000000000000, 0.000000000000000000, -1.000000000000000000 ) ) ;
#205 = ORIENTED_EDGE ( 'NONE', *, *, #879, .F. ) ;
#206 = VECTOR ( 'NONE', #952, 1000.000000000000000 ) ;
#207 = DIRECTION ( 'NONE',  ( 0.000000000000000000, 1.000000000000000000, 0.000000000000000000 ) ) ;
#208 = CYLINDRICAL_SURFACE ( 'NONE', #610, 0.5000000000000002220 ) ;
#209 = DIRECTION ( 'NONE',  ( 1.000000000000000000, 0.000000000000000000, 0.000000000000000000 ) ) ;
#210 = ORIENTED_EDGE ( 'NONE', *, *, #1185, .F. ) ;
#211 = VECTOR ( 'NONE', #235, 1000.000000000000000 ) ;
#212 = DIRECTION ( 'NONE',  ( 0.000000000000000000, 0.000000000000000000, -1.000000000000000000 ) ) ;
#213 = ORIENTED_EDGE ( 'NONE', *, *, #608, .T. ) ;
#214 = CARTESIAN_POINT ( 'NONE',  ( 0.000000000000000000, 15.40000000000000036, -4.100000000000000533 ) ) ;
#215 = B_SPLINE_CURVE_WITH_KNOTS ( 'NONE', 3,
 ( #502, #244, #1174, #495 ),
 .UNSPECIFIED., .F., .F.,
 ( 4, 4 ),
 ( 0.001986272463294101731, 0.002750480160413431695 ),
 .UNSPECIFIED. ) ;
#216 = EDGE_LOOP ( 'NONE', ( #785, #338, #297, #682 ) ) ;
#217 = DIRECTION ( 'NONE',  ( -0.000000000000000000, -1.000000000000000000, -0.000000000000000000 ) ) ;
#218 = ORIENTED_EDGE ( 'NONE', *, *, #444, .F. ) ;
#219 = DIRECTION ( 'NONE',  ( 0.000000000000000000, -1.000000000000000000, 0.000000000000000000 ) ) ;
#220 = LINE ( 'NONE', #1140, #340 ) ;
#221 = CARTESIAN_POINT ( 'NONE',  ( 1.499999999999999778, -0.0009999999999992653654, -1.499999999999999556 ) ) ;
#222 = ORIENTED_EDGE ( 'NONE', *, *, #1070, .F. ) ;
#223 = AXIS2_PLACEMENT_3D ( 'NONE', #226, #428, #239 ) ;
#224 = CARTESIAN_POINT ( 'NONE',  ( 0.000000000000000000, 15.40000000000000036, -3.700000000000008171 ) ) ;
#225 = APPROVAL_STATUS ( 'not_yet_approved' ) ;
#226 = CARTESIAN_POINT ( 'NONE',  ( -0.7500000000000000000, 0.000000000000000000, 9.184850993605149670E-17 ) ) ;
#227 = ORIENTED_EDGE ( 'NONE', *, *, #402, .T. ) ;
#228 = CARTESIAN_POINT ( 'NONE',  ( -2.525000000000005684, 4.914216501203577891, 3.230228320103700757 ) ) ;
#229 = CIRCLE ( 'NONE', #18, 4.599999999999999645 ) ;
#230 = VECTOR ( 'NONE', #526, 1000.000000000000000 ) ;
#231 = CC_DESIGN_APPROVAL ( #829, ( #614 ) ) ;
#232 = COORDINATED_UNIVERSAL_TIME_OFFSET ( 8, 0, .AHEAD. ) ;
#233 = CARTESIAN_POINT ( 'NONE',  ( 3.849745816441775492, 10.89987700798558556, -0.3103800561777450007 ) ) ;
#234 = ORIENTED_EDGE ( 'NONE', *, *, #48, .F. ) ;
#235 = DIRECTION ( 'NONE',  ( 7.228014483236695816E-17, -0.000000000000000000, 1.000000000000000000 ) ) ;
#236 = CARTESIAN_POINT ( 'NONE',  ( -2.916950079364263093, 5.076619047816270047, -2.793024047097406370 ) ) ;
#237 = EDGE_CURVE ( 'NONE', #180, #751, #396, .T. ) ;
#238 = EDGE_CURVE ( 'NONE', #726, #180, #39, .T. ) ;
#239 = DIRECTION ( 'NONE',  ( 0.000000000000000000, 0.000000000000000000, -1.000000000000000000 ) ) ;
#240 = ORIENTED_EDGE ( 'NONE', *, *, #110, .T. ) ;
#241 = DIRECTION ( 'NONE',  ( 0.000000000000000000, 1.000000000000000000, 0.000000000000000000 ) ) ;
#242 = DIRECTION ( 'NONE',  ( -0.000000000000000000, 0.000000000000000000, 1.000000000000000000 ) ) ;
#243 = AXIS2_PLACEMENT_3D ( 'NONE', #37, #553, #212 ) ;
#244 = CARTESIAN_POINT ( 'NONE',  ( 0.5035096337098586838, 5.676682354231163075, -4.076682354231164318 ) ) ;
#245 = CARTESIAN_POINT ( 'NONE',  ( 2.729252310296300887, 10.39734088046906990, 3.023145027552140096 ) ) ;
#246 = VERTEX_POINT ( 'NONE', #381 ) ;
#247 = FACE_OUTER_BOUND ( 'NONE', #475, .T. ) ;
#248 = VECTOR ( 'NONE', #1086, 999.9999999999998863 ) ;
#249 = VECTOR ( 'NONE', #387, 1000.000000000000000 ) ;
#250 = MANIFOLD_SOLID_BREP ( 'Chamfer1', #1045 ) ;
#251 = DIRECTION ( 'NONE',  ( 0.000000000000000000, 0.000000000000000000, -1.000000000000000000 ) ) ;
#252 = EDGE_CURVE ( 'NONE', #898, #139, #333, .T. ) ;
#253 = FACE_OUTER_BOUND ( 'NONE', #305, .T. ) ;
#254 = VERTEX_POINT ( 'NONE', #830 ) ;
#255 = CARTESIAN_POINT ( 'NONE',  ( -3.386204156597627080, 5.282752763972403898, -2.034843644862062373 ) ) ;
#256 = CARTESIAN_POINT ( 'NONE',  ( -0.7500000000000000000, 0.000000000000000000, 9.184850993605149670E-17 ) ) ;
#257 = ORIENTED_EDGE ( 'NONE', *, *, #753, .T. ) ;
#258 = DIRECTION ( 'NONE',  ( -0.000000000000000000, -1.000000000000000000, -0.000000000000000000 ) ) ;
#259 = ADVANCED_FACE ( 'NONE', ( #643 ), #837, .F. ) ;
#260 = CARTESIAN_POINT ( 'NONE',  ( 2.525000000000004352, 4.000000000000003553, 3.230228320103701645 ) ) ;
#261 = ORIENTED_EDGE ( 'NONE', *, *, #1161, .F. ) ;
#262 = FACE_OUTER_BOUND ( 'NONE', #1088, .T. ) ;
#263 = AXIS2_PLACEMENT_3D ( 'NONE', #133, #241, #1069 ) ;
#264 = DIRECTION ( 'NONE',  ( -0.000000000000000000, -1.000000000000000000, -0.000000000000000000 ) ) ;
#265 = CARTESIAN_POINT ( 'NONE',  ( -1.500000000000000222, 15.40000000000000036, -1.499999999999999556 ) ) ;
#266 = VERTEX_POINT ( 'NONE', #556 ) ;
#267 = CARTESIAN_POINT ( 'NONE',  ( -1.369316728763810519E-16, 4.431966890726513064, -4.100000000000000533 ) ) ;
#268 = ORIENTED_EDGE ( 'NONE', *, *, #364, .T. ) ;
#269 = EDGE_CURVE ( 'NONE', #1187, #838, #1033, .T. ) ;
#270 = EDGE_CURVE ( 'NONE', #696, #769, #920, .T. ) ;
#271 = CARTESIAN_POINT ( 'NONE',  ( 0.000000000000000000, 15.00000000000001066, 0.000000000000000000 ) ) ;
#272 = CARTESIAN_POINT ( 'NONE',  ( 0.7500000000000005551, 9.399999999999998579, 4.600000000000000533 ) ) ;
#273 = VERTEX_POINT ( 'NONE', #744 ) ;
#274 = DIRECTION ( 'NONE',  ( 1.000000000000000000, -0.000000000000000000, 0.000000000000000000 ) ) ;
#275 = CARTESIAN_POINT ( 'NONE',  ( 1.388399005766474348, 5.510659983871829759, -3.871570899377080988 ) ) ;
#276 = ORIENTED_EDGE ( 'NONE', *, *, #327, .T. ) ;
#277 = UNCERTAINTY_MEASURE_WITH_UNIT (LENGTH_MEASURE( 1.000000000000000082E-05 ), #664, 'distance_accuracy_value', 'NONE');
#278 = CARTESIAN_POINT ( 'NONE',  ( 2.258333333333339521, 15.40000000000000036, -2.930858330857291527 ) ) ;
#279 = DIRECTION ( 'NONE',  ( 0.000000000000000000, 0.000000000000000000, 1.000000000000000000 ) ) ;
#280 = ORIENTED_EDGE ( 'NONE', *, *, #694, .T. ) ;
#281 = FACE_OUTER_BOUND ( 'NONE', #453, .T. ) ;
#282 = DIRECTION ( 'NONE',  ( 0.000000000000000000, 1.000000000000000000, 0.000000000000000000 ) ) ;
#283 = AXIS2_PLACEMENT_3D ( 'NONE', #899, #177, #173 ) ;
#284 = CARTESIAN_POINT ( 'NONE',  ( 2.525000000000003020, 4.000000000000003553, -3.230228320103702533 ) ) ;
#285 = CARTESIAN_POINT ( 'NONE',  ( -2.164074221498650363, 4.840773681253787153, 3.512356238134790143 ) ) ;
#286 = VERTEX_POINT ( 'NONE', #284 ) ;
#287 = ADVANCED_FACE ( 'NONE', ( #469 ), #789, .T. ) ;
#288 = CARTESIAN_POINT ( 'NONE',  ( 2.339973189144064492, 22.34262198308391234, -1.133369081141247126 ) ) ;
#289 = CARTESIAN_POINT ( 'NONE',  ( -1.999999999999999556, 0.000000000000000000, -2.000000000000000444 ) ) ;
#290 = CARTESIAN_POINT ( 'NONE',  ( -2.525000000000004796, 6.199999999999999289, 3.230228320103700312 ) ) ;
#291 = CARTESIAN_POINT ( 'NONE',  ( -2.525000000000005684, 4.914216501203577891, 3.230228320103700757 ) ) ;
#292 = ORIENTED_EDGE ( 'NONE', *, *, #1084, .F. ) ;
#293 = CARTESIAN_POINT ( 'NONE',  ( 1.381325949337624648, 10.08829981131427189, -3.863786383006791780 ) ) ;
#294 = DIRECTION ( 'NONE',  ( 0.000000000000000000, -1.000000000000000000, 0.000000000000000000 ) ) ;
#295 = DIRECTION ( 'NONE',  ( 0.000000000000000000, 1.000000000000000000, 0.000000000000000000 ) ) ;
#296 = DATE_TIME_ROLE ( 'classification_date' ) ;
#297 = ORIENTED_EDGE ( 'NONE', *, *, #546, .F. ) ;
#298 = LINE ( 'NONE', #1042, #126 ) ;
#299 = EDGE_LOOP ( 'NONE', ( #636, #35, #686, #653 ) ) ;
#300 = CARTESIAN_POINT ( 'NONE',  ( -2.525000000000005684, 4.914216501203577891, 3.230228320103700757 ) ) ;
#301 = VECTOR ( 'NONE', #274, 1000.000000000000000 ) ;
#302 = CALENDAR_DATE ( 2026, 26, 2 ) ;
#303 = ORIENTED_EDGE ( 'NONE', *, *, #238, .F. ) ;
#304 = CYLINDRICAL_SURFACE ( 'NONE', #983, 4.100000000000000533 ) ;
#305 = EDGE_LOOP ( 'NONE', ( #645, #1125, #730, #1012 ) ) ;
#306 = VECTOR ( 'NONE', #932, 1000.000000000000114 ) ;
#307 = DIRECTION ( 'NONE',  ( 0.000000000000000000, -1.000000000000000000, 0.000000000000000000 ) ) ;
#308 = EDGE_LOOP ( 'NONE', ( #1043, #498, #523 ) ) ;
#309 = CARTESIAN_POINT ( 'NONE',  ( 3.242820602019657272, 10.61820644270309266, -2.302948325245993910 ) ) ;
#310 = ORIENTED_EDGE ( 'NONE', *, *, #975, .T. ) ;
#311 = LINE ( 'NONE', #386, #605 ) ;
#312 = CARTESIAN_POINT ( 'NONE',  ( -1.500000000000000222, -0.0009999999999992653654, -1.499999999999999556 ) ) ;
#313 = ORIENTED_EDGE ( 'NONE', *, *, #529, .T. ) ;
#314 = CARTESIAN_POINT ( 'NONE',  ( -3.700005009116823285, 5.428125563619570215, 1.203240920126286584 ) ) ;
#315 = DIRECTION ( 'NONE',  ( 0.000000000000000000, 0.000000000000000000, 1.000000000000000000 ) ) ;
#316 = VERTEX_POINT ( 'NONE', #1039 ) ;
#317 = EDGE_CURVE ( 'NONE', #1051, #893, #426, .T. ) ;
#318 = AXIS2_PLACEMENT_3D ( 'NONE', #332, #708, #251 ) ;
#319 = CARTESIAN_POINT ( 'NONE',  ( 0.7500000000000000000, 9.399999999999998579, 0.000000000000000000 ) ) ;
#320 = ADVANCED_FACE ( 'NONE', ( #72 ), #189, .T. ) ;
#321 = VECTOR ( 'NONE', #1091, 1000.000000000000000 ) ;
#322 = CC_DESIGN_SECURITY_CLASSIFICATION ( #135, ( #614 ) ) ;
#323 = CARTESIAN_POINT ( 'NONE',  ( 1.500000000000000000, 9.400000000000000355, 1.500000000000000444 ) ) ;
#324 = ORIENTED_EDGE ( 'NONE', *, *, #411, .F. ) ;
#325 = CARTESIAN_POINT ( 'NONE',  ( 0.7500000000000009992, 9.969181224614532155, 4.030818775385467845 ) ) ;
#326 = CARTESIAN_POINT ( 'NONE',  ( 3.849745816441777269, 4.700122992014416745, 0.3103800561777428912 ) ) ;
#327 = EDGE_CURVE ( 'NONE', #1034, #676, #220, .T. ) ;
#328 = CARTESIAN_POINT ( 'NONE',  ( -1.764910294059779172, 9.525036497322830087, -3.728844034693160836 ) ) ;
#329 = DIRECTION ( 'NONE',  ( -0.000000000000000000, -1.000000000000000000, -0.000000000000000000 ) ) ;
#330 = EDGE_LOOP ( 'NONE', ( #1198, #89, #70, #855, #313 ) ) ;
#331 = CARTESIAN_POINT ( 'NONE',  ( -3.850258436681590180, 5.500125049973922486, -0.2985989158785863906 ) ) ;
#332 = CARTESIAN_POINT ( 'NONE',  ( 0.000000000000000000, 15.40000000000000036, 0.000000000000000000 ) ) ;
#333 = B_SPLINE_CURVE_WITH_KNOTS ( 'NONE', 3,
 ( #651, #757, #656, #1109 ),
 .UNSPECIFIED., .F., .F.,
 ( 4, 4 ),
 ( 0.002743102828916770160, 0.003506612203656222192 ),
 .UNSPECIFIED. ) ;
#334 = ADVANCED_FACE ( 'NONE', ( #494 ), #403, .F. ) ;
#335 = CIRCLE ( 'NONE', #1020, 4.100000000000000533 ) ;
#336 = CIRCLE ( 'NONE', #1139, 3.700000000000008171 ) ;
#337 = FACE_OUTER_BOUND ( 'NONE', #761, .T. ) ;
#338 = ORIENTED_EDGE ( 'NONE', *, *, #536, .T. ) ;
#339 = CARTESIAN_POINT ( 'NONE',  ( -3.820957469306101473, 5.485850599844664721, -0.5988374069622531826 ) ) ;
#340 = VECTOR ( 'NONE', #582, 1000.000000000000000 ) ;
#341 = CIRCLE ( 'NONE', #969, 4.599999999999999645 ) ;
#342 = LOCAL_TIME ( 21, 21, 46.00000000000000000, #1116 ) ;
#343 = CARTESIAN_POINT ( 'NONE',  ( -2.347211839713584602, 15.26668224042964006, 3.030678378027354736 ) ) ;
#344 = CARTESIAN_POINT ( 'NONE',  ( 1.536233865666791099, 5.481880088839483633, 3.804836708623651198 ) ) ;
#345 = EDGE_CURVE ( 'NONE', #925, #828, #810, .T. ) ;
#346 = ORIENTED_EDGE ( 'NONE', *, *, #269, .T. ) ;
#347 = CYLINDRICAL_SURFACE ( 'NONE', #511, 4.100000000000000533 ) ;
#348 = LINE ( 'NONE', #721, #321 ) ;
#349 = ORIENTED_EDGE ( 'NONE', *, *, #74, .T. ) ;
#350 = FACE_OUTER_BOUND ( 'NONE', #412, .T. ) ;
#351 = AXIS2_PLACEMENT_3D ( 'NONE', #590, #800, #1156 ) ;
#352 = FACE_BOUND ( 'NONE', #1030, .T. ) ;
#353 = EDGE_LOOP ( 'NONE', ( #280, #718, #76, #429, #563, #1006 ) ) ;
#354 = VECTOR ( 'NONE', #1037, 1000.000000000000000 ) ;
#355 = CARTESIAN_POINT ( 'NONE',  ( -0.8971696036845382416, 5.926633808025622230, -4.006953149074629295 ) ) ;
#356 = ADVANCED_FACE ( 'NONE', ( #1172 ), #671, .T. ) ;
#357 = ORIENTED_EDGE ( 'NONE', *, *, #546, .T. ) ;
#358 = CC_DESIGN_PERSON_AND_ORGANIZATION_ASSIGNMENT ( #557, #570, ( #1155 ) ) ;
#359 = CARTESIAN_POINT ( 'NONE',  ( 0.7500000000000000000, 15.40000000000000036, 7.758315481586230702E-17 ) ) ;
#360 = ORIENTED_EDGE ( 'NONE', *, *, #1154, .T. ) ;
#361 = DIRECTION ( 'NONE',  ( -0.000000000000000000, 1.000000000000000000, -0.000000000000000000 ) ) ;
#362 = CYLINDRICAL_SURFACE ( 'NONE', #1182, 2.600000000000000089 ) ;
#363 = ORIENTED_EDGE ( 'NONE', *, *, #199, .F. ) ;
#364 = EDGE_CURVE ( 'NONE', #385, #527, #1065, .T. ) ;
#365 = DIRECTION ( 'NONE',  ( -0.000000000000000000, -1.000000000000000000, -0.000000000000000000 ) ) ;
#366 = MECHANICAL_CONTEXT ( 'NONE', #90, 'mechanical' ) ;
#367 = ORIENTED_EDGE ( 'NONE', *, *, #586, .T. ) ;
#368 = DIRECTION ( 'NONE',  ( -0.000000000000000000, -1.000000000000000000, -0.000000000000000000 ) ) ;
#369 = DIRECTION ( 'NONE',  ( -1.000000000000000000, 0.000000000000000000, 0.000000000000000000 ) ) ;
#370 = EDGE_CURVE ( 'NONE', #769, #167, #1163, .T. ) ;
#371 = DIRECTION ( 'NONE',  ( 1.000000000000000000, 0.000000000000000000, 0.000000000000000000 ) ) ;
#372 = APPROVAL_ROLE ( '' ) ;
#373 = ORIENTED_EDGE ( 'NONE', *, *, #270, .T. ) ;
#374 = CARTESIAN_POINT ( 'NONE',  ( 2.525000000000003020, 10.31421650120357825, -3.230228320103702533 ) ) ;
#375 = FACE_OUTER_BOUND ( 'NONE', #330, .T. ) ;
#376 = CARTESIAN_POINT ( 'NONE',  ( 0.7500000000000000000, 6.199999999999999289, 0.000000000000000000 ) ) ;
#377 = EDGE_LOOP ( 'NONE', ( #1107, #1001, #400, #97 ) ) ;
#378 = EDGE_CURVE ( 'NONE', #513, #532, #630, .T. ) ;
#379 = CARTESIAN_POINT ( 'NONE',  ( 0.7499999999999991118, 5.630818775385466601, 4.030818775385467845 ) ) ;
#380 = DIRECTION ( 'NONE',  ( 0.000000000000000000, 1.000000000000000000, 0.000000000000000000 ) ) ;
#381 = CARTESIAN_POINT ( 'NONE',  ( 0.7500000000000005551, 6.199999999999999289, 4.599999999999999645 ) ) ;
#382 = CALENDAR_DATE ( 2026, 26, 2 ) ;
#383 = ORIENTED_EDGE ( 'NONE', *, *, #951, .T. ) ;
#384 = CARTESIAN_POINT ( 'NONE',  ( 1.983911694938609305, 10.20526578689540464, -3.602954601980457472 ) ) ;
#385 = VERTEX_POINT ( 'NONE', #1008 ) ;
#386 = CARTESIAN_POINT ( 'NONE',  ( -2.525000000000004796, 15.40000000000000036, 3.230228320103700312 ) ) ;
#387 = DIRECTION ( 'NONE',  ( -0.000000000000000000, -1.000000000000000000, -0.000000000000000000 ) ) ;
#388 = COORDINATED_UNIVERSAL_TIME_OFFSET ( 8, 0, .AHEAD. ) ;
#389 = ORIENTED_EDGE ( 'NONE', *, *, #327, .F. ) ;
#390 = CARTESIAN_POINT ( 'NONE',  ( 0.7500000000000004441, 9.969181224614532155, -4.030818775385467845 ) ) ;
#391 = EDGE_LOOP ( 'NONE', ( #363, #950, #117, #360 ) ) ;
#392 = DIRECTION ( 'NONE',  ( 0.000000000000000000, 0.000000000000000000, 1.000000000000000000 ) ) ;
#393 = AXIS2_PLACEMENT_3D ( 'NONE', #312, #685, #695 ) ;
#394 = EDGE_CURVE ( 'NONE', #956, #888, #1194, .T. ) ;
#395 = CARTESIAN_POINT ( 'NONE',  ( 2.915760937699310773, 5.123892532505687214, -2.794693211596180227 ) ) ;
#396 = CIRCLE ( 'NONE', #1081, 4.100000000000000533 ) ;
#397 = ORIENTED_EDGE ( 'NONE', *, *, #59, .F. ) ;
#398 = CIRCLE ( 'NONE', #806, 0.5000000000000002220 ) ;
#399 = LINE ( 'NONE', #667, #206 ) ;
#400 = ORIENTED_EDGE ( 'NONE', *, *, #701, .T. ) ;
#401 = CARTESIAN_POINT ( 'NONE',  ( 2.347211839713583714, 15.26668224042964006, -3.030678378027356068 ) ) ;
#402 = EDGE_CURVE ( 'NONE', #575, #163, #78, .T. ) ;
#403 = PLANE ( 'NONE',  #496 ) ;
#404 = CARTESIAN_POINT ( 'NONE',  ( -2.525000000000002132, 9.400000000000000355, -3.230228320103702977 ) ) ;
#405 = PLANE ( 'NONE',  #1078 ) ;
#406 = ORIENTED_EDGE ( 'NONE', *, *, #22, .F. ) ;
#407 = CARTESIAN_POINT ( 'NONE',  ( -2.731558230997976011, 4.998279318945893834, 3.020807146278859712 ) ) ;
#408 = DIRECTION ( 'NONE',  ( -0.000000000000000000, -1.000000000000000000, -0.000000000000000000 ) ) ;
#409 = ADVANCED_FACE ( 'NONE', ( #1200 ), #362, .F. ) ;
#410 = CARTESIAN_POINT ( 'NONE',  ( 3.819142741191022594, 10.88497734744215784, -0.6107663392647094680 ) ) ;
#411 = EDGE_CURVE ( 'NONE', #176, #488, #83, .T. ) ;
#412 = EDGE_LOOP ( 'NONE', ( #609, #745, #833, #1103 ) ) ;
#413 = CARTESIAN_POINT ( 'NONE',  ( 1.499999999999999778, 9.400000000000000355, -1.499999999999999556 ) ) ;
#414 = CARTESIAN_POINT ( 'NONE',  ( 2.339973189144064492, 9.400000000000000355, -1.133369081141247126 ) ) ;
#415 = CARTESIAN_POINT ( 'NONE',  ( -2.162858705708746498, 9.459044776243139552, -3.513306380683663299 ) ) ;
#416 = CARTESIAN_POINT ( 'NONE',  ( 2.525000000000004352, 10.31421650120357825, 3.230228320103701645 ) ) ;
#417 = ORIENTED_EDGE ( 'NONE', *, *, #80, .F. ) ;
#418 = DIRECTION ( 'NONE',  ( -0.000000000000000000, -1.000000000000000000, -0.000000000000000000 ) ) ;
#419 = CARTESIAN_POINT ( 'NONE',  ( -1.999999999999999556, 22.34262198308391234, -2.000000000000000444 ) ) ;
#420 = FACE_OUTER_BOUND ( 'NONE', #377, .T. ) ;
#421 = ORIENTED_EDGE ( 'NONE', *, *, #165, .T. ) ;
#422 = CARTESIAN_POINT ( 'NONE',  ( -1.500000000000000222, 15.40000000000000036, -1.499999999999999556 ) ) ;
#423 = EDGE_CURVE ( 'NONE', #893, #918, #524, .T. ) ;
#424 = B_SPLINE_CURVE_WITH_KNOTS ( 'NONE', 3,
 ( #1007, #533, #1105, #355, #735, #727, #741, #835, #525, #1013 ),
 .UNSPECIFIED., .F., .F.,
 ( 4, 2, 2, 2, 4 ),
 ( 0.002750480160413431695, 0.003435119296874062592, 0.004119758433334693923, 0.004804397569795324820, 0.005489036706255955717 ),
 .UNSPECIFIED. ) ;
#425 = DIRECTION ( 'NONE',  ( 0.000000000000000000, 0.000000000000000000, -1.000000000000000000 ) ) ;
#426 = B_SPLINE_CURVE_WITH_KNOTS ( 'NONE', 3,
 ( #1123, #201, #853, #940, #431, #678, #1178, #714, #989, #1053, #326, #577, #156, #42, #699, #33, #129, #395, #900, #867 ),
 .UNSPECIFIED., .F., .F.,
 ( 4, 2, 2, 2, 2, 2, 2, 2, 2, 4 ),
 ( 0.003020645607048322821, 0.003925458339511592176, 0.004830271071974861531, 0.005282677438206496642, 0.005735083804438130886, 0.006639896536901401108, 0.007544709269364671331, 0.008449522001827941553, 0.009354334734291211775, 0.01025914746675448200 ),
 .UNSPECIFIED. ) ;
#427 = DIRECTION ( 'NONE',  ( -0.000000000000000000, -1.000000000000000000, -0.000000000000000000 ) ) ;
#428 = DIRECTION ( 'NONE',  ( 0.000000000000000000, 1.000000000000000000, -0.000000000000000000 ) ) ;
#429 = ORIENTED_EDGE ( 'NONE', *, *, #618, .F. ) ;
#430 = CARTESIAN_POINT ( 'NONE',  ( -3.818738262088249513, 5.484781278746324595, 0.6139739290572825414 ) ) ;
#431 = CARTESIAN_POINT ( 'NONE',  ( 3.382123027880952648, 4.919098326846869540, 2.043272838049488893 ) ) ;
#432 = AXIS2_PLACEMENT_3D ( 'NONE', #1119, #931, #957 ) ;
#433 = CARTESIAN_POINT ( 'NONE',  ( -2.525000000000004796, 15.00000000000001066, 3.230228320103700312 ) ) ;
#434 = DIRECTION ( 'NONE',  ( 0.000000000000000000, 1.000000000000000000, 0.000000000000000000 ) ) ;
#435 = ORIENTED_EDGE ( 'NONE', *, *, #595, .F. ) ;
#436 = CARTESIAN_POINT ( 'NONE',  ( 2.344080529184156436, 4.029497739806931378, -3.371649179108289651 ) ) ;
#437 = DIRECTION ( 'NONE',  ( 0.000000000000000000, 0.000000000000000000, -1.000000000000000000 ) ) ;
#438 = APPROVAL_PERSON_ORGANIZATION ( #1029, #506, #191 ) ;
#439 = B_SPLINE_CURVE_WITH_KNOTS ( 'NONE', 3,
 ( #982, #883, #56, #794, #1166, #325 ),
 .UNSPECIFIED., .F., .F.,
 ( 4, 2, 4 ),
 ( 2.534468550097898047E-07, 0.0009932629550745558644, 0.001986272463294102165 ),
 .UNSPECIFIED. ) ;
#440 = CARTESIAN_POINT ( 'NONE',  ( -2.293594059453920142, 9.437729229436861544, 3.411113366601003172 ) ) ;
#441 = DIRECTION ( 'NONE',  ( -0.000000000000000000, -1.000000000000000000, -0.000000000000000000 ) ) ;
#442 = ORIENTED_EDGE ( 'NONE', *, *, #87, .T. ) ;
#443 = CARTESIAN_POINT ( 'NONE',  ( 2.525000000000003020, 4.000000000000003553, -3.230228320103702533 ) ) ;
#444 = EDGE_CURVE ( 'NONE', #532, #942, #229, .T. ) ;
#445 = CARTESIAN_POINT ( 'NONE',  ( 0.7500000000000000000, 6.199999999999999289, 0.000000000000000000 ) ) ;
#446 = EDGE_LOOP ( 'NONE', ( #160, #119, #1133, #1036, #29, #268, #421, #823, #1183, #936, #324, #172 ) ) ;
#447 = ADVANCED_FACE ( 'NONE', ( #742 ), #650, .T. ) ;
#448 = CARTESIAN_POINT ( 'NONE',  ( 2.525000000000003020, 15.00000000000001066, -3.230228320103702533 ) ) ;
#449 = CARTESIAN_POINT ( 'NONE',  ( 2.263793923333907276, 5.338934900001496509, -3.434407492045553401 ) ) ;
#450 = AXIS2_PLACEMENT_3D ( 'NONE', #1186, #924, #711 ) ;
#451 = VECTOR ( 'NONE', #9, 1000.000000000000000 ) ;
#452 = CARTESIAN_POINT ( 'NONE',  ( 2.263963562700209042, 5.338900381011230323, 3.434274888601630327 ) ) ;
#453 = EDGE_LOOP ( 'NONE', ( #734, #1014, #801, #222 ) ) ;
#454 = CONICAL_SURFACE ( 'NONE', #11, 3.700000000000008171, 0.7853981633974504994 ) ;
#455 = LINE ( 'NONE', #1199, #301 ) ;
#456 = AXIS2_PLACEMENT_3D ( 'NONE', #65, #505, #612 ) ;
#457 = ORIENTED_EDGE ( 'NONE', *, *, #618, .T. ) ;
#458 = CARTESIAN_POINT ( 'NONE',  ( 1.999999999999999556, 22.34262198308391234, -1.500000000000000222 ) ) ;
#459 = CARTESIAN_POINT ( 'NONE',  ( -2.339973189144065380, 22.34262198308391234, -1.133369081141247126 ) ) ;
#460 = ORIENTED_EDGE ( 'NONE', *, *, #1061, .F. ) ;
#461 = FACE_OUTER_BOUND ( 'NONE', #540, .T. ) ;
#462 = EDGE_CURVE ( 'NONE', #828, #246, #341, .T. ) ;
#463 = DIRECTION ( 'NONE',  ( -0.000000000000000000, -1.000000000000000000, -0.000000000000000000 ) ) ;
#464 = DATE_TIME_ROLE ( 'creation_date' ) ;
#465 = ORIENTED_EDGE ( 'NONE', *, *, #698, .T. ) ;
#466 = DIRECTION ( 'NONE',  ( 0.000000000000000000, 0.000000000000000000, -1.000000000000000000 ) ) ;
#467 = CARTESIAN_POINT ( 'NONE',  ( 1.499999999999999778, -0.0009999999999992653654, -1.499999999999999556 ) ) ;
#468 = EDGE_CURVE ( 'NONE', #888, #1150, #1122, .T. ) ;
#469 = FACE_OUTER_BOUND ( 'NONE', #910, .T. ) ;
#470 = VERTEX_POINT ( 'NONE', #104 ) ;
#471 = CARTESIAN_POINT ( 'NONE',  ( 2.525000000000003020, 5.285783498796421398, -3.230228320103702533 ) ) ;
#472 = CARTESIAN_POINT ( 'NONE',  ( 2.436101691436198813, 15.13334746284571430, -3.130465598522014670 ) ) ;
#473 = CARTESIAN_POINT ( 'NONE',  ( 0.7500000000000000000, 15.40000000000000036, -4.600000000000000533 ) ) ;
#474 = APPROVAL_DATE_TIME ( #652, #829 ) ;
#475 = EDGE_LOOP ( 'NONE', ( #552, #234, #1048, #349, #504 ) ) ;
#476 = EDGE_CURVE ( 'NONE', #575, #769, #988, .T. ) ;
#477 = DIRECTION ( 'NONE',  ( 8.659560562354931626E-17, 0.7071067811865477948, -0.7071067811865473507 ) ) ;
#478 = ORIENTED_EDGE ( 'NONE', *, *, #716, .F. ) ;
#479 = LINE ( 'NONE', #852, #649 ) ;
#480 = CARTESIAN_POINT ( 'NONE',  ( 0.7500000000000004441, 9.969181224614532155, -4.030818775385467845 ) ) ;
#481 = ORIENTED_EDGE ( 'NONE', *, *, #916, .T. ) ;
#482 = B_SPLINE_CURVE_WITH_KNOTS ( 'NONE', 3,
 ( #267, #1002, #825, #528, #926, #904, #77, #71, #436, #443 ),
 .UNSPECIFIED., .F., .F.,
 ( 4, 2, 2, 2, 4 ),
 ( 0.002750480160413429961, 0.003435119296874060424, 0.004119758433334691321, 0.004804397569795321350, 0.005489036706255951380 ),
 .UNSPECIFIED. ) ;
#483 = EDGE_CURVE ( 'NONE', #196, #575, #336, .T. ) ;
#484 = FACE_OUTER_BOUND ( 'NONE', #622, .T. ) ;
#485 = ORIENTED_EDGE ( 'NONE', *, *, #1161, .T. ) ;
#486 = EDGE_CURVE ( 'NONE', #163, #726, #884, .T. ) ;
#487 = LINE ( 'NONE', #467, #354 ) ;
#488 = VERTEX_POINT ( 'NONE', #300 ) ;
#489 = DIRECTION ( 'NONE',  ( -0.000000000000000000, -1.000000000000000000, -0.000000000000000000 ) ) ;
#490 = EDGE_LOOP ( 'NONE', ( #257, #303, #930, #478 ) ) ;
#491 = DIRECTION ( 'NONE',  ( -0.000000000000000000, -1.000000000000000000, -0.000000000000000000 ) ) ;
#492 = AXIS2_PLACEMENT_3D ( 'NONE', #703, #1076, #607 ) ;
#493 = AXIS2_PLACEMENT_3D ( 'NONE', #319, #418, #145 ) ;
#494 = FACE_OUTER_BOUND ( 'NONE', #843, .T. ) ;
#495 = CARTESIAN_POINT ( 'NONE',  ( -7.837840640166284244E-17, 5.768033109273484449, -4.100000000000000533 ) ) ;
#496 = AXIS2_PLACEMENT_3D ( 'NONE', #777, #242, #516 ) ;
#497 = CARTESIAN_POINT ( 'NONE',  ( -1.999999999999999556, 0.000000000000000000, -2.000000000000000444 ) ) ;
#498 = ORIENTED_EDGE ( 'NONE', *, *, #106, .T. ) ;
#499 = CARTESIAN_POINT ( 'NONE',  ( -3.614141935463599076, 5.387475153662649952, -1.484263673078018542 ) ) ;
#500 = B_SPLINE_CURVE_WITH_KNOTS ( 'NONE', 3,
 ( #390, #193, #768, #293, #938, #384, #1143, #374 ),
 .UNSPECIFIED., .F., .F.,
 ( 4, 2, 2, 4 ),
 ( 0.003506612203656222192, 0.004003171242987759934, 0.004499730282319296809, 0.005492848360982372294 ),
 .UNSPECIFIED. ) ;
#501 = EDGE_CURVE ( 'NONE', #266, #246, #1128, .T. ) ;
#502 = CARTESIAN_POINT ( 'NONE',  ( 0.7499999999999996669, 5.630818775385466601, -4.030818775385467845 ) ) ;
#503 = CARTESIAN_POINT ( 'NONE',  ( 0.000000000000000000, 15.40000000000000036, 0.000000000000000000 ) ) ;
#504 = ORIENTED_EDGE ( 'NONE', *, *, #792, .F. ) ;
#505 = DIRECTION ( 'NONE',  ( -0.000000000000000000, -1.000000000000000000, -0.000000000000000000 ) ) ;
#506 = APPROVAL ( #1110, 'UNSPECIFIED' ) ;
#507 = CARTESIAN_POINT ( 'NONE',  ( 3.730553948569144129, 10.84270103701392252, -1.052217440266475013 ) ) ;
#508 = VERTEX_POINT ( 'NONE', #289 ) ;
#509 = CARTESIAN_POINT ( 'NONE',  ( 0.7500000000000000000, 10.90000000000000036, -3.100000000000000533 ) ) ;
#510 = LINE ( 'NONE', #419, #788 ) ;
#511 = AXIS2_PLACEMENT_3D ( 'NONE', #1099, #368, #917 ) ;
#512 = LINE ( 'NONE', #596, #186 ) ;
#513 = VERTEX_POINT ( 'NONE', #198 ) ;
#514 = AXIS2_PLACEMENT_3D ( 'NONE', #812, #1106, #1090 ) ;
#515 = DIRECTION ( 'NONE',  ( -1.000000000000000000, 0.000000000000000000, 0.000000000000000000 ) ) ;
#516 = DIRECTION ( 'NONE',  ( 1.000000000000000000, 0.000000000000000000, 0.000000000000000000 ) ) ;
#517 = LINE ( 'NONE', #891, #728 ) ;
#518 = CARTESIAN_POINT ( 'NONE',  ( 3.613175262444520808, 10.78701997315001293, 1.487261173578404927 ) ) ;
#519 = ORIENTED_EDGE ( 'NONE', *, *, #501, .F. ) ;
#520 = FACE_BOUND ( 'NONE', #857, .T. ) ;
#521 = CARTESIAN_POINT ( 'NONE',  ( -1.247459272898772564, 9.612970080902528025, 3.916230518172092445 ) ) ;
#522 = DIRECTION ( 'NONE',  ( 0.000000000000000000, 0.000000000000000000, -1.000000000000000000 ) ) ;
#523 = ORIENTED_EDGE ( 'NONE', *, *, #687, .F. ) ;
#524 = B_SPLINE_CURVE_WITH_KNOTS ( 'NONE', 3,
 ( #99, #449, #4, #275, #1019, #187 ),
 .UNSPECIFIED., .F., .F.,
 ( 4, 2, 4 ),
 ( 2.534468550094133515E-07, 0.0009932629550745554307, 0.001986272463294101731 ),
 .UNSPECIFIED. ) ;
#525 = CARTESIAN_POINT ( 'NONE',  ( -2.344080529184157768, 6.170502260193068800, -3.371649179108290095 ) ) ;
#526 = DIRECTION ( 'NONE',  ( -0.000000000000000000, -1.000000000000000000, -0.000000000000000000 ) ) ;
#527 = VERTEX_POINT ( 'NONE', #859 ) ;
#528 = CARTESIAN_POINT ( 'NONE',  ( 0.8971696036845383526, 4.273366191974376171, -4.006953149074631071 ) ) ;
#529 = EDGE_CURVE ( 'NONE', #167, #254, #646, .T. ) ;
#530 = EDGE_CURVE ( 'NONE', #819, #1077, #487, .T. ) ;
#531 = CARTESIAN_POINT ( 'NONE',  ( 2.525000000000004352, 15.40000000000000036, 3.230228320103701645 ) ) ;
#532 = VERTEX_POINT ( 'NONE', #32 ) ;
#533 = CARTESIAN_POINT ( 'NONE',  ( -0.2271478949511288037, 5.808906326147488919, -4.100000000000005862 ) ) ;
#534 = DIRECTION ( 'NONE',  ( -0.000000000000000000, -1.000000000000000000, -0.000000000000000000 ) ) ;
#535 = PLANE ( 'NONE',  #541 ) ;
#536 = EDGE_CURVE ( 'NONE', #58, #809, #10, .T. ) ;
#537 = ORIENTED_EDGE ( 'NONE', *, *, #444, .T. ) ;
#538 = ADVANCED_FACE ( 'NONE', ( #375, #776 ), #747, .T. ) ;
#539 = CARTESIAN_POINT ( 'NONE',  ( 2.258333333333347515, 15.40000000000000036, 2.930858330857284422 ) ) ;
#540 = EDGE_LOOP ( 'NONE', ( #1165, #457, #798, #627 ) ) ;
#541 = AXIS2_PLACEMENT_3D ( 'NONE', #162, #1102, #717 ) ;
#542 = DIRECTION ( 'NONE',  ( 0.000000000000000000, 0.000000000000000000, 1.000000000000000000 ) ) ;
#543 = CIRCLE ( 'NONE', #223, 4.600000000000000533 ) ;
#544 = DIRECTION ( 'NONE',  ( -0.000000000000000000, -1.000000000000000000, -0.000000000000000000 ) ) ;
#545 = ORIENTED_EDGE ( 'NONE', *, *, #1118, .T. ) ;
#546 = EDGE_CURVE ( 'NONE', #273, #809, #66, .T. ) ;
#547 = CARTESIAN_POINT ( 'NONE',  ( -0.7500000000000000000, 15.40000000000000036, 9.184850993605149670E-17 ) ) ;
#548 = CIRCLE ( 'NONE', #493, 4.600000000000000533 ) ;
#549 = CARTESIAN_POINT ( 'NONE',  ( -0.7500000000000005551, 4.000000000000000000, 0.000000000000000000 ) ) ;
#550 = CARTESIAN_POINT ( 'NONE',  ( -1.999999999999999556, 9.400000000000000355, -2.000000000000000888 ) ) ;
#551 = DATE_AND_TIME ( #302, #594 ) ;
#552 = ORIENTED_EDGE ( 'NONE', *, *, #536, .F. ) ;
#553 = DIRECTION ( 'NONE',  ( -0.000000000000000000, -1.000000000000000000, -0.000000000000000000 ) ) ;
#554 = CARTESIAN_POINT ( 'NONE',  ( -0.7500000000000005551, 4.000000000000000000, 0.000000000000000000 ) ) ;
#555 = ADVANCED_FACE ( 'NONE', ( #677 ), #454, .T. ) ;
#556 = CARTESIAN_POINT ( 'NONE',  ( 0.7499999999999991118, 5.630818775385466601, 4.030818775385467845 ) ) ;
#557 = PERSON_AND_ORGANIZATION ( #832, #95 ) ;
#558 = EDGE_LOOP ( 'NONE', ( #964, #712, #958, #1101 ) ) ;
#559 = CARTESIAN_POINT ( 'NONE',  ( -0.6877582502633553529, 5.890278644915087902, 4.052209987751767883 ) ) ;
#560 = CARTESIAN_POINT ( 'NONE',  ( 0.7500000000000000000, 6.199999999999999289, 4.599999999999999645 ) ) ;
#561 = DIRECTION ( 'NONE',  ( 0.000000000000000000, 0.000000000000000000, 1.000000000000000000 ) ) ;
#562 = PERSON_AND_ORGANIZATION_ROLE ( 'classification_officer' ) ;
#563 = ORIENTED_EDGE ( 'NONE', *, *, #879, .T. ) ;
#564 = DIRECTION ( 'NONE',  ( -0.000000000000000000, -1.000000000000000000, -0.000000000000000000 ) ) ;
#565 = ORIENTED_EDGE ( 'NONE', *, *, #976, .F. ) ;
#566 = CARTESIAN_POINT ( 'NONE',  ( -2.163283458595014697, 4.840612773219466369, -3.512974360488326120 ) ) ;
#567 = AXIS2_PLACEMENT_3D ( 'NONE', #719, #168, #1112 ) ;
#568 = EDGE_CURVE ( 'NONE', #196, #726, #834, .T. ) ;
#569 = CARTESIAN_POINT ( 'NONE',  ( 0.7500000000000004441, 10.90000000000000036, 3.100000000000000533 ) ) ;
#570 = PERSON_AND_ORGANIZATION_ROLE ( 'design_owner' ) ;
#571 = ORIENTED_EDGE ( 'NONE', *, *, #501, .T. ) ;
#572 = ADVANCED_FACE ( 'NONE', ( #845 ), #55, .T. ) ;
#573 = LINE ( 'NONE', #774, #861 ) ;
#574 = CONICAL_SURFACE ( 'NONE', #971, 4.200000000000008171, 0.7853981633974504994 ) ;
#575 = VERTEX_POINT ( 'NONE', #224 ) ;
#576 = CARTESIAN_POINT ( 'NONE',  ( 0.000000000000000000, 15.40000000000000036, 0.000000000000000000 ) ) ;
#577 = CARTESIAN_POINT ( 'NONE',  ( 3.850251060467119846, 4.699878519158513512, -0.3027994977169772284 ) ) ;
#578 = EDGE_LOOP ( 'NONE', ( #737, #64, #86, #205, #980 ) ) ;
#579 = CARTESIAN_POINT ( 'NONE',  ( 1.999999999999999556, 0.000000000000000000, -2.000000000000000444 ) ) ;
#580 = ORIENTED_EDGE ( 'NONE', *, *, #529, .F. ) ;
#581 = CARTESIAN_POINT ( 'NONE',  ( 0.000000000000000000, 15.40000000000000036, 0.000000000000000000 ) ) ;
#582 = DIRECTION ( 'NONE',  ( -1.000000000000000000, 0.000000000000000000, -0.000000000000000000 ) ) ;
#583 = CONICAL_SURFACE ( 'NONE', #67, 4.599999999999999645, 0.7853981633974480570 ) ;
#584 = CARTESIAN_POINT ( 'NONE',  ( 3.693853233498748168, 10.82527698930871907, -1.197863120514544910 ) ) ;
#585 = EDGE_LOOP ( 'NONE', ( #112, #227, #460, #373 ) ) ;
#586 = EDGE_CURVE ( 'NONE', #751, #815, #311, .T. ) ;
#587 = DIRECTION ( 'NONE',  ( 0.000000000000000000, 0.000000000000000000, -1.000000000000000000 ) ) ;
#588 = CIRCLE ( 'NONE', #36, 4.599999999999999645 ) ;
#589 = PERSON_AND_ORGANIZATION ( #832, #95 ) ;
#590 = CARTESIAN_POINT ( 'NONE',  ( 0.000000000000000000, 0.000000000000000000, 0.000000000000000000 ) ) ;
#591 = ORIENTED_EDGE ( 'NONE', *, *, #110, .F. ) ;
#592 = AXIS2_PLACEMENT_3D ( 'NONE', #1052, #294, #127 ) ;
#593 = DIRECTION ( 'NONE',  ( -0.000000000000000000, -1.000000000000000000, -0.000000000000000000 ) ) ;
#594 = LOCAL_TIME ( 21, 21, 46.00000000000000000, #388 ) ;
#595 = EDGE_CURVE ( 'NONE', #192, #956, #479, .T. ) ;
#596 = CARTESIAN_POINT ( 'NONE',  ( -1.500000000000000222, 15.40000000000000036, -1.499999999999999556 ) ) ;
#597 = ORIENTED_EDGE ( 'NONE', *, *, #792, .T. ) ;
#598 = CARTESIAN_POINT ( 'NONE',  ( -0.7500000000000000000, 15.40000000000000036, 9.184850993605149670E-17 ) ) ;
#599 = CYLINDRICAL_SURFACE ( 'NONE', #707, 4.100000000000000533 ) ;
#600 = VERTEX_POINT ( 'NONE', #689 ) ;
#601 = VECTOR ( 'NONE', #92, 1000.000000000000000 ) ;
#602 = LINE ( 'NONE', #509, #248 ) ;
#603 = AXIS2_PLACEMENT_3D ( 'NONE', #185, #30, #1126 ) ;
#604 = CONICAL_SURFACE ( 'NONE', #1114, 3.100000000000000533, 0.7853981633974480570 ) ;
#605 = VECTOR ( 'NONE', #1057, 1000.000000000000000 ) ;
#606 = CARTESIAN_POINT ( 'NONE',  ( 0.7500000000000000000, 15.00000000000001066, 7.758315481586230702E-17 ) ) ;
#607 = DIRECTION ( 'NONE',  ( 0.000000000000000000, 0.000000000000000000, 1.000000000000000000 ) ) ;
#608 = EDGE_CURVE ( 'NONE', #488, #273, #985, .T. ) ;
#609 = ORIENTED_EDGE ( 'NONE', *, *, #841, .T. ) ;
#610 = AXIS2_PLACEMENT_3D ( 'NONE', #458, #19, #1022 ) ;
#611 = AXIS2_PLACEMENT_3D ( 'NONE', #376, #295, #663 ) ;
#612 = DIRECTION ( 'NONE',  ( 0.000000000000000000, 0.000000000000000000, -1.000000000000000000 ) ) ;
#613 = CARTESIAN_POINT ( 'NONE',  ( 0.7500000000000000000, 9.399999999999998579, 0.000000000000000000 ) ) ;
#614 = PRODUCT_DEFINITION_FORMATION_WITH_SPECIFIED_SOURCE ( 'ANY', '', #1155, .NOT_KNOWN. ) ;
#615 = LOCAL_TIME ( 21, 21, 46.00000000000000000, #232 ) ;
#616 = CYLINDRICAL_SURFACE ( 'NONE', #450, 4.100000000000000533 ) ;
#617 = EDGE_LOOP ( 'NONE', ( #1195, #915, #183, #773 ) ) ;
#618 = EDGE_CURVE ( 'NONE', #139, #527, #602, .T. ) ;
#619 = PLANE ( 'NONE',  #263 ) ;
#620 = DIRECTION ( 'NONE',  ( -0.000000000000000000, -1.000000000000000000, -0.000000000000000000 ) ) ;
#621 = CARTESIAN_POINT ( 'NONE',  ( 1.381325949337623316, 5.511700188685725088, 3.863786383006791780 ) ) ;
#622 = EDGE_LOOP ( 'NONE', ( #213, #357, #597, #465, #109, #537, #203 ) ) ;
#623 = CARTESIAN_POINT ( 'NONE',  ( -2.258333333333341297, 15.40000000000000036, -2.930858330857289751 ) ) ;
#624 = ADVANCED_FACE ( 'NONE', ( #802 ), #873, .T. ) ;
#625 = ADVANCED_FACE ( 'NONE', ( #247 ), #161, .T. ) ;
#626 = CARTESIAN_POINT ( 'NONE',  ( 1.763853045343949377, 4.125212006088982974, 3.729410604048263078 ) ) ;
#627 = ORIENTED_EDGE ( 'NONE', *, *, #59, .T. ) ;
#628 = CARTESIAN_POINT ( 'NONE',  ( -2.525000000000004796, 9.400000000000000355, 3.230228320103700312 ) ) ;
#629 = VECTOR ( 'NONE', #365, 1000.000000000000000 ) ;
#630 = CIRCLE ( 'NONE', #903, 4.599999999999999645 ) ;
#631 = DIRECTION ( 'NONE',  ( -7.885106708985489034E-17, 1.000000000000000000, -0.000000000000000000 ) ) ;
#632 = CC_DESIGN_PERSON_AND_ORGANIZATION_ASSIGNMENT ( #28, #1141, ( #151 ) ) ;
#633 = CARTESIAN_POINT ( 'NONE',  ( 2.162403517339682502, 4.059118991738096760, 3.513662191641278465 ) ) ;
#634 = ORIENTED_EDGE ( 'NONE', *, *, #87, .F. ) ;
#635 = CARTESIAN_POINT ( 'NONE',  ( 1.499999999999999778, 9.400000000000000355, -1.499999999999999556 ) ) ;
#636 = ORIENTED_EDGE ( 'NONE', *, *, #402, .F. ) ;
#637 = CARTESIAN_POINT ( 'NONE',  ( 0.000000000000000000, 15.40000000000000036, -4.100000000000000533 ) ) ;
#638 = FACE_OUTER_BOUND ( 'NONE', #490, .T. ) ;
#639 = EDGE_LOOP ( 'NONE', ( #740, #902, #406, #1117 ) ) ;
#640 = B_SPLINE_CURVE_WITH_KNOTS ( 'NONE', 3,
 ( #1164, #790, #887, #309, #979, #1059, #690, #584, #507, #410, #233, #681, #138, #1055, #518, #49, #963, #53, #245, #970 ),
 .UNSPECIFIED., .F., .F.,
 ( 4, 2, 2, 2, 2, 2, 2, 2, 2, 4 ),
 ( 0.003020645607048328893, 0.003925458339511597380, 0.004830271071974865868, 0.005282677438206501846, 0.005735083804438136090, 0.006639896536901405445, 0.007544709269364674800, 0.008449522001827945022, 0.009354334734291215245, 0.01025914746675448547 ),
 .UNSPECIFIED. ) ;
#641 = CARTESIAN_POINT ( 'NONE',  ( 1.500000000000000000, 15.40000000000000036, 1.500000000000000444 ) ) ;
#642 = CARTESIAN_POINT ( 'NONE',  ( 0.000000000000000000, 22.34262198308391234, 0.000000000000000000 ) ) ;
#643 = FACE_OUTER_BOUND ( 'NONE', #1041, .T. ) ;
#644 = CARTESIAN_POINT ( 'NONE',  ( -0.4596833049524082782, 4.514694987072733312, 4.099616169522423803 ) ) ;
#645 = ORIENTED_EDGE ( 'NONE', *, *, #200, .T. ) ;
#646 = CIRCLE ( 'NONE', #767, 3.700000000000007727 ) ;
#647 = APPROVAL ( #225, 'UNSPECIFIED' ) ;
#648 = CARTESIAN_POINT ( 'NONE',  ( -2.525000000000004796, 6.199999999999999289, 3.230228320103700312 ) ) ;
#649 = VECTOR ( 'NONE', #26, 1000.000000000000000 ) ;
#650 = CONICAL_SURFACE ( 'NONE', #134, 4.599999999999999645, 0.7853981633974480570 ) ;
#651 = CARTESIAN_POINT ( 'NONE',  ( -2.205343931487647838E-16, 9.831966890726514308, -4.100000000000000533 ) ) ;
#652 = DATE_AND_TIME ( #750, #342 ) ;
#653 = ORIENTED_EDGE ( 'NONE', *, *, #486, .F. ) ;
#654 = CARTESIAN_POINT ( 'NONE',  ( -2.047269913181340328, 6.121648584112517888, 3.564035637697011705 ) ) ;
#655 = DIRECTION ( 'NONE',  ( 0.000000000000000000, -0.000000000000000000, 1.000000000000000000 ) ) ;
#656 = CARTESIAN_POINT ( 'NONE',  ( 0.5040351359113918184, 9.923415424079673031, -4.076584575920326969 ) ) ;
#657 = ORIENTED_EDGE ( 'NONE', *, *, #804, .T. ) ;
#658 = CARTESIAN_POINT ( 'NONE',  ( -1.249054761168951311, 5.987303912127909022, 3.915773154722025140 ) ) ;
#659 = ORIENTED_EDGE ( 'NONE', *, *, #841, .F. ) ;
#660 = DIRECTION ( 'NONE',  ( 0.000000000000000000, 0.7071067811865477948, 0.7071067811865473507 ) ) ;
#661 = EDGE_CURVE ( 'NONE', #676, #152, #782, .T. ) ;
#662 = ADVANCED_FACE ( 'NONE', ( #520, #1177 ), #619, .F. ) ;
#663 = DIRECTION ( 'NONE',  ( 0.000000000000000000, 0.000000000000000000, 1.000000000000000000 ) ) ;
#664 =( LENGTH_UNIT ( ) NAMED_UNIT ( * ) SI_UNIT ( .MILLI., .METRE. ) );
#665 = ORIENTED_EDGE ( 'NONE', *, *, #468, .T. ) ;
#666 = CONICAL_SURFACE ( 'NONE', #432, 4.599999999999999645, 0.7853981633974485010 ) ;
#667 = CARTESIAN_POINT ( 'NONE',  ( 2.525000000000003020, 15.40000000000000036, -3.230228320103702533 ) ) ;
#668 = ORIENTED_EDGE ( 'NONE', *, *, #238, .T. ) ;
#669 = CARTESIAN_POINT ( 'NONE',  ( -1.766249885335669623, 4.762037893629687879, -3.728142450189545709 ) ) ;
#670 = VECTOR ( 'NONE', #620, 1000.000000000000000 ) ;
#671 = CONICAL_SURFACE ( 'NONE', #318, 3.700000000000008171, 0.7853981633974504994 ) ;
#672 = APPROVAL_STATUS ( 'not_yet_approved' ) ;
#673 = VERTEX_POINT ( 'NONE', #414 ) ;
#674 = CARTESIAN_POINT ( 'NONE',  ( 0.000000000000000000, 15.40000000000000036, 0.000000000000000000 ) ) ;
#675 = LOCAL_TIME ( 21, 21, 46.00000000000000000, #116 ) ;
#676 = VERTEX_POINT ( 'NONE', #1074 ) ;
#677 = FACE_OUTER_BOUND ( 'NONE', #299, .T. ) ;
#678 = CARTESIAN_POINT ( 'NONE',  ( 3.554429737974596826, 4.839970136097915265, 1.629182550515340111 ) ) ;
#679 = ORIENTED_EDGE ( 'NONE', *, *, #237, .T. ) ;
#680 = EDGE_CURVE ( 'NONE', #152, #1191, #996, .T. ) ;
#681 = CARTESIAN_POINT ( 'NONE',  ( 3.850251060467121178, 10.90012148084148791, 0.3027994977169747859 ) ) ;
#682 = ORIENTED_EDGE ( 'NONE', *, *, #125, .F. ) ;
#683 = CARTESIAN_POINT ( 'NONE',  ( 0.3750000000000000000, 15.40000000000000036, 3.879157740793115351E-17 ) ) ;
#684 = SHAPE_DEFINITION_REPRESENTATION ( #968, #1168 ) ;
#685 = DIRECTION ( 'NONE',  ( -1.000000000000000000, 0.000000000000000000, 2.168404344971008868E-16 ) ) ;
#686 = ORIENTED_EDGE ( 'NONE', *, *, #568, .T. ) ;
#687 = EDGE_CURVE ( 'NONE', #1131, #815, #548, .T. ) ;
#688 = LINE ( 'NONE', #413, #211 ) ;
#689 = CARTESIAN_POINT ( 'NONE',  ( -2.339973189144065380, 0.000000000000000000, -1.133369081141247126 ) ) ;
#690 = CARTESIAN_POINT ( 'NONE',  ( 3.605928737114393545, 10.78400253672895914, -1.486133390226840989 ) ) ;
#691 = ORIENTED_EDGE ( 'NONE', *, *, #370, .F. ) ;
#692 = AXIS2_PLACEMENT_3D ( 'NONE', #256, #997, #522 ) ;
#693 = CARTESIAN_POINT ( 'NONE',  ( -3.375809180332439929, 5.278320274334938667, 2.039552923708479959 ) ) ;
#694 = EDGE_CURVE ( 'NONE', #995, #470, #439, .T. ) ;
#695 = DIRECTION ( 'NONE',  ( 2.168404344971008868E-16, 0.000000000000000000, 1.000000000000000000 ) ) ;
#696 = VERTEX_POINT ( 'NONE', #697 ) ;
#697 = CARTESIAN_POINT ( 'NONE',  ( -2.525000000000002132, 15.00000000000001066, -3.230228320103702977 ) ) ;
#698 = EDGE_CURVE ( 'NONE', #286, #513, #588, .T. ) ;
#699 = CARTESIAN_POINT ( 'NONE',  ( 3.613175262444518143, 4.812980026849988491, -1.487261173578407814 ) ) ;
#700 = B_SPLINE_CURVE_WITH_KNOTS ( 'NONE', 3,
 ( #648, #118, #654, #760, #658, #559, #16, #1149, #1031, #379 ),
 .UNSPECIFIED., .F., .F.,
 ( 4, 2, 2, 2, 4 ),
 ( 2.524706457985571928E-07, 0.0008768424038984047033, 0.001753432337151010966, 0.002630022270403617121, 0.003506612203656223059 ),
 .UNSPECIFIED. ) ;
#701 = EDGE_CURVE ( 'NONE', #1191, #1187, #889, .T. ) ;
#702 = DIRECTION ( 'NONE',  ( -0.000000000000000000, -1.000000000000000000, -0.000000000000000000 ) ) ;
#703 = CARTESIAN_POINT ( 'NONE',  ( -1.999999999999999556, 9.400000000000000355, -1.500000000000000222 ) ) ;
#704 = ORIENTED_EDGE ( 'NONE', *, *, #661, .F. ) ;
#705 = VECTOR ( 'NONE', #822, 1000.000000000000000 ) ;
#706 = CARTESIAN_POINT ( 'NONE',  ( -3.440499042489679304, 5.307706221285337200, 1.903184570771514927 ) ) ;
#707 = AXIS2_PLACEMENT_3D ( 'NONE', #503, #142, #984 ) ;
#708 = DIRECTION ( 'NONE',  ( 0.000000000000000000, -1.000000000000000000, 0.000000000000000000 ) ) ;
#709 = VECTOR ( 'NONE', #361, 1000.000000000000000 ) ;
#710 = AXIS2_PLACEMENT_3D ( 'NONE', #846, #6, #1129 ) ;
#711 = DIRECTION ( 'NONE',  ( 0.000000000000000000, 0.000000000000000000, -1.000000000000000000 ) ) ;
#712 = ORIENTED_EDGE ( 'NONE', *, *, #1188, .T. ) ;
#713 = CARTESIAN_POINT ( 'NONE',  ( -2.731666247954427362, 4.998323278509642975, -3.020697632183470649 ) ) ;
#714 = CARTESIAN_POINT ( 'NONE',  ( 3.693853233498748612, 4.774723010691279690, 1.197863120514542912 ) ) ;
#715 = CARTESIAN_POINT ( 'NONE',  ( -2.258333333333343518, 15.40000000000000036, 2.930858330857287530 ) ) ;
#716 = EDGE_CURVE ( 'NONE', #254, #196, #886, .T. ) ;
#717 = DIRECTION ( 'NONE',  ( 0.000000000000000000, -0.000000000000000000, 1.000000000000000000 ) ) ;
#718 = ORIENTED_EDGE ( 'NONE', *, *, #148, .T. ) ;
#719 = CARTESIAN_POINT ( 'NONE',  ( -1.500000000000000222, -0.0009999999999992653654, -1.499999999999999556 ) ) ;
#720 = LINE ( 'NONE', #1180, #670 ) ;
#721 = CARTESIAN_POINT ( 'NONE',  ( 0.7500000000000005551, 15.40000000000000036, 4.600000000000000533 ) ) ;
#722 = ORIENTED_EDGE ( 'NONE', *, *, #993, .T. ) ;
#723 = CARTESIAN_POINT ( 'NONE',  ( -1.369316728763810519E-16, 4.431966890726513064, -4.100000000000000533 ) ) ;
#724 = EDGE_CURVE ( 'NONE', #600, #508, #805, .T. ) ;
#725 = CARTESIAN_POINT ( 'NONE',  ( 0.9099667019973796123, 5.601054344587766742, 4.001054344587767098 ) ) ;
#726 = VERTEX_POINT ( 'NONE', #448 ) ;
#727 = CARTESIAN_POINT ( 'NONE',  ( -1.545956863820310057, 6.037654701597059415, -3.804174581720165094 ) ) ;
#728 = VECTOR ( 'NONE', #1151, 1000.000000000000000 ) ;
#729 = AXIS2_PLACEMENT_3D ( 'NONE', #1147, #1153, #437 ) ;
#730 = ORIENTED_EDGE ( 'NONE', *, *, #1070, .T. ) ;
#731 = VECTOR ( 'NONE', #174, 1000.000000000000000 ) ;
#732 = AXIS2_PLACEMENT_3D ( 'NONE', #949, #279, #209 ) ;
#733 = LINE ( 'NONE', #1190, #601 ) ;
#734 = ORIENTED_EDGE ( 'NONE', *, *, #1135, .T. ) ;
#735 = CARTESIAN_POINT ( 'NONE',  ( -1.115715736729837593, 5.964334721348807378, -3.951823030932981151 ) ) ;
#736 = DIRECTION ( 'NONE',  ( -0.000000000000000000, -1.000000000000000000, -0.000000000000000000 ) ) ;
#737 = ORIENTED_EDGE ( 'NONE', *, *, #184, .F. ) ;
#738 = PRODUCT_RELATED_PRODUCT_CATEGORY ( 'detail', '', ( #1155 ) ) ;
#739 = DIRECTION ( 'NONE',  ( 0.000000000000000000, 0.000000000000000000, 1.000000000000000000 ) ) ;
#740 = ORIENTED_EDGE ( 'NONE', *, *, #701, .F. ) ;
#741 = CARTESIAN_POINT ( 'NONE',  ( -1.755590640760089194, 6.072916779853216873, -3.712037355546077499 ) ) ;
#742 = FACE_OUTER_BOUND ( 'NONE', #617, .T. ) ;
#743 = CONICAL_SURFACE ( 'NONE', #821, 3.100000000000000533, 0.7853981633974480570 ) ;
#744 = CARTESIAN_POINT ( 'NONE',  ( -2.525000000000002132, 4.914216501203578780, -3.230228320103702977 ) ) ;
#745 = ORIENTED_EDGE ( 'NONE', *, *, #530, .T. ) ;
#746 = CYLINDRICAL_SURFACE ( 'NONE', #128, 4.600000000000000533 ) ;
#747 = PLANE ( 'NONE',  #149 ) ;
#748 = VECTOR ( 'NONE', #736, 1000.000000000000000 ) ;
#749 = DIRECTION ( 'NONE',  ( 0.000000000000000000, -1.000000000000000000, 0.000000000000000000 ) ) ;
#750 = CALENDAR_DATE ( 2026, 26, 2 ) ;
#751 = VERTEX_POINT ( 'NONE', #1094 ) ;
#752 = APPROVAL_PERSON_ORGANIZATION ( #7, #829, #372 ) ;
#753 = EDGE_CURVE ( 'NONE', #254, #180, #1082, .T. ) ;
#754 = CARTESIAN_POINT ( 'NONE',  ( 0.7499999999999996669, 5.630818775385466601, -4.030818775385467845 ) ) ;
#755 = ADVANCED_FACE ( 'NONE', ( #350 ), #911, .F. ) ;
#756 = DIRECTION ( 'NONE',  ( 0.000000000000000000, 0.000000000000000000, 1.000000000000000000 ) ) ;
#757 = CARTESIAN_POINT ( 'NONE',  ( 0.2536532895493863737, 9.877609514519201994, -4.100000000000000533 ) ) ;
#758 = DATE_AND_TIME ( #195, #675 ) ;
#759 = ORIENTED_EDGE ( 'NONE', *, *, #106, .F. ) ;
#760 = CARTESIAN_POINT ( 'NONE',  ( -1.526610138646704584, 6.034446555817849500, 3.816166349724937845 ) ) ;
#761 = EDGE_LOOP ( 'NONE', ( #1202, #383, #1058, #519, #485, #863 ) ) ;
#762 = DIRECTION ( 'NONE',  ( 0.000000000000000000, 0.000000000000000000, 1.000000000000000000 ) ) ;
#763 = ADVANCED_FACE ( 'NONE', ( #281 ), #1089, .F. ) ;
#764 = LINE ( 'NONE', #637, #629 ) ;
#765 =( NAMED_UNIT ( * ) SI_UNIT ( $, .STERADIAN. ) SOLID_ANGLE_UNIT ( ) );
#766 = ORIENTED_EDGE ( 'NONE', *, *, #530, .F. ) ;
#767 = AXIS2_PLACEMENT_3D ( 'NONE', #581, #954, #120 ) ;
#768 = CARTESIAN_POINT ( 'NONE',  ( 1.068241330209101392, 10.02872497869302393, -3.961788365404604217 ) ) ;
#769 = VERTEX_POINT ( 'NONE', #623 ) ;
#770 = CARTESIAN_POINT ( 'NONE',  ( -2.525000000000002132, 4.914216501203578780, -3.230228320103702977 ) ) ;
#771 = ADVANCED_FACE ( 'NONE', ( #262 ), #347, .T. ) ;
#772 = AXIS2_PLACEMENT_3D ( 'NONE', #606, #991, #157 ) ;
#773 = ORIENTED_EDGE ( 'NONE', *, *, #345, .T. ) ;
#774 = CARTESIAN_POINT ( 'NONE',  ( -1.499999999999999556, -0.0009999999999992653654, 1.500000000000000444 ) ) ;
#775 = ORIENTED_EDGE ( 'NONE', *, *, #694, .F. ) ;
#776 = FACE_BOUND ( 'NONE', #639, .T. ) ;
#777 = CARTESIAN_POINT ( 'NONE',  ( -1.499999999999999556, -0.0009999999999992653654, 1.500000000000000444 ) ) ;
#778 = CARTESIAN_POINT ( 'NONE',  ( -0.4556152413679057100, 9.749983033576807401, -4.100000000000001421 ) ) ;
#779 = DIRECTION ( 'NONE',  ( 1.000000000000000000, 0.000000000000000000, -7.228014483236695816E-17 ) ) ;
#780 = ORIENTED_EDGE ( 'NONE', *, *, #804, .F. ) ;
#781 = DIRECTION ( 'NONE',  ( 0.000000000000000000, 0.000000000000000000, 1.000000000000000000 ) ) ;
#782 = LINE ( 'NONE', #877, #1080 ) ;
#783 = DIRECTION ( 'NONE',  ( 0.000000000000000000, 0.000000000000000000, -1.000000000000000000 ) ) ;
#784 = CARTESIAN_POINT ( 'NONE',  ( 0.7500000000000000000, 10.90000000000000036, 0.000000000000000000 ) ) ;
#785 = ORIENTED_EDGE ( 'NONE', *, *, #827, .F. ) ;
#786 = CARTESIAN_POINT ( 'NONE',  ( -1.500000000000000222, -0.0009999999999992653654, -1.499999999999999556 ) ) ;
#787 = AXIS2_PLACEMENT_3D ( 'NONE', #1121, #219, #762 ) ;
#788 = VECTOR ( 'NONE', #702, 1000.000000000000000 ) ;
#789 = CONICAL_SURFACE ( 'NONE', #611, 4.599999999999999645, 0.7853981633974480570 ) ;
#790 = CARTESIAN_POINT ( 'NONE',  ( 2.729421166721430314, 10.39740959981674351, -3.022973830739564605 ) ) ;
#791 = ORIENTED_EDGE ( 'NONE', *, *, #1185, .T. ) ;
#792 = EDGE_CURVE ( 'NONE', #809, #286, #482, .T. ) ;
#793 = LOCAL_TIME ( 21, 21, 46.00000000000000000, #941 ) ;
#794 = CARTESIAN_POINT ( 'NONE',  ( 1.388399005766475236, 10.08934001612816900, 3.871570899377079655 ) ) ;
#795 = ADVANCED_FACE ( 'NONE', ( #461 ), #154, .T. ) ;
#796 = CARTESIAN_POINT ( 'NONE',  ( -0.7500000000000000000, 15.40000000000000036, 9.184850993605149670E-17 ) ) ;
#797 = CARTESIAN_POINT ( 'NONE',  ( 0.000000000000000000, 15.00000000000001066, 0.000000000000000000 ) ) ;
#798 = ORIENTED_EDGE ( 'NONE', *, *, #364, .F. ) ;
#799 = DIRECTION ( 'NONE',  ( 2.168404344971008868E-16, 0.000000000000000000, 1.000000000000000000 ) ) ;
#800 = DIRECTION ( 'NONE',  ( 0.000000000000000000, -1.000000000000000000, 0.000000000000000000 ) ) ;
#801 = ORIENTED_EDGE ( 'NONE', *, *, #25, .F. ) ;
#802 = FACE_OUTER_BOUND ( 'NONE', #391, .T. ) ;
#803 = VECTOR ( 'NONE', #491, 1000.000000000000000 ) ;
#804 = EDGE_CURVE ( 'NONE', #1034, #838, #820, .T. ) ;
#805 = CIRCLE ( 'NONE', #283, 0.5000000000000004441 ) ;
#806 = AXIS2_PLACEMENT_3D ( 'NONE', #928, #463, #542 ) ;
#807 = CARTESIAN_POINT ( 'NONE',  ( -2.436101691436199257, 15.13334746284571430, 3.130465598522013781 ) ) ;
#808 = CARTESIAN_POINT ( 'NONE',  ( 1.068241330209099837, 5.571275021306976605, 3.961788365404604217 ) ) ;
#809 = VERTEX_POINT ( 'NONE', #723 ) ;
#810 = CIRCLE ( 'NONE', #1120, 4.599999999999999645 ) ;
#811 = DIRECTION ( 'NONE',  ( 0.000000000000000000, 1.000000000000000000, 0.000000000000000000 ) ) ;
#812 = CARTESIAN_POINT ( 'NONE',  ( 0.7500000000000000000, 15.40000000000000036, 7.758315481586230702E-17 ) ) ;
#813 = CARTESIAN_POINT ( 'NONE',  ( 2.339973189144064492, 0.000000000000000000, -1.133369081141247126 ) ) ;
#814 = CC_DESIGN_PERSON_AND_ORGANIZATION_ASSIGNMENT ( #1130, #1124, ( #614 ) ) ;
#815 = VERTEX_POINT ( 'NONE', #628 ) ;
#816 = DIRECTION ( 'NONE',  ( 0.000000000000000000, 0.000000000000000000, -1.000000000000000000 ) ) ;
#817 = B_SPLINE_CURVE_WITH_KNOTS ( 'NONE', 3,
 ( #404, #415, #328, #1075, #778, #47 ),
 .UNSPECIFIED., .F., .F.,
 ( 4, 2, 4 ),
 ( 2.524706457993111580E-07, 0.001371677649781284734, 0.002743102828916770160 ),
 .UNSPECIFIED. ) ;
#818 = CYLINDRICAL_SURFACE ( 'NONE', #1136, 4.600000000000000533 ) ;
#819 = VERTEX_POINT ( 'NONE', #635 ) ;
#820 = LINE ( 'NONE', #1192, #709 ) ;
#821 = AXIS2_PLACEMENT_3D ( 'NONE', #784, #329, #869 ) ;
#822 = DIRECTION ( 'NONE',  ( -0.000000000000000000, -1.000000000000000000, -0.000000000000000000 ) ) ;
#823 = ORIENTED_EDGE ( 'NONE', *, *, #345, .F. ) ;
#824 = AXIS2_PLACEMENT_3D ( 'NONE', #1189, #82, #816 ) ;
#825 = CARTESIAN_POINT ( 'NONE',  ( 0.4534832995040424253, 4.350972975788509167, -4.081046401809896196 ) ) ;
#826 = VECTOR ( 'NONE', #1, 1000.000000000000000 ) ;
#827 = EDGE_CURVE ( 'NONE', #58, #925, #424, .T. ) ;
#828 = VERTEX_POINT ( 'NONE', #88 ) ;
#829 = APPROVAL ( #672, 'UNSPECIFIED' ) ;
#830 = CARTESIAN_POINT ( 'NONE',  ( 2.258333333333347515, 15.40000000000000036, 2.930858330857284422 ) ) ;
#831 = APPLICATION_PROTOCOL_DEFINITION ( 'international standard', 'config_control_design', 1994, #90 ) ;
#832 = PERSON ( 'UNSPECIFIED', 'UNSPECIFIED', 'UNSPECIFIED', ('UNSPECIFIED'), ('UNSPECIFIED'), ('UNSPECIFIED') ) ;
#833 = ORIENTED_EDGE ( 'NONE', *, *, #1054, .T. ) ;
#834 = B_SPLINE_CURVE_WITH_KNOTS ( 'NONE', 3,
 ( #40, #401, #472, #1152 ),
 .UNSPECIFIED., .F., .F.,
 ( 4, 4 ),
 ( 0.000000000000000000, 0.0005663333837701059990 ),
 .UNSPECIFIED. ) ;
#835 = CARTESIAN_POINT ( 'NONE',  ( -2.153860455202606605, 6.139205794096169733, -3.496027025983688308 ) ) ;
#836 = CARTESIAN_POINT ( 'NONE',  ( 1.999999999999999556, 22.34262198308391234, -2.000000000000000444 ) ) ;
#837 = PLANE ( 'NONE',  #710 ) ;
#838 = VERTEX_POINT ( 'NONE', #641 ) ;
#839 = FACE_OUTER_BOUND ( 'NONE', #21, .T. ) ;
#840 = CARTESIAN_POINT ( 'NONE',  ( 0.000000000000000000, 15.40000000000000036, 0.000000000000000000 ) ) ;
#841 = EDGE_CURVE ( 'NONE', #152, #819, #455, .T. ) ;
#842 = CARTESIAN_POINT ( 'NONE',  ( 2.525000000000004352, 15.00000000000001066, 3.230228320103701645 ) ) ;
#843 = EDGE_LOOP ( 'NONE', ( #276, #310, #346, #780 ) ) ;
#844 = DIRECTION ( 'NONE',  ( 0.000000000000000000, 0.000000000000000000, -1.000000000000000000 ) ) ;
#845 = FACE_OUTER_BOUND ( 'NONE', #585, .T. ) ;
#846 = CARTESIAN_POINT ( 'NONE',  ( -1.999999999999999556, 22.34262198308391234, -2.000000000000000444 ) ) ;
#847 = DATE_AND_TIME ( #382, #793 ) ;
#848 = ORIENTED_EDGE ( 'NONE', *, *, #199, .T. ) ;
#849 = EDGE_CURVE ( 'NONE', #527, #1131, #865, .T. ) ;
#850 = CARTESIAN_POINT ( 'NONE',  ( 2.000000000000000444, 9.400000000000000355, -2.000000000000000444 ) ) ;
#851 = ORIENTED_EDGE ( 'NONE', *, *, #200, .F. ) ;
#852 = CARTESIAN_POINT ( 'NONE',  ( -1.999999999999999556, 9.400000000000000355, -2.000000000000000444 ) ) ;
#853 = CARTESIAN_POINT ( 'NONE',  ( 2.917665327269351128, 5.123065921669046396, 2.791848562478301154 ) ) ;
#854 = APPROVAL_DATE_TIME ( #758, #506 ) ;
#855 = ORIENTED_EDGE ( 'NONE', *, *, #370, .T. ) ;
#856 = CARTESIAN_POINT ( 'NONE',  ( -2.525000000000002132, 6.200000000000003730, -3.230228320103702977 ) ) ;
#857 = EDGE_LOOP ( 'NONE', ( #24, #93, #132, #121 ) ) ;
#858 = EDGE_CURVE ( 'NONE', #246, #176, #105, .T. ) ;
#859 = CARTESIAN_POINT ( 'NONE',  ( 0.7500000000000000000, 9.399999999999998579, -4.600000000000000533 ) ) ;
#860 = ORIENTED_EDGE ( 'NONE', *, *, #913, .F. ) ;
#861 = VECTOR ( 'NONE', #1066, 1000.000000000000000 ) ;
#862 = FACE_OUTER_BOUND ( 'NONE', #1176, .T. ) ;
#863 = ORIENTED_EDGE ( 'NONE', *, *, #317, .T. ) ;
#864 = DIRECTION ( 'NONE',  ( 0.000000000000000000, 0.000000000000000000, -1.000000000000000000 ) ) ;
#865 = CIRCLE ( 'NONE', #603, 4.600000000000000533 ) ;
#866 = EDGE_CURVE ( 'NONE', #726, #998, #399, .T. ) ;
#867 = CARTESIAN_POINT ( 'NONE',  ( 2.525000000000003020, 5.285783498796421398, -3.230228320103702533 ) ) ;
#868 = CYLINDRICAL_SURFACE ( 'NONE', #990, 4.600000000000000533 ) ;
#869 = DIRECTION ( 'NONE',  ( 0.000000000000000000, 0.000000000000000000, -1.000000000000000000 ) ) ;
#870 = VECTOR ( 'NONE', #441, 1000.000000000000000 ) ;
#871 = ORIENTED_EDGE ( 'NONE', *, *, #866, .F. ) ;
#872 = DIRECTION ( 'NONE',  ( -0.000000000000000000, -1.000000000000000000, -0.000000000000000000 ) ) ;
#873 = CYLINDRICAL_SURFACE ( 'NONE', #923, 4.600000000000000533 ) ;
#874 = CYLINDRICAL_SURFACE ( 'NONE', #15, 4.600000000000000533 ) ;
#875 = CARTESIAN_POINT ( 'NONE',  ( 2.525000000000004352, 5.285783498796421398, 3.230228320103701645 ) ) ;
#876 = ORIENTED_EDGE ( 'NONE', *, *, #1201, .F. ) ;
#877 = CARTESIAN_POINT ( 'NONE',  ( -1.500000000000000222, 9.400000000000000355, -1.499999999999999556 ) ) ;
#878 = LINE ( 'NONE', #978, #170 ) ;
#879 = EDGE_CURVE ( 'NONE', #139, #998, #500, .T. ) ;
#880 = FACE_OUTER_BOUND ( 'NONE', #38, .T. ) ;
#881 = ADVANCED_FACE ( 'NONE', ( #862 ), #746, .T. ) ;
#882 = ORIENTED_EDGE ( 'NONE', *, *, #394, .T. ) ;
#883 = CARTESIAN_POINT ( 'NONE',  ( 2.263793923333909497, 10.26106509999850047, 3.434407492045553401 ) ) ;
#884 = CIRCLE ( 'NONE', #787, 4.100000000000000533 ) ;
#885 = AXIS2_PLACEMENT_3D ( 'NONE', #113, #17, #864 ) ;
#886 = CIRCLE ( 'NONE', #1064, 4.200000000000008171 ) ;
#887 = CARTESIAN_POINT ( 'NONE',  ( 2.917665327269349795, 10.47693407833094881, -2.791848562478301154 ) ) ;
#888 = VERTEX_POINT ( 'NONE', #579 ) ;
#889 = LINE ( 'NONE', #422, #945 ) ;
#890 = CARTESIAN_POINT ( 'NONE',  ( 0.7500000000000000000, 6.199999999999999289, 0.000000000000000000 ) ) ;
#891 = CARTESIAN_POINT ( 'NONE',  ( 2.525000000000003020, 15.40000000000000036, -3.230228320103702533 ) ) ;
#892 = PLANE ( 'NONE',  #393 ) ;
#893 = VERTEX_POINT ( 'NONE', #471 ) ;
#894 = CARTESIAN_POINT ( 'NONE',  ( -3.612753190601386333, 5.386820540410936609, 1.488609935482128721 ) ) ;
#895 = ADVANCED_FACE ( 'NONE', ( #484 ), #666, .T. ) ;
#896 = CARTESIAN_POINT ( 'NONE',  ( -1.524798365560531499, 9.565858561186217912, 3.816954296651816403 ) ) ;
#897 = CARTESIAN_POINT ( 'NONE',  ( 0.7499999999999991118, 5.630818775385466601, 4.030818775385467845 ) ) ;
#898 = VERTEX_POINT ( 'NONE', #123 ) ;
#899 = CARTESIAN_POINT ( 'NONE',  ( -1.999999999999999556, 0.000000000000000000, -1.500000000000000222 ) ) ;
#900 = CARTESIAN_POINT ( 'NONE',  ( 2.729252310296298667, 5.202659119530928855, -3.023145027552142317 ) ) ;
#901 = ADVANCED_FACE ( 'NONE', ( #839 ), #304, .T. ) ;
#902 = ORIENTED_EDGE ( 'NONE', *, *, #1054, .F. ) ;
#903 = AXIS2_PLACEMENT_3D ( 'NONE', #554, #631, #179 ) ;
#904 = CARTESIAN_POINT ( 'NONE',  ( 1.545956863820309168, 4.162345298402941651, -3.804174581720165538 ) ) ;
#905 = DIRECTION ( 'NONE',  ( 0.000000000000000000, 0.000000000000000000, -1.000000000000000000 ) ) ;
#906 = EDGE_LOOP ( 'NONE', ( #1160, #1085 ) ) ;
#907 = CC_DESIGN_APPROVAL ( #647, ( #135 ) ) ;
#908 = ADVANCED_FACE ( 'NONE', ( #111 ), #1050, .T. ) ;
#909 = LINE ( 'NONE', #459, #1093 ) ;
#910 = EDGE_LOOP ( 'NONE', ( #481, #571, #1072 ) ) ;
#911 = PLANE ( 'NONE',  #567 ) ;
#912 = DIRECTION ( 'NONE',  ( 0.000000000000000000, 0.000000000000000000, -1.000000000000000000 ) ) ;
#913 = EDGE_CURVE ( 'NONE', #673, #1150, #23, .T. ) ;
#914 = CARTESIAN_POINT ( 'NONE',  ( -1.499999999999999556, 15.40000000000000036, 1.500000000000000444 ) ) ;
#915 = ORIENTED_EDGE ( 'NONE', *, *, #48, .T. ) ;
#916 = EDGE_CURVE ( 'NONE', #176, #266, #700, .T. ) ;
#917 = DIRECTION ( 'NONE',  ( 0.000000000000000000, 0.000000000000000000, -1.000000000000000000 ) ) ;
#918 = VERTEX_POINT ( 'NONE', #754 ) ;
#919 = CIRCLE ( 'NONE', #351, 2.600000000000000089 ) ;
#920 = B_SPLINE_CURVE_WITH_KNOTS ( 'NONE', 3,
 ( #115, #934, #922, #100 ),
 .UNSPECIFIED., .F., .F.,
 ( 4, 4 ),
 ( 0.000000000000000000, 0.0005663333837701058906 ),
 .UNSPECIFIED. ) ;
#921 = VECTOR ( 'NONE', #660, 999.9999999999998863 ) ;
#922 = CARTESIAN_POINT ( 'NONE',  ( -2.347211839713582826, 15.26668224042964006, -3.030678378027356956 ) ) ;
#923 = AXIS2_PLACEMENT_3D ( 'NONE', #598, #593, #974 ) ;
#924 = DIRECTION ( 'NONE',  ( -0.000000000000000000, -1.000000000000000000, -0.000000000000000000 ) ) ;
#925 = VERTEX_POINT ( 'NONE', #856 ) ;
#926 = CARTESIAN_POINT ( 'NONE',  ( 1.115715736729836483, 4.235665278651192800, -3.951823030932981151 ) ) ;
#927 = DIRECTION ( 'NONE',  ( -7.885106708985489034E-17, 1.000000000000000000, -0.000000000000000000 ) ) ;
#928 = CARTESIAN_POINT ( 'NONE',  ( 1.999999999999999556, 9.400000000000000355, -1.500000000000000222 ) ) ;
#929 = APPLICATION_PROTOCOL_DEFINITION ( 'international standard', 'config_control_design', 1994, #12 ) ;
#930 = ORIENTED_EDGE ( 'NONE', *, *, #568, .F. ) ;
#931 = DIRECTION ( 'NONE',  ( 7.885106708985489034E-17, -1.000000000000000000, 0.000000000000000000 ) ) ;
#932 = DIRECTION ( 'NONE',  ( 0.000000000000000000, -0.7071067811865460184, -0.7071067811865490160 ) ) ;
#933 = ADVANCED_FACE ( 'NONE', ( #1132 ), #604, .T. ) ;
#934 = CARTESIAN_POINT ( 'NONE',  ( -2.436101691436201921, 15.13334746284571430, -3.130465598522011117 ) ) ;
#935 = PERSON_AND_ORGANIZATION ( #832, #95 ) ;
#936 = ORIENTED_EDGE ( 'NONE', *, *, #608, .F. ) ;
#937 = B_SPLINE_CURVE_WITH_KNOTS ( 'NONE', 3,
 ( #897, #725, #808, #621, #344, #166, #452, #1087 ),
 .UNSPECIFIED., .F., .F.,
 ( 4, 2, 2, 4 ),
 ( 0.003506612203656223059, 0.004003171242987760801, 0.004499730282319299411, 0.005492848360982374896 ),
 .UNSPECIFIED. ) ;
#938 = CARTESIAN_POINT ( 'NONE',  ( 1.536233865666791099, 10.11811991116051601, -3.804836708623648978 ) ) ;
#939 = DIRECTION ( 'NONE',  ( 0.000000000000000000, 0.000000000000000000, -1.000000000000000000 ) ) ;
#940 = CARTESIAN_POINT ( 'NONE',  ( 3.242820602019658160, 4.981793557296903430, 2.302948325245992578 ) ) ;
#941 = COORDINATED_UNIVERSAL_TIME_OFFSET ( 8, 0, .AHEAD. ) ;
#942 = VERTEX_POINT ( 'NONE', #943 ) ;
#943 = CARTESIAN_POINT ( 'NONE',  ( 2.525000000000004352, 4.000000000000003553, 3.230228320103701645 ) ) ;
#944 = EDGE_LOOP ( 'NONE', ( #240, #691, #102, #54 ) ) ;
#945 = VECTOR ( 'NONE', #799, 1000.000000000000000 ) ;
#946 = CARTESIAN_POINT ( 'NONE',  ( -1.369316728763810519E-16, 4.431966890726513064, -4.100000000000000533 ) ) ;
#947 = AXIS2_PLACEMENT_3D ( 'NONE', #613, #264, #905 ) ;
#948 = LINE ( 'NONE', #13, #249 ) ;
#949 = CARTESIAN_POINT ( 'NONE',  ( 0.000000000000000000, 0.000000000000000000, 0.000000000000000000 ) ) ;
#950 = ORIENTED_EDGE ( 'NONE', *, *, #378, .F. ) ;
#951 = EDGE_CURVE ( 'NONE', #918, #828, #298, .T. ) ;
#952 = DIRECTION ( 'NONE',  ( -0.000000000000000000, -1.000000000000000000, -0.000000000000000000 ) ) ;
#953 = ORIENTED_EDGE ( 'NONE', *, *, #184, .T. ) ;
#954 = DIRECTION ( 'NONE',  ( 0.000000000000000000, 1.000000000000000000, 0.000000000000000000 ) ) ;
#955 =( NAMED_UNIT ( * ) PLANE_ANGLE_UNIT ( ) SI_UNIT ( $, .RADIAN. ) );
#956 = VERTEX_POINT ( 'NONE', #850 ) ;
#957 = DIRECTION ( 'NONE',  ( 1.000000000000000000, 0.000000000000000000, 0.000000000000000000 ) ) ;
#958 = ORIENTED_EDGE ( 'NONE', *, *, #462, .F. ) ;
#959 = CC_DESIGN_DATE_AND_TIME_ASSIGNMENT ( #847, #296, ( #135 ) ) ;
#960 = CARTESIAN_POINT ( 'NONE',  ( -0.4562317397254756490, 4.514061681200415954, -4.100000000000007638 ) ) ;
#961 = CIRCLE ( 'NONE', #492, 0.5000000000000004441 ) ;
#962 = AXIS2_PLACEMENT_3D ( 'NONE', #576, #380, #756 ) ;
#963 = CARTESIAN_POINT ( 'NONE',  ( 3.244546609430021267, 10.61895555109708589, 2.300371879587086443 ) ) ;
#964 = ORIENTED_EDGE ( 'NONE', *, *, #849, .T. ) ;
#965 = CARTESIAN_POINT ( 'NONE',  ( 0.000000000000000000, 9.400000000000000355, 0.000000000000000000 ) ) ;
#966 = DIRECTION ( 'NONE',  ( 0.000000000000000000, 1.000000000000000000, 0.000000000000000000 ) ) ;
#967 = VECTOR ( 'NONE', #1162, 1000.000000000000000 ) ;
#968 = PRODUCT_DEFINITION_SHAPE ( 'NONE', 'NONE',  #151 ) ;
#969 = AXIS2_PLACEMENT_3D ( 'NONE', #1046, #1134, #587 ) ;
#970 = CARTESIAN_POINT ( 'NONE',  ( 2.525000000000004352, 10.31421650120357825, 3.230228320103701645 ) ) ;
#971 = AXIS2_PLACEMENT_3D ( 'NONE', #1197, #1016, #182 ) ;
#972 = EDGE_LOOP ( 'NONE', ( #2, #50, #986, #417 ) ) ;
#973 = CARTESIAN_POINT ( 'NONE',  ( 0.4675513788560888839, 9.916627022190070306, 4.083372977809930582 ) ) ;
#974 = DIRECTION ( 'NONE',  ( 0.000000000000000000, 0.000000000000000000, -1.000000000000000000 ) ) ;
#975 = EDGE_CURVE ( 'NONE', #676, #1187, #573, .T. ) ;
#976 = EDGE_CURVE ( 'NONE', #998, #995, #640, .T. ) ;
#977 = APPROVAL_DATE_TIME ( #34, #647 ) ;
#978 = CARTESIAN_POINT ( 'NONE',  ( 1.499999999999999778, 15.40000000000000036, -1.499999999999999556 ) ) ;
#979 = CARTESIAN_POINT ( 'NONE',  ( 3.382123027880951760, 10.68090167315313188, -2.043272838049489337 ) ) ;
#980 = ORIENTED_EDGE ( 'NONE', *, *, #252, .F. ) ;
#981 = CARTESIAN_POINT ( 'NONE',  ( 0.1797919958066485357, 9.864117182895997260, 4.106383176301474869 ) ) ;
#982 = CARTESIAN_POINT ( 'NONE',  ( 2.525000000000004352, 10.31421650120357825, 3.230228320103701645 ) ) ;
#983 = AXIS2_PLACEMENT_3D ( 'NONE', #674, #489, #466 ) ;
#984 = DIRECTION ( 'NONE',  ( 0.000000000000000000, 0.000000000000000000, -1.000000000000000000 ) ) ;
#985 = B_SPLINE_CURVE_WITH_KNOTS ( 'NONE', 3,
 ( #228, #407, #46, #1158, #1171, #693, #706, #894, #314, #430, #140, #331, #339, #1063, #499, #255, #60, #236, #713, #1079 ),
 .UNSPECIFIED., .F., .F.,
 ( 4, 2, 2, 2, 2, 2, 2, 2, 2, 4 ),
 ( 2.919984468078234696E-07, 0.0009050439011373984403, 0.001357419852482694362, 0.001809795803827990391, 0.002714547706518581367, 0.003619299609209172992, 0.004524051511899765052, 0.005428803414590356244, 0.006333555317280948303, 0.007238307219971538628 ),
 .UNSPECIFIED. ) ;
#986 = ORIENTED_EDGE ( 'NONE', *, *, #1135, .F. ) ;
#987 = CARTESIAN_POINT ( 'NONE',  ( -0.7500000000000005551, 4.000000000000000000, 0.000000000000000000 ) ) ;
#988 = CIRCLE ( 'NONE', #962, 3.700000000000008171 ) ;
#989 = CARTESIAN_POINT ( 'NONE',  ( 3.730553948569142797, 4.757298962986073576, 1.052217440266472792 ) ) ;
#990 = AXIS2_PLACEMENT_3D ( 'NONE', #796, #408, #1167 ) ;
#991 = DIRECTION ( 'NONE',  ( 0.000000000000000000, -1.000000000000000000, 0.000000000000000000 ) ) ;
#992 = CARTESIAN_POINT ( 'NONE',  ( -2.047038284123595453, 9.478388541985260929, 3.564236863856996784 ) ) ;
#993 = EDGE_CURVE ( 'NONE', #508, #888, #131, .T. ) ;
#994 = CARTESIAN_POINT ( 'NONE',  ( 1.499999999999999778, 15.40000000000000036, -1.499999999999999556 ) ) ;
#995 = VERTEX_POINT ( 'NONE', #416 ) ;
#996 = LINE ( 'NONE', #786, #967 ) ;
#997 = DIRECTION ( 'NONE',  ( 0.000000000000000000, 1.000000000000000000, -0.000000000000000000 ) ) ;
#998 = VERTEX_POINT ( 'NONE', #44 ) ;
#999 = CARTESIAN_POINT ( 'NONE',  ( -1.999999999999999556, 22.34262198308391234, -1.500000000000000222 ) ) ;
#1000 = CARTESIAN_POINT ( 'NONE',  ( -2.525000000000002132, 15.40000000000000036, -3.230228320103702977 ) ) ;
#1001 = ORIENTED_EDGE ( 'NONE', *, *, #680, .T. ) ;
#1002 = CARTESIAN_POINT ( 'NONE',  ( 0.2271478949511282208, 4.391093673852511259, -4.100000000000005862 ) ) ;
#1003 = CARTESIAN_POINT ( 'NONE',  ( 0.000000000000000000, 15.40000000000000036, -3.700000000000008171 ) ) ;
#1004 = VECTOR ( 'NONE', #1028, 999.9999999999998863 ) ;
#1005 = CARTESIAN_POINT ( 'NONE',  ( 0.8976149048678745412, 4.272833446730289531, 4.026657236681039365 ) ) ;
#1006 = ORIENTED_EDGE ( 'NONE', *, *, #976, .T. ) ;
#1007 = CARTESIAN_POINT ( 'NONE',  ( -7.837840640166284244E-17, 5.768033109273484449, -4.100000000000000533 ) ) ;
#1008 = CARTESIAN_POINT ( 'NONE',  ( -2.525000000000002132, 9.400000000000000355, -3.230228320103702977 ) ) ;
#1009 = ADVANCED_FACE ( 'NONE', ( #57 ), #743, .T. ) ;
#1010 = ADVANCED_FACE ( 'NONE', ( #880 ), #405, .F. ) ;
#1011 = DIRECTION ( 'NONE',  ( 0.000000000000000000, 0.000000000000000000, 1.000000000000000000 ) ) ;
#1012 = ORIENTED_EDGE ( 'NONE', *, *, #595, .T. ) ;
#1013 = CARTESIAN_POINT ( 'NONE',  ( -2.525000000000002132, 6.200000000000003730, -3.230228320103702977 ) ) ;
#1014 = ORIENTED_EDGE ( 'NONE', *, *, #724, .T. ) ;
#1015 = DIRECTION ( 'NONE',  ( 0.000000000000000000, -1.000000000000000000, 0.000000000000000000 ) ) ;
#1016 = DIRECTION ( 'NONE',  ( 0.000000000000000000, -1.000000000000000000, 0.000000000000000000 ) ) ;
#1017 = ORIENTED_EDGE ( 'NONE', *, *, #411, .T. ) ;
#1018 = DIRECTION ( 'NONE',  ( 0.000000000000000000, 0.000000000000000000, -1.000000000000000000 ) ) ;
#1019 = CARTESIAN_POINT ( 'NONE',  ( 1.070288945444118234, 5.571223759467114789, -3.971223759467115144 ) ) ;
#1020 = AXIS2_PLACEMENT_3D ( 'NONE', #797, #1169, #315 ) ;
#1021 = DESIGN_CONTEXT ( 'detailed design', #12, 'design' ) ;
#1022 = DIRECTION ( 'NONE',  ( 0.000000000000000000, 0.000000000000000000, -1.000000000000000000 ) ) ;
#1023 = ORIENTED_EDGE ( 'NONE', *, *, #394, .F. ) ;
#1024 = AXIS2_PLACEMENT_3D ( 'NONE', #965, #872, #781 ) ;
#1025 = EDGE_CURVE ( 'NONE', #1150, #600, #919, .T. ) ;
#1026 = DIRECTION ( 'NONE',  ( 0.000000000000000000, 0.000000000000000000, -1.000000000000000000 ) ) ;
#1027 = DIRECTION ( 'NONE',  ( 0.000000000000000000, 0.000000000000000000, 1.000000000000000000 ) ) ;
#1028 = DIRECTION ( 'NONE',  ( 8.659560562354931626E-17, -0.7071067811865477948, 0.7071067811865473507 ) ) ;
#1029 = PERSON_AND_ORGANIZATION ( #832, #95 ) ;
#1030 = EDGE_LOOP ( 'NONE', ( #389, #634, #659, #704 ) ) ;
#1031 = CARTESIAN_POINT ( 'NONE',  ( 0.4676061867380505999, 5.683362779903807116, 4.083362779903807471 ) ) ;
#1032 = CARTESIAN_POINT ( 'NONE',  ( 0.000000000000000000, 15.40000000000000036, 0.000000000000000000 ) ) ;
#1033 = LINE ( 'NONE', #181, #188 ) ;
#1034 = VERTEX_POINT ( 'NONE', #323 ) ;
#1035 = CARTESIAN_POINT ( 'NONE',  ( 0.7500000000000000000, 10.90000000000000036, 0.000000000000000000 ) ) ;
#1036 = ORIENTED_EDGE ( 'NONE', *, *, #61, .T. ) ;
#1037 = DIRECTION ( 'NONE',  ( -0.000000000000000000, 1.000000000000000000, -0.000000000000000000 ) ) ;
#1038 = ADVANCED_FACE ( 'NONE', ( #420 ), #892, .F. ) ;
#1039 = CARTESIAN_POINT ( 'NONE',  ( -0.7499999999999994449, 0.000000000000000000, 4.600000000000000533 ) ) ;
#1040 = CARTESIAN_POINT ( 'NONE',  ( -0.9040814268829828748, 4.597105536575277540, 4.024928921057815856 ) ) ;
#1041 = EDGE_LOOP ( 'NONE', ( #45, #722, #1023, #435 ) ) ;
#1042 = CARTESIAN_POINT ( 'NONE',  ( 0.7500000000000005551, 6.199999999999999289, -4.599999999999999645 ) ) ;
#1043 = ORIENTED_EDGE ( 'NONE', *, *, #148, .F. ) ;
#1044 = AXIS2_PLACEMENT_3D ( 'NONE', #999, #258, #1018 ) ;
#1045 = CLOSED_SHELL ( 'NONE', ( #572, #1095, #287, #933, #795, #1108, #41, #908, #901, #1127, #1049, #625, #1096, #771, #881, #624, #5, #538, #662, #895, #1009, #447, #409, #763, #259, #141, #1038, #755, #1010, #334, #356, #1146, #320, #555 ) ) ;
#1046 = CARTESIAN_POINT ( 'NONE',  ( 0.7500000000000000000, 6.199999999999999289, 0.000000000000000000 ) ) ;
#1047 = EDGE_CURVE ( 'NONE', #316, #1148, #543, .T. ) ;
#1048 = ORIENTED_EDGE ( 'NONE', *, *, #423, .F. ) ;
#1049 = ADVANCED_FACE ( 'NONE', ( #1071 ), #599, .T. ) ;
#1050 = CYLINDRICAL_SURFACE ( 'NONE', #243, 4.100000000000000533 ) ;
#1051 = VERTEX_POINT ( 'NONE', #875 ) ;
#1052 = CARTESIAN_POINT ( 'NONE',  ( 1.999999999999999556, 0.000000000000000000, -1.500000000000000222 ) ) ;
#1053 = CARTESIAN_POINT ( 'NONE',  ( 3.819142741191023482, 4.715022652557835592, 0.6107663392647071365 ) ) ;
#1054 = EDGE_CURVE ( 'NONE', #1077, #1191, #512, .T. ) ;
#1055 = CARTESIAN_POINT ( 'NONE',  ( 3.702408960599123500, 10.82926462418729763, 1.194485701339683459 ) ) ;
#1056 = ORIENTED_EDGE ( 'NONE', *, *, #1047, .T. ) ;
#1057 = DIRECTION ( 'NONE',  ( -0.000000000000000000, -1.000000000000000000, -0.000000000000000000 ) ) ;
#1058 = ORIENTED_EDGE ( 'NONE', *, *, #462, .T. ) ;
#1059 = CARTESIAN_POINT ( 'NONE',  ( 3.554429737974595938, 10.76002986390208349, -1.629182550515341443 ) ) ;
#1060 = EDGE_LOOP ( 'NONE', ( #882, #665, #860, #851 ) ) ;
#1061 = EDGE_CURVE ( 'NONE', #696, #163, #335, .T. ) ;
#1062 = CARTESIAN_POINT ( 'NONE',  ( 0.7500000000000009992, 9.969181224614532155, 4.030818775385467845 ) ) ;
#1063 = CARTESIAN_POINT ( 'NONE',  ( -3.702531528292049678, 5.429321159510163142, -1.194663724965220775 ) ) ;
#1064 = AXIS2_PLACEMENT_3D ( 'NONE', #547, #811, #94 ) ;
#1065 = CIRCLE ( 'NONE', #947, 4.600000000000000533 ) ;
#1066 = DIRECTION ( 'NONE',  ( -0.000000000000000000, 1.000000000000000000, -0.000000000000000000 ) ) ;
#1067 = APPROVAL_PERSON_ORGANIZATION ( #589, #647, #146 ) ;
#1068 = ORIENTED_EDGE ( 'NONE', *, *, #74, .F. ) ;
#1069 = DIRECTION ( 'NONE',  ( 0.000000000000000000, -0.000000000000000000, 1.000000000000000000 ) ) ;
#1070 = EDGE_CURVE ( 'NONE', #1157, #192, #961, .T. ) ;
#1071 = FACE_OUTER_BOUND ( 'NONE', #578, .T. ) ;
#1072 = ORIENTED_EDGE ( 'NONE', *, *, #858, .T. ) ;
#1073 = CARTESIAN_POINT ( 'NONE',  ( -0.6874818419484466370, 9.709770942638275670, 4.052207401650952612 ) ) ;
#1074 = CARTESIAN_POINT ( 'NONE',  ( -1.499999999999999556, 9.400000000000000355, 1.500000000000000444 ) ) ;
#1075 = CARTESIAN_POINT ( 'NONE',  ( -0.8998198592801632811, 9.672453039177581147, -4.026103625341747261 ) ) ;
#1076 = DIRECTION ( 'NONE',  ( -0.000000000000000000, -1.000000000000000000, -0.000000000000000000 ) ) ;
#1077 = VERTEX_POINT ( 'NONE', #994 ) ;
#1078 = AXIS2_PLACEMENT_3D ( 'NONE', #221, #779, #150 ) ;
#1079 = CARTESIAN_POINT ( 'NONE',  ( -2.525000000000002132, 4.914216501203578780, -3.230228320103702977 ) ) ;
#1080 = VECTOR ( 'NONE', #51, 1000.000000000000000 ) ;
#1081 = AXIS2_PLACEMENT_3D ( 'NONE', #271, #1015, #561 ) ;
#1082 = B_SPLINE_CURVE_WITH_KNOTS ( 'NONE', 3,
 ( #539, #3, #164, #1184 ),
 .UNSPECIFIED., .F., .F.,
 ( 4, 4 ),
 ( 0.000000000000000000, 0.0005663333837701058906 ),
 .UNSPECIFIED. ) ;
#1083 = DIRECTION ( 'NONE',  ( 0.000000000000000000, 0.000000000000000000, -1.000000000000000000 ) ) ;
#1084 = EDGE_CURVE ( 'NONE', #513, #1148, #159, .T. ) ;
#1085 = ORIENTED_EDGE ( 'NONE', *, *, #1047, .F. ) ;
#1086 = DIRECTION ( 'NONE',  ( 0.000000000000000000, -0.7071067811865477948, -0.7071067811865473507 ) ) ;
#1087 = CARTESIAN_POINT ( 'NONE',  ( 2.525000000000004352, 5.285783498796421398, 3.230228320103701645 ) ) ;
#1088 = EDGE_LOOP ( 'NONE', ( #143, #1017, #876, #210, #261 ) ) ;
#1089 = CYLINDRICAL_SURFACE ( 'NONE', #1044, 0.5000000000000006661 ) ;
#1090 = DIRECTION ( 'NONE',  ( 0.000000000000000000, 0.000000000000000000, 1.000000000000000000 ) ) ;
#1091 = DIRECTION ( 'NONE',  ( -0.000000000000000000, -1.000000000000000000, -0.000000000000000000 ) ) ;
#1092 = ORIENTED_EDGE ( 'NONE', *, *, #22, .T. ) ;
#1093 = VECTOR ( 'NONE', #79, 1000.000000000000000 ) ;
#1094 = CARTESIAN_POINT ( 'NONE',  ( -2.525000000000004796, 15.00000000000001066, 3.230228320103700312 ) ) ;
#1095 = ADVANCED_FACE ( 'NONE', ( #337 ), #583, .T. ) ;
#1096 = ADVANCED_FACE ( 'NONE', ( #175 ), #616, .T. ) ;
#1097 = LINE ( 'NONE', #1000, #230 ) ;
#1098 = ORIENTED_EDGE ( 'NONE', *, *, #1179, .F. ) ;
#1099 = CARTESIAN_POINT ( 'NONE',  ( 0.000000000000000000, 15.40000000000000036, 0.000000000000000000 ) ) ;
#1100 = CIRCLE ( 'NONE', #692, 4.600000000000000533 ) ;
#1101 = ORIENTED_EDGE ( 'NONE', *, *, #165, .F. ) ;
#1102 = DIRECTION ( 'NONE',  ( 0.000000000000000000, 1.000000000000000000, 0.000000000000000000 ) ) ;
#1103 = ORIENTED_EDGE ( 'NONE', *, *, #680, .F. ) ;
#1104 = B_SPLINE_CURVE_WITH_KNOTS ( 'NONE', 3,
 ( #1062, #973, #981, #144, #1073, #521, #896, #992, #440, #68 ),
 .UNSPECIFIED., .F., .F.,
 ( 4, 2, 2, 2, 4 ),
 ( 0.001986272463294102165, 0.002861963524034567396, 0.003737654584775032193, 0.004613345645515496557, 0.005489036706255960921 ),
 .UNSPECIFIED. ) ;
#1105 = CARTESIAN_POINT ( 'NONE',  ( -0.4534832995040427028, 5.849027024211491010, -4.081046401809896196 ) ) ;
#1106 = DIRECTION ( 'NONE',  ( 0.000000000000000000, 1.000000000000000000, 0.000000000000000000 ) ) ;
#1107 = ORIENTED_EDGE ( 'NONE', *, *, #661, .T. ) ;
#1108 = ADVANCED_FACE ( 'NONE', ( #69 ), #818, .T. ) ;
#1109 = CARTESIAN_POINT ( 'NONE',  ( 0.7500000000000004441, 9.969181224614532155, -4.030818775385467845 ) ) ;
#1110 = APPROVAL_STATUS ( 'not_yet_approved' ) ;
#1111 = ORIENTED_EDGE ( 'NONE', *, *, #753, .F. ) ;
#1112 = DIRECTION ( 'NONE',  ( -1.000000000000000000, 0.000000000000000000, -0.000000000000000000 ) ) ;
#1113 = CARTESIAN_POINT ( 'NONE',  ( 0.7500000000000000000, 6.199999999999999289, 0.000000000000000000 ) ) ;
#1114 = AXIS2_PLACEMENT_3D ( 'NONE', #1035, #564, #204 ) ;
#1115 = CARTESIAN_POINT ( 'NONE',  ( -0.7500000000000000000, 15.00000000000001066, 9.184850993605149670E-17 ) ) ;
#1116 = COORDINATED_UNIVERSAL_TIME_OFFSET ( 8, 0, .AHEAD. ) ;
#1117 = ORIENTED_EDGE ( 'NONE', *, *, #269, .F. ) ;
#1118 = EDGE_CURVE ( 'NONE', #180, #995, #733, .T. ) ;
#1119 = CARTESIAN_POINT ( 'NONE',  ( -0.7500000000000005551, 4.000000000000000000, 0.000000000000000000 ) ) ;
#1120 = AXIS2_PLACEMENT_3D ( 'NONE', #890, #62, #425 ) ;
#1121 = CARTESIAN_POINT ( 'NONE',  ( 0.000000000000000000, 15.00000000000001066, 0.000000000000000000 ) ) ;
#1122 = CIRCLE ( 'NONE', #592, 0.5000000000000002220 ) ;
#1123 = CARTESIAN_POINT ( 'NONE',  ( 2.525000000000004352, 5.285783498796421398, 3.230228320103701645 ) ) ;
#1124 = PERSON_AND_ORGANIZATION_ROLE ( 'design_supplier' ) ;
#1125 = ORIENTED_EDGE ( 'NONE', *, *, #80, .T. ) ;
#1126 = DIRECTION ( 'NONE',  ( 0.000000000000000000, 0.000000000000000000, -1.000000000000000000 ) ) ;
#1127 = ADVANCED_FACE ( 'NONE', ( #253, #352 ), #535, .F. ) ;
#1128 = LINE ( 'NONE', #560, #921 ) ;
#1129 = DIRECTION ( 'NONE',  ( -1.000000000000000000, 0.000000000000000000, -0.000000000000000000 ) ) ;
#1130 = PERSON_AND_ORGANIZATION ( #832, #95 ) ;
#1131 = VERTEX_POINT ( 'NONE', #272 ) ;
#1132 = FACE_OUTER_BOUND ( 'NONE', #353, .T. ) ;
#1133 = ORIENTED_EDGE ( 'NONE', *, *, #586, .F. ) ;
#1134 = DIRECTION ( 'NONE',  ( -0.000000000000000000, -1.000000000000000000, -0.000000000000000000 ) ) ;
#1135 = EDGE_CURVE ( 'NONE', #1157, #600, #909, .T. ) ;
#1136 = AXIS2_PLACEMENT_3D ( 'NONE', #359, #544, #1083 ) ;
#1137 = AXIS2_PLACEMENT_3D ( 'NONE', #103, #217, #844 ) ;
#1138 = CC_DESIGN_DATE_AND_TIME_ASSIGNMENT ( #551, #464, ( #151 ) ) ;
#1139 = AXIS2_PLACEMENT_3D ( 'NONE', #840, #966, #392 ) ;
#1140 = CARTESIAN_POINT ( 'NONE',  ( -1.499999999999999556, 9.400000000000000355, 1.500000000000000444 ) ) ;
#1141 = PERSON_AND_ORGANIZATION_ROLE ( 'creator' ) ;
#1142 = ORIENTED_EDGE ( 'NONE', *, *, #237, .F. ) ;
#1143 = CARTESIAN_POINT ( 'NONE',  ( 2.263963562700209042, 10.26109961898878176, -3.434274888601632547 ) ) ;
#1144 = EDGE_LOOP ( 'NONE', ( #218, #848, #1056, #292, #124, #1068, #8, #791 ) ) ;
#1145 = CARTESIAN_POINT ( 'NONE',  ( -0.9023449132014549345, 4.596774976580037197, -4.025476176053341071 ) ) ;
#1146 = ADVANCED_FACE ( 'NONE', ( #638 ), #574, .T. ) ;
#1147 = CARTESIAN_POINT ( 'NONE',  ( 0.7500000000000000000, 15.40000000000000036, 7.758315481586230702E-17 ) ) ;
#1148 = VERTEX_POINT ( 'NONE', #85 ) ;
#1149 = CARTESIAN_POINT ( 'NONE',  ( 0.1775264718215052717, 5.736291453762529358, 4.106414793301828681 ) ) ;
#1150 = VERTEX_POINT ( 'NONE', #813 ) ;
#1151 = DIRECTION ( 'NONE',  ( -0.000000000000000000, -1.000000000000000000, -0.000000000000000000 ) ) ;
#1152 = CARTESIAN_POINT ( 'NONE',  ( 2.525000000000003020, 15.00000000000001066, -3.230228320103702533 ) ) ;
#1153 = DIRECTION ( 'NONE',  ( 0.000000000000000000, -1.000000000000000000, 0.000000000000000000 ) ) ;
#1154 = EDGE_CURVE ( 'NONE', #1148, #316, #1100, .T. ) ;
#1155 = PRODUCT ( 'InRunnerEccentricCam', 'InRunnerEccentricCam', '', ( #366 ) ) ;
#1156 = DIRECTION ( 'NONE',  ( 0.000000000000000000, 0.000000000000000000, -1.000000000000000000 ) ) ;
#1157 = VERTEX_POINT ( 'NONE', #1181 ) ;
#1158 = CARTESIAN_POINT ( 'NONE',  ( -3.159788468496687930, 5.182123271313436419, 2.427973508644289513 ) ) ;
#1159 = DIRECTION ( 'NONE',  ( -1.000000000000000000, -0.000000000000000000, -0.000000000000000000 ) ) ;
#1160 = ORIENTED_EDGE ( 'NONE', *, *, #1154, .F. ) ;
#1161 = EDGE_CURVE ( 'NONE', #266, #1051, #937, .T. ) ;
#1162 = DIRECTION ( 'NONE',  ( -0.000000000000000000, 1.000000000000000000, -0.000000000000000000 ) ) ;
#1163 = CIRCLE ( 'NONE', #514, 4.200000000000008171 ) ;
#1164 = CARTESIAN_POINT ( 'NONE',  ( 2.525000000000003020, 10.31421650120357825, -3.230228320103702533 ) ) ;
#1165 = ORIENTED_EDGE ( 'NONE', *, *, #252, .T. ) ;
#1166 = CARTESIAN_POINT ( 'NONE',  ( 1.070288945444119344, 10.02877624053288663, 3.971223759467115144 ) ) ;
#1167 = DIRECTION ( 'NONE',  ( 0.000000000000000000, 0.000000000000000000, -1.000000000000000000 ) ) ;
#1168 = ADVANCED_BREP_SHAPE_REPRESENTATION ( 'InRunnerEccentricCam', ( #250, #732 ), #114 ) ;
#1169 = DIRECTION ( 'NONE',  ( 0.000000000000000000, -1.000000000000000000, 0.000000000000000000 ) ) ;
#1170 = EDGE_LOOP ( 'NONE', ( #591, #1142, #1111, #580 ) ) ;
#1171 = CARTESIAN_POINT ( 'NONE',  ( -3.235586456488424467, 5.215590986386787975, 2.301559931650551505 ) ) ;
#1172 = FACE_OUTER_BOUND ( 'NONE', #1170, .T. ) ;
#1173 = CC_DESIGN_PERSON_AND_ORGANIZATION_ASSIGNMENT ( #935, #101, ( #614 ) ) ;
#1174 = CARTESIAN_POINT ( 'NONE',  ( 0.2535469570195820199, 5.722409619061378905, -4.100000000000006750 ) ) ;
#1175 = CARTESIAN_POINT ( 'NONE',  ( -0.7500000000000000000, 15.40000000000000036, -4.600000000000000533 ) ) ;
#1176 = EDGE_LOOP ( 'NONE', ( #871, #668, #545, #565 ) ) ;
#1177 = FACE_OUTER_BOUND ( 'NONE', #906, .T. ) ;
#1178 = CARTESIAN_POINT ( 'NONE',  ( 3.605928737114394877, 4.815997463271039614, 1.486133390226839879 ) ) ;
#1179 = EDGE_CURVE ( 'NONE', #696, #385, #1097, .T. ) ;
#1180 = CARTESIAN_POINT ( 'NONE',  ( -2.525000000000002132, 15.40000000000000036, -3.230228320103702977 ) ) ;
#1181 = CARTESIAN_POINT ( 'NONE',  ( -2.339973189144065380, 9.400000000000000355, -1.133369081141247126 ) ) ;
#1182 = AXIS2_PLACEMENT_3D ( 'NONE', #642, #534, #912 ) ;
#1183 = ORIENTED_EDGE ( 'NONE', *, *, #125, .T. ) ;
#1184 = CARTESIAN_POINT ( 'NONE',  ( 2.525000000000004352, 15.00000000000001066, 3.230228320103701645 ) ) ;
#1185 = EDGE_CURVE ( 'NONE', #1051, #942, #75, .T. ) ;
#1186 = CARTESIAN_POINT ( 'NONE',  ( 0.000000000000000000, 15.40000000000000036, 0.000000000000000000 ) ) ;
#1187 = VERTEX_POINT ( 'NONE', #914 ) ;
#1188 = EDGE_CURVE ( 'NONE', #1131, #246, #348, .T. ) ;
#1189 = CARTESIAN_POINT ( 'NONE',  ( 0.7500000000000000000, 10.90000000000000036, 0.000000000000000000 ) ) ;
#1190 = CARTESIAN_POINT ( 'NONE',  ( 2.525000000000004352, 15.40000000000000036, 3.230228320103701645 ) ) ;
#1191 = VERTEX_POINT ( 'NONE', #265 ) ;
#1192 = CARTESIAN_POINT ( 'NONE',  ( 1.500000000000000000, -0.0009999999999992653654, 1.500000000000000444 ) ) ;
#1193 = CC_DESIGN_PERSON_AND_ORGANIZATION_ASSIGNMENT ( #20, #562, ( #135 ) ) ;
#1194 = LINE ( 'NONE', #836, #731 ) ;
#1195 = ORIENTED_EDGE ( 'NONE', *, *, #951, .F. ) ;
#1196 = CIRCLE ( 'NONE', #772, 4.600000000000000533 ) ;
#1197 = CARTESIAN_POINT ( 'NONE',  ( -0.7500000000000000000, 15.40000000000000036, 9.184850993605149670E-17 ) ) ;
#1198 = ORIENTED_EDGE ( 'NONE', *, *, #716, .T. ) ;
#1199 = CARTESIAN_POINT ( 'NONE',  ( -1.500000000000000222, 9.400000000000000355, -1.499999999999999556 ) ) ;
#1200 = FACE_OUTER_BOUND ( 'NONE', #972, .T. ) ;
#1201 = EDGE_CURVE ( 'NONE', #942, #488, #122, .T. ) ;
#1202 = ORIENTED_EDGE ( 'NONE', *, *, #423, .T. ) ;
ENDSEC;
END-ISO-10303-21;
